<svg width="1417" height="991" viewBox="0 0 1417 991" fill="none" xmlns="http://www.w3.org/2000/svg">
<rect x="-0.0078125" y="0.165039" width="1416.71" height="990.496" fill="white"/>
<path d="M158.984 473.164V401.076H185.76C195.577 401.076 203.85 404.543 210.578 411.477C217.375 418.343 220.774 426.89 220.774 437.12C220.774 447.35 217.375 455.931 210.578 462.865C203.85 469.731 195.577 473.164 185.76 473.164H158.984ZM175.462 457.201H185.76C190.977 457.201 195.371 455.313 198.941 451.537C202.511 447.761 204.296 442.956 204.296 437.12C204.296 431.284 202.511 426.478 198.941 422.702C195.371 418.926 190.977 417.038 185.76 417.038H175.462V457.201Z" fill="#002236"/>
<path d="M274.013 466.572C268.933 471.653 262.41 474.193 254.446 474.193C246.483 474.193 239.926 471.653 234.777 466.572C229.696 461.423 227.156 454.866 227.156 446.903C227.156 438.939 229.696 432.416 234.777 427.336C239.926 422.187 246.483 419.612 254.446 419.612C262.41 419.612 268.933 422.187 274.013 427.336C279.162 432.416 281.737 438.939 281.737 446.903C281.737 454.866 279.162 461.423 274.013 466.572ZM245.899 456.274C248.165 458.608 251.014 459.775 254.446 459.775C257.879 459.775 260.694 458.608 262.891 456.274C265.157 453.871 266.289 450.747 266.289 446.903C266.289 443.058 265.157 439.968 262.891 437.634C260.694 435.231 257.879 434.03 254.446 434.03C251.014 434.03 248.165 435.231 245.899 437.634C243.702 439.968 242.604 443.058 242.604 446.903C242.604 450.747 243.702 453.871 245.899 456.274Z" fill="#002236"/>
<path d="M290.188 473.163V420.642H303.575L304.605 425.276H305.12C305.944 424.315 307.111 423.388 308.621 422.496C311.573 420.573 315.212 419.612 319.537 419.612C325.716 419.612 330.762 421.638 334.676 425.688C338.658 429.67 340.649 434.854 340.649 441.239V473.163H325.201V444.328C325.201 441.445 324.275 439.11 322.421 437.325C320.636 435.472 318.302 434.545 315.418 434.545C312.535 434.545 310.166 435.472 308.312 437.325C306.527 439.11 305.635 441.445 305.635 444.328V473.163H290.188Z" fill="#002236"/>
<path d="M351.141 425.792V401.076H365.043V425.792H351.141Z" fill="#002236"/>
<path d="M381.215 458.747V435.061H372.977V420.643H381.215V404.166H396.662V420.643H408.505V435.061H396.662V455.142C396.662 457.545 397.864 458.747 400.267 458.747H408.505V473.164H396.148C386.193 473.164 381.215 468.358 381.215 458.747Z" fill="#002236"/>
<path d="M445.484 473.164V401.076H460.932V473.164H445.484Z" fill="#002236"/>
<path d="M506.956 457.201H522.404C521.168 460.428 519.417 463.277 517.152 465.748C511.797 471.378 505.137 474.193 497.173 474.193C489.209 474.193 482.653 471.653 477.503 466.572C472.423 461.423 469.883 454.866 469.883 446.903C469.883 438.939 472.423 432.416 477.503 427.336C482.653 422.187 489.209 419.612 497.173 419.612C504.862 419.612 511.247 422.118 516.328 427.13C521.408 432.142 523.948 438.389 523.948 445.873C523.948 446.834 523.845 448.138 523.639 449.786L523.434 451.022H485.33C485.605 454.18 486.806 456.789 488.935 458.848C491.131 460.839 493.878 461.835 497.173 461.835C499.919 461.835 502.391 461.08 504.588 459.569C505.686 458.745 506.476 457.956 506.956 457.201ZM485.33 441.753H509.016C507.506 434.888 503.558 431.455 497.173 431.455C490.788 431.455 486.841 434.888 485.33 441.753Z" fill="#002236"/>
<path d="M535.489 458.747V435.061H527.25V420.643H535.489V404.166H550.936V420.643H562.779V435.061H550.936V455.142C550.936 457.545 552.137 458.747 554.54 458.747H562.779V473.164H550.421C540.466 473.164 535.489 468.358 535.489 458.747Z" fill="#002236"/>
<path d="M596.147 493.761V479.343H606.445C608.505 479.343 609.706 478.657 610.05 477.284L610.564 475.739L589.453 420.644H605.93L618.288 453.598H620.348L630.646 420.644H647.123L625.497 481.403C623.918 485.934 621.858 489.127 619.318 490.98C616.778 492.834 612.658 493.761 606.96 493.761H596.147Z" fill="#002236"/>
<path d="M694.701 466.572C689.62 471.653 683.098 474.193 675.134 474.193C667.17 474.193 660.614 471.653 655.464 466.572C650.384 461.423 647.844 454.866 647.844 446.903C647.844 438.939 650.384 432.416 655.464 427.336C660.614 422.187 667.17 419.612 675.134 419.612C683.098 419.612 689.62 422.187 694.701 427.336C699.85 432.416 702.424 438.939 702.424 446.903C702.424 454.866 699.85 461.423 694.701 466.572ZM666.586 456.274C668.852 458.608 671.701 459.775 675.134 459.775C678.567 459.775 681.382 458.608 683.579 456.274C685.844 453.871 686.977 450.747 686.977 446.903C686.977 443.058 685.844 439.968 683.579 437.634C681.382 435.231 678.567 434.03 675.134 434.03C671.701 434.03 668.852 435.231 666.586 437.634C664.39 439.968 663.291 443.058 663.291 446.903C663.291 450.747 664.39 453.871 666.586 456.274Z" fill="#002236"/>
<path d="M710.859 452.568V420.644H726.307V449.479C726.307 452.362 727.199 454.731 728.984 456.584C730.838 458.369 733.207 459.262 736.09 459.262C738.974 459.262 741.308 458.369 743.093 456.584C744.946 454.731 745.873 452.362 745.873 449.479V420.644H761.321V473.164H747.933L746.903 468.53H746.388C745.564 469.491 744.397 470.453 742.887 471.414C740.072 473.267 736.433 474.194 731.971 474.194C725.792 474.194 720.711 472.203 716.729 468.221C712.816 464.171 710.859 458.953 710.859 452.568Z" fill="#002236"/>
<path d="M772.344 473.164V420.644H785.731L786.761 424.763H787.276C787.963 423.939 788.684 423.252 789.439 422.703C791.292 421.33 793.661 420.644 796.545 420.644H806.328V435.061H797.059C790.881 435.061 787.791 438.151 787.791 444.33V473.164H772.344Z" fill="#002236"/>
<path d="M841.246 473.164V435.06H833.008V420.643H841.246V413.434C841.246 403.822 846.224 399.017 856.179 399.017H868.022V411.889H860.298C857.895 411.889 856.694 413.091 856.694 415.494V420.643H868.022V435.06H856.694V473.164H841.246Z" fill="#002236"/>
<path d="M875.945 452.568V420.644H891.393V449.479C891.393 452.362 892.285 454.731 894.07 456.584C895.924 458.369 898.292 459.262 901.176 459.262C904.059 459.262 906.394 458.369 908.179 456.584C910.032 454.731 910.959 452.362 910.959 449.479V420.644H926.407V473.164H913.019L911.989 468.53H911.474C910.65 469.491 909.483 470.453 907.973 471.414C905.158 473.267 901.519 474.194 897.057 474.194C890.878 474.194 885.797 472.203 881.815 468.221C877.902 464.171 875.945 458.953 875.945 452.568Z" fill="#002236"/>
<path d="M937.43 473.163V420.642H950.817L951.847 425.276H952.362C953.186 424.315 954.353 423.388 955.864 422.496C958.816 420.573 962.454 419.612 966.78 419.612C972.959 419.612 978.005 421.638 981.918 425.688C985.9 429.67 987.891 434.854 987.891 441.239V473.163H972.444V444.328C972.444 441.445 971.517 439.11 969.663 437.325C967.878 435.472 965.544 434.545 962.66 434.545C959.777 434.545 957.408 435.472 955.555 437.325C953.77 439.11 952.877 441.445 952.877 444.328V473.163H937.43Z" fill="#002236"/>
<path d="M1037.01 473.164L1035.98 468.015H1035.47C1034.51 469.113 1033.37 470.143 1032.07 471.104C1028.91 473.164 1025.24 474.193 1021.05 474.193C1013.98 474.193 1008.01 471.619 1003.13 466.47C998.258 461.321 995.82 454.799 995.82 446.903C995.82 439.008 998.258 432.486 1003.13 427.337C1008.01 422.188 1013.98 419.613 1021.05 419.613C1024.83 419.613 1028.23 420.471 1031.25 422.188C1032.21 422.737 1033.27 423.595 1034.44 424.762H1034.95V401.076H1050.4V473.164H1037.01ZM1014.56 456.275C1016.83 458.609 1019.68 459.776 1023.11 459.776C1026.54 459.776 1029.36 458.609 1031.56 456.275C1033.82 453.872 1034.95 450.748 1034.95 446.903C1034.95 443.059 1033.82 439.969 1031.56 437.635C1029.36 435.232 1026.54 434.03 1023.11 434.03C1019.68 434.03 1016.83 435.232 1014.56 437.635C1012.37 439.969 1011.27 443.059 1011.27 446.903C1011.27 450.748 1012.37 453.872 1014.56 456.275Z" fill="#002236"/>
<path d="M1184.89 395.366C1184.89 395.366 1194 402.809 1193.89 405.404C1193.7 410.041 1186.06 415.343 1186.06 415.343C1186.06 415.343 1193.61 422.775 1193.43 424.968C1193.17 428.265 1184.94 432.192 1184.94 432.192C1184.94 432.192 1191.76 438.83 1191.64 441.379C1191.52 443.944 1182.36 449.966 1182.36 449.966C1182.36 449.966 1191.02 455.859 1191.24 458.338C1191.38 460.078 1182.77 466.14 1182.77 466.14C1182.77 466.14 1191.1 472.4 1191.21 474.123C1191.45 477.928 1182.35 482.027 1182.35 482.027C1182.35 482.027 1191.84 487.098 1192.02 488.911C1192.28 491.525 1186.29 499.687 1186.29 499.687C1186.29 499.687 1195.53 499.532 1196.67 500.972C1198.52 503.316 1194.99 515.704 1194.99 515.704C1194.99 515.704 1202.95 508.036 1205.86 508.586C1208.15 509.014 1211.49 519.848 1211.49 519.848C1211.49 519.848 1214.93 508.209 1217.23 507.201C1218.65 506.581 1227.71 513.925 1227.71 513.925C1227.71 513.925 1228.25 502.68 1229.89 501.565C1231.46 500.5 1241.85 502.752 1241.85 502.752C1241.85 502.752 1241.37 494.691 1242.64 493.656C1244.22 492.373 1251.44 494.151 1251.44 494.151C1251.44 494.151 1251.02 484.931 1252.83 483.67C1254.39 482.576 1261.23 485.747 1261.23 485.747L1242.84 511.157L1209.03 526.284L1185.1 520.253L1175.31 505.225L1177.39 411.395L1181.74 402.695L1184.89 395.366Z" fill="#34A13C"/>
<path d="M1138.28 416.196C1138.28 416.196 1092.15 426.28 1091.19 425.958C1090.58 426.142 1083.5 422.176 1081.67 421.586C1079.59 419.978 1075.62 422.641 1078.74 425.314L1085.39 431.106L1083.01 430.427C1077.3 430.02 1079.47 433.192 1083.63 433.115L1083.71 435.611L1077.7 438.935C1076 439.841 1075.63 443.195 1078.88 442.797L1086.28 441.725L1081.82 443.438C1078.99 445.499 1083.05 448.249 1085.92 446.79L1104.3 440.223L1128.54 433.26L1138.28 416.196Z" fill="#77B52A"/>
<path d="M1163.35 596.092C1231.66 596.092 1287.03 584.665 1287.03 570.569C1287.03 556.474 1231.66 545.047 1163.35 545.047C1095.05 545.047 1039.67 556.474 1039.67 570.569C1039.67 584.665 1095.05 596.092 1163.35 596.092Z" fill="#F0F0F1"/>
<path d="M1150.75 543.813C1151.19 552.091 1152.55 567.444 1152.08 568.649C1151.34 569.941 1143.5 574.961 1139.21 578.117C1138.13 578.759 1137.08 578.264 1137.39 576.292L1137.92 573.576L1130.57 575.943C1127.49 576.593 1126.79 573.378 1128.2 572.197L1132.75 568.452L1128.83 568.378C1124.97 568.304 1126.37 565.544 1128.16 564.852L1137.42 561.7L1136.82 539.224L1150.31 539.312L1150.75 543.813Z" fill="#77B52A"/>
<path d="M1117.28 534.322C1119.8 535.316 1122.43 536.014 1125.08 536.215C1127.83 536.422 1130.59 536.142 1133.23 535.265C1134.54 534.822 1135.83 534.234 1137.06 533.474C1138.3 532.716 1139.49 531.787 1140.61 530.681L1113.38 530.171C1114.61 531.614 1115.88 533.021 1117.28 534.322Z" fill="#D3D95D"/>
<path d="M1102.59 406.34L1105.54 407.229L1102.85 419.7L1100.9 428.766L1100.69 429.784C1099.88 435.369 1099.39 437.266 1097.92 447.439C1097.71 448.888 1097.92 448.015 1097.64 449.954C1097.52 451.475 1097.45 453.737 1097.41 455.577C1097.31 459.017 1097.17 462.331 1097.19 466.09C1097.19 468.685 1096.94 470.613 1097.04 473.347C1097.12 475.427 1097.04 477.35 1097.21 479.488C1097.37 481.747 1097.29 483.822 1097.55 486.126C1098.03 490.39 1098.7 494.702 1099.63 498.967C1100.16 501.336 1100.47 503.741 1101.17 506.059C1102.9 511.859 1105.13 517.479 1108.16 522.568C1109.74 525.223 1111.4 527.826 1113.4 530.169C1114.63 531.612 1115.89 533.021 1117.3 534.322C1119.81 535.316 1122.44 536.014 1125.1 536.215C1127.85 536.422 1130.61 536.142 1133.24 535.265C1134.56 534.822 1135.84 534.234 1137.08 533.474C1138.31 532.716 1139.5 531.787 1140.62 530.681C1142.65 528.675 1144.44 526.049 1145.93 522.748C1147.13 520.091 1148.18 517.123 1148.91 513.518C1149.06 512.794 1149.25 512.151 1149.37 511.388L1149.56 510.22C1149.7 508.615 1149.76 507.248 1149.87 505.754C1150.11 502.23 1150.36 498.726 1150.61 495.219C1150.78 492.799 1150.97 490.296 1151.12 487.947C1151.33 484.455 1151.72 480.53 1151.88 477.14C1152.06 473.414 1152.1 469.75 1152.18 466.094C1152.26 462.485 1152.47 458.802 1152.47 455.192C1152.47 452.036 1152.4 448.796 1152.32 445.588C1152.15 440.196 1151.95 434.786 1151.51 429.071C1151.24 425.479 1150.85 421.666 1150.45 417.864C1150.21 415.544 1150.1 412.502 1149.71 409.004C1145.76 409.506 1141.95 409.89 1138.18 410.111C1134.41 410.332 1130.68 410.384 1126.88 410.221C1123.08 410.059 1119.21 409.689 1115.15 409.046C1111.18 408.418 1107.01 407.521 1102.59 406.34Z" fill="#D3D95D"/>
<path d="M1140.61 530.681C1142.64 528.676 1144.43 526.05 1145.92 522.749L1108.15 522.571C1109.73 525.225 1111.39 527.828 1113.39 530.171L1140.61 530.681Z" fill="#EFECC3"/>
<path d="M1108.16 522.57L1145.93 522.747C1147.13 520.09 1148.18 517.122 1148.91 513.518L1101.17 506.059C1102.91 511.859 1105.13 517.481 1108.16 522.57Z" fill="#D3D95D"/>
<path d="M1148.91 513.519C1149.05 512.795 1149.24 512.152 1149.37 511.388L1149.55 510.221C1149.69 508.616 1149.76 507.248 1149.86 505.755L1099.62 498.968C1100.15 501.337 1100.47 503.742 1101.16 506.06L1148.91 513.519Z" fill="#EFECC3"/>
<path d="M1149.87 505.755C1150.12 502.231 1150.36 498.727 1150.61 495.219L1097.55 486.127C1098.04 490.391 1098.7 494.703 1099.63 498.968L1149.87 505.755Z" fill="#D3D95D"/>
<path d="M1150.61 495.219C1150.78 492.799 1150.98 490.296 1151.13 487.948L1097.22 479.488C1097.37 481.747 1097.29 483.822 1097.55 486.127L1150.61 495.219Z" fill="#EFECC3"/>
<path d="M1151.12 487.947C1151.33 484.456 1151.72 480.53 1151.88 477.14L1097.03 473.347C1097.11 475.428 1097.03 477.35 1097.21 479.488L1151.12 487.947Z" fill="#D3D95D"/>
<path d="M1151.88 477.141C1152.06 473.415 1152.1 469.751 1152.18 466.095L1097.19 466.091C1097.19 468.686 1096.94 470.614 1097.04 473.348L1151.88 477.141Z" fill="#EFECC3"/>
<path d="M1152.18 466.094C1152.26 462.486 1152.47 458.803 1152.47 455.192L1097.4 455.576C1097.31 459.016 1097.17 462.33 1097.19 466.089L1152.18 466.094Z" fill="#D3D95D"/>
<path d="M1152.47 455.192C1152.47 452.037 1152.4 448.797 1152.31 445.589L1097.91 447.44C1097.7 448.889 1097.91 448.06 1097.63 450.002C1097.53 451.577 1097.44 453.738 1097.4 455.578L1152.47 455.192Z" fill="#EFECC3"/>
<path d="M1152.32 445.59C1152.15 440.197 1151.95 434.787 1151.51 429.072L1100.91 428.77L1100.69 429.789C1099.88 435.374 1099.39 437.271 1097.92 447.443L1152.32 445.59Z" fill="#D3D95D"/>
<path d="M1151.5 429.071C1151.23 425.48 1150.84 421.666 1150.44 417.864L1102.85 419.701L1100.9 428.766L1151.5 429.071Z" fill="#EFECC3"/>
<path d="M1150.45 417.864C1150.21 415.544 1150.1 412.502 1149.71 409.004C1145.76 409.506 1141.95 409.89 1138.19 410.111C1134.42 410.332 1130.69 410.384 1126.89 410.221C1123.08 410.059 1119.21 409.689 1115.15 409.046C1111.18 408.418 1107.02 407.518 1102.59 406.336L1105.54 407.225L1102.86 419.696L1150.45 417.864Z" fill="#D3D95D"/>
<path d="M1138.27 344.268C1132.19 343.288 1125.47 348.93 1124.4 353.636C1122.24 362.422 1123.1 362.25 1122.53 369.76C1116.71 369.76 1111.68 370.151 1104.28 370.041C1098.32 365.941 1089.95 350.665 1081.77 363.819C1075.55 351.727 1069.65 361.342 1069.18 365.357C1067.9 374.024 1066.32 382.496 1076.28 385.542C1076.28 385.541 1076.35 385.541 1076.35 385.542C1076.35 385.544 1076.43 385.546 1076.43 385.55C1080.36 386.015 1084.47 386.774 1088.67 387.703C1092.86 388.631 1097.15 389.728 1101.45 390.852C1110.05 393.101 1118.69 395.469 1126.75 396.887C1130.78 397.596 1134.66 398.065 1138.3 398.169C1141.94 398.273 1145.34 398.014 1148.43 397.265C1149.98 396.888 1151.45 396.395 1152.83 395.765C1154.21 395.137 1155.5 394.367 1156.7 393.444C1157.9 392.521 1159.01 391.444 1160.02 390.192C1161.03 388.94 1161.94 387.512 1162.75 385.893C1162.74 385.871 1162.74 385.842 1162.75 385.819C1162.75 385.79 1162.82 385.768 1162.82 385.745C1162.82 385.716 1162.89 385.694 1162.89 385.672C1162.89 385.642 1162.97 385.62 1162.97 385.598C1162.97 385.568 1163.04 385.546 1163.04 385.524C1163.04 385.494 1163.12 385.472 1163.12 385.45C1163.12 385.42 1163.19 385.398 1163.19 385.376C1163.19 385.375 1163.26 385.375 1163.26 385.376C1163.26 385.375 1163.34 385.375 1163.34 385.376C1163.34 385.375 1163.41 385.375 1163.41 385.376C1163.41 385.375 1163.49 385.375 1163.49 385.376C1163.49 385.375 1163.56 385.375 1163.56 385.376C1163.56 385.375 1163.64 385.375 1163.64 385.376C1163.64 385.375 1163.71 385.375 1163.71 385.376C1163.71 385.375 1163.78 385.375 1163.78 385.376C1163.78 385.375 1163.86 385.375 1163.86 385.376C1163.86 385.375 1163.93 385.375 1163.93 385.376C1163.93 385.398 1164.01 385.42 1164.01 385.45C1164.01 385.472 1164.08 385.494 1164.08 385.524C1164.08 385.546 1164.15 385.568 1164.15 385.598C1164.15 385.62 1164.23 385.642 1164.23 385.672C1164.23 385.694 1164.3 385.716 1164.3 385.745C1164.3 385.768 1164.3 385.797 1164.3 385.819C1164.3 385.842 1164.3 385.871 1164.3 385.893C1164.3 385.915 1164.3 385.945 1164.3 385.967C1164.3 385.989 1164.3 386.019 1164.3 386.041C1164.3 386.063 1164.3 386.093 1164.3 386.115C1164.3 386.137 1164.3 386.167 1164.3 386.189C1164.3 386.211 1164.29 386.24 1164.29 386.263C1164.29 386.285 1164.29 386.314 1164.29 386.336C1164.29 386.359 1164.29 386.388 1164.29 386.41C1164.29 386.432 1164.29 386.462 1164.29 386.484C1163.44 388.193 1162.47 389.706 1161.39 391.042C1160.31 392.377 1159.11 393.535 1157.82 394.527C1156.53 395.52 1155.14 396.348 1153.67 397.027C1152.19 397.707 1150.64 398.235 1149.01 398.63C1145.76 399.421 1142.23 399.693 1138.49 399.588C1134.75 399.485 1130.8 398.997 1126.72 398.283C1118.57 396.848 1109.88 394.474 1101.29 392.229C1097 391.107 1092.73 390.014 1088.57 389.092C1084.47 388.182 1080.48 387.445 1076.66 386.988C1076.82 393.437 1078.91 397.945 1083.14 400.322L1102.84 406.28C1107.27 407.462 1111.43 408.363 1115.4 408.99C1119.46 409.633 1123.33 410.006 1127.13 410.166C1130.94 410.328 1134.67 410.269 1138.43 410.048C1142.2 409.826 1146 409.442 1149.96 408.94C1150.35 412.439 1150.46 415.481 1150.7 417.801C1151.1 421.602 1151.49 425.416 1151.76 429.008C1152.2 434.723 1152.4 440.133 1152.58 445.525C1152.68 448.733 1152.72 451.972 1152.73 455.129C1152.73 458.739 1152.51 462.422 1152.43 466.031C1152.35 469.687 1152.31 473.352 1152.13 477.078C1151.97 480.467 1151.59 484.392 1151.38 487.883C1151.23 490.233 1151.04 492.735 1150.87 495.156C1150.62 498.663 1150.37 502.167 1150.12 505.691C1150.02 507.184 1149.95 508.552 1149.81 510.157L1149.63 511.325C1149.5 512.087 1149.32 512.733 1149.17 513.455C1148.44 517.06 1147.39 520.027 1146.19 522.685C1144.7 525.983 1142.9 528.613 1140.87 530.617C1139.75 531.724 1138.56 532.653 1137.33 533.412C1136.09 534.17 1134.81 534.761 1133.49 535.202C1130.86 536.083 1128.1 536.361 1125.35 536.152C1122.7 535.953 1120.06 535.253 1117.55 534.259C1122.64 538.981 1128.86 542.736 1136.53 545.004C1148.47 548.714 1160.35 552.248 1172.61 552.223C1215.1 552.134 1229.61 542.747 1243.19 533.282C1265.71 516.68 1279 479.391 1273.72 477.219C1262.14 472.472 1198.19 569.167 1183.11 485.609C1177.36 445.338 1199.08 374.616 1174.82 350.889C1170.59 347.585 1162.84 345.57 1158.79 355.294C1156.69 363.193 1156.48 355.718 1150.77 355.535C1149.64 355.431 1148.75 358.413 1147.8 354.008C1146.31 349.531 1142.61 344.966 1138.53 344.205L1138.27 344.268Z" fill="#A2CB41"/>
<path d="M1167.92 375.888C1163.21 375.888 1159.39 370.692 1159.39 364.282C1159.39 357.873 1163.21 352.677 1167.92 352.677C1172.63 352.677 1176.45 357.873 1176.45 364.282C1176.45 370.692 1172.63 375.888 1167.92 375.888Z" fill="white"/>
<path d="M1166.68 370.893C1164.33 371.139 1162.16 368.746 1161.82 365.549C1161.49 362.352 1163.12 359.561 1165.47 359.315C1167.82 359.069 1170 361.462 1170.33 364.659C1170.67 367.857 1169.03 370.648 1166.68 370.893Z" fill="black"/>
<path d="M1136.13 372.452C1131.42 372.452 1127.6 367.256 1127.6 360.847C1127.6 354.437 1131.42 349.241 1136.13 349.241C1140.84 349.241 1144.66 354.437 1144.66 360.847C1144.66 367.256 1140.84 372.452 1136.13 372.452Z" fill="white"/>
<path d="M1134.9 367.937C1132.54 368.09 1130.46 365.613 1130.25 362.405C1130.04 359.197 1131.79 356.473 1134.15 356.32C1136.5 356.167 1138.58 358.644 1138.79 361.851C1139 365.059 1137.26 367.784 1134.9 367.937Z" fill="black"/>
<path d="M1087.44 412.933C1080.65 416.087 1076.99 419.697 1074.53 424.483C1072.02 429.372 1071.8 434.118 1073.89 438.717C1075.88 443.115 1078.8 445.949 1082.63 447.226C1086.51 448.405 1091.64 448.035 1098.03 446.119L1106.1 443.687C1108.56 442.985 1110.39 442.804 1111.61 443.148C1112.82 443.495 1113.79 444.444 1114.49 445.999C1115.13 447.42 1114.97 448.96 1114.01 450.618C1113.09 452.178 1111.3 453.556 1108.66 454.752C1105.15 456.346 1102.19 456.466 1099.78 455.107C1098.8 454.568 1097.97 453.724 1097.28 452.569C1095.9 450.222 1081.53 457.395 1082.87 459.539C1084.43 462.313 1086.28 464.292 1089.42 466.528C1096.02 470.469 1104.12 470.261 1113.73 465.908C1120.96 462.628 1125.88 458.528 1128.46 453.609C1131.04 448.689 1131.28 443.929 1129.2 439.328C1124.97 429.994 1116.77 427.19 1104.6 430.912L1096.52 433.344C1092.19 434.573 1089.55 434.143 1088.6 432.046C1087.98 430.692 1088.14 429.317 1089.06 427.922C1089.94 426.461 1091.64 425.163 1094.14 424.03C1097.05 422.711 1099.63 422.476 1101.89 423.328C1102.78 423.66 1103.58 424.194 1104.32 424.92C1104.81 425.694 1113.19 420.11 1112.85 418.743L1110.87 417.162L1106.09 419.717L1104.41 414.973L1100.85 419.106L1097.6 414.69L1092.75 419.717L1087.44 412.933Z" fill="#002236"/>
<path d="M1181.64 422.882C1181.64 422.882 1127.7 443.822 1126.47 443.615C1125.78 443.955 1116.45 440.489 1114.12 440.124C1111.3 438.569 1106.99 442.546 1111.28 445.19L1120.43 450.945L1106.7 451.625C1099.71 452.216 1102.87 458.441 1107.9 457.559L1119.21 456.722L1112.57 461.885C1110.38 463.216 1110.16 467.811 1114.73 466.338L1123.48 463.638L1117.86 468.509C1114.82 471.542 1120.41 473.712 1123.6 471.404L1145.02 458.408L1173.05 445.389L1181.64 422.882Z" fill="#A2CB41"/>
<path d="M1088.55 367.266C1089.56 367.266 1090.38 366.088 1090.38 364.635C1090.38 363.182 1089.56 362.004 1088.55 362.004C1087.54 362.004 1086.73 363.182 1086.73 364.635C1086.73 366.088 1087.54 367.266 1088.55 367.266Z" fill="black"/>
<path d="M1161.61 389.842C1162.05 390.44 1162.52 390.975 1162.79 391.348C1167.07 397.478 1160.84 396.922 1158.94 394.454C1158.67 394.092 1158.18 393.389 1158.05 393.044L1157.45 393.207C1160.47 408.397 1152.24 404.103 1150.89 400.012C1150.61 399.174 1149.76 395.992 1149.65 395.344L1146.42 397.218C1147.47 408.542 1141.66 405.893 1140.49 400.307C1140.34 399.627 1140.32 398.456 1140.34 397.719L1132.79 397.402C1132.87 398.894 1133.07 401.161 1132.86 402.197C1131.93 406.835 1127.87 405.693 1127.54 401.946C1127.45 400.987 1127.11 398.147 1127.22 397.008L1119.65 395.271C1119.45 396.781 1119.02 398.748 1118.74 399.772C1117.76 403.199 1114.26 402.896 1113.9 399.329C1113.78 398.053 1114.16 395.828 1114.49 394.233L1106.94 392.393L1106.71 395.133C1106.2 400.675 1100.42 400.028 1101.01 395.207L1101.28 390.781L1094.63 389.385L1093.31 393.08C1092.44 395.576 1088.29 397.639 1088.58 391.588L1088.91 387.614L1086.37 387.09L1085.35 390.717C1084.09 395.108 1079.6 395.936 1079.45 389.379L1079.81 385.188L1081.22 381.091L1156.69 379.473L1161.61 389.842Z" fill="white"/>
<path d="M1076.68 385.188C1115.36 395.29 1152.96 408.182 1163.18 387.285L1159.84 374.823L1082.36 379.018L1076.68 385.188Z" fill="#A2CB41"/>
<path d="M1149.93 397.555C1150.83 394.628 1151.23 392.315 1151.48 390.233C1152.42 381.028 1144.27 383.354 1143.11 389.279C1141.6 394.742 1139.89 399.265 1140.06 398.753C1143.79 398.207 1146.89 399.59 1149.93 397.555Z" fill="#ED1B24"/>
<path d="M1076.41 387.048C1080.23 387.506 1084.22 388.242 1088.32 389.152C1092.48 390.074 1096.75 391.167 1101.04 392.289C1109.63 394.533 1118.32 396.908 1126.48 398.343C1130.55 399.059 1134.5 399.544 1138.24 399.648C1141.98 399.751 1145.51 399.478 1148.76 398.69C1150.39 398.298 1151.94 397.766 1153.42 397.087C1154.89 396.408 1156.28 395.579 1157.57 394.587C1158.86 393.595 1160.06 392.437 1161.14 391.102C1162.22 389.766 1163.19 388.253 1164.04 386.544C1164.04 386.519 1164.04 386.495 1164.04 386.47C1164.04 386.446 1164.04 386.421 1164.04 386.396C1164.04 386.372 1164.04 386.347 1164.04 386.322C1164.04 386.298 1164.04 386.273 1164.04 386.249C1164.04 386.224 1164.04 386.199 1164.04 386.175C1164.05 386.15 1164.05 386.125 1164.04 386.101C1164.05 386.076 1164.05 386.052 1164.04 386.027C1164.05 386.002 1164.05 385.978 1164.04 385.953C1164.05 385.929 1164.05 385.904 1164.04 385.879C1164.05 385.855 1164.05 385.83 1164.04 385.805C1164.02 385.779 1164 385.754 1163.97 385.732C1163.95 385.705 1163.92 385.68 1163.9 385.658C1163.87 385.631 1163.85 385.607 1163.82 385.584C1163.8 385.557 1163.78 385.533 1163.75 385.51C1163.73 385.484 1163.7 385.459 1163.67 385.436C1163.65 385.435 1163.63 385.435 1163.6 385.436C1163.58 385.435 1163.55 385.435 1163.53 385.436C1163.5 385.435 1163.48 385.435 1163.45 385.436C1163.43 385.435 1163.4 385.435 1163.38 385.436C1163.35 385.432 1163.33 385.43 1163.31 385.429C1163.28 385.427 1163.26 385.427 1163.23 385.429C1163.21 385.43 1163.18 385.432 1163.16 385.436C1163.13 385.435 1163.1 385.435 1163.08 385.436C1163.06 385.435 1163.03 385.435 1163.01 385.436C1162.98 385.435 1162.96 385.435 1162.93 385.436C1162.91 385.459 1162.88 385.484 1162.86 385.51C1162.83 385.533 1162.81 385.557 1162.78 385.584C1162.76 385.607 1162.73 385.631 1162.71 385.658C1162.68 385.68 1162.66 385.705 1162.64 385.732C1162.61 385.754 1162.59 385.779 1162.56 385.805C1162.54 385.828 1162.51 385.853 1162.49 385.879C1162.49 385.904 1162.49 385.929 1162.49 385.953C1161.69 387.572 1160.77 388.999 1159.76 390.251C1158.75 391.503 1157.64 392.581 1156.44 393.504C1155.24 394.426 1153.95 395.195 1152.57 395.825C1151.19 396.453 1149.72 396.95 1148.18 397.325C1145.09 398.075 1141.68 398.334 1138.04 398.229C1134.4 398.126 1130.52 397.653 1126.49 396.947C1118.44 395.529 1109.79 393.161 1101.19 390.912C1096.89 389.788 1092.61 388.691 1088.41 387.763C1084.21 386.834 1080.11 386.074 1076.17 385.61C1076.15 385.606 1076.12 385.603 1076.1 385.602C1076.07 385.601 1076.05 385.601 1076.02 385.602C1076.02 386.141 1076.1 386.577 1076.11 387.091L1076.41 387.048Z" fill="black"/>
<path d="M1186.72 547.026C1187 555.869 1187.91 571.795 1186.72 573.555C1184.84 575.852 1177.26 579.696 1172.08 583.024C1168.58 585.022 1168.24 582.522 1168.94 581.061L1169.82 579.283L1163.01 580.113C1160.77 580.571 1157.72 579.131 1160.59 576.528L1165.07 572.918H1159.74C1157.32 572.918 1156.76 570.145 1159.54 569.227L1170.56 566.755L1170.89 528.385L1184.66 537.891L1186.72 547.026Z" fill="#A2CB41"/>
<path d="M1149.36 511.39L1149.55 510.223C1149.55 510.378 1149.55 510.496 1149.48 510.658C1149.4 510.924 1149.36 511.131 1149.31 511.39L1149.36 511.39Z" fill="#D2D75F"/>
<path d="M1093.11 556.692L1087.35 560.785C1091.19 560.645 1095.98 559.364 1098.66 561.088L1104.33 557.45C1101.6 556.151 1097.98 555.778 1093.11 556.692Z" fill="#002236"/>
<path d="M1103.83 562.336L1112.03 563.21L1110.17 560.826L1111.85 557.396C1109.14 559.01 1106.12 560.338 1103.83 562.336Z" fill="#002236"/>
<path d="M1100.27 568.035L1102.92 572.493C1103.71 571.662 1104.8 570.145 1105.57 569.299C1106.33 568.461 1106.63 567.996 1106.96 566.838C1105.6 566.624 1104.16 566.91 1100.27 568.035Z" fill="#002236"/>
<path d="M1087.54 566.758L1090.07 567.995L1093.57 569.209L1098.42 565.949C1100.19 562.685 1091.21 564.604 1087.54 566.758Z" fill="#002236"/>
<path d="M1125.28 359.638C1131.37 358.479 1140.45 359.113 1146.59 361.932L1143.78 350.564L1137.32 345.416L1129.03 348.295L1125.28 359.638Z" fill="#A2CB41"/>
<path d="M1160.89 357.006L1158.83 362.502C1165.93 361.616 1172.31 362.2 1179.15 365.835L1175.19 355.784L1169.78 351.945L1163.68 352.47L1160.89 357.006Z" fill="#A2CB41"/>
<path d="M1072.7 429.663C1075.98 429.899 1076.55 432.634 1075.05 434.11C1074.31 434.494 1073.47 434.605 1072.61 434.612C1070.44 434.538 1070.96 429.707 1072.7 429.663Z" fill="#77B52A"/>
<path d="M1072.81 436.558C1074.6 434.082 1078.05 435.815 1077.34 438.258C1076.81 439.475 1076.3 439.654 1074.5 440.041C1072.91 440.226 1072.11 437.481 1072.81 436.558Z" fill="#77B52A"/>
<path d="M1075.13 441.241C1076.8 439.675 1079.39 440.168 1079.31 442.686C1079.23 443.427 1078.75 443.938 1078.08 444.532C1077.15 445.346 1073.87 442.651 1075.13 441.241Z" fill="#77B52A"/>
<path d="M1074.82 366.088C1075.71 366.088 1076.43 365.05 1076.43 363.768C1076.43 362.487 1075.71 361.448 1074.82 361.448C1073.93 361.448 1073.21 362.487 1073.21 363.768C1073.21 365.05 1073.93 366.088 1074.82 366.088Z" fill="black"/>
<path d="M410.069 594.063H426.031C426.306 595.093 426.889 596.054 427.782 596.947C429.635 598.801 432.313 599.727 435.814 599.727C439.11 599.727 441.65 598.869 443.435 597.153C445.22 595.437 446.113 593.034 446.113 589.944V583.765H445.598C444.637 584.864 443.607 585.722 442.508 586.34C439.899 588.056 436.81 588.914 433.24 588.914C426.168 588.914 420.367 586.58 415.836 581.912C411.305 577.174 409.039 571.098 409.039 563.684C409.039 556.269 411.305 550.227 415.836 545.559C420.367 540.822 426.168 538.453 433.24 538.453C437.153 538.453 440.552 539.483 443.435 541.543C444.602 542.435 445.666 543.465 446.628 544.632H447.142L448.172 539.483H461.56V589.944C461.56 597.29 459.363 602.989 454.969 607.039C450.575 611.09 444.19 613.115 435.814 613.115C425.585 613.115 418.273 609.957 413.879 603.641C411.82 600.757 410.549 597.565 410.069 594.063ZM427.576 571.407C429.635 573.467 432.21 574.497 435.3 574.497C438.389 574.497 440.964 573.467 443.023 571.407C445.083 569.348 446.113 566.773 446.113 563.684C446.113 560.594 445.083 558.02 443.023 555.96C440.964 553.9 438.389 552.871 435.3 552.871C432.21 552.871 429.635 553.9 427.576 555.96C425.516 558.02 424.486 560.594 424.486 563.684C424.486 566.773 425.516 569.348 427.576 571.407Z" fill="#002236"/>
<path d="M507.081 576.042H522.529C521.293 579.268 519.542 582.118 517.277 584.589C511.922 590.219 505.262 593.034 497.298 593.034C489.334 593.034 482.778 590.493 477.628 585.413C472.548 580.264 470.008 573.707 470.008 565.743C470.008 557.779 472.548 551.257 477.628 546.177C482.778 541.028 489.334 538.453 497.298 538.453C504.987 538.453 511.372 540.959 516.453 545.971C521.533 550.983 524.073 557.23 524.073 564.714C524.073 565.675 523.97 566.979 523.764 568.627L523.559 569.863H485.455C485.73 573.021 486.931 575.63 489.06 577.689C491.256 579.68 494.003 580.676 497.298 580.676C500.044 580.676 502.516 579.921 504.713 578.41C505.811 577.586 506.601 576.797 507.081 576.042ZM485.455 560.594H509.141C507.631 553.729 503.683 550.296 497.298 550.296C490.913 550.296 486.966 553.729 485.455 560.594Z" fill="#002236"/>
<path d="M535.598 577.585V553.899H527.359V539.482H535.598V523.005H551.045V539.482H562.888V553.899H551.045V573.981C551.045 576.384 552.247 577.585 554.65 577.585H562.888V592.003H550.53C540.575 592.003 535.598 587.197 535.598 577.585Z" fill="#002236"/>
<path d="M633.839 576.042H649.287C648.051 579.268 646.3 582.118 644.034 584.589C638.679 590.219 632.02 593.034 624.056 593.034C616.092 593.034 609.535 590.493 604.386 585.413C599.306 580.264 596.766 573.707 596.766 565.743C596.766 557.779 599.306 551.257 604.386 546.177C609.535 541.028 616.092 538.453 624.056 538.453C631.745 538.453 638.13 540.959 643.211 545.971C648.291 550.983 650.831 557.23 650.831 564.714C650.831 565.675 650.728 566.979 650.522 568.627L650.316 569.863H612.213C612.488 573.021 613.689 575.63 615.817 577.689C618.014 579.68 620.76 580.676 624.056 580.676C626.802 580.676 629.274 579.921 631.471 578.41C632.569 577.586 633.359 576.797 633.839 576.042ZM612.213 560.594H635.899C634.388 553.729 630.441 550.296 624.056 550.296C617.671 550.296 613.723 553.729 612.213 560.594Z" fill="#002236"/>
<path d="M692.24 592.004L691.21 587.37H690.695C689.871 588.331 688.704 589.292 687.194 590.253C684.379 592.107 680.74 593.034 676.278 593.034C670.236 593.034 665.464 591.489 661.963 588.399C658.462 585.31 656.711 581.362 656.711 576.556C656.711 571.476 658.565 567.391 662.272 564.302C665.979 561.143 671.334 559.564 678.337 559.564H690.18V558.535C690.18 556.2 689.459 554.347 688.018 552.974C686.576 551.532 684.55 550.811 681.942 550.811C679.264 550.811 677.067 551.6 675.351 553.18C674.527 554.003 673.978 554.759 673.703 555.445H658.771C659.388 550.502 661.688 546.451 665.67 543.293C669.652 540.067 675.076 538.453 681.942 538.453C689.425 538.453 695.226 540.272 699.346 543.911C703.533 547.55 705.627 552.39 705.627 558.432V592.004H692.24ZM690.18 570.892V569.863H680.397C677.651 569.863 675.591 570.378 674.218 571.407C672.845 572.437 672.158 573.81 672.158 575.527C672.158 577.174 672.776 578.547 674.012 579.646C675.316 580.676 677.101 581.191 679.367 581.191C682.662 581.191 685.271 580.264 687.194 578.41C689.185 576.488 690.18 573.982 690.18 570.892Z" fill="#002236"/>
<path d="M719.215 577.585V553.899H710.977V539.482H719.215V523.005H734.662V539.482H746.505V553.899H734.662V573.981C734.662 576.384 735.864 577.585 738.267 577.585H746.505V592.003H734.148C724.193 592.003 719.215 587.197 719.215 577.585Z" fill="#002236"/>
<path d="M788.941 576.042H804.388C803.152 579.268 801.402 582.118 799.136 584.589C793.781 590.219 787.121 593.034 779.157 593.034C771.193 593.034 764.637 590.493 759.488 585.413C754.407 580.264 751.867 573.707 751.867 565.743C751.867 557.779 754.407 551.257 759.488 546.177C764.637 541.028 771.193 538.453 779.157 538.453C786.847 538.453 793.232 540.959 798.312 545.971C803.393 550.983 805.933 557.23 805.933 564.714C805.933 565.675 805.83 566.979 805.624 568.627L805.418 569.863H767.315C767.589 573.021 768.791 575.63 770.919 577.689C773.116 579.68 775.862 580.676 779.158 580.676C781.904 580.676 784.375 579.921 786.572 578.41C787.671 577.586 788.46 576.797 788.941 576.042ZM767.315 560.594H791C789.49 553.729 785.542 550.296 779.157 550.296C772.773 550.296 768.825 553.729 767.315 560.594Z" fill="#002236"/>
<path d="M814.375 592.004V539.483H827.763L828.792 544.117H829.307C830.131 543.156 831.298 542.229 832.809 541.337C835.761 539.414 839.4 538.453 843.725 538.453C849.904 538.453 854.95 540.478 858.863 544.529C862.845 548.511 864.836 553.694 864.836 560.079V592.004H849.389V563.169C849.389 560.285 848.462 557.951 846.608 556.166C844.823 554.312 842.489 553.385 839.606 553.385C836.722 553.385 834.354 554.312 832.5 556.166C830.715 557.951 829.822 560.285 829.822 563.169V592.004H814.375Z" fill="#002236"/>
<path d="M1189.14 347.01C1190.27 342.541 1188.13 336.712 1186.55 331.702C1185.68 329.524 1185.42 328.552 1187.87 329.904L1199.11 337.844C1201.6 338.228 1201.99 336.316 1202.49 334.526C1195.11 310.517 1166.65 294.281 1144.77 311.585C1137.9 317.326 1130.64 324.311 1128.73 333.703C1146.22 341.475 1167.95 347.961 1189.14 347.01Z" fill="#E11A1C"/>
<path d="M1131.22 336.358C1133.86 327.663 1139.38 316.445 1152.72 312.19C1154.07 311.26 1144.31 312.067 1134.93 323.91C1130.84 329.081 1128.13 336.488 1128.13 336.488L1131.22 336.358Z" fill="#9F191A"/>
<path d="M1187.37 343.601C1187.9 336.028 1185.64 331.244 1181.56 327.261C1180.95 326.669 1181.39 326.312 1182.66 327.186C1190.31 333.677 1188.53 339.9 1190.09 347.25L1187.5 345.389L1187.37 343.601Z" fill="#9F191A"/>
<path d="M1124.33 332.734C1126.09 333.05 1125.96 328.683 1128.64 329.778C1130.67 330.597 1133.2 331.834 1134.6 331.529C1136 331.224 1137.18 331.268 1138.06 332.307C1138.95 333.346 1137.9 334.184 1140.01 333.815C1142.12 333.446 1143.62 333.757 1144.26 335.015C1144.9 336.271 1147.77 335.2 1147.77 335.2C1147.77 335.2 1148.65 335.064 1149.24 336.283C1149.84 337.502 1153.34 337.958 1154.73 337.338C1156.13 336.717 1155.15 338.584 1155.42 339.13C1155.68 339.677 1157.76 338.756 1159.02 338.851C1160.28 338.946 1161.01 338.96 1161.37 339.225C1161.73 339.489 1164.85 339.01 1165.61 339.98C1166.37 340.95 1170.14 342.063 1171.53 341.53C1172.92 340.998 1174.78 340.041 1175.37 340.334C1175.96 340.627 1176.48 342.528 1178.58 342.078C1180.68 341.628 1182.96 340.671 1184.06 341.365C1185.15 342.059 1186.84 342.631 1188.05 343.435C1189.26 344.24 1190.13 344.713 1191.53 345.935C1194.42 349.872 1191.31 353.035 1191.51 355.199C1191.76 356.63 1191.57 357.649 1190.89 358.648C1190.22 359.646 1191.52 360.859 1190.53 361.49C1186.12 360.9 1183.81 364.372 1182.54 361.205C1183.41 363.971 1185.17 360.026 1181.84 360.928C1180.16 360.961 1179.5 361.031 1177.36 361.263C1174.89 361.188 1174.73 358.146 1172.92 358.93C1171.09 359.721 1169.54 359.531 1166.81 358.385C1164.08 357.239 1164.57 358.009 1161.74 358.476C1158.9 358.942 1155.42 358.71 1153.63 357.228C1151.83 355.746 1144.67 357.405 1142.82 355.657C1140.97 353.908 1137.64 355.159 1135.55 354.802C1133.46 354.444 1129.98 353.641 1127.62 350.344C1126.28 348.473 1126.11 351.126 1124.26 351.678C1122.85 352.099 1119.58 350.404 1119.24 349.832C1118.45 348.508 1120.05 345.088 1120.16 343.445C1120.27 341.802 1118.72 339.421 1120.16 338.793C1121.59 338.166 1120.75 336.122 1120.96 335.773C1122.9 334.423 1122.46 331.762 1124.33 332.734Z" fill="#F9F9F9" stroke="#E7EAEB" stroke-width="2.00002"/>
<path d="M1205.73 333.952C1207.38 336.381 1206.53 335.426 1208.94 335.758C1211.36 336.09 1212.4 336.472 1211.86 337.897C1211.31 339.323 1212.33 339.518 1212.56 341.015C1212.79 342.513 1211.49 341.977 1211.11 342.803C1210.72 343.628 1212.5 343.77 1212.29 345.273C1212.03 346.334 1211.39 346.528 1209.96 347.194C1208.53 347.861 1210.51 348.26 1208.29 349.622C1206.98 350.43 1206.49 349.547 1205.32 349.024C1204.16 348.501 1203.65 351.198 1201.53 349.925C1199.42 348.652 1200.22 348.818 1199.1 347.776C1197.14 346.287 1196.28 349.006 1195.3 347.176C1194.32 345.347 1194.07 345.416 1194.44 343.636C1194.8 341.855 1193.06 340.878 1194.9 339.573C1196.74 338.268 1196.37 338.771 1196.67 337.385C1196.97 335.997 1199.19 335.242 1199.56 335.185C1202.96 334.181 1204.13 331.224 1205.73 333.952Z" fill="#F9F9F9" stroke="#E7EAEB" stroke-width="2.00002"/>
<path d="M1186.26 331.389C1186.26 331.389 1185.66 331.024 1185.16 329.786C1184.4 327.859 1183.64 324.728 1183.93 324.583C1184.25 324.429 1184.44 324.962 1184.55 325.123C1185.29 327.43 1186.83 328.99 1187.81 329.855C1187.54 329.71 1186.31 329.071 1186.01 329.443C1185.62 329.87 1187.18 332.79 1186.26 331.389Z" fill="#9F191A"/>
<path d="M1120.78 344.562C1121.28 351.336 1127.76 343.559 1130.49 345.36C1133.13 348.003 1131.57 349.472 1136.76 349.863C1138.39 349.987 1141.07 349.088 1142.42 349.156C1145.35 349.304 1146.81 350.322 1151.64 350.255C1158.69 350.157 1155.06 352.017 1164.07 353.388C1168.16 354.011 1169.52 352.09 1171.25 352.336C1173.33 352.631 1175.52 354.972 1177.87 354.171C1182.18 352.703 1182.57 349.57 1186.88 351.43C1191.19 353.29 1190.9 354.269 1190.9 354.269L1190.99 359.458L1190.5 362.59C1188.63 365.09 1186.59 365.108 1183.8 365.389C1181.7 364.412 1181.88 361.942 1181.32 361.853C1181.32 361.853 1178.17 362.003 1177.68 361.709C1177.19 361.416 1173.76 359.066 1173.76 359.066L1170.83 359.849L1163.78 358.087L1156.83 358.674L1151.74 356.912L1145.76 356.814L1141.36 355.542L1138.32 354.171H1131.27L1126.67 349.668L1126.15 349.379C1124.86 356.254 1121.38 348.91 1119.04 349.276L1118.55 346.535L1120.78 344.562Z" fill="#E7EAEB"/>
<path d="M1194.63 344.396C1195.11 345.001 1196.84 346.426 1199.38 345.519C1201.93 344.612 1202.02 345.13 1202.84 345.649C1203.66 346.167 1203.87 347.333 1205.52 346.512C1207.16 345.692 1205.6 344.31 1208.32 344.223C1211.04 344.137 1211.78 344.353 1211.95 343.23C1212.12 342.107 1211.56 346.08 1211.56 346.08L1210.27 347.247C1210.27 347.247 1208.71 349.924 1208.19 349.751C1207.68 349.579 1204.91 348.801 1204.91 348.801L1202.28 350.14L1200.03 348.369L1197.14 347.635C1197.14 347.635 1194.98 347.29 1194.94 346.815C1194.89 346.34 1194.63 344.396 1194.63 344.396Z" fill="#E7EAEB"/>
<circle cx="883.281" cy="584.166" r="8.36719" fill="#002236"/>
</svg>
