<svg width="1540" height="1411" viewBox="0 0 1540 1411" fill="none" xmlns="http://www.w3.org/2000/svg">
<rect x="0.125" y="0.130859" width="1539" height="1410.66" fill="white"/>
<path d="M434.3 238.365C434.3 238.365 448.77 250.18 448.599 254.3C448.294 261.661 436.155 270.077 436.155 270.077C436.155 270.077 448.148 281.875 447.863 285.357C447.441 290.59 434.38 296.823 434.38 296.823C434.38 296.823 445.204 307.36 445.021 311.408C444.833 315.479 430.29 325.039 430.29 325.039C430.29 325.039 444.038 334.393 444.378 338.329C444.613 341.091 430.945 350.714 430.945 350.714C430.945 350.714 444.166 360.651 444.339 363.386C444.714 369.426 430.276 375.933 430.276 375.933C430.276 375.933 445.339 383.983 445.625 386.86C446.035 391.011 436.522 403.967 436.522 403.967C436.522 403.967 451.192 403.721 453.002 406.007C455.943 409.728 450.334 429.393 450.334 429.393C450.334 429.393 462.979 417.221 467.599 418.093C471.222 418.773 476.523 435.972 476.523 435.972C476.523 435.972 481.999 417.495 485.648 415.896C487.896 414.912 502.285 426.569 502.285 426.569C502.285 426.569 503.13 408.718 505.737 406.949C508.234 405.258 524.73 408.833 524.73 408.833C524.73 408.833 523.967 396.037 525.985 394.393C528.486 392.357 539.954 395.179 539.954 395.179C539.954 395.179 539.286 380.542 542.152 378.542C544.635 376.805 555.492 381.838 555.492 381.838L526.299 422.175L472.622 446.189L434.64 436.614L419.102 412.758L422.397 263.81L429.303 249.998L434.3 238.365Z" fill="#34A13C"/>
<path d="M400.114 557.004C508.546 557.004 596.447 538.864 596.447 516.489C596.447 494.113 508.546 475.974 400.114 475.974C291.683 475.974 203.781 494.113 203.781 516.489C203.781 538.864 291.683 557.004 400.114 557.004Z" fill="#EAEAEA"/>
<path d="M380.075 474.014C380.779 487.155 382.937 511.528 382.184 513.44C381.023 515.491 368.572 523.46 361.766 528.469C360.044 529.489 358.38 528.703 358.868 525.572L359.712 521.261L348.047 525.018C343.151 526.05 342.042 520.947 344.292 519.072L351.51 513.127L345.282 513.004C339.153 512.882 341.382 508.505 344.227 507.406L358.923 502.403L357.974 466.724L379.38 466.864L380.075 474.014Z" fill="#71B41F"/>
<path d="M342.195 319.422C342.195 319.422 288.082 309.048 286.737 308.409C284.79 307.643 280.464 303.016 279.258 300.495C277.082 295.945 278.92 288.567 276.437 287.018C272.106 284.341 269.012 286.398 268.305 292.649C267.678 297.743 268.715 298.667 267.83 303.555L260.815 302.099C250.184 299.111 248.643 308.44 253.918 311.646C249.047 311.7 247.035 317.529 252.86 320.132C248.231 320.464 247.378 327.065 252.65 328.641C259.68 331.594 272.993 332.1 281.155 333.622L298.965 340.948L307.366 344.765L363.089 341.505L342.195 319.422Z" fill="#71B41F"/>
<path d="M304.186 255.696L308.871 257.107L304.605 276.904L301.514 291.295L301.174 292.912C299.886 301.778 299.11 304.789 296.775 320.938C296.447 323.239 296.775 321.853 296.34 324.931C296.152 327.345 296.035 330.936 295.965 333.857C295.812 339.317 295.59 344.577 295.624 350.545C295.624 354.664 295.219 357.724 295.384 362.064C295.506 365.367 295.375 368.42 295.659 371.813C295.906 375.399 295.782 378.693 296.186 382.351C296.96 389.119 298.011 395.965 299.5 402.735C300.332 406.496 300.835 410.314 301.936 413.993C304.688 423.2 308.222 432.121 313.032 440.201C315.539 444.414 318.175 448.546 321.345 452.265C323.298 454.556 325.312 456.794 327.538 458.859C331.527 460.436 335.707 461.544 339.918 461.864C344.287 462.192 348.668 461.742 352.848 460.355C354.939 459.651 356.977 458.718 358.938 457.513C360.9 456.309 362.789 454.834 364.567 453.078C367.79 449.894 370.632 445.726 372.996 440.486C374.898 436.268 376.568 431.556 377.729 425.834C377.963 424.685 378.257 423.664 378.456 422.452L378.749 420.598C378.972 418.05 379.077 415.88 379.242 413.509C379.628 407.915 380.021 402.353 380.423 396.784C380.692 392.943 380.997 388.97 381.232 385.241C381.572 379.699 382.181 373.468 382.437 368.087C382.719 362.172 382.782 356.355 382.911 350.551C383.034 344.823 383.381 338.976 383.381 333.244C383.381 328.235 383.258 323.092 383.134 318C382.865 309.44 382.543 300.852 381.851 291.779C381.417 286.078 380.796 280.024 380.166 273.989C379.779 270.307 379.615 265.477 378.994 259.925C372.714 260.723 366.667 261.332 360.687 261.682C354.708 262.033 348.787 262.116 342.751 261.857C336.716 261.6 330.571 261.013 324.125 259.992C317.826 258.995 311.213 257.572 304.186 255.696Z" fill="#D3D95D"/>
<path d="M364.558 453.078C367.782 449.895 370.624 445.726 372.988 440.486L313.023 440.204C315.53 444.417 318.166 448.549 321.337 452.269L364.558 453.078Z" fill="#EFECC3"/>
<path d="M377.715 425.836C377.949 424.687 378.248 423.665 378.449 422.454L378.741 420.601C378.965 418.052 379.069 415.882 379.234 413.511L299.484 402.737C300.316 406.498 300.827 410.316 301.927 413.995L377.715 425.836Z" fill="#EFECC3"/>
<path d="M380.422 396.788C380.692 392.946 381.003 388.974 381.237 385.245L295.664 371.816C295.911 375.402 295.787 378.696 296.191 382.355L380.422 396.788Z" fill="#EFECC3"/>
<path d="M382.436 368.089C382.718 362.174 382.788 356.357 382.917 350.553L295.618 350.547C295.618 354.666 295.219 357.727 295.384 362.066L382.436 368.089Z" fill="#EFECC3"/>
<path d="M383.36 333.245C383.36 328.236 383.244 323.093 383.12 318L296.754 320.939C296.426 323.239 296.754 321.923 296.309 325.005C296.156 327.505 296.016 330.936 295.945 333.857L383.36 333.245Z" fill="#EFECC3"/>
<path d="M381.832 291.783C381.397 286.082 380.776 280.028 380.147 273.992L304.597 276.907L301.5 291.298L381.832 291.783Z" fill="#EFECC3"/>
<path d="M360.289 157.252C350.639 155.695 339.976 164.652 338.281 172.123C334.849 186.07 336.219 185.797 335.3 197.718C326.074 197.718 318.085 198.339 306.336 198.164C296.883 191.656 283.588 167.405 270.597 188.287C260.734 169.092 251.366 184.355 250.619 190.728C248.591 204.486 246.077 217.936 261.89 222.771C261.89 222.77 262.012 222.77 262.012 222.771C262.012 222.773 262.135 222.777 262.135 222.783C268.383 223.521 274.899 224.727 281.562 226.201C288.225 227.675 295.03 229.415 301.855 231.2C315.505 234.771 329.23 238.53 342.017 240.78C348.412 241.906 354.566 242.65 360.348 242.816C366.129 242.98 371.532 242.569 376.436 241.38C378.887 240.783 381.219 239.999 383.41 238.999C385.601 238.002 387.653 236.779 389.561 235.315C391.468 233.85 393.229 232.139 394.833 230.152C396.436 228.164 397.882 225.899 399.158 223.328C399.156 223.288 399.156 223.247 399.158 223.206C399.158 223.165 399.281 223.124 399.281 223.083C399.281 223.043 399.404 223.002 399.404 222.961C399.404 222.92 399.526 222.879 399.526 222.838C399.526 222.797 399.649 222.757 399.649 222.716C399.649 222.675 399.771 222.634 399.771 222.593C399.771 222.552 399.894 222.512 399.894 222.471C399.894 222.469 400.016 222.469 400.016 222.471C400.016 222.469 400.139 222.469 400.139 222.471C400.139 222.469 400.261 222.469 400.261 222.471C400.261 222.469 400.39 222.469 400.39 222.471C400.39 222.469 400.513 222.469 400.513 222.471C400.513 222.469 400.635 222.469 400.635 222.471C400.635 222.469 400.758 222.469 400.758 222.471C400.758 222.469 400.88 222.469 400.88 222.471C400.88 222.469 401.003 222.469 401.003 222.471C401.003 222.469 401.125 222.469 401.125 222.471C401.125 222.512 401.248 222.539 401.248 222.593C401.248 222.634 401.37 222.661 401.37 222.716C401.37 222.757 401.493 222.784 401.493 222.838C401.493 222.879 401.615 222.906 401.615 222.961C401.615 223.002 401.738 223.029 401.738 223.083C401.74 223.124 401.74 223.165 401.738 223.206C401.74 223.247 401.74 223.288 401.738 223.328C401.74 223.369 401.74 223.41 401.738 223.451C401.74 223.492 401.74 223.533 401.738 223.574C401.74 223.614 401.74 223.655 401.738 223.696C401.738 223.737 401.736 223.778 401.732 223.819C401.729 223.86 401.725 223.9 401.72 223.941C401.722 223.982 401.722 224.023 401.72 224.064C401.722 224.105 401.722 224.145 401.72 224.186C401.722 224.227 401.722 224.268 401.72 224.309C400.372 227.021 398.834 229.424 397.115 231.544C395.395 233.664 393.498 235.501 391.449 237.076C389.4 238.652 387.194 239.967 384.856 241.045C382.519 242.123 380.053 242.962 377.47 243.59C372.305 244.845 366.695 245.277 360.758 245.111C354.821 244.946 348.56 244.172 342.088 243.038C329.144 240.761 315.345 236.991 301.714 233.428C294.899 231.647 288.122 229.913 281.517 228.448C275.007 227.003 268.671 225.834 262.611 225.108C262.87 235.345 266.182 242.501 272.895 246.275L304.174 255.733C311.2 257.609 317.811 259.039 324.11 260.035C330.556 261.055 336.701 261.647 342.737 261.902C348.772 262.159 354.693 262.067 360.672 261.714C366.653 261.363 372.694 260.753 378.973 259.956C379.594 265.51 379.759 270.339 380.148 274.021C380.781 280.056 381.399 286.111 381.833 291.812C382.525 300.884 382.853 309.472 383.124 318.031C383.289 323.125 383.347 328.266 383.37 333.277C383.37 339.007 383.024 344.855 382.896 350.583C382.773 356.387 382.697 362.205 382.415 368.119C382.156 373.5 381.565 379.73 381.222 385.273C380.988 389.003 380.683 392.974 380.413 396.817C380.014 402.384 379.621 407.947 379.232 413.541C379.067 415.911 378.962 418.083 378.739 420.631L378.446 422.485C378.247 423.695 377.953 424.72 377.719 425.865C376.558 431.589 374.888 436.299 372.987 440.518C370.623 445.753 367.773 449.928 364.551 453.109C362.772 454.867 360.884 456.341 358.922 457.545C356.96 458.749 354.922 459.688 352.832 460.388C348.652 461.787 344.277 462.228 339.908 461.896C335.697 461.58 331.511 460.469 327.521 458.89C335.605 466.387 345.484 472.347 357.662 475.948C376.601 481.837 395.46 487.447 414.93 487.406C482.386 487.266 505.419 472.364 526.976 457.339C562.724 430.985 583.81 371.792 575.428 368.343C557.05 360.808 455.537 514.304 431.594 381.663C422.474 317.734 456.946 205.468 418.444 167.804C411.723 162.558 399.417 159.36 392.995 174.796C389.654 187.336 388.166 184.195 379.094 183.904C377.308 183.739 377.06 179.747 375.544 172.755C373.183 165.648 367.308 158.401 360.837 157.193L360.289 157.252Z" fill="#A2CB41"/>
<path d="M407.359 206.488C399.881 206.488 393.819 198.24 393.819 188.065C393.819 177.891 399.881 169.643 407.359 169.643C414.836 169.643 420.898 177.891 420.898 188.065C420.898 198.24 414.836 206.488 407.359 206.488Z" fill="white"/>
<path d="M406.855 196.894C403.125 197.285 399.671 193.486 399.14 188.411C398.61 183.335 401.203 178.905 404.934 178.515C408.664 178.125 412.118 181.923 412.648 186.998C413.179 192.074 410.585 196.504 406.855 196.894Z" fill="black"/>
<path d="M356.89 201.031C349.412 201.031 343.35 192.783 343.35 182.609C343.35 172.434 349.412 164.186 356.89 164.186C364.368 164.186 370.43 172.434 370.43 182.609C370.43 192.783 364.368 201.031 356.89 201.031Z" fill="white"/>
<path d="M358.287 192.633C354.544 192.876 351.243 188.944 350.912 183.852C350.582 178.759 353.348 174.434 357.091 174.192C360.833 173.949 364.135 177.88 364.465 182.973C364.796 188.065 362.03 192.39 358.287 192.633Z" fill="black"/>
<path d="M281.359 193.758C282.96 193.758 284.257 191.888 284.257 189.581C284.257 187.274 282.96 185.404 281.359 185.404C279.758 185.404 278.461 187.274 278.461 189.581C278.461 191.888 279.758 193.758 281.359 193.758Z" fill="black"/>
<path d="M397.333 229.599C398.037 230.55 398.793 231.398 399.207 231.99C406.002 241.72 396.111 240.838 393.109 236.921C392.675 236.346 391.903 235.23 391.687 234.682L390.736 234.94C395.525 259.054 382.458 252.237 380.318 245.743C379.873 244.411 378.527 239.362 378.357 238.333L373.219 241.308C374.901 259.284 365.67 255.079 363.806 246.211C363.572 245.132 363.536 243.272 363.572 242.103L351.586 241.6C351.708 243.969 352.031 247.568 351.708 249.212C350.229 256.575 343.78 254.762 343.26 248.813C343.119 247.291 342.58 242.782 342.756 240.974L330.741 238.216C330.413 240.614 329.745 243.737 329.287 245.362C327.743 250.802 322.182 250.321 321.613 244.658C321.414 242.633 322.023 239.1 322.539 236.57L310.565 233.648L310.19 237.998C309.392 246.795 300.209 245.767 301.144 238.12L301.579 231.094L291.015 228.878L288.919 234.745C287.542 238.706 280.958 241.982 281.416 232.375L281.943 226.068L277.908 225.234L276.293 230.992C274.281 237.963 267.165 239.277 266.914 228.868L267.489 222.216L269.734 215.712L389.539 213.143L397.333 229.599Z" fill="white"/>
<path d="M262.547 222.212C323.943 238.248 383.631 258.712 399.854 225.54L394.566 205.758L271.557 212.417L262.547 222.212Z" fill="#A2CB41"/>
<path d="M262.085 225.162C268.145 225.889 274.48 227.057 280.991 228.501C287.596 229.966 294.372 231.7 301.187 233.481C314.819 237.045 328.618 240.815 341.562 243.092C348.033 244.229 354.295 244.998 360.232 245.164C366.168 245.329 371.778 244.894 376.943 243.643C379.527 243.021 381.993 242.176 384.33 241.099C386.668 240.02 388.873 238.705 390.923 237.129C392.971 235.555 394.869 233.717 396.589 231.597C398.308 229.477 399.846 227.074 401.194 224.362C401.196 224.321 401.196 224.28 401.194 224.24C401.196 224.199 401.196 224.158 401.194 224.117C401.196 224.076 401.196 224.035 401.194 223.995C401.196 223.954 401.196 223.913 401.194 223.872C401.198 223.831 401.2 223.79 401.2 223.749C401.202 223.709 401.202 223.668 401.2 223.627C401.202 223.586 401.202 223.545 401.2 223.504C401.202 223.464 401.202 223.423 401.2 223.382C401.202 223.341 401.202 223.3 401.2 223.259C401.202 223.218 401.202 223.178 401.2 223.137C401.162 223.093 401.121 223.052 401.077 223.014C401.04 222.97 400.999 222.929 400.955 222.892C400.917 222.848 400.876 222.807 400.832 222.769C400.794 222.725 400.753 222.684 400.71 222.647C400.672 222.603 400.631 222.562 400.587 222.524C400.546 222.522 400.505 222.522 400.465 222.524C400.424 222.522 400.383 222.522 400.342 222.524C400.301 222.522 400.26 222.522 400.219 222.524C400.179 222.522 400.138 222.522 400.097 222.524C400.056 222.518 400.015 222.514 399.974 222.512C399.933 222.51 399.893 222.51 399.852 222.512C399.811 222.514 399.77 222.518 399.729 222.524C399.689 222.522 399.641 222.522 399.601 222.524C399.56 222.522 399.519 222.522 399.478 222.524C399.437 222.522 399.396 222.522 399.356 222.524C399.312 222.562 399.271 222.603 399.233 222.647C399.189 222.684 399.148 222.725 399.11 222.769C399.067 222.807 399.026 222.848 398.988 222.892C398.944 222.929 398.903 222.97 398.865 223.014C398.821 223.052 398.781 223.093 398.743 223.137C398.699 223.175 398.658 223.215 398.62 223.259C398.618 223.3 398.618 223.341 398.62 223.382C397.344 225.952 395.897 228.218 394.295 230.205C392.69 232.193 390.93 233.903 389.023 235.368C387.115 236.833 385.063 238.052 382.872 239.052C380.681 240.049 378.348 240.838 375.898 241.434C370.994 242.625 365.591 243.036 359.81 242.869C354.028 242.704 347.874 241.954 341.479 240.833C328.692 238.583 314.967 234.824 301.317 231.253C294.492 229.469 287.687 227.729 281.024 226.255C274.361 224.781 267.845 223.573 261.597 222.837C261.556 222.831 261.515 222.827 261.474 222.825C261.433 222.823 261.392 222.823 261.352 222.825C261.352 223.681 261.474 224.371 261.492 225.188L262.085 225.162Z" fill="black"/>
<path d="M437.2 479.113C437.645 493.151 439.083 518.432 437.2 521.226C434.22 524.873 422.191 530.974 413.966 536.258C408.406 539.43 407.865 535.46 408.976 533.142L410.37 530.318L399.565 531.637C396.006 532.364 391.163 530.078 395.728 525.945L402.834 520.216H394.38C390.533 520.216 389.639 515.812 394.051 514.355L411.549 510.431L412.077 449.521L433.929 464.612L437.2 479.113Z" fill="#A2CB41"/>
<path d="M259.571 191.886C260.982 191.886 262.127 190.237 262.127 188.203C262.127 186.169 260.982 184.521 259.571 184.521C258.16 184.521 257.016 186.169 257.016 188.203C257.016 190.237 258.16 191.886 259.571 191.886Z" fill="black"/>
<path d="M410.142 311.805C410.142 311.805 360.948 341.173 358.977 341.011C357.922 341.643 344.212 339.538 339.561 339.185C333.979 338.542 330.587 345.034 337.815 347.766L348.426 351.66L337.377 353.346C327.71 355.242 328.999 364.218 337.516 363.073L347.959 361.082L339.276 368.916C336.124 371.827 336.773 379.027 343.794 376.084L355.647 371.448L349.659 378.375C345.261 383.579 352.136 387.794 356.872 383.715L382.799 361.004L419.918 346.32L410.142 311.805Z" fill="#A2CB41"/>
<path d="M1159.46 231.962C1159.46 231.962 1170.6 238.593 1171.03 244.189C1171.59 251.35 1158.81 261.934 1158.81 261.934C1158.81 261.934 1170.2 266.929 1170.6 272.105C1171.14 279.043 1157.08 288.01 1157.08 288.01C1157.08 288.01 1167.63 298.283 1167.45 302.229C1167.27 306.199 1153.09 315.52 1153.09 315.52C1153.09 315.52 1166.49 324.639 1166.82 328.476C1167.05 331.169 1153.73 340.551 1153.73 340.551C1153.73 340.551 1166.62 350.238 1166.78 352.906C1167.15 358.795 1153.07 365.138 1153.07 365.138C1153.07 365.138 1167.76 372.987 1168.04 375.791C1168.44 379.838 1159.16 392.47 1159.16 392.47C1159.16 392.47 1173.47 392.228 1175.23 394.46C1178.1 398.086 1172.63 417.26 1172.63 417.26C1172.63 417.26 1184.96 405.392 1189.46 406.242C1193 406.909 1198.16 423.673 1198.16 423.673C1198.16 423.673 1203.5 405.659 1207.06 404.1C1209.25 403.14 1223.28 414.505 1223.28 414.505C1223.28 414.505 1224.1 397.102 1226.65 395.378C1229.08 393.729 1245.16 397.214 1245.16 397.214C1245.16 397.214 1244.42 384.739 1246.39 383.136C1248.82 381.152 1260 383.901 1260 383.901C1260 383.901 1259.35 369.631 1262.15 367.681C1264.57 365.988 1275.15 370.894 1275.15 370.894L1246.69 410.22L1194.36 433.633L1157.33 424.298L1142.18 401.039L1145.39 255.824L1152.13 242.358L1159.46 231.962Z" fill="#34A13C"/>
<path d="M1085.85 294.419C1085.85 294.419 1015.82 310.969 1014.33 310.471C1013.39 310.763 1000.68 306.399 997.837 305.488C994.095 303.666 988.884 306.715 993.718 310.852L1004.01 317.495L990.279 316.146C981.439 315.522 984.165 323.902 990.61 323.783L1001.35 324.467L992.057 329.614C989.422 331.014 988.857 336.204 993.885 335.59L1005.34 333.93L998.564 338.051C994.183 341.242 999.536 345.899 1003.97 343.641L1033.23 331.606L1070.74 320.829L1085.85 294.419Z" fill="#71B41F"/>
<path d="M1116.72 550.637C1234.13 550.637 1329.31 532.5 1329.31 510.127C1329.31 487.754 1234.13 469.617 1116.72 469.617C999.311 469.617 904.133 487.754 904.133 510.127C904.133 532.5 999.311 550.637 1116.72 550.637Z" fill="#EAEAEA"/>
<path d="M1085.1 456.789L1070.69 492.481L1046.45 497.325C1044.49 497.19 1043.51 496.14 1045.09 493.569L1047.61 490.11L1035.76 488.612C1030.42 487.308 1030.9 482.38 1034.9 481.811L1043.73 479.54L1038.28 476.861C1032.41 474.018 1036.85 470.881 1039.66 471.481L1054.7 473.13L1068.59 441.226L1087.44 450.191L1085.1 456.789Z" fill="#71B41F"/>
<path d="M1029.6 248.002L1034.17 249.379L1030.01 268.679L1026.99 282.71L1026.66 284.287C1025.4 292.931 1024.65 295.867 1022.37 311.61C1022.05 313.853 1022.18 312.504 1021.77 315.504C1021.51 317.822 1021.65 321.358 1021.59 324.206C1021.44 329.53 1021.22 334.657 1021.26 340.475C1021.26 344.491 1020.87 347.475 1021.03 351.706C1021.16 354.927 1021.03 357.903 1021.3 361.211C1021.54 364.707 1021.42 367.918 1021.82 371.485C1022.57 378.083 1023.59 384.757 1025.04 391.358C1025.85 395.025 1026.34 398.747 1027.42 402.335C1030.1 411.311 1033.54 420.009 1038.23 427.886C1040.67 431.993 1043.24 436.021 1046.33 439.648C1048.24 441.882 1050.2 444.063 1052.37 446.075C1056.26 447.614 1060.34 448.694 1064.44 449.006C1068.7 449.329 1072.97 448.903 1077.05 447.535C1079.09 446.852 1081.07 445.938 1082.99 444.764C1084.9 443.59 1086.74 442.153 1088.47 440.439C1091.62 437.336 1094.39 433.272 1096.69 428.163C1098.55 424.05 1100.17 419.458 1101.31 413.878C1101.54 412.76 1101.82 411.762 1102.01 410.582L1102.3 408.774C1102.52 406.29 1102.62 404.174 1102.78 401.862C1103.16 396.408 1103.54 390.985 1103.93 385.557C1104.19 381.811 1104.49 377.939 1104.72 374.303C1105.05 368.899 1105.65 362.824 1105.9 357.578C1106.17 351.812 1106.24 346.14 1106.36 340.481C1106.49 334.897 1106.82 329.196 1106.82 323.609C1106.82 318.724 1106.7 313.711 1106.58 308.745C1106.31 300.401 1105.99 292.028 1105.32 283.183C1104.9 277.624 1104.29 271.721 1103.68 265.837C1103.3 262.248 1103.14 257.539 1102.54 252.126C1096.41 252.901 1090.52 253.498 1084.69 253.839C1078.86 254.181 1073.09 254.263 1067.2 254.017C1061.32 253.769 1055.33 253.191 1049.04 252.198C1042.9 251.227 1036.45 249.831 1029.6 248.002Z" fill="#D3D95D"/>
<path d="M1088.46 440.442C1091.6 437.338 1094.37 433.274 1096.67 428.165L1038.21 427.888C1040.66 431.995 1043.23 436.023 1046.32 439.65L1088.46 440.442Z" fill="#EFECC3"/>
<path d="M1101.29 413.879C1101.51 412.761 1101.8 411.762 1102 410.582L1102.29 408.774C1102.51 406.29 1102.61 404.174 1102.77 401.862L1025.02 391.358C1025.82 395.025 1026.32 398.747 1027.4 402.335L1101.29 413.879Z" fill="#EFECC3"/>
<path d="M1103.92 385.559C1104.18 381.813 1104.47 377.94 1104.7 374.304L1021.27 361.213C1021.52 364.708 1021.39 367.919 1021.79 371.486L1103.92 385.559Z" fill="#EFECC3"/>
<path d="M1105.88 357.578C1106.16 351.812 1106.22 346.141 1106.35 340.482L1021.24 340.476C1021.27 344.492 1020.84 347.476 1021.01 351.706L1105.88 357.578Z" fill="#EFECC3"/>
<path d="M1106.8 323.609C1106.77 318.724 1106.72 313.711 1106.56 308.745L1022.35 311.61C1022.03 313.853 1022.16 312.504 1021.75 315.504C1021.48 317.822 1021.64 321.358 1021.56 324.206L1106.8 323.609Z" fill="#EFECC3"/>
<path d="M1105.29 283.184C1104.87 277.626 1104.27 271.723 1103.65 265.839L1030 268.681L1026.98 282.711L1105.29 283.184Z" fill="#EFECC3"/>
<path d="M1085.52 150.249C1076.11 148.731 1065.38 157.056 1063.73 164.339C1060.38 177.936 1061.38 179.767 1060.48 191.39C1051.49 191.356 1043.7 191.994 1032.24 191.821C1023.03 185.477 1010.07 161.834 997.4 182.192C987.785 163.478 978.651 177.815 977.923 184.029C975.942 197.462 973.469 211.146 988.964 215.842C988.688 227.158 992.065 234.81 999.131 238.782L1029.63 248.003C1036.48 249.833 1042.92 251.227 1049.06 252.198C1055.35 253.191 1061.34 253.769 1067.22 254.018C1073.11 254.266 1078.88 254.181 1084.71 253.839C1090.54 253.497 1096.43 252.901 1102.55 252.126C1103.16 257.54 1103.31 262.248 1103.69 265.838C1104.31 271.721 1104.91 277.625 1105.33 283.183C1106.01 292.028 1106.33 300.401 1106.59 308.745C1106.75 313.711 1106.81 318.725 1106.83 323.609C1106.83 329.197 1106.51 334.897 1106.38 340.482C1106.25 346.141 1106.19 351.812 1105.91 357.579C1105.66 362.825 1105.07 368.899 1104.74 374.303C1104.51 377.939 1104.22 381.812 1103.95 385.557C1103.56 390.986 1103.19 396.409 1102.81 401.863C1102.65 404.174 1102.55 406.29 1102.33 408.775L1102.04 410.582C1101.84 411.763 1101.56 412.761 1101.33 413.879C1100.2 419.458 1098.57 424.051 1096.71 428.164C1094.41 433.268 1091.64 437.338 1088.5 440.44C1086.77 442.153 1084.93 443.59 1083.01 444.764C1081.1 445.939 1079.12 446.853 1077.08 447.535C1073 448.9 1068.73 449.33 1064.47 449.006C1060.37 448.694 1056.29 447.614 1052.4 446.076C1060.28 453.385 1069.91 459.195 1081.79 462.706C1100.25 468.447 1118.64 473.918 1137.62 473.878C1203.39 473.738 1225.84 459.212 1246.86 444.564C1281.71 418.869 1302.26 361.16 1294.09 357.797C1276.17 350.45 1177.2 500.102 1153.86 370.782C1144.97 308.457 1180.94 198.13 1141.53 161.944C1134.98 156.83 1122.49 154.049 1116.23 169.099C1112.97 181.324 1109.63 178.261 1100.78 177.978C1100.06 173.356 1100.28 172.773 1098.81 165.956C1096.35 155.611 1091.19 151.159 1085.54 150.248L1085.52 150.249Z" fill="#A2CB41"/>
<path d="M1131.1 201.45C1123.81 201.45 1117.9 193.409 1117.9 183.489C1117.9 173.569 1123.81 165.527 1131.1 165.527C1138.39 165.527 1144.3 173.569 1144.3 183.489C1144.3 193.409 1138.39 201.45 1131.1 201.45Z" fill="white"/>
<path d="M1127.4 194.994C1123.75 194.994 1120.78 190.96 1120.78 185.985C1120.78 181.01 1123.75 176.977 1127.4 176.977C1131.06 176.977 1134.02 181.01 1134.02 185.985C1134.02 190.96 1131.06 194.994 1127.4 194.994Z" fill="black"/>
<path d="M1081.5 192.725C1074.21 192.725 1068.3 184.683 1068.3 174.763C1068.3 164.843 1074.21 156.802 1081.5 156.802C1088.79 156.802 1094.7 164.843 1094.7 174.763C1094.7 184.683 1088.79 192.725 1081.5 192.725Z" fill="white"/>
<path d="M1078.62 187.298C1074.96 187.298 1072 183.265 1072 178.29C1072 173.314 1074.96 169.281 1078.62 169.281C1082.28 169.281 1085.24 173.314 1085.24 178.29C1085.24 183.265 1082.28 187.298 1078.62 187.298Z" fill="black"/>
<path d="M1121.68 222.27C1130.08 241.354 1117.3 232.195 1115.42 227.423L1114.5 227.678C1119.17 251.188 1106.43 244.541 1104.34 238.211C1103.91 236.912 1102.59 231.989 1102.43 230.987L1097.42 231.429C1099.06 248.955 1090.06 244.855 1088.24 236.209C1088.01 235.152 1087.98 233.343 1088.01 232.204L1076.33 232.942C1076.45 235.252 1076.76 238.761 1076.44 240.363C1075 247.542 1068.71 245.774 1068.2 239.978C1068.07 238.493 1067.54 234.098 1067.71 232.336L1056 230.875C1055.68 233.214 1055.03 236.258 1054.58 237.842C1053.08 243.145 1047.65 242.677 1047.1 237.156C1046.91 235.182 1047.5 231.737 1048 229.27L1036.33 226.422L1035.87 231.608C1035.1 240.184 1025.95 238.615 1026.87 231.113L1027.57 223.885L1017.27 221.724L1016.23 229.006C1015.11 233.327 1006.87 235.903 1007.58 225.334L1008.43 218.984L1004.49 218.169L1003.65 225.796C1002.56 234.204 991.451 234.696 993.232 222.252L994.329 215.226L996.519 208.885L1113.32 206.38L1121.68 222.27Z" fill="white"/>
<path d="M989.508 215.264C1048.85 230.056 1106.2 248.623 1123.38 218.51L1118.22 199.223L998.292 205.715L989.508 215.264Z" fill="#A2CB41"/>
<path d="M1102.62 232.998C1104.68 229.233 1105.5 226.483 1105.89 223.261C1106.82 207.63 1094.02 213.998 1091.41 222.452C1089.07 230.907 1086.79 235.645 1087.05 234.853C1092.83 234.01 1097.92 236.148 1102.62 232.998Z" fill="#ED1B24"/>
<path d="M988.906 215.839C1037.21 221.525 1103.18 256.942 1123.64 215.736" stroke="black" stroke-width="0.566929" stroke-linecap="round"/>
<path d="M1159.81 465.735V506.794L1135.76 522.251C1131.7 524.209 1130.53 520.838 1132.29 518.41L1133.65 515.658L1123.12 516.943C1119.31 517.28 1114.12 517.596 1118.64 512.096L1126.31 505.808L1118.06 505.831C1114.31 505.854 1113.44 501.538 1117.74 500.117L1134.8 496.292L1135.32 436.908L1156.62 451.619L1159.81 465.735Z" fill="#A2CB41"/>
<path d="M1102 410.582L1102.29 408.774C1102.29 409.016 1102.29 409.203 1102.17 409.448C1102.06 409.862 1102 410.176 1101.92 410.582L1102 410.582Z" fill="#D2D75F"/>
<path d="M1118.15 213.768C1130.34 219.325 1145.99 211.157 1153.12 195.526C1160.25 179.894 1156.16 162.717 1143.97 157.161C1131.79 151.604 1116.13 159.772 1109 175.403C1101.88 191.035 1105.97 208.212 1118.15 213.768Z" fill="#B3F3FF" fill-opacity="0.586735" stroke="black" stroke-width="2" stroke-linecap="round" stroke-linejoin="round"/>
<path d="M1127.98 177.14C1131.44 178.718 1135.85 176.461 1137.84 172.101C1139.83 167.74 1138.64 162.927 1135.18 161.35C1131.73 159.773 1127.31 162.029 1125.32 166.389C1123.33 170.75 1124.52 175.563 1127.98 177.14Z" fill="white"/>
<path d="M1112.86 214.056L1058.61 295.811C1053.02 305.654 1071.85 314.974 1076.25 304.002C1080.22 293.346 1119.09 216.009 1119.09 216.009" fill="black"/>
<path d="M1112.86 214.056L1058.61 295.811C1053.02 305.654 1071.85 314.974 1076.25 304.002C1080.22 293.346 1119.09 216.009 1119.09 216.009" stroke="black"/>
<path d="M1141.43 303.049C1141.43 303.049 1095.78 280.993 1094.99 279.29C1093.97 278.717 1090.33 264.178 1088.79 260.962C1088.32 256.131 1079.71 254.178 1080.08 261.761L1079.92 274.66L1071.68 265.743C1064.99 257.559 1059.95 266.787 1065.33 272.287L1070.75 279.823L1060.42 277.59C1056.9 276.002 1051.01 279.655 1056.73 284.07L1067.55 292.651L1056.71 289.815C1050.35 288.627 1052.42 297.419 1058 299.416L1092.41 314.952L1132.49 338.683L1141.43 303.049Z" fill="#A2CB41"/>
<path d="M1071.15 158.737L1064.25 176.875C1063.88 174.16 1092.1 167.948 1096.08 180.133C1098.08 175.359 1094.45 162.842 1094.45 162.842L1088.43 157.877L1081.65 153.771L1071.15 158.737Z" fill="#A2CB41"/>
<path d="M1067.54 194.027L1064.54 179.12C1064.46 177.783 1093.75 169.239 1095.12 183.545C1095.92 188.661 1091.14 195.642 1091.14 195.642L1084.11 199.016L1076.54 201.372L1067.54 194.027Z" fill="#A2CB41"/>
<path d="M461.449 935.653C461.449 935.653 475.919 947.468 475.747 951.588C475.442 958.949 463.304 967.365 463.304 967.365C463.304 967.365 475.297 979.164 475.012 982.645C474.59 987.879 461.528 994.112 461.528 994.112C461.528 994.112 472.353 1004.65 472.17 1008.7C471.982 1012.77 457.438 1022.33 457.438 1022.33C457.438 1022.33 471.187 1031.68 471.527 1035.62C471.761 1038.38 458.094 1048 458.094 1048C458.094 1048 471.315 1057.94 471.487 1060.68C471.863 1066.72 457.424 1073.22 457.424 1073.22C457.424 1073.22 472.487 1081.27 472.774 1084.15C473.183 1088.3 463.671 1101.26 463.671 1101.26C463.671 1101.26 478.341 1101.01 480.15 1103.3C483.091 1107.02 477.483 1126.68 477.483 1126.68C477.483 1126.68 490.128 1114.51 494.748 1115.38C498.371 1116.06 503.672 1133.26 503.672 1133.26C503.672 1133.26 509.148 1114.78 512.797 1113.19C515.045 1112.2 529.435 1123.86 529.435 1123.86C529.435 1123.86 530.279 1106.01 532.887 1104.24C535.383 1102.55 551.879 1106.12 551.879 1106.12C551.879 1106.12 551.117 1093.33 553.135 1091.68C555.636 1089.65 567.104 1092.47 567.104 1092.47C567.104 1092.47 566.435 1077.83 569.301 1075.83C571.785 1074.09 582.642 1079.13 582.642 1079.13L553.449 1119.46L499.771 1143.48L461.788 1133.9L446.25 1110.05L449.545 961.099L456.452 947.287L461.449 935.653Z" fill="#34A13C"/>
<path d="M427.233 1254.29C535.666 1254.29 623.568 1236.15 623.568 1213.77C623.568 1191.4 535.666 1173.26 427.233 1173.26C318.8 1173.26 230.898 1191.4 230.898 1213.77C230.898 1236.15 318.8 1254.29 427.233 1254.29Z" fill="#EAEAEA"/>
<path d="M407.192 1171.3C407.896 1184.44 410.055 1208.82 409.302 1210.73C408.14 1212.78 395.689 1220.75 388.884 1225.76C387.161 1226.78 385.497 1225.99 385.985 1222.86L386.829 1218.55L375.164 1222.31C370.269 1223.34 369.159 1218.24 371.41 1216.36L378.627 1210.42L372.399 1210.29C366.27 1210.17 368.499 1205.79 371.344 1204.69L386.04 1199.69L385.091 1164.01L406.498 1164.15L407.192 1171.3Z" fill="#71B41F"/>
<path d="M348.964 991.032C348.964 991.032 315.132 1037.27 313.255 1037.89C312.53 1038.88 299.085 1042.3 294.665 1043.79C289.275 1045.37 288.685 1052.67 296.407 1052.37L307.696 1051.81L298.181 1057.68C290.02 1063.2 294.71 1070.96 302.105 1066.58L310.943 1060.67L306.005 1071.27C304.24 1075.18 307.647 1081.56 312.963 1076.11L322.067 1067.21L319.257 1075.93C317.238 1082.44 325.213 1083.63 327.982 1078.03L342.99 1047L371.435 1019L348.964 991.032Z" fill="#71B41F"/>
<path d="M331.304 952.984L335.988 954.395L331.722 974.192L328.632 988.584L328.291 990.201C327.003 999.066 326.228 1002.08 323.892 1018.23C323.564 1020.53 323.892 1019.14 323.457 1022.22C323.27 1024.63 323.153 1028.22 323.082 1031.15C322.929 1036.61 322.707 1041.87 322.741 1047.83C322.741 1051.95 322.336 1055.01 322.501 1059.35C322.623 1062.66 322.492 1065.71 322.776 1069.1C323.023 1072.69 322.899 1075.98 323.303 1079.64C324.077 1086.41 325.128 1093.25 326.617 1100.02C327.449 1103.79 327.952 1107.6 329.054 1111.28C331.806 1120.49 335.339 1129.41 340.149 1137.49C342.656 1141.7 345.292 1145.84 348.463 1149.56C350.415 1151.85 352.429 1154.08 354.655 1156.15C358.644 1157.73 362.825 1158.83 367.035 1159.15C371.404 1159.48 375.785 1159.03 379.966 1157.64C382.056 1156.94 384.094 1156.01 386.056 1154.8C388.018 1153.6 389.907 1152.12 391.685 1150.37C394.908 1147.18 397.75 1143.02 400.114 1137.78C402.016 1133.56 403.686 1128.85 404.847 1123.12C405.081 1121.97 405.375 1120.95 405.574 1119.74L405.867 1117.89C406.09 1115.34 406.195 1113.17 406.36 1110.8C406.746 1105.2 407.139 1099.64 407.541 1094.07C407.81 1090.23 408.115 1086.26 408.35 1082.53C408.69 1076.99 409.299 1070.76 409.555 1065.38C409.836 1059.46 409.9 1053.64 410.029 1047.84C410.151 1042.11 410.499 1036.26 410.499 1030.53C410.499 1025.52 410.376 1020.38 410.252 1015.29C409.983 1006.73 409.661 998.14 408.969 989.068C408.535 983.367 407.914 977.313 407.284 971.277C406.897 967.595 406.733 962.765 406.112 957.213C399.832 958.011 393.785 958.62 387.805 958.97C381.826 959.321 375.904 959.404 369.869 959.145C363.834 958.888 357.688 958.301 351.242 957.28C344.943 956.283 338.33 954.86 331.304 952.984Z" fill="#D3D95D"/>
<path d="M391.684 1150.37C394.907 1147.18 397.75 1143.01 400.114 1137.77L340.148 1137.49C342.655 1141.71 345.291 1145.84 348.462 1149.56L391.684 1150.37Z" fill="#EFECC3"/>
<path d="M404.833 1123.12C405.067 1121.97 405.366 1120.95 405.567 1119.74L405.859 1117.89C406.083 1115.34 406.187 1113.17 406.352 1110.8L326.602 1100.02C327.434 1103.78 327.944 1107.6 329.044 1111.28L404.833 1123.12Z" fill="#EFECC3"/>
<path d="M407.54 1094.07C407.81 1090.23 408.121 1086.26 408.355 1082.53L322.781 1069.1C323.028 1072.69 322.904 1075.98 323.308 1079.64L407.54 1094.07Z" fill="#EFECC3"/>
<path d="M409.554 1065.37C409.836 1059.46 409.906 1053.64 410.035 1047.84L322.735 1047.83C322.735 1051.95 322.336 1055.01 322.501 1059.35L409.554 1065.37Z" fill="#EFECC3"/>
<path d="M410.478 1030.53C410.478 1025.52 410.362 1020.38 410.238 1015.29L323.871 1018.22C323.543 1020.52 323.871 1019.21 323.426 1022.29C323.273 1024.79 323.133 1028.22 323.062 1031.14L410.478 1030.53Z" fill="#EFECC3"/>
<path d="M408.957 989.068C408.523 983.367 407.902 977.313 407.272 971.277L331.722 974.192L328.625 988.584L408.957 989.068Z" fill="#EFECC3"/>
<path d="M387.415 854.538C377.765 852.98 367.101 861.938 365.407 869.408C361.975 883.355 363.344 883.082 362.426 895.004C353.2 895.004 345.21 895.625 333.462 895.449C324.008 888.941 310.714 864.691 297.722 885.572C287.86 866.377 278.491 881.641 277.744 888.014C275.716 901.772 273.202 915.221 289.015 920.057H289.137L289.26 920.069C292.037 925.187 294.13 921.7 289.736 922.394C291.102 946.66 311.181 946.935 331.299 953.019C338.325 954.895 344.936 956.326 351.235 957.321C357.681 958.341 363.827 958.933 369.862 959.188C375.898 959.445 381.819 959.353 387.798 959C393.778 958.649 399.82 958.039 406.099 957.242C406.72 962.796 406.885 967.626 407.274 971.308C407.907 977.342 408.525 983.397 408.959 989.098C409.651 998.171 409.979 1006.76 410.25 1015.32C410.414 1020.41 410.473 1025.55 410.496 1030.56C410.496 1036.29 410.15 1042.14 410.022 1047.87C409.899 1053.67 409.823 1059.49 409.541 1065.41C409.282 1070.79 408.691 1077.02 408.348 1082.56C408.114 1086.29 407.809 1090.26 407.539 1094.1C407.14 1099.67 406.747 1105.23 406.358 1110.83C406.193 1113.2 406.088 1115.37 405.865 1117.92L405.572 1119.77C405.373 1120.98 405.079 1122.01 404.845 1123.15C403.683 1128.88 402.014 1133.59 400.112 1137.81C397.748 1143.04 394.899 1147.22 391.676 1150.4C389.898 1152.16 388.01 1153.63 386.048 1154.83C384.086 1156.04 382.048 1156.98 379.957 1157.68C375.777 1159.07 371.402 1159.52 367.033 1159.18C362.822 1158.87 358.636 1157.76 354.647 1156.18C362.731 1163.67 372.61 1169.63 384.787 1173.24C403.727 1179.12 422.586 1184.74 442.056 1184.69C509.513 1184.55 532.546 1169.65 554.103 1154.63C589.852 1128.27 610.938 1069.08 602.556 1065.63C584.178 1058.1 482.664 1211.59 458.721 1078.95C449.6 1015.02 484.072 902.754 445.57 865.089C438.849 859.843 426.543 856.646 420.121 872.082C416.78 884.621 415.292 881.48 406.22 881.189C404.434 881.024 404.186 877.032 402.669 870.04C400.309 862.933 394.434 855.686 387.963 854.479L387.415 854.538Z" fill="#A2CB41"/>
<path d="M434.476 903.773C426.998 903.773 420.936 895.525 420.936 885.35C420.936 875.175 426.998 866.927 434.476 866.927C441.954 866.927 448.016 875.175 448.016 885.35C448.016 895.525 441.954 903.773 434.476 903.773Z" fill="white"/>
<path d="M433.98 894.179C430.25 894.569 426.796 890.771 426.265 885.695C425.735 880.62 428.328 876.189 432.058 875.799C435.789 875.409 439.243 879.207 439.773 884.283C440.304 889.358 437.71 893.789 433.98 894.179Z" fill="black"/>
<path d="M384.007 898.316C376.529 898.316 370.467 890.068 370.467 879.893C370.467 869.718 376.529 861.47 384.007 861.47C391.485 861.47 397.547 869.718 397.547 879.893C397.547 890.068 391.485 898.316 384.007 898.316Z" fill="white"/>
<path d="M385.404 889.918C381.662 890.161 378.36 886.23 378.029 881.137C377.699 876.045 380.465 871.72 384.208 871.477C387.95 871.234 391.252 875.165 391.583 880.258C391.913 885.35 389.147 889.675 385.404 889.918Z" fill="black"/>
<path d="M308.484 891.043C310.085 891.043 311.382 889.173 311.382 886.866C311.382 884.56 310.085 882.689 308.484 882.689C306.883 882.689 305.586 884.56 305.586 886.866C305.586 889.173 306.883 891.043 308.484 891.043Z" fill="black"/>
<path d="M464.318 1176.4C464.763 1190.44 466.201 1215.72 464.318 1218.52C461.338 1222.16 449.308 1228.26 441.084 1233.55C435.523 1236.72 434.983 1232.75 436.093 1230.43L437.487 1227.61L426.682 1228.93C423.123 1229.65 418.28 1227.37 422.845 1223.23L429.951 1217.51H421.497C417.651 1217.51 416.756 1213.1 421.169 1211.64L438.666 1207.72L439.194 1146.81L461.047 1161.9L464.318 1176.4Z" fill="#93BD31"/>
<path d="M286.688 889.175C288.1 889.175 289.244 887.526 289.244 885.492C289.244 883.458 288.1 881.81 286.688 881.81C285.277 881.81 284.133 883.458 284.133 885.492C284.133 887.526 285.277 889.175 286.688 889.175Z" fill="black"/>
<path d="M424.253 994.481C424.253 994.481 388.045 1038.88 386.137 1039.4C385.361 1040.36 371.756 1043.06 367.265 1044.32C361.798 1045.62 360.827 1052.88 368.554 1052.98L379.857 1053.02L370.048 1058.38C361.61 1063.46 365.886 1071.46 373.5 1067.47L382.635 1062.04L377.149 1072.37C375.182 1076.18 378.249 1082.72 383.844 1077.56L393.402 1069.15L390.138 1077.71C387.782 1084.1 395.683 1085.72 398.742 1080.27L415.355 1050.07L445.228 1023.59L424.253 994.481Z" fill="#A2CB41"/>
<path d="M292.18 921.917L292.701 927.394C293.577 933.758 298.89 933.05 300.089 927.533L301.22 922.458L310.593 923.384L310.511 928.194C310.285 934.71 315.663 934.35 317.086 929.392L318.698 924.359L326.002 925.118L326.44 929.926C326.96 935.369 332.133 935.717 333.491 931.012L334.697 926.314L344.446 927.432L344.405 932.638C344.549 939.213 351.098 936.512 351.917 933.095L353.19 927.858L369.142 930.18L369.809 936.656C370.288 941.593 375.144 941.282 376.209 937.052L377.638 931.588L387.57 933.614L387.007 939.981C386.766 945.205 391.957 944.12 393.802 940.697L396.139 935.994L399.317 937.145L399.235 941.725C399.393 945.978 403.372 946.209 406.13 942.273L407.452 940.092L408.354 940.534L408.299 944.653C408.34 949.34 411.235 949.506 413.003 946.577L415.214 943.571C412.163 941.254 407.374 939.146 404.324 937.555C403.967 937.413 403.613 937.276 403.261 937.142C394.217 933.711 386.33 932.655 377.713 930.758L361.948 928.01C338.494 926.249 312.366 919.986 292.615 921.508L292.18 921.917Z" fill="white"/>
<path d="M289.761 922.453C289.761 922.453 318.672 924.047 348.964 927.814C364.11 929.698 379.566 932.119 391.78 935.181C397.886 936.711 403.189 938.411 407.204 940.233C411.219 942.056 413.903 944.056 414.89 945.845C415.388 947.149 417.852 945.79 417.017 944.675C415.549 942.015 412.448 939.922 408.215 938C403.981 936.078 398.558 934.367 392.365 932.814C379.977 929.709 364.483 927.258 349.283 925.368C318.882 921.588 289.305 920.063 289.305 920.063C289.305 920.063 289.797 921.638 289.761 922.453Z" fill="black"/>
<path d="M367.742 873.226C367.742 873.226 382.571 862.283 392.082 865.249C401.593 868.215 392.388 860.852 392.388 860.852L378.48 860.341L367.742 873.226Z" fill="#A2CB41"/>
<path d="M451.624 877.705C451.624 877.705 436.795 866.763 427.285 869.728C417.774 872.694 426.978 865.331 426.978 865.331L440.887 864.82L451.624 877.705Z" fill="#A2CB41"/>
<path d="M1169.94 942.198C1169.94 942.198 1184.16 953.807 1183.99 957.855C1183.69 965.088 1171.76 973.357 1171.76 973.357C1171.76 973.357 1183.55 984.951 1183.27 988.371C1182.85 993.513 1170.02 999.638 1170.02 999.638C1170.02 999.638 1180.66 1009.99 1180.48 1013.97C1180.29 1017.97 1166 1027.36 1166 1027.36C1166 1027.36 1179.51 1036.55 1179.85 1040.42C1180.08 1043.13 1166.65 1052.59 1166.65 1052.59C1166.65 1052.59 1179.64 1062.35 1179.81 1065.04C1180.17 1070.98 1165.99 1077.37 1165.99 1077.37C1165.99 1077.37 1180.79 1085.28 1181.07 1088.11C1181.47 1092.19 1172.13 1104.92 1172.13 1104.92C1172.13 1104.92 1186.54 1104.67 1188.32 1106.92C1191.21 1110.58 1185.7 1129.9 1185.7 1129.9C1185.7 1129.9 1198.12 1117.94 1202.66 1118.8C1206.22 1119.46 1211.43 1136.36 1211.43 1136.36C1211.43 1136.36 1216.81 1118.21 1220.4 1116.64C1222.6 1115.67 1236.74 1127.12 1236.74 1127.12C1236.74 1127.12 1237.57 1109.59 1240.14 1107.85C1242.59 1106.18 1258.8 1109.7 1258.8 1109.7C1258.8 1109.7 1258.05 1097.12 1260.03 1095.51C1262.49 1093.51 1273.76 1096.28 1273.76 1096.28C1273.76 1096.28 1273.1 1081.9 1275.91 1079.93C1278.36 1078.23 1289.02 1083.17 1289.02 1083.17L1260.34 1122.81L1207.6 1146.4L1170.28 1137L1155.01 1113.55L1158.25 967.2L1165.03 953.629L1169.94 942.198Z" fill="#34A13C"/>
<path d="M1097.22 974.688C1097.22 974.688 1025.28 990.417 1023.77 989.914C1022.83 990.202 1011.79 984.015 1008.92 983.096C1005.68 980.586 999.49 984.741 1004.36 988.911L1014.74 997.945L1011.01 996.885C1002.1 996.251 1005.5 1001.2 1011.99 1001.08L1012.11 1004.97L1002.74 1010.16C1000.08 1011.57 999.512 1016.8 1004.58 1016.18L1016.12 1014.51L1009.16 1017.18C1004.75 1020.39 1011.08 1024.68 1015.55 1022.41L1044.23 1012.16L1082.04 1001.3L1097.22 974.688Z" fill="#77B52A"/>
<path d="M1136.34 1255.29C1242.88 1255.29 1329.25 1237.47 1329.25 1215.48C1329.25 1193.49 1242.88 1175.67 1136.34 1175.67C1029.79 1175.67 943.422 1193.49 943.422 1215.48C943.422 1237.47 1029.79 1255.29 1136.34 1255.29Z" fill="#F0F0F1"/>
<path d="M1116.67 1173.74C1117.37 1186.66 1119.49 1210.6 1118.75 1212.48C1117.61 1214.5 1105.37 1222.33 1098.68 1227.25C1096.99 1228.25 1095.36 1227.48 1095.84 1224.4L1096.67 1220.17L1085.2 1223.86C1080.39 1224.87 1079.3 1219.86 1081.51 1218.02L1088.61 1212.18L1082.49 1212.06C1076.47 1211.95 1078.66 1207.64 1081.45 1206.56L1095.89 1201.64L1094.96 1166.59L1115.99 1166.72L1116.67 1173.74Z" fill="#77B52A"/>
<path d="M1064.49 1158.94C1068.41 1160.49 1072.52 1161.58 1076.66 1161.89C1080.95 1162.21 1085.25 1161.78 1089.36 1160.41C1091.41 1159.72 1093.42 1158.8 1095.34 1157.62C1097.27 1156.43 1099.13 1154.98 1100.88 1153.26L1058.41 1152.46C1060.32 1154.72 1062.3 1156.91 1064.49 1158.94Z" fill="#D3D95D"/>
<path d="M1041.56 959.313L1046.17 960.701L1041.97 980.153L1038.94 994.293L1038.6 995.882C1037.34 1004.59 1036.57 1007.55 1034.28 1023.42C1033.96 1025.68 1034.28 1024.32 1033.85 1027.34C1033.67 1029.72 1033.55 1033.24 1033.48 1036.11C1033.33 1041.48 1033.12 1046.65 1033.15 1052.51C1033.15 1056.56 1032.75 1059.57 1032.91 1063.83C1033.04 1067.08 1032.91 1070.07 1033.18 1073.41C1033.43 1076.93 1033.3 1080.17 1033.7 1083.76C1034.46 1090.41 1035.5 1097.14 1036.96 1103.79C1037.78 1107.49 1038.27 1111.24 1039.35 1114.85C1042.06 1123.9 1045.53 1132.67 1050.25 1140.61C1052.72 1144.75 1055.31 1148.81 1058.42 1152.46C1060.34 1154.71 1062.32 1156.91 1064.51 1158.94C1068.43 1160.49 1072.54 1161.58 1076.67 1161.89C1080.97 1162.21 1085.27 1161.78 1089.38 1160.41C1091.43 1159.72 1093.43 1158.8 1095.36 1157.62C1097.29 1156.43 1099.15 1154.98 1100.89 1153.26C1104.06 1150.13 1106.85 1146.03 1109.18 1140.89C1111.04 1136.74 1112.68 1132.11 1113.83 1126.49C1114.06 1125.36 1114.34 1124.36 1114.54 1123.17L1114.83 1121.34C1115.05 1118.84 1115.15 1116.71 1115.31 1114.38C1115.69 1108.88 1116.08 1103.42 1116.47 1097.95C1116.74 1094.17 1117.04 1090.27 1117.27 1086.6C1117.6 1081.16 1118.2 1075.03 1118.45 1069.75C1118.73 1063.94 1118.79 1058.22 1118.92 1052.52C1119.04 1046.89 1119.38 1041.14 1119.38 1035.51C1119.38 1030.59 1119.26 1025.54 1119.14 1020.53C1118.87 1012.12 1118.56 1003.68 1117.88 994.769C1117.45 989.167 1116.84 983.219 1116.22 977.288C1115.84 973.671 1115.68 968.925 1115.07 963.469C1108.9 964.253 1102.96 964.852 1097.08 965.195C1091.21 965.541 1085.39 965.621 1079.46 965.368C1073.53 965.115 1067.49 964.538 1061.15 963.535C1054.97 962.556 1048.47 961.157 1041.56 959.313Z" fill="#D3D95D"/>
<path d="M1100.86 1153.26C1104.03 1150.13 1106.82 1146.04 1109.15 1140.89L1050.23 1140.61C1052.69 1144.75 1055.28 1148.81 1058.4 1152.47L1100.86 1153.26Z" fill="#EFECC3"/>
<path d="M1050.25 1140.61L1109.17 1140.89C1111.04 1136.74 1112.68 1132.11 1113.82 1126.49L1039.35 1114.86C1042.06 1123.9 1045.52 1132.67 1050.25 1140.61Z" fill="#D3D95D"/>
<path d="M1113.81 1126.49C1114.04 1125.36 1114.34 1124.36 1114.53 1123.17L1114.82 1121.35C1115.04 1118.84 1115.15 1116.71 1115.31 1114.38L1036.95 1103.79C1037.76 1107.49 1038.26 1111.24 1039.35 1114.86L1113.81 1126.49Z" fill="#EFECC3"/>
<path d="M1115.31 1114.38C1115.69 1108.88 1116.07 1103.42 1116.46 1097.95L1033.7 1083.77C1034.46 1090.42 1035.48 1097.14 1036.95 1103.8L1115.31 1114.38Z" fill="#D3D95D"/>
<path d="M1116.46 1097.95C1116.73 1094.17 1117.03 1090.27 1117.26 1086.6L1033.18 1073.41C1033.42 1076.93 1033.29 1080.17 1033.7 1083.76L1116.46 1097.95Z" fill="#EFECC3"/>
<path d="M1117.26 1086.61C1117.6 1081.16 1118.19 1075.04 1118.45 1069.75L1032.9 1063.83C1033.03 1067.08 1032.9 1070.08 1033.17 1073.41L1117.26 1086.61Z" fill="#D3D95D"/>
<path d="M1118.45 1069.75C1118.73 1063.94 1118.8 1058.22 1118.92 1052.52L1033.14 1052.51C1033.14 1056.56 1032.75 1059.57 1032.91 1063.83L1118.45 1069.75Z" fill="#EFECC3"/>
<path d="M1118.89 1052.52C1119.02 1046.89 1119.35 1041.15 1119.35 1035.51L1033.45 1036.11C1033.31 1041.48 1033.09 1046.65 1033.12 1052.51L1118.89 1052.52Z" fill="#D3D95D"/>
<path d="M1119.36 1035.51C1119.36 1030.59 1119.25 1025.54 1119.13 1020.54L1034.26 1023.42C1033.94 1025.68 1034.26 1024.39 1033.83 1027.42C1033.68 1029.87 1033.54 1033.25 1033.47 1036.12L1119.36 1035.51Z" fill="#EFECC3"/>
<path d="M1119.12 1020.53C1118.86 1012.12 1118.54 1003.69 1117.86 994.771L1038.92 994.299L1038.59 995.889C1037.32 1004.6 1036.56 1007.56 1034.27 1023.43L1119.12 1020.53Z" fill="#D3D95D"/>
<path d="M1117.86 994.772C1117.44 989.17 1116.83 983.221 1116.21 977.291L1041.97 980.155L1038.93 994.296L1117.86 994.772Z" fill="#EFECC3"/>
<path d="M1116.2 977.288C1115.82 973.671 1115.66 968.925 1115.05 963.469C1108.88 964.253 1102.95 964.852 1097.07 965.195C1091.19 965.541 1085.38 965.621 1079.45 965.368C1073.52 965.115 1067.48 964.538 1061.14 963.535C1054.95 962.556 1048.46 961.151 1041.55 959.308L1046.15 960.695L1041.97 980.147L1116.2 977.288Z" fill="#D3D95D"/>
<path d="M1097.21 862.496C1087.73 860.966 1077.25 869.768 1075.59 877.108C1072.22 890.812 1073.56 890.544 1072.66 902.258C1063.59 902.258 1055.74 902.868 1044.2 902.695C1034.91 896.301 1021.85 872.473 1009.08 892.991C999.392 874.13 990.186 889.128 989.452 895.39C987.46 908.908 984.99 922.123 1000.53 926.875C1000.53 926.873 1000.64 926.873 1000.64 926.875C1000.64 926.877 1000.76 926.881 1000.76 926.886C1006.9 927.612 1013.3 928.797 1019.85 930.245C1026.39 931.693 1033.08 933.403 1039.79 935.157C1053.2 938.665 1066.68 942.359 1079.25 944.57C1085.53 945.676 1091.58 946.408 1097.26 946.57C1102.94 946.731 1108.25 946.328 1113.07 945.16C1115.48 944.572 1117.77 943.802 1119.92 942.82C1122.07 941.84 1124.09 940.639 1125.96 939.2C1127.84 937.76 1129.57 936.079 1131.14 934.127C1132.72 932.174 1134.14 929.948 1135.39 927.422C1135.39 927.388 1135.39 927.341 1135.39 927.307C1135.39 927.261 1135.51 927.226 1135.51 927.192C1135.51 927.146 1135.63 927.111 1135.63 927.076C1135.63 927.03 1135.74 926.996 1135.74 926.961C1135.74 926.915 1135.86 926.881 1135.86 926.846C1135.86 926.8 1135.97 926.765 1135.97 926.731C1135.97 926.685 1136.09 926.65 1136.09 926.616C1136.09 926.614 1136.2 926.614 1136.2 926.616C1136.2 926.614 1136.32 926.614 1136.32 926.616C1136.32 926.614 1136.43 926.614 1136.43 926.616C1136.43 926.614 1136.55 926.614 1136.55 926.616C1136.55 926.614 1136.67 926.614 1136.67 926.616C1136.67 926.614 1136.78 926.614 1136.78 926.616C1136.78 926.614 1136.9 926.614 1136.9 926.616C1136.9 926.614 1137.01 926.614 1137.01 926.616C1137.01 926.614 1137.13 926.614 1137.13 926.616C1137.13 926.614 1137.24 926.614 1137.24 926.616C1137.24 926.65 1137.36 926.685 1137.36 926.731C1137.36 926.765 1137.47 926.8 1137.47 926.846C1137.47 926.881 1137.59 926.915 1137.59 926.961C1137.59 926.996 1137.71 927.03 1137.71 927.076C1137.71 927.111 1137.82 927.146 1137.82 927.192C1137.82 927.226 1137.82 927.272 1137.82 927.307C1137.82 927.341 1137.82 927.388 1137.82 927.422C1137.82 927.457 1137.82 927.503 1137.82 927.537C1137.82 927.572 1137.82 927.618 1137.82 927.653C1137.82 927.687 1137.82 927.733 1137.82 927.768C1137.82 927.802 1137.82 927.848 1137.81 927.883C1137.81 927.918 1137.81 927.964 1137.8 927.998C1137.8 928.033 1137.8 928.079 1137.8 928.113C1137.8 928.148 1137.8 928.194 1137.8 928.229C1137.8 928.263 1137.8 928.309 1137.8 928.344C1136.48 931.009 1134.97 933.37 1133.28 935.453C1131.59 937.536 1129.72 939.341 1127.71 940.889C1125.7 942.437 1123.53 943.73 1121.23 944.789C1118.94 945.849 1116.51 946.673 1113.97 947.289C1108.9 948.523 1103.39 948.947 1097.55 948.783C1091.72 948.622 1085.57 947.862 1079.21 946.747C1066.49 944.51 1052.93 940.806 1039.54 937.304C1032.84 935.554 1026.18 933.85 1019.69 932.411C1013.3 930.992 1007.07 929.843 1001.12 929.13C1001.37 939.188 1004.62 946.22 1011.22 949.927L1041.96 959.221C1048.86 961.064 1055.35 962.47 1061.54 963.448C1067.88 964.45 1073.92 965.032 1079.85 965.282C1085.78 965.536 1091.6 965.444 1097.47 965.098C1103.35 964.752 1109.28 964.153 1115.45 963.371C1116.06 968.828 1116.22 973.573 1116.61 977.191C1117.23 983.12 1117.84 989.07 1118.26 994.672C1118.94 1003.59 1119.26 1012.02 1119.53 1020.43C1119.69 1025.44 1119.75 1030.49 1119.77 1035.41C1119.77 1041.05 1119.43 1046.79 1119.31 1052.42C1119.18 1058.12 1119.11 1063.84 1118.83 1069.65C1118.58 1074.94 1118 1081.06 1117.66 1086.51C1117.43 1090.17 1117.13 1094.07 1116.87 1097.85C1116.47 1103.32 1116.09 1108.78 1115.7 1114.28C1115.54 1116.61 1115.44 1118.74 1115.22 1121.25L1114.93 1123.07C1114.74 1124.26 1114.45 1125.27 1114.22 1126.39C1113.08 1132.01 1111.44 1136.64 1109.57 1140.79C1107.25 1145.93 1104.45 1150.03 1101.28 1153.16C1099.53 1154.89 1097.68 1156.34 1095.75 1157.52C1093.82 1158.7 1091.82 1159.62 1089.76 1160.31C1085.66 1161.69 1081.36 1162.12 1077.07 1161.79C1072.93 1161.48 1068.81 1160.39 1064.9 1158.84C1072.84 1166.21 1082.55 1172.06 1094.51 1175.6C1113.12 1181.39 1131.65 1186.9 1150.78 1186.86C1217.06 1186.72 1239.69 1172.08 1260.88 1157.32C1296 1131.42 1316.72 1073.26 1308.49 1069.87C1290.43 1062.47 1190.68 1213.29 1167.16 1082.96C1158.19 1020.14 1192.07 909.832 1154.23 872.824C1147.63 867.669 1135.54 864.527 1129.23 879.694C1125.95 892.015 1125.63 880.355 1116.71 880.07C1114.96 879.908 1113.57 884.559 1112.08 877.688C1109.76 870.705 1103.99 863.585 1097.63 862.398L1097.21 862.496Z" fill="#A2CB41"/>
<path d="M1143.45 911.817C1136.11 911.817 1130.15 903.712 1130.15 893.714C1130.15 883.717 1136.11 875.612 1143.45 875.612C1150.8 875.612 1156.76 883.717 1156.76 893.714C1156.76 903.712 1150.8 911.817 1143.45 911.817Z" fill="white"/>
<path d="M1141.53 904.028C1137.87 904.411 1134.47 900.679 1133.95 895.692C1133.43 890.705 1135.98 886.352 1139.64 885.968C1143.31 885.585 1146.7 889.317 1147.23 894.304C1147.75 899.291 1145.2 903.645 1141.53 904.028Z" fill="black"/>
<path d="M1093.87 906.458C1086.52 906.458 1080.56 898.354 1080.56 888.356C1080.56 878.359 1086.52 870.254 1093.87 870.254C1101.22 870.254 1107.17 878.359 1107.17 888.356C1107.17 898.354 1101.22 906.458 1093.87 906.458Z" fill="white"/>
<path d="M1091.96 899.416C1088.28 899.655 1085.04 895.792 1084.72 890.788C1084.39 885.785 1087.11 881.535 1090.79 881.296C1094.46 881.058 1097.71 884.921 1098.03 889.924C1098.36 894.928 1095.64 899.178 1091.96 899.416Z" fill="black"/>
<path d="M1017.93 969.6C1007.34 974.521 1001.63 980.151 997.79 987.616C993.872 995.242 993.54 1002.64 996.788 1009.82C999.895 1016.68 1004.45 1021.1 1010.44 1023.09C1016.48 1024.93 1024.49 1024.35 1034.45 1021.36L1047.04 1017.57C1050.87 1016.48 1053.73 1016.19 1055.63 1016.73C1057.52 1017.27 1059.03 1018.75 1060.12 1021.18C1061.12 1023.39 1060.87 1025.79 1059.37 1028.38C1057.93 1030.81 1055.15 1032.96 1051.04 1034.83C1045.55 1037.31 1040.93 1037.5 1037.17 1035.38C1035.65 1034.54 1034.35 1033.23 1033.28 1031.42C1031.12 1027.76 1008.7 1038.95 1010.8 1042.3C1013.23 1046.62 1016.12 1049.71 1021.02 1053.2C1031.31 1059.34 1043.95 1059.02 1058.93 1052.23C1070.22 1047.11 1077.88 1040.72 1081.91 1033.05C1085.93 1025.37 1086.31 1017.95 1083.06 1010.77C1076.47 996.211 1063.68 991.838 1044.69 997.643L1032.1 1001.44C1025.34 1003.35 1021.22 1002.68 1019.74 999.412C1018.78 997.301 1019.02 995.156 1020.45 992.981C1021.83 990.702 1024.48 988.677 1028.38 986.909C1032.92 984.852 1036.95 984.486 1040.47 985.814C1041.85 986.333 1043.11 987.164 1044.26 988.297C1045.03 989.504 1058.1 980.794 1057.57 978.663L1054.48 976.197L1047.02 980.181L1044.4 972.782L1038.85 979.228L1033.78 972.341L1026.22 980.181L1017.93 969.6Z" fill="#002236"/>
<path d="M1164.88 985.119C1164.88 985.119 1080.74 1017.78 1078.82 1017.46C1077.74 1017.99 1063.2 1012.58 1059.55 1012.01C1055.15 1009.59 1048.44 1015.79 1055.13 1019.92L1069.4 1028.89L1047.99 1029.95C1037.08 1030.87 1042 1040.58 1049.85 1039.21L1067.5 1037.9L1057.13 1045.96C1053.72 1048.03 1053.38 1055.2 1060.5 1052.9L1074.16 1048.69L1065.39 1056.29C1060.65 1061.02 1069.37 1064.4 1074.34 1060.8L1107.76 1040.53L1151.48 1020.23L1164.88 985.119Z" fill="#A2CB41"/>
<path d="M1019.67 898.368C1021.24 898.368 1022.52 896.531 1022.52 894.264C1022.52 891.998 1021.24 890.16 1019.67 890.16C1018.1 890.16 1016.82 891.998 1016.82 894.264C1016.82 896.531 1018.1 898.368 1019.67 898.368Z" fill="black"/>
<path d="M1133.62 933.582C1134.31 934.516 1135.06 935.35 1135.46 935.932C1142.14 945.492 1132.42 944.625 1129.47 940.776C1129.04 940.212 1128.29 939.115 1128.07 938.577L1127.14 938.83C1131.85 962.525 1119.01 955.826 1116.9 949.445C1116.47 948.138 1115.14 943.175 1114.98 942.165L1109.93 945.088C1111.58 962.751 1102.51 958.619 1100.68 949.905C1100.45 948.845 1100.41 947.018 1100.45 945.869L1088.67 945.374C1088.8 947.702 1089.11 951.238 1088.79 952.853C1087.33 960.088 1081 958.307 1080.48 952.462C1080.35 950.966 1079.82 946.536 1079.99 944.759L1068.18 942.05C1067.86 944.406 1067.2 947.474 1066.75 949.071C1065.24 954.416 1059.77 953.943 1059.21 948.38C1059.02 946.39 1059.62 942.918 1060.12 940.432L1048.36 937.561L1047.99 941.835C1047.21 950.479 1038.18 949.47 1039.1 941.951L1039.53 935.047L1029.15 932.869L1027.09 938.633C1025.74 942.525 1019.27 945.745 1019.72 936.305L1020.24 930.107L1016.27 929.289L1014.68 934.946C1012.71 941.796 1005.72 943.088 1005.47 932.86L1006.03 926.324L1008.24 919.933L1125.96 917.408L1133.62 933.582Z" fill="white"/>
<path d="M1001.16 926.322C1061.48 942.08 1120.13 962.187 1136.07 929.593L1130.88 910.155L1010.01 916.698L1001.16 926.322Z" fill="#A2CB41"/>
<path d="M1115.4 945.612C1116.8 941.047 1117.42 937.439 1117.81 934.191C1119.28 919.833 1106.57 923.461 1104.76 932.703C1102.4 941.224 1099.74 948.28 1100 947.482C1105.83 946.629 1110.66 948.787 1115.4 945.612Z" fill="#ED1B24"/>
<path d="M1000.71 929.222C1006.67 929.937 1012.89 931.084 1019.29 932.504C1025.78 933.943 1032.44 935.647 1039.13 937.397C1052.53 940.898 1066.08 944.603 1078.8 946.84C1085.16 947.958 1091.31 948.714 1097.15 948.876C1102.98 949.037 1108.49 948.611 1113.57 947.382C1116.11 946.771 1118.53 945.94 1120.83 944.881C1123.12 943.821 1125.29 942.53 1127.31 940.981C1129.32 939.434 1131.18 937.629 1132.87 935.545C1134.56 933.462 1136.07 931.101 1137.4 928.437C1137.4 928.398 1137.4 928.36 1137.4 928.321C1137.4 928.283 1137.4 928.244 1137.4 928.206C1137.4 928.168 1137.4 928.129 1137.4 928.091C1137.4 928.052 1137.4 928.014 1137.4 927.976C1137.4 927.937 1137.4 927.899 1137.4 927.86C1137.4 927.822 1137.4 927.784 1137.4 927.745C1137.4 927.707 1137.4 927.668 1137.4 927.63C1137.4 927.592 1137.4 927.553 1137.4 927.515C1137.4 927.476 1137.4 927.438 1137.4 927.4C1137.4 927.361 1137.4 927.323 1137.4 927.284C1137.37 927.243 1137.33 927.205 1137.29 927.169C1137.25 927.128 1137.21 927.09 1137.17 927.054C1137.14 927.013 1137.1 926.974 1137.06 926.939C1137.02 926.898 1136.98 926.859 1136.94 926.823C1136.91 926.782 1136.87 926.744 1136.83 926.708C1136.79 926.706 1136.75 926.706 1136.71 926.708C1136.67 926.706 1136.63 926.706 1136.6 926.708C1136.56 926.706 1136.52 926.706 1136.48 926.708C1136.44 926.706 1136.4 926.706 1136.37 926.708C1136.33 926.703 1136.29 926.699 1136.25 926.697C1136.21 926.695 1136.17 926.695 1136.14 926.697C1136.1 926.699 1136.06 926.703 1136.02 926.708C1135.98 926.706 1135.94 926.706 1135.9 926.708C1135.86 926.706 1135.82 926.706 1135.78 926.708C1135.75 926.706 1135.71 926.706 1135.67 926.708C1135.63 926.744 1135.59 926.782 1135.55 926.823C1135.51 926.859 1135.47 926.898 1135.44 926.939C1135.4 926.974 1135.36 927.013 1135.32 927.054C1135.28 927.09 1135.24 927.128 1135.21 927.169C1135.17 927.205 1135.13 927.243 1135.09 927.284C1135.05 927.32 1135.01 927.359 1134.98 927.4C1134.98 927.438 1134.98 927.476 1134.98 927.515C1133.72 930.04 1132.3 932.266 1130.73 934.219C1129.15 936.172 1127.42 937.853 1125.55 939.292C1123.67 940.731 1121.66 941.93 1119.5 942.912C1117.35 943.892 1115.06 944.667 1112.65 945.252C1107.83 946.423 1102.52 946.826 1096.84 946.663C1091.16 946.501 1085.12 945.764 1078.83 944.662C1066.27 942.451 1052.78 938.758 1039.37 935.249C1032.66 933.496 1025.98 931.786 1019.43 930.338C1012.88 928.889 1006.48 927.703 1000.34 926.979C1000.3 926.973 1000.26 926.969 1000.22 926.968C1000.19 926.966 1000.15 926.966 1000.11 926.968C1000.11 927.809 1000.24 928.487 1000.25 929.289L1000.71 929.222Z" fill="black"/>
<path d="M1172.78 1178.76C1173.22 1192.55 1174.63 1217.39 1172.78 1220.14C1169.85 1223.72 1158.03 1229.71 1149.95 1234.91C1144.49 1238.02 1143.96 1234.12 1145.05 1231.84L1146.42 1229.07L1135.8 1230.36C1132.3 1231.08 1127.54 1228.83 1132.03 1224.77L1139.01 1219.14H1130.71C1126.93 1219.14 1126.05 1214.82 1130.38 1213.38L1147.58 1209.53L1148.09 1149.68L1169.57 1164.51L1172.78 1178.76Z" fill="#A2CB41"/>
<path d="M1114.52 1123.17L1114.81 1121.35C1114.81 1121.59 1114.81 1121.77 1114.69 1122.03C1114.58 1122.44 1114.52 1122.77 1114.44 1123.17L1114.52 1123.17Z" fill="#D2D75F"/>
<path d="M1026.79 1193.83L1017.8 1200.22C1023.79 1200 1031.26 1198 1035.44 1200.69L1044.29 1195.01C1040.03 1192.99 1034.38 1192.41 1026.79 1193.83Z" fill="#002236"/>
<path d="M1043.5 1202.64L1056.29 1204L1053.39 1200.28L1056.01 1194.93C1051.79 1197.45 1047.08 1199.52 1043.5 1202.64Z" fill="#002236"/>
<path d="M1037.95 1211.52L1042.08 1218.48C1043.31 1217.18 1045.02 1214.82 1046.22 1213.5C1047.41 1212.19 1047.88 1211.46 1048.39 1209.66C1046.25 1209.32 1044.01 1209.77 1037.95 1211.52Z" fill="#002236"/>
<path d="M1018.1 1209.53L1022.05 1211.46L1027.49 1213.36L1035.07 1208.27C1037.82 1203.18 1023.82 1206.17 1018.1 1209.53Z" fill="#002236"/>
<path d="M1076.95 886.47C1086.45 884.662 1100.61 885.652 1110.19 890.048L1105.8 872.317L1095.73 864.287L1082.8 868.778L1076.95 886.47Z" fill="#A2CB41"/>
<path d="M1132.49 882.364L1129.28 890.937C1140.35 889.555 1150.32 890.465 1160.98 896.136L1154.81 880.459L1146.37 874.471L1136.85 875.289L1132.49 882.364Z" fill="#A2CB41"/>
<path d="M994.932 995.695C1000.05 996.064 1000.93 1000.33 998.603 1002.63C997.451 1003.23 996.132 1003.4 994.787 1003.41C991.408 1003.3 992.218 995.764 994.932 995.695Z" fill="#77B52A"/>
<path d="M995.126 1006.45C997.919 1002.59 1003.29 1005.29 1002.18 1009.1C1001.37 1011 1000.56 1011.28 997.757 1011.88C995.279 1012.17 994.031 1007.89 995.126 1006.45Z" fill="#77B52A"/>
<path d="M998.733 1013.75C1001.34 1011.31 1005.38 1012.08 1005.25 1016.01C1005.13 1017.16 1004.37 1017.96 1003.34 1018.89C1001.89 1020.16 996.764 1015.95 998.733 1013.75Z" fill="#77B52A"/>
<path d="M998.245 896.531C999.632 896.531 1000.76 894.911 1000.76 892.913C1000.76 890.914 999.632 889.294 998.245 889.294C996.859 889.294 995.734 890.914 995.734 892.913C995.734 894.911 996.859 896.531 998.245 896.531Z" fill="black"/>
<path d="M1176.55 866.773C1178.33 859.803 1174.98 850.711 1172.51 842.896C1171.16 839.499 1170.75 837.982 1174.57 840.091L1192.11 852.476C1195.99 853.076 1196.6 850.093 1197.38 847.3C1185.87 809.852 1141.48 784.527 1107.35 811.518C1096.63 820.473 1085.32 831.367 1082.34 846.017C1109.61 858.139 1143.51 868.257 1176.55 866.773Z" fill="#E11A1C"/>
<path d="M1086.21 850.158C1090.33 836.596 1098.94 819.099 1119.75 812.462C1121.85 811.011 1106.62 812.27 1092 830.741C1085.62 838.808 1081.4 850.362 1081.4 850.362L1086.21 850.158Z" fill="#9F191A"/>
<path d="M1173.8 861.456C1174.64 849.642 1171.1 842.181 1164.75 835.969C1163.8 835.045 1164.47 834.487 1166.45 835.851C1178.39 845.975 1175.62 855.683 1178.05 867.147L1174.01 864.244L1173.8 861.456Z" fill="#9F191A"/>
<path d="M1075.46 844.506C1078.21 844.999 1078.01 838.187 1082.19 839.896C1085.35 841.173 1089.31 843.102 1091.49 842.626C1093.67 842.151 1095.51 842.22 1096.89 843.841C1098.26 845.461 1096.63 846.768 1099.92 846.192C1103.22 845.617 1105.55 846.101 1106.55 848.064C1107.56 850.023 1112.02 848.352 1112.02 848.352C1112.02 848.352 1113.4 848.141 1114.32 850.042C1115.25 851.943 1120.71 852.655 1122.89 851.687C1125.06 850.719 1123.54 853.63 1123.95 854.483C1124.36 855.335 1127.6 853.899 1129.57 854.048C1131.53 854.195 1132.68 854.218 1133.25 854.63C1133.81 855.042 1138.67 854.296 1139.85 855.808C1141.03 857.321 1146.93 859.057 1149.09 858.226C1151.25 857.396 1154.16 855.904 1155.08 856.361C1156 856.818 1156.8 859.783 1160.08 859.081C1163.36 858.378 1166.92 856.886 1168.63 857.968C1170.34 859.051 1172.97 859.943 1174.85 861.197C1176.74 862.452 1178.1 863.19 1180.28 865.097C1184.79 871.238 1179.94 876.172 1180.26 879.547C1180.65 881.778 1180.35 883.369 1179.29 884.926C1178.23 886.483 1180.26 888.376 1178.72 889.36C1171.84 888.44 1168.24 893.854 1166.26 888.915C1167.61 893.229 1170.36 887.076 1165.17 888.483C1162.54 888.535 1161.52 888.643 1158.19 889.005C1154.33 888.888 1154.07 884.143 1151.26 885.366C1148.41 886.601 1145.99 886.304 1141.73 884.516C1137.47 882.729 1138.23 883.93 1133.81 884.659C1129.39 885.385 1123.96 885.023 1121.16 882.711C1118.36 880.4 1107.19 882.988 1104.3 880.261C1101.42 877.533 1096.22 879.485 1092.97 878.927C1089.71 878.369 1084.28 877.117 1080.6 871.975C1078.51 869.055 1078.25 873.193 1075.36 874.055C1073.16 874.712 1068.06 872.068 1067.53 871.175C1066.3 869.11 1068.78 863.775 1068.95 861.213C1069.13 858.65 1066.71 854.936 1068.95 853.958C1071.2 852.979 1069.87 849.791 1070.21 849.246C1073.23 847.141 1072.55 842.99 1075.46 844.506Z" fill="#F9F9F9" stroke="#E7EAEB" stroke-width="2.00002"/>
<path d="M1202.44 846.403C1205.02 850.193 1203.69 848.702 1207.46 849.221C1211.22 849.739 1212.86 850.335 1212 852.558C1211.15 854.781 1212.74 855.085 1213.1 857.421C1213.46 859.757 1211.44 858.922 1210.84 860.209C1210.24 861.497 1213.01 861.719 1212.67 864.062C1212.28 865.717 1211.28 866.019 1209.05 867.059C1206.82 868.099 1209.9 868.722 1206.44 870.847C1204.39 872.107 1203.63 870.729 1201.81 869.913C1200 869.097 1199.2 873.304 1195.9 871.318C1192.61 869.333 1193.85 869.591 1192.1 867.966C1189.05 865.644 1187.71 869.885 1186.18 867.031C1184.64 864.178 1184.26 864.286 1184.83 861.509C1185.4 858.731 1182.68 857.207 1185.55 855.171C1188.43 853.136 1187.85 853.921 1188.32 851.758C1188.78 849.595 1192.24 848.417 1192.82 848.327C1198.13 846.761 1199.95 842.15 1202.44 846.403Z" fill="#F9F9F9" stroke="#E7EAEB" stroke-width="2.00002"/>
<path d="M1172.06 842.407C1172.06 842.407 1171.13 841.839 1170.36 839.907C1169.16 836.902 1167.98 832.018 1168.44 831.792C1168.93 831.552 1169.23 832.382 1169.4 832.635C1170.56 836.232 1172.96 838.665 1174.48 840.016C1174.06 839.788 1172.15 838.792 1171.68 839.372C1171.07 840.039 1173.5 844.593 1172.06 842.407Z" fill="#9F191A"/>
<path d="M1069.94 862.958C1070.73 873.523 1080.84 861.393 1085.09 864.202C1089.21 868.325 1086.77 870.616 1094.86 871.226C1097.42 871.419 1101.6 870.017 1103.7 870.123C1108.26 870.354 1110.55 871.942 1118.07 871.837C1129.07 871.684 1123.42 874.586 1137.47 876.724C1143.85 877.695 1145.97 874.699 1148.67 875.083C1151.92 875.543 1155.33 879.195 1159 877.945C1165.72 875.655 1166.33 870.768 1173.05 873.67C1179.77 876.571 1179.31 878.098 1179.31 878.098L1179.46 886.191L1178.7 891.078C1175.77 894.976 1172.6 895.004 1168.24 895.443C1164.96 893.918 1165.25 890.066 1164.38 889.927C1164.38 889.927 1159.46 890.162 1158.69 889.704C1157.93 889.245 1152.59 885.581 1152.59 885.581L1148 886.802L1137.01 884.053L1126.17 884.97L1118.23 882.221L1108.91 882.068L1102.04 880.083L1097.31 877.945H1086.31L1079.14 870.921L1078.32 870.471C1076.3 881.194 1070.88 869.739 1067.22 870.31L1066.46 866.034L1069.94 862.958Z" fill="#E7EAEB"/>
<path d="M1185.13 862.695C1185.87 863.638 1188.56 865.861 1192.53 864.446C1196.51 863.032 1196.64 863.84 1197.92 864.649C1199.2 865.457 1199.54 867.276 1202.1 865.996C1204.66 864.716 1202.23 862.56 1206.48 862.426C1210.72 862.291 1211.87 862.628 1212.14 860.876C1212.41 859.125 1211.53 865.322 1211.53 865.322L1209.51 867.141C1209.51 867.141 1207.09 871.317 1206.28 871.048C1205.47 870.778 1201.16 869.566 1201.16 869.566L1197.05 871.654L1193.55 868.892L1189.03 867.747C1189.03 867.747 1185.66 867.208 1185.6 866.467C1185.53 865.726 1185.13 862.695 1185.13 862.695Z" fill="#E7EAEB"/>
</svg>
