<svg width="1202" height="1265" viewBox="0 0 1202 1265" fill="none" xmlns="http://www.w3.org/2000/svg">
<rect x="0.00390625" y="60.2437" width="1201.98" height="1201.98" rx="100" fill="white"/>
<path d="M154.233 894.248V374.761H379.236C504.877 374.761 575.798 437.042 575.798 547.203V547.923C575.798 614.524 541.238 672.125 487.237 695.525L591.278 894.248H442.956L353.675 715.325H286.354V894.248H154.233ZM286.354 619.564H364.475C411.276 619.564 441.156 591.484 441.156 547.563V546.843C441.156 503.283 410.196 474.482 363.755 474.482H286.354V619.564ZM642.399 894.248V374.761H883.962C986.923 374.761 1049.2 424.442 1049.2 505.443V506.163C1049.2 564.843 1004.2 611.644 945.163 619.204V621.724C1016.08 625.324 1071.88 676.805 1071.88 744.846V745.566C1071.88 835.927 1001.68 894.248 890.442 894.248H642.399ZM849.042 468.002H774.521V588.244H839.322C892.242 588.244 920.323 565.203 920.323 526.323V525.603C920.323 489.602 893.682 468.002 849.042 468.002ZM849.042 671.405H774.521V801.006H853.002C907.002 801.006 937.603 778.326 937.603 736.206V735.486C937.603 694.085 907.002 671.405 849.042 671.405Z" fill="black"/>
</svg>
