<svg width="1014" height="1014" viewBox="0 0 1014 1014" fill="none" xmlns="http://www.w3.org/2000/svg">
<rect width="1014" height="1014" fill="#84FF00"/>
<path d="M337.812 464.072V421.77H507.02V464.072H337.812Z" fill="#DBB180"/>
<path d="M591.625 929.396V887.094H464.719V929.396H507.021V1014H549.323V929.396H591.625Z" fill="black"/>
<path d="M845.438 760.187H591.625V802.489H845.438V760.187Z" fill="#595959"/>
<path d="M718.533 379.468H676.231V464.072H549.324V506.374H591.626V548.676H676.231V717.885H591.626V760.187H845.439V802.489H591.626V887.093H633.928V844.791H887.741V717.885H718.533V379.468Z" fill="black"/>
<path d="M380.114 802.49V1014H337.812V802.49H380.114Z" fill="black"/>
<path d="M337.812 802.489H295.51V633.281H253.208V464.072H295.51V421.77H337.812V464.072H507.021V548.677H464.719V590.979H380.114V548.677H337.812V506.374H295.51V590.979H337.812V802.489Z" fill="black"/>
<path d="M337.813 506.374H295.511V590.978H337.813V802.489H380.115V1014H507.022V929.395H464.719V887.093H591.626V802.489H464.719V760.187H591.626V717.885H676.23V548.676H591.626V506.374H549.324V464.072H507.022V548.676H464.719V590.978H380.115V548.676H337.813V506.374Z" fill="#DBB180"/>
<path d="M253.209 379.468H84V421.77H126.302V548.676H168.604V506.374H210.906V464.072H253.209V421.77H507.022V464.072H633.928V421.77H676.23V379.468H718.532V294.863H676.23V252.561H337.813V294.863H295.511V337.166H253.209V379.468Z" fill="#1637A4"/>
<path d="M507.02 760.186H464.719V802.488H507.02V760.186Z" fill="#C42110"/>
<path d="M464.719 760.186H422.417V802.488H464.719V760.186Z" fill="#DBB180"/>
<path d="M422.417 760.186H380.115V802.488H422.417V760.186Z" fill="#DBB180"/>
<path d="M380.114 760.186H337.812V802.488H380.114V760.186Z" fill="#DBB180"/>
<path d="M337.813 760.186H295.511V802.488H337.813V760.186Z" fill="black"/>
<path d="M549.323 760.186H507.021V802.488H549.323V760.186Z" fill="#C42110"/>
<path d="M591.626 760.186H549.324V802.488H591.626V760.186Z" fill="black"/>
<path d="M633.927 760.186H591.625V802.488H633.927V760.186Z" fill="#595959"/>
<path d="M676.23 760.186H633.928V802.488H676.23V760.186Z" fill="#595959"/>
<path d="M718.531 760.186H676.229V802.488H718.531V760.186Z" fill="#595959"/>
<path d="M760.834 760.186H718.532V802.488H760.834V760.186Z" fill="#595959"/>
<path d="M803.137 760.186H760.835V802.488H803.137V760.186Z" fill="#595959"/>
<path d="M845.438 760.186H803.136V802.488H845.438V760.186Z" fill="#0040FF"/>
<path d="M887.74 760.186H845.438V802.488H887.74V760.186Z" fill="black"/>
<path d="M507.02 717.884H464.719V760.186H507.02V717.884Z" fill="#DBB180"/>
<path d="M464.719 717.884H422.417V760.186H464.719V717.884Z" fill="#DBB180"/>
<path d="M422.417 717.884H380.115V760.186H422.417V717.884Z" fill="#DBB180"/>
<path d="M380.114 717.884H337.812V760.186H380.114V717.884Z" fill="#DBB180"/>
<path d="M337.813 717.884H295.511V760.186H337.813V717.884Z" fill="black"/>
<path d="M549.323 717.884H507.021V760.186H549.323V717.884Z" fill="#DBB180"/>
<path d="M591.626 717.884H549.324V760.186H591.626V717.884Z" fill="#DBB180"/>
<path d="M633.927 717.884H591.625V760.186H633.927V717.884Z" fill="black"/>
<path d="M676.23 717.884H633.928V760.186H676.23V717.884Z" fill="black"/>
<path d="M718.531 717.884H676.229V760.186H718.531V717.884Z" fill="black"/>
<path d="M507.02 675.583H464.719V717.885H507.02V675.583Z" fill="#DBB180"/>
<path d="M464.719 675.583H422.417V717.885H464.719V675.583Z" fill="#DBB180"/>
<path d="M422.417 675.583H380.115V717.885H422.417V675.583Z" fill="#DBB180"/>
<path d="M380.114 675.583H337.812V717.885H380.114V675.583Z" fill="#DBB180"/>
<path d="M337.813 675.583H295.511V717.885H337.813V675.583Z" fill="black"/>
<path d="M549.323 675.583H507.021V717.885H549.323V675.583Z" fill="black"/>
<path d="M591.626 675.583H549.324V717.885H591.626V675.583Z" fill="#DBB180"/>
<path d="M633.927 675.583H591.625V717.885H633.927V675.583Z" fill="#DBB180"/>
<path d="M676.23 675.583H633.928V717.885H676.23V675.583Z" fill="#DBB180"/>
<path d="M718.531 675.583H676.229V717.885H718.531V675.583Z" fill="black"/>
<path d="M507.02 633.281H464.719V675.582H507.02V633.281Z" fill="#DBB180"/>
<path d="M464.719 633.281H422.417V675.582H464.719V633.281Z" fill="#DBB180"/>
<path d="M422.417 633.281H380.115V675.582H422.417V633.281Z" fill="#DBB180"/>
<path d="M380.114 633.281H337.812V675.582H380.114V633.281Z" fill="#DBB180"/>
<path d="M337.813 633.281H295.511V675.582H337.813V633.281Z" fill="black"/>
<path d="M549.323 633.281H507.021V675.582H549.323V633.281Z" fill="#DBB180"/>
<path d="M591.626 633.281H549.324V675.582H591.626V633.281Z" fill="#DBB180"/>
<path d="M633.927 633.281H591.625V675.582H633.927V633.281Z" fill="#DBB180"/>
<path d="M676.23 633.281H633.928V675.582H676.23V633.281Z" fill="#DBB180"/>
<path d="M718.531 633.281H676.229V675.582H718.531V633.281Z" fill="black"/>
<path d="M507.02 590.979H464.719V633.28H507.02V590.979Z" fill="#DBB180"/>
<path d="M464.719 590.979H422.417V633.28H464.719V590.979Z" fill="#DBB180"/>
<path d="M422.417 590.979H380.115V633.28H422.417V590.979Z" fill="#DBB180"/>
<path d="M380.114 590.979H337.812V633.28H380.114V590.979Z" fill="#DBB180"/>
<path d="M337.813 590.979H295.511V633.28H337.813V590.979Z" fill="black"/>
<path d="M295.51 590.979H253.208V633.28H295.51V590.979Z" fill="black"/>
<path d="M549.323 590.979H507.021V633.28H549.323V590.979Z" fill="#DBB180"/>
<path d="M591.626 590.979H549.324V633.28H591.626V590.979Z" fill="#DBB180"/>
<path d="M633.927 590.979H591.625V633.28H633.927V590.979Z" fill="#DBB180"/>
<path d="M676.23 590.979H633.928V633.28H676.23V590.979Z" fill="#DBB180"/>
<path d="M718.531 590.979H676.229V633.28H718.531V590.979Z" fill="black"/>
<path d="M507.02 548.677H464.719V590.979H507.02V548.677Z" fill="#DBB180"/>
<path d="M464.719 548.677H422.417V590.979H464.719V548.677Z" fill="black"/>
<path d="M422.417 548.677H380.115V590.979H422.417V548.677Z" fill="black"/>
<path d="M380.114 548.677H337.812V590.979H380.114V548.677Z" fill="#DBB180"/>
<path d="M337.813 548.677H295.511V590.979H337.813V548.677Z" fill="#DBB180"/>
<path d="M295.51 548.677H253.208V590.979H295.51V548.677Z" fill="black"/>
<path d="M549.323 548.677H507.021V590.979H549.323V548.677Z" fill="#DBB180"/>
<path d="M591.626 548.677H549.324V590.979H591.626V548.677Z" fill="#DBB180"/>
<path d="M633.927 548.677H591.625V590.979H633.927V548.677Z" fill="#DBB180"/>
<path d="M676.23 548.677H633.928V590.979H676.23V548.677Z" fill="#DBB180"/>
<path d="M718.531 548.677H676.229V590.979H718.531V548.677Z" fill="black"/>
<path d="M507.02 506.375H464.719V548.677H507.02V506.375Z" fill="black"/>
<path d="M464.719 506.375H422.417V548.677H464.719V506.375Z" fill="black"/>
<path d="M422.417 506.375H380.115V548.677H422.417V506.375Z" fill="black"/>
<path d="M380.114 506.375H337.812V548.677H380.114V506.375Z" fill="black"/>
<path d="M337.813 506.375H295.511V548.677H337.813V506.375Z" fill="#DBB180"/>
<path d="M295.51 506.375H253.208V548.677H295.51V506.375Z" fill="black"/>
<path d="M549.323 506.375H507.021V548.677H549.323V506.375Z" fill="#DBB180"/>
<path d="M591.626 506.375H549.324V548.677H591.626V506.375Z" fill="#DBB180"/>
<path d="M633.927 506.375H591.625V548.677H633.927V506.375Z" fill="black"/>
<path d="M676.23 506.375H633.928V548.677H676.23V506.375Z" fill="black"/>
<path d="M718.531 506.375H676.229V548.677H718.531V506.375Z" fill="black"/>
<path d="M507.02 464.07H464.719V506.372H507.02V464.07Z" fill="black"/>
<path d="M464.719 464.07H422.417V506.372H464.719V464.07Z" fill="black"/>
<path d="M422.417 464.07H380.115V506.372H422.417V464.07Z" fill="black"/>
<path d="M380.114 464.07H337.812V506.372H380.114V464.07Z" fill="black"/>
<path d="M337.813 464.07H295.511V506.372H337.813V464.07Z" fill="black"/>
<path d="M295.51 464.07H253.208V506.372H295.51V464.07Z" fill="black"/>
<path d="M549.323 464.07H507.021V506.372H549.323V464.07Z" fill="#DBB180"/>
<path d="M591.626 464.07H549.324V506.372H591.626V464.07Z" fill="black"/>
<path d="M633.927 464.07H591.625V506.372H633.927V464.07Z" fill="black"/>
<path d="M676.23 464.07H633.928V506.372H676.23V464.07Z" fill="black"/>
<path d="M718.531 464.07H676.229V506.372H718.531V464.07Z" fill="black"/>
<path d="M507.02 421.768H464.719V464.07H507.02V421.768Z" fill="#DBB180"/>
<path d="M464.719 421.768H422.417V464.07H464.719V421.768Z" fill="#DBB180"/>
<path d="M422.417 421.768H380.115V464.07H422.417V421.768Z" fill="#DBB180"/>
<path d="M380.114 421.768H337.812V464.07H380.114V421.768Z" fill="#DBB180"/>
<path d="M337.813 421.768H295.511V464.07H337.813V421.768Z" fill="black"/>
<path d="M549.323 421.768H507.021V464.07H549.323V421.768Z" fill="#1637A4"/>
<path d="M591.626 421.768H549.324V464.07H591.626V421.768Z" fill="#1637A4"/>
<path d="M633.927 421.768H591.625V464.07H633.927V421.768Z" fill="#1637A4"/>
<path d="M676.23 421.768H633.928V464.07H676.23V421.768Z" fill="#DBB180"/>
<path d="M718.531 421.768H676.229V464.07H718.531V421.768Z" fill="black"/>
<path d="M760.834 717.884H718.532V760.186H760.834V717.884Z" fill="black"/>
<path d="M803.137 717.884H760.835V760.186H803.137V717.884Z" fill="black"/>
<path d="M845.438 717.884H803.136V760.186H845.438V717.884Z" fill="black"/>
<path d="M887.74 717.884H845.438V760.186H887.74V717.884Z" fill="black"/>
<path d="M337.813 379.467H295.511V421.769H337.813V379.467Z" fill="#1A43C8"/>
<path d="M295.51 379.467H253.208V421.769H295.51V379.467Z" fill="#142C7C"/>
<path d="M253.209 379.467H210.907V421.769H253.209V379.467Z" fill="#1637A4"/>
<path d="M210.906 379.467H168.604V421.769H210.906V379.467Z" fill="#1A43C8"/>
<path d="M168.603 379.467H126.301V421.769H168.603V379.467Z" fill="#1637A4"/>
<path d="M126.302 379.467H84.0002V421.769H126.302V379.467Z" fill="#1637A4"/>
<path d="M168.603 421.768H126.301V464.07H168.603V421.768Z" fill="#1A43C8"/>
<path d="M210.906 421.768H168.604V464.07H210.906V421.768Z" fill="#1637A4"/>
<path d="M253.209 421.768H210.907V464.07H253.209V421.768Z" fill="#142C7C"/>
<path d="M210.906 464.074H168.604V506.376H210.906V464.074Z" fill="#142C7C"/>
<path d="M168.603 464.07H126.301V506.372H168.603V464.07Z" fill="#1A43C8"/>
<path d="M168.603 506.373H126.301V548.674H168.603V506.373Z" fill="#1A43C8"/>
<path d="M380.11 379.467H337.809V421.769H380.11V379.467Z" fill="#1637A4"/>
<path d="M422.413 379.467H380.111V421.769H422.413V379.467Z" fill="#1637A4"/>
<path d="M464.716 379.467H422.414V421.769H464.716V379.467Z" fill="#1637A4"/>
<path d="M507.02 379.467H464.719V421.769H507.02V379.467Z" fill="#1637A4"/>
<path d="M549.323 379.467H507.021V421.769H549.323V379.467Z" fill="#1A43C8"/>
<path d="M591.626 379.467H549.324V421.769H591.626V379.467Z" fill="#1A43C8"/>
<path d="M633.927 379.467H591.625V421.769H633.927V379.467Z" fill="#1A43C8"/>
<path d="M676.23 379.467H633.928V421.769H676.23V379.467Z" fill="#1637A4"/>
<path d="M718.531 379.467H676.229V421.769H718.531V379.467Z" fill="black"/>
<path d="M337.813 337.165H295.511V379.467H337.813V337.165Z" fill="#1A43C8"/>
<path d="M295.51 337.165H253.208V379.467H295.51V337.165Z" fill="#1637A4"/>
<path d="M380.11 337.165H337.809V379.467H380.11V337.165Z" fill="#1A43C8"/>
<path d="M422.413 337.165H380.111V379.467H422.413V337.165Z" fill="#1A43C8"/>
<path d="M464.716 337.165H422.414V379.467H464.716V337.165Z" fill="#1A43C8"/>
<path d="M507.02 337.165H464.719V379.467H507.02V337.165Z" fill="#1A43C8"/>
<path d="M549.323 337.165H507.021V379.467H549.323V337.165Z" fill="#1A43C8"/>
<path d="M591.626 337.165H549.324V379.467H591.626V337.165Z" fill="#1A43C8"/>
<path d="M633.927 337.165H591.625V379.467H633.927V337.165Z" fill="#1A43C8"/>
<path d="M676.23 337.165H633.928V379.467H676.23V337.165Z" fill="#1A43C8"/>
<path d="M718.531 337.165H676.229V379.467H718.531V337.165Z" fill="#1637A4"/>
<path d="M337.813 294.863H295.511V337.165H337.813V294.863Z" fill="#1637A4"/>
<path d="M380.11 294.863H337.809V337.165H380.11V294.863Z" fill="#1A43C8"/>
<path d="M422.413 294.863H380.111V337.165H422.413V294.863Z" fill="#1A43C8"/>
<path d="M464.716 294.863H422.414V337.165H464.716V294.863Z" fill="#1A43C8"/>
<path d="M507.02 294.863H464.719V337.165H507.02V294.863Z" fill="#1A43C8"/>
<path d="M549.323 294.863H507.021V337.165H549.323V294.863Z" fill="#1A43C8"/>
<path d="M591.626 294.863H549.324V337.165H591.626V294.863Z" fill="#1A43C8"/>
<path d="M633.927 294.863H591.625V337.165H633.927V294.863Z" fill="#1A43C8"/>
<path d="M676.23 294.863H633.928V337.165H676.23V294.863Z" fill="#1A43C8"/>
<path d="M380.11 252.561H337.809V294.863H380.11V252.561Z" fill="#1637A4"/>
<path d="M422.413 252.561H380.111V294.863H422.413V252.561Z" fill="#1637A4"/>
<path d="M464.716 252.561H422.414V294.863H464.716V252.561Z" fill="#1637A4"/>
<path d="M507.02 252.561H464.719V294.863H507.02V252.561Z" fill="#1637A4"/>
<path d="M549.323 252.561H507.021V294.863H549.323V252.561Z" fill="#1637A4"/>
<path d="M591.626 252.561H549.324V294.863H591.626V252.561Z" fill="#1637A4"/>
<path d="M633.927 252.561H591.625V294.863H633.927V252.561Z" fill="#1637A4"/>
<path d="M676.23 252.561H633.928V294.863H676.23V252.561Z" fill="#1637A4"/>
<path d="M718.371 294.974H676.157V337.187H718.371V294.974Z" fill="#1637A4"/>
<path d="M507.02 802.488H464.719V844.789H507.02V802.488Z" fill="#DBB180"/>
<path d="M464.719 802.488H422.417V844.789H464.719V802.488Z" fill="#DBB180"/>
<path d="M422.417 802.488H380.115V844.789H422.417V802.488Z" fill="#DBB180"/>
<path d="M380.114 802.488H337.812V844.789H380.114V802.488Z" fill="black"/>
<path d="M549.323 802.488H507.021V844.789H549.323V802.488Z" fill="#DBB180"/>
<path d="M591.626 802.488H549.324V844.789H591.626V802.488Z" fill="#DBB180"/>
<path d="M633.927 802.488H591.625V844.789H633.927V802.488Z" fill="black"/>
<path d="M507.02 844.79H464.719V887.092H507.02V844.79Z" fill="#DBB180"/>
<path d="M464.719 844.79H422.417V887.092H464.719V844.79Z" fill="black"/>
<path d="M422.417 844.79H380.115V887.092H422.417V844.79Z" fill="#DBB180"/>
<path d="M380.114 844.79H337.812V887.092H380.114V844.79Z" fill="black"/>
<path d="M549.323 844.79H507.021V887.092H549.323V844.79Z" fill="#DBB180"/>
<path d="M591.626 844.79H549.324V887.092H591.626V844.79Z" fill="#DBB180"/>
<path d="M507.02 887.094H464.719V929.396H507.02V887.094Z" fill="black"/>
<path d="M464.719 887.094H422.417V929.396H464.719V887.094Z" fill="#DBB180"/>
<path d="M422.417 887.094H380.115V929.396H422.417V887.094Z" fill="#DBB180"/>
<path d="M380.114 887.094H337.812V929.396H380.114V887.094Z" fill="black"/>
<path d="M549.323 887.094H507.021V929.396H549.323V887.094Z" fill="black"/>
<path d="M507.02 929.397H464.719V971.699H507.02V929.397Z" fill="#DBB180"/>
<path d="M464.719 929.397H422.417V971.699H464.719V929.397Z" fill="#DBB180"/>
<path d="M422.417 929.397H380.115V971.699H422.417V929.397Z" fill="#DBB180"/>
<path d="M380.114 929.397H337.812V971.699H380.114V929.397Z" fill="black"/>
<path d="M549.323 929.397H507.021V971.699H549.323V929.397Z" fill="black"/>
<path d="M507.02 971.698H464.719V1014H507.02V971.698Z" fill="#DBB180"/>
<path d="M464.719 971.698H422.417V1014H464.719V971.698Z" fill="#DBB180"/>
<path d="M422.417 971.698H380.115V1014H422.417V971.698Z" fill="#DBB180"/>
<path d="M380.114 971.698H337.812V1014H380.114V971.698Z" fill="black"/>
<path d="M549.323 971.698H507.021V1014H549.323V971.698Z" fill="black"/>
<path d="M591.626 887.094H549.324V929.396H591.626V887.094Z" fill="black"/>
<path d="M633.927 844.79H591.625V887.092H633.927V844.79Z" fill="black"/>
<path d="M676.23 802.488H633.928V844.789H676.23V802.488Z" fill="black"/>
<path d="M718.531 802.488H676.229V844.789H718.531V802.488Z" fill="black"/>
<path d="M760.834 802.488H718.532V844.789H760.834V802.488Z" fill="black"/>
<path d="M803.137 802.488H760.835V844.789H803.137V802.488Z" fill="black"/>
<path d="M845.438 802.488H803.136V844.789H845.438V802.488Z" fill="black"/>
<path d="M887.74 802.488H845.438V844.789H887.74V802.488Z" fill="black"/>
<path d="M549.323 760.187H464.719V802.489H549.323V760.187Z" fill="#C42110"/>
<path d="M295.511 337.165V421.77H337.813V379.468H507.022V421.77H633.928V379.468H676.23V294.863H337.813V337.165H295.511Z" fill="#1A43C8"/>
<path d="M507.02 421.77H337.812V379.468H507.02V421.77Z" fill="#1637A4"/>
</svg>
