<svg width="1683" height="1084" viewBox="0 0 1683 1084" fill="none" xmlns="http://www.w3.org/2000/svg">
<rect x="0.743652" y="0.521423" width="1681.49" height="1082.64" fill="white"/>
<path d="M271.563 346.151C271.299 343.489 270.166 341.421 268.163 339.947C266.161 338.472 263.444 337.735 260.011 337.735C257.679 337.735 255.71 338.065 254.104 338.725C252.497 339.363 251.265 340.255 250.407 341.399C249.571 342.543 249.153 343.841 249.153 345.293C249.109 346.503 249.362 347.559 249.912 348.462C250.484 349.364 251.265 350.145 252.255 350.805C253.246 351.443 254.39 352.004 255.688 352.488C256.986 352.95 258.372 353.346 259.846 353.676L265.919 355.128C268.867 355.788 271.574 356.669 274.038 357.769C276.502 358.869 278.637 360.222 280.441 361.828C282.245 363.434 283.642 365.327 284.632 367.505C285.644 369.683 286.161 372.18 286.183 374.997C286.161 379.133 285.105 382.72 283.015 385.756C280.947 388.77 277.955 391.114 274.038 392.786C270.144 394.436 265.446 395.261 259.945 395.261C254.489 395.261 249.736 394.425 245.688 392.753C241.661 391.081 238.515 388.605 236.249 385.327C234.004 382.027 232.827 377.945 232.717 373.082H246.546C246.7 375.349 247.349 377.241 248.493 378.759C249.659 380.255 251.21 381.388 253.147 382.159C255.105 382.907 257.316 383.281 259.78 383.281C262.201 383.281 264.302 382.929 266.084 382.225C267.888 381.52 269.285 380.541 270.276 379.287C271.266 378.033 271.761 376.592 271.761 374.964C271.761 373.446 271.31 372.169 270.408 371.135C269.528 370.101 268.229 369.221 266.513 368.495C264.819 367.769 262.74 367.109 260.275 366.515L252.916 364.666C247.217 363.28 242.717 361.113 239.417 358.165C236.117 355.216 234.477 351.245 234.499 346.25C234.477 342.158 235.566 338.582 237.767 335.524C239.989 332.466 243.036 330.078 246.909 328.362C250.781 326.646 255.182 325.788 260.11 325.788C265.127 325.788 269.506 326.646 273.246 328.362C277.008 330.078 279.935 332.466 282.025 335.524C284.115 338.582 285.193 342.125 285.259 346.151H271.563ZM295.532 394.304V343.61H308.931V352.554H309.526C310.582 349.584 312.342 347.24 314.806 345.524C317.27 343.808 320.219 342.95 323.651 342.95C327.128 342.95 330.087 343.819 332.529 345.557C334.972 347.273 336.6 349.606 337.414 352.554H337.942C338.976 349.65 340.846 347.328 343.553 345.59C346.281 343.83 349.504 342.95 353.223 342.95C357.953 342.95 361.793 344.457 364.741 347.471C367.711 350.464 369.197 354.71 369.197 360.211V394.304H355.17V362.983C355.17 360.167 354.422 358.055 352.926 356.647C351.43 355.238 349.559 354.534 347.315 354.534C344.763 354.534 342.771 355.348 341.341 356.977C339.911 358.583 339.196 360.706 339.196 363.346V394.304H325.565V362.686C325.565 360.2 324.85 358.22 323.42 356.746C322.012 355.271 320.153 354.534 317.843 354.534C316.28 354.534 314.872 354.93 313.618 355.722C312.386 356.493 311.407 357.582 310.681 358.99C309.955 360.376 309.592 362.004 309.592 363.874V394.304H295.532ZM394.758 395.261C391.524 395.261 388.641 394.7 386.111 393.578C383.581 392.434 381.579 390.751 380.104 388.528C378.652 386.284 377.926 383.49 377.926 380.145C377.926 377.329 378.443 374.964 379.477 373.049C380.511 371.135 381.92 369.595 383.702 368.429C385.484 367.263 387.508 366.383 389.775 365.789C392.063 365.195 394.461 364.777 396.969 364.534C399.918 364.226 402.294 363.94 404.098 363.676C405.902 363.39 407.212 362.972 408.026 362.422C408.84 361.872 409.247 361.058 409.247 359.98V359.782C409.247 357.692 408.587 356.074 407.267 354.93C405.968 353.786 404.12 353.214 401.722 353.214C399.192 353.214 397.178 353.775 395.682 354.897C394.186 355.997 393.196 357.384 392.712 359.056L379.708 358C380.368 354.919 381.667 352.257 383.603 350.013C385.539 347.746 388.036 346.008 391.095 344.798C394.175 343.566 397.74 342.95 401.788 342.95C404.604 342.95 407.3 343.28 409.874 343.94C412.47 344.6 414.77 345.623 416.772 347.009C418.796 348.396 420.391 350.178 421.557 352.356C422.723 354.512 423.307 357.098 423.307 360.112V394.304H409.973V387.274H409.577C408.763 388.858 407.674 390.256 406.31 391.466C404.945 392.654 403.306 393.589 401.392 394.271C399.478 394.931 397.266 395.261 394.758 395.261ZM398.785 385.558C400.853 385.558 402.679 385.151 404.263 384.337C405.847 383.501 407.091 382.379 407.993 380.97C408.895 379.562 409.346 377.967 409.346 376.185V370.805C408.906 371.091 408.301 371.355 407.531 371.597C406.783 371.817 405.935 372.026 404.989 372.224C404.043 372.4 403.097 372.565 402.151 372.719C401.205 372.851 400.347 372.972 399.577 373.082C397.927 373.325 396.485 373.71 395.253 374.238C394.021 374.766 393.064 375.481 392.382 376.383C391.7 377.263 391.359 378.363 391.359 379.683C391.359 381.598 392.052 383.061 393.438 384.073C394.846 385.063 396.628 385.558 398.785 385.558ZM434.214 394.304V343.61H447.845V352.455H448.373C449.297 349.309 450.848 346.932 453.027 345.326C455.205 343.698 457.713 342.884 460.551 342.884C461.256 342.884 462.015 342.928 462.829 343.016C463.643 343.104 464.358 343.225 464.974 343.379V355.854C464.314 355.656 463.401 355.48 462.235 355.326C461.069 355.172 460.001 355.095 459.033 355.095C456.965 355.095 455.117 355.546 453.489 356.449C451.882 357.329 450.606 358.561 449.66 360.145C448.736 361.729 448.274 363.555 448.274 365.624V394.304H434.214ZM501.749 343.61V354.171H471.22V343.61H501.749ZM478.151 331.465H492.211V378.726C492.211 380.024 492.409 381.036 492.805 381.763C493.201 382.467 493.751 382.962 494.455 383.248C495.181 383.534 496.017 383.677 496.963 383.677C497.623 383.677 498.283 383.622 498.943 383.512C499.603 383.38 500.109 383.281 500.461 383.215L502.673 393.677C501.969 393.897 500.979 394.15 499.702 394.436C498.426 394.744 496.875 394.931 495.049 394.997C491.66 395.129 488.69 394.678 486.138 393.644C483.607 392.61 481.638 391.004 480.23 388.825C478.822 386.647 478.129 383.897 478.151 380.574V331.465ZM258.856 506.304H234.895V438.712H259.054C265.853 438.712 271.706 440.065 276.612 442.771C281.519 445.456 285.292 449.317 287.933 454.356C290.595 459.394 291.926 465.423 291.926 472.442C291.926 479.483 290.595 485.534 287.933 490.594C285.292 495.655 281.497 499.538 276.546 502.245C271.618 504.951 265.721 506.304 258.856 506.304ZM249.186 494.06H258.262C262.487 494.06 266.04 493.311 268.922 491.815C271.827 490.297 274.005 487.954 275.457 484.785C276.931 481.595 277.668 477.481 277.668 472.442C277.668 467.447 276.931 463.366 275.457 460.198C274.005 457.029 271.838 454.697 268.955 453.201C266.073 451.705 262.52 450.956 258.295 450.956H249.186V494.06ZM325.351 507.294C320.136 507.294 315.648 506.238 311.885 504.126C308.145 501.992 305.263 498.977 303.238 495.083C301.214 491.166 300.202 486.535 300.202 481.188C300.202 475.973 301.214 471.397 303.238 467.458C305.263 463.52 308.112 460.451 311.786 458.25C315.483 456.05 319.817 454.95 324.79 454.95C328.134 454.95 331.248 455.489 334.13 456.567C337.034 457.623 339.565 459.218 341.721 461.353C343.899 463.487 345.593 466.171 346.803 469.406C348.014 472.618 348.619 476.38 348.619 480.693V484.554H305.813V475.841H335.384C335.384 473.817 334.944 472.024 334.064 470.462C333.184 468.9 331.963 467.678 330.4 466.798C328.86 465.896 327.067 465.445 325.021 465.445C322.887 465.445 320.994 465.94 319.344 466.93C317.716 467.898 316.44 469.208 315.516 470.858C314.592 472.486 314.119 474.301 314.097 476.303V484.587C314.097 487.096 314.559 489.263 315.483 491.089C316.429 492.915 317.76 494.324 319.476 495.314C321.192 496.304 323.228 496.799 325.582 496.799C327.144 496.799 328.574 496.579 329.872 496.139C331.171 495.699 332.282 495.039 333.206 494.159C334.13 493.278 334.834 492.2 335.318 490.924L348.322 491.782C347.662 494.907 346.308 497.635 344.262 499.967C342.238 502.278 339.62 504.082 336.407 505.38C333.217 506.656 329.531 507.294 325.351 507.294ZM371.853 438.712V506.304H357.794V438.712H371.853ZM406.219 507.294C401.004 507.294 396.516 506.238 392.753 504.126C389.013 501.992 386.13 498.977 384.106 495.083C382.082 491.166 381.07 486.535 381.07 481.188C381.07 475.973 382.082 471.397 384.106 467.458C386.13 463.52 388.98 460.451 392.654 458.25C396.351 456.05 400.685 454.95 405.658 454.95C409.002 454.95 412.115 455.489 414.998 456.567C417.902 457.623 420.432 459.218 422.589 461.353C424.767 463.487 426.461 466.171 427.671 469.406C428.881 472.618 429.487 476.38 429.487 480.693V484.554H386.68V475.841H416.252C416.252 473.817 415.812 472.024 414.932 470.462C414.052 468.9 412.831 467.678 411.268 466.798C409.728 465.896 407.935 465.445 405.889 465.445C403.754 465.445 401.862 465.94 400.212 466.93C398.584 467.898 397.308 469.208 396.384 470.858C395.459 472.486 394.986 474.301 394.964 476.303V484.587C394.964 487.096 395.426 489.263 396.351 491.089C397.297 492.915 398.628 494.324 400.344 495.314C402.06 496.304 404.096 496.799 406.45 496.799C408.012 496.799 409.442 496.579 410.74 496.139C412.038 495.699 413.15 495.039 414.074 494.159C414.998 493.278 415.702 492.2 416.186 490.924L429.19 491.782C428.529 494.907 427.176 497.635 425.13 499.967C423.106 502.278 420.487 504.082 417.275 505.38C414.085 506.656 410.399 507.294 406.219 507.294ZM461.5 526.37C456.946 526.37 453.04 525.743 449.784 524.489C446.55 523.257 443.975 521.574 442.061 519.44C440.147 517.305 438.904 514.907 438.332 512.245L451.335 510.496C451.731 511.508 452.358 512.454 453.216 513.334C454.074 514.214 455.208 514.918 456.616 515.446C458.046 515.996 459.784 516.271 461.83 516.271C464.889 516.271 467.408 515.523 469.388 514.027C471.391 512.553 472.392 510.077 472.392 506.601V497.327H471.798C471.182 498.735 470.257 500.066 469.025 501.32C467.793 502.575 466.209 503.598 464.273 504.39C462.336 505.182 460.026 505.578 457.342 505.578C453.535 505.578 450.07 504.698 446.946 502.938C443.843 501.155 441.368 498.438 439.52 494.786C437.694 491.111 436.78 486.469 436.78 480.858C436.78 475.115 437.716 470.319 439.586 466.468C441.456 462.618 443.942 459.735 447.045 457.821C450.169 455.907 453.59 454.95 457.309 454.95C460.147 454.95 462.523 455.434 464.438 456.402C466.352 457.348 467.892 458.536 469.058 459.967C470.246 461.375 471.159 462.761 471.798 464.125H472.326V455.61H486.286V506.799C486.286 511.112 485.23 514.72 483.118 517.624C481.006 520.529 478.079 522.707 474.339 524.159C470.62 525.633 466.341 526.37 461.5 526.37ZM461.797 495.017C464.064 495.017 465.978 494.456 467.54 493.333C469.124 492.189 470.334 490.561 471.17 488.449C472.029 486.315 472.458 483.762 472.458 480.792C472.458 477.822 472.04 475.247 471.204 473.069C470.367 470.869 469.157 469.164 467.573 467.953C465.989 466.743 464.064 466.138 461.797 466.138C459.487 466.138 457.54 466.765 455.956 468.019C454.372 469.252 453.172 470.968 452.358 473.168C451.544 475.368 451.137 477.91 451.137 480.792C451.137 483.718 451.544 486.249 452.358 488.383C453.194 490.495 454.394 492.134 455.956 493.3C457.54 494.445 459.487 495.017 461.797 495.017ZM511.93 507.261C508.696 507.261 505.814 506.7 503.283 505.578C500.753 504.434 498.751 502.751 497.277 500.528C495.824 498.284 495.098 495.49 495.098 492.145C495.098 489.329 495.615 486.964 496.65 485.049C497.684 483.135 499.092 481.595 500.874 480.429C502.656 479.263 504.68 478.383 506.947 477.789C509.235 477.195 511.633 476.777 514.142 476.534C517.09 476.226 519.466 475.94 521.27 475.676C523.075 475.39 524.384 474.972 525.198 474.422C526.012 473.872 526.419 473.058 526.419 471.98V471.782C526.419 469.692 525.759 468.074 524.439 466.93C523.141 465.786 521.292 465.214 518.894 465.214C516.364 465.214 514.351 465.775 512.854 466.897C511.358 467.997 510.368 469.384 509.884 471.056L496.881 470C497.541 466.919 498.839 464.257 500.775 462.013C502.711 459.746 505.209 458.008 508.267 456.798C511.347 455.566 514.912 454.95 518.96 454.95C521.777 454.95 524.472 455.28 527.046 455.94C529.642 456.6 531.942 457.623 533.944 459.009C535.968 460.396 537.563 462.178 538.73 464.356C539.896 466.512 540.479 469.098 540.479 472.112V506.304H527.145V499.274H526.749C525.935 500.858 524.846 502.256 523.482 503.466C522.118 504.654 520.478 505.589 518.564 506.271C516.65 506.931 514.439 507.261 511.93 507.261ZM515.957 497.558C518.025 497.558 519.851 497.151 521.435 496.337C523.02 495.501 524.263 494.379 525.165 492.97C526.067 491.562 526.518 489.967 526.518 488.185V482.805C526.078 483.091 525.473 483.355 524.703 483.597C523.955 483.817 523.108 484.026 522.162 484.224C521.215 484.4 520.269 484.565 519.323 484.719C518.377 484.851 517.519 484.972 516.749 485.082C515.099 485.325 513.658 485.71 512.425 486.238C511.193 486.766 510.236 487.481 509.554 488.383C508.872 489.263 508.531 490.363 508.531 491.683C508.531 493.598 509.224 495.061 510.61 496.073C512.018 497.063 513.801 497.558 515.957 497.558ZM578.351 455.61V466.171H547.822V455.61H578.351ZM554.753 443.465H568.813V490.726C568.813 492.024 569.011 493.036 569.407 493.763C569.803 494.467 570.353 494.962 571.057 495.248C571.783 495.534 572.619 495.677 573.565 495.677C574.225 495.677 574.885 495.622 575.545 495.512C576.205 495.38 576.712 495.281 577.064 495.215L579.275 505.677C578.571 505.897 577.581 506.15 576.305 506.436C575.028 506.744 573.477 506.931 571.651 506.997C568.263 507.129 565.292 506.678 562.74 505.644C560.21 504.61 558.24 503.004 556.832 500.825C555.424 498.647 554.731 495.897 554.753 492.574V443.465ZM587.509 506.304V455.61H601.569V506.304H587.509ZM594.572 449.075C592.482 449.075 590.689 448.382 589.193 446.996C587.718 445.588 586.981 443.905 586.981 441.946C586.981 440.01 587.718 438.349 589.193 436.963C590.689 435.555 592.482 434.851 594.572 434.851C596.662 434.851 598.445 435.555 599.919 436.963C601.415 438.349 602.163 440.01 602.163 441.946C602.163 443.905 601.415 445.588 599.919 446.996C598.445 448.382 596.662 449.075 594.572 449.075ZM635.736 507.294C630.61 507.294 626.176 506.205 622.436 504.027C618.717 501.826 615.846 498.768 613.822 494.852C611.797 490.913 610.785 486.348 610.785 481.155C610.785 475.918 611.797 471.342 613.822 467.425C615.846 463.487 618.717 460.429 622.436 458.25C626.176 456.05 630.61 454.95 635.736 454.95C640.863 454.95 645.285 456.05 649.004 458.25C652.744 460.429 655.627 463.487 657.651 467.425C659.675 471.342 660.687 475.918 660.687 481.155C660.687 486.348 659.675 490.913 657.651 494.852C655.627 498.768 652.744 501.826 649.004 504.027C645.285 506.205 640.863 507.294 635.736 507.294ZM635.802 496.403C638.135 496.403 640.082 495.743 641.644 494.423C643.206 493.08 644.383 491.254 645.175 488.944C645.99 486.634 646.397 484.004 646.397 481.056C646.397 478.108 645.99 475.478 645.175 473.168C644.383 470.858 643.206 469.032 641.644 467.689C640.082 466.347 638.135 465.676 635.802 465.676C633.448 465.676 631.468 466.347 629.862 467.689C628.277 469.032 627.078 470.858 626.264 473.168C625.472 475.478 625.076 478.108 625.076 481.056C625.076 484.004 625.472 486.634 626.264 488.944C627.078 491.254 628.277 493.08 629.862 494.423C631.468 495.743 633.448 496.403 635.802 496.403ZM683.889 476.997V506.304H669.829V455.61H683.229V464.554H683.823C684.945 461.606 686.826 459.273 689.467 457.557C692.107 455.819 695.308 454.95 699.071 454.95C702.591 454.95 705.661 455.72 708.279 457.26C710.897 458.8 712.933 461.001 714.385 463.861C715.837 466.699 716.563 470.088 716.563 474.026V506.304H702.503V476.534C702.525 473.432 701.733 471.012 700.127 469.274C698.521 467.513 696.31 466.633 693.493 466.633C691.601 466.633 689.929 467.04 688.477 467.854C687.046 468.669 685.924 469.857 685.11 471.419C684.318 472.959 683.911 474.818 683.889 476.997Z" fill="#010101"/>
<path d="M246.546 618.304H231.232L254.566 550.712H272.982L296.283 618.304H280.969L264.038 566.158H263.51L246.546 618.304ZM245.589 591.736H281.761V602.891H245.589V591.736Z" fill="#51CF66"/>
<path d="M304.154 637.314V567.61H318.016V576.125H318.643C319.259 574.761 320.15 573.375 321.316 571.967C322.504 570.536 324.044 569.348 325.937 568.402C327.851 567.434 330.227 566.95 333.066 566.95C336.762 566.95 340.172 567.918 343.297 569.854C346.421 571.768 348.918 574.662 350.789 578.534C352.659 582.385 353.594 587.214 353.594 593.023C353.594 598.678 352.681 603.452 350.855 607.347C349.05 611.219 346.586 614.157 343.462 616.159C340.359 618.139 336.883 619.129 333.033 619.129C330.304 619.129 327.983 618.678 326.069 617.776C324.177 616.874 322.625 615.741 321.415 614.377C320.205 612.99 319.281 611.593 318.643 610.185H318.214V637.314H304.154ZM317.917 592.957C317.917 595.971 318.335 598.601 319.171 600.845C320.007 603.089 321.217 604.838 322.801 606.093C324.386 607.325 326.311 607.941 328.577 607.941C330.865 607.941 332.802 607.314 334.386 606.06C335.97 604.783 337.169 603.023 337.983 600.779C338.819 598.513 339.237 595.905 339.237 592.957C339.237 590.031 338.83 587.456 338.016 585.234C337.202 583.012 336.003 581.274 334.419 580.019C332.835 578.765 330.887 578.138 328.577 578.138C326.289 578.138 324.353 578.743 322.768 579.953C321.206 581.164 320.007 582.88 319.171 585.102C318.335 587.324 317.917 589.943 317.917 592.957Z" fill="#FCC419"/>
<path d="M362.967 637.314V567.61H376.829V576.125H377.456C378.072 574.761 378.963 573.375 380.129 571.967C381.317 570.536 382.857 569.348 384.75 568.402C386.664 567.434 389.04 566.95 391.879 566.95C395.575 566.95 398.985 567.918 402.11 569.854C405.234 571.768 407.731 574.662 409.602 578.534C411.472 582.385 412.407 587.214 412.407 593.023C412.407 598.678 411.494 603.452 409.668 607.347C407.863 611.219 405.399 614.157 402.275 616.159C399.172 618.139 395.696 619.129 391.846 619.129C389.117 619.129 386.796 618.678 384.882 617.776C382.99 616.874 381.438 615.741 380.228 614.377C379.018 612.99 378.094 611.593 377.456 610.185H377.027V637.314H362.967ZM376.73 592.957C376.73 595.971 377.148 598.601 377.984 600.845C378.82 603.089 380.03 604.838 381.614 606.093C383.199 607.325 385.124 607.941 387.39 607.941C389.678 607.941 391.615 607.314 393.199 606.06C394.783 604.783 395.982 603.023 396.796 600.779C397.632 598.513 398.05 595.905 398.05 592.957C398.05 590.031 397.643 587.456 396.829 585.234C396.015 583.012 394.816 581.274 393.232 580.019C391.648 578.765 389.7 578.138 387.39 578.138C385.102 578.138 383.166 578.743 381.581 579.953C380.019 581.164 378.82 582.88 377.984 585.102C377.148 587.324 376.73 589.943 376.73 592.957ZM429.998 619.162C427.82 619.162 425.95 618.392 424.387 616.852C422.847 615.29 422.077 613.419 422.077 611.241C422.077 609.085 422.847 607.237 424.387 605.697C425.95 604.156 427.82 603.386 429.998 603.386C432.11 603.386 433.959 604.156 435.543 605.697C437.127 607.237 437.919 609.085 437.919 611.241C437.919 612.693 437.545 614.025 436.797 615.235C436.071 616.423 435.114 617.38 433.926 618.106C432.737 618.81 431.428 619.162 429.998 619.162Z" fill="#F03E3E"/>
<path d="M238.037 723.628V706.729H243.945C245.122 706.729 246.093 706.933 246.858 707.34C247.622 707.742 248.192 708.283 248.566 708.966C248.94 709.642 249.127 710.393 249.127 711.218C249.127 711.944 248.997 712.544 248.739 713.017C248.486 713.49 248.15 713.864 247.732 714.139C247.32 714.414 246.871 714.617 246.387 714.749V714.914C246.904 714.947 247.424 715.129 247.947 715.459C248.469 715.789 248.907 716.262 249.259 716.878C249.611 717.494 249.787 718.248 249.787 719.139C249.787 719.986 249.594 720.748 249.209 721.424C248.824 722.101 248.216 722.637 247.386 723.033C246.555 723.429 245.474 723.628 244.143 723.628H238.037ZM240.084 721.812H244.143C245.48 721.812 246.429 721.554 246.99 721.037C247.556 720.514 247.839 719.882 247.839 719.139C247.839 718.567 247.694 718.039 247.402 717.555C247.111 717.065 246.695 716.675 246.156 716.383C245.617 716.086 244.979 715.938 244.242 715.938H240.084V721.812ZM240.084 714.155H243.879C244.495 714.155 245.051 714.034 245.546 713.792C246.046 713.55 246.442 713.209 246.734 712.769C247.031 712.329 247.179 711.812 247.179 711.218C247.179 710.475 246.921 709.846 246.404 709.329C245.887 708.806 245.067 708.545 243.945 708.545H240.084V714.155ZM254.139 728.38C253.809 728.38 253.515 728.353 253.256 728.298C252.998 728.248 252.819 728.199 252.72 728.149L253.215 726.433C253.688 726.554 254.106 726.598 254.469 726.565C254.832 726.532 255.154 726.37 255.435 726.078C255.721 725.792 255.982 725.327 256.218 724.684L256.581 723.694L251.895 710.954H254.007L257.506 721.053H257.638L261.136 710.954H263.248L257.869 725.476C257.627 726.13 257.327 726.672 256.969 727.101C256.612 727.536 256.196 727.858 255.723 728.067C255.256 728.276 254.728 728.38 254.139 728.38ZM272.617 723.628V706.729H278.327C279.647 706.729 280.731 706.955 281.578 707.406C282.425 707.852 283.052 708.465 283.459 709.246C283.866 710.027 284.07 710.915 284.07 711.911C284.07 712.907 283.866 713.79 283.459 714.56C283.052 715.33 282.428 715.935 281.586 716.375C280.744 716.809 279.669 717.027 278.36 717.027H273.739V715.178H278.294C279.196 715.178 279.922 715.046 280.472 714.782C281.028 714.518 281.429 714.144 281.677 713.66C281.93 713.171 282.056 712.588 282.056 711.911C282.056 711.235 281.93 710.643 281.677 710.137C281.424 709.631 281.019 709.241 280.464 708.966C279.908 708.685 279.174 708.545 278.261 708.545H274.663V723.628H272.617ZM280.571 716.037L284.73 723.628H282.353L278.261 716.037H280.571ZM292.228 723.892C291.084 723.892 290.08 723.619 289.216 723.075C288.358 722.53 287.687 721.768 287.203 720.789C286.724 719.81 286.485 718.666 286.485 717.357C286.485 716.037 286.724 714.884 287.203 713.9C287.687 712.915 288.358 712.15 289.216 711.606C290.08 711.061 291.084 710.789 292.228 710.789C293.372 710.789 294.373 711.061 295.231 711.606C296.095 712.15 296.766 712.915 297.244 713.9C297.728 714.884 297.97 716.037 297.97 717.357C297.97 718.666 297.728 719.81 297.244 720.789C296.766 721.768 296.095 722.53 295.231 723.075C294.373 723.619 293.372 723.892 292.228 723.892ZM292.228 722.142C293.097 722.142 293.812 721.92 294.373 721.474C294.934 721.028 295.349 720.443 295.619 719.717C295.888 718.99 296.023 718.204 296.023 717.357C296.023 716.51 295.888 715.72 295.619 714.989C295.349 714.257 294.934 713.666 294.373 713.215C293.812 712.764 293.097 712.538 292.228 712.538C291.359 712.538 290.644 712.764 290.082 713.215C289.521 713.666 289.106 714.257 288.837 714.989C288.567 715.72 288.432 716.51 288.432 717.357C288.432 718.204 288.567 718.99 288.837 719.717C289.106 720.443 289.521 721.028 290.082 721.474C290.644 721.92 291.359 722.142 292.228 722.142ZM306.091 723.892C304.903 723.892 303.88 723.611 303.022 723.05C302.164 722.489 301.504 721.716 301.042 720.731C300.58 719.747 300.349 718.622 300.349 717.357C300.349 716.07 300.585 714.934 301.058 713.949C301.537 712.959 302.202 712.186 303.055 711.631C303.913 711.07 304.914 710.789 306.058 710.789C306.95 710.789 307.753 710.954 308.468 711.284C309.183 711.614 309.769 712.076 310.225 712.67C310.682 713.264 310.965 713.957 311.075 714.749H309.128C308.979 714.172 308.649 713.66 308.138 713.215C307.632 712.764 306.95 712.538 306.091 712.538C305.332 712.538 304.667 712.736 304.095 713.132C303.528 713.523 303.085 714.076 302.766 714.791C302.453 715.5 302.296 716.334 302.296 717.291C302.296 718.27 302.45 719.122 302.758 719.849C303.072 720.575 303.512 721.138 304.078 721.54C304.65 721.942 305.321 722.142 306.091 722.142C306.597 722.142 307.057 722.054 307.469 721.878C307.882 721.702 308.231 721.449 308.517 721.119C308.803 720.789 309.007 720.393 309.128 719.931H311.075C310.965 720.679 310.693 721.353 310.258 721.953C309.829 722.547 309.26 723.02 308.55 723.372C307.846 723.718 307.027 723.892 306.091 723.892ZM315.737 719.007L315.704 716.598H316.1L321.645 710.954H324.054L318.146 716.928H317.981L315.737 719.007ZM313.922 723.628V706.729H315.869V723.628H313.922ZM321.975 723.628L317.024 717.357L318.41 716.004L324.45 723.628H321.975ZM330.289 723.925C329.486 723.925 328.758 723.773 328.103 723.471C327.448 723.163 326.929 722.72 326.544 722.142C326.159 721.559 325.966 720.855 325.966 720.03C325.966 719.304 326.109 718.715 326.395 718.264C326.681 717.808 327.063 717.45 327.542 717.192C328.02 716.933 328.549 716.741 329.126 716.614C329.709 716.482 330.295 716.378 330.884 716.301C331.654 716.202 332.278 716.127 332.757 716.078C333.241 716.023 333.593 715.932 333.813 715.806C334.038 715.679 334.151 715.459 334.151 715.145V715.079C334.151 714.265 333.928 713.633 333.483 713.182C333.043 712.731 332.374 712.505 331.478 712.505C330.548 712.505 329.819 712.709 329.291 713.116C328.763 713.523 328.392 713.957 328.177 714.419L326.329 713.759C326.659 712.989 327.099 712.39 327.649 711.961C328.205 711.526 328.81 711.224 329.464 711.053C330.124 710.877 330.774 710.789 331.412 710.789C331.819 710.789 332.286 710.838 332.814 710.937C333.348 711.031 333.862 711.226 334.357 711.523C334.858 711.82 335.273 712.269 335.603 712.868C335.933 713.468 336.098 714.271 336.098 715.278V723.628H334.151V721.911H334.052C333.92 722.186 333.7 722.481 333.392 722.794C333.084 723.108 332.674 723.374 332.162 723.594C331.651 723.815 331.027 723.925 330.289 723.925ZM330.587 722.175C331.357 722.175 332.006 722.024 332.534 721.722C333.067 721.419 333.469 721.028 333.738 720.55C334.013 720.071 334.151 719.568 334.151 719.04V717.258C334.068 717.357 333.887 717.448 333.606 717.53C333.331 717.607 333.012 717.676 332.649 717.736C332.292 717.791 331.942 717.841 331.601 717.885C331.266 717.923 330.994 717.956 330.785 717.984C330.278 718.05 329.805 718.157 329.365 718.306C328.931 718.449 328.579 718.666 328.309 718.957C328.045 719.243 327.913 719.634 327.913 720.129C327.913 720.806 328.163 721.317 328.664 721.664C329.17 722.005 329.811 722.175 330.587 722.175ZM342.524 723.628L338.662 710.954H340.708L343.448 720.657H343.58L346.286 710.954H348.365L351.039 720.624H351.171L353.91 710.954H355.956L352.095 723.628H350.181L347.408 713.891H347.21L344.438 723.628H342.524ZM362.26 723.925C361.457 723.925 360.728 723.773 360.073 723.471C359.419 723.163 358.899 722.72 358.514 722.142C358.129 721.559 357.936 720.855 357.936 720.03C357.936 719.304 358.079 718.715 358.366 718.264C358.652 717.808 359.034 717.45 359.512 717.192C359.991 716.933 360.519 716.741 361.097 716.614C361.68 716.482 362.265 716.378 362.854 716.301C363.624 716.202 364.248 716.127 364.727 716.078C365.211 716.023 365.563 715.932 365.783 715.806C366.009 715.679 366.121 715.459 366.121 715.145V715.079C366.121 714.265 365.899 713.633 365.453 713.182C365.013 712.731 364.345 712.505 363.448 712.505C362.519 712.505 361.79 712.709 361.262 713.116C360.734 713.523 360.362 713.957 360.148 714.419L358.3 713.759C358.63 712.989 359.07 712.39 359.62 711.961C360.175 711.526 360.78 711.224 361.435 711.053C362.095 710.877 362.744 710.789 363.382 710.789C363.789 710.789 364.257 710.838 364.785 710.937C365.318 711.031 365.833 711.226 366.328 711.523C366.828 711.82 367.244 712.269 367.574 712.868C367.904 713.468 368.069 714.271 368.069 715.278V723.628H366.121V721.911H366.022C365.89 722.186 365.67 722.481 365.362 722.794C365.054 723.108 364.645 723.374 364.133 723.594C363.621 723.815 362.997 723.925 362.26 723.925ZM362.557 722.175C363.327 722.175 363.976 722.024 364.504 721.722C365.038 721.419 365.439 721.028 365.709 720.55C365.984 720.071 366.121 719.568 366.121 719.04V717.258C366.039 717.357 365.857 717.448 365.577 717.53C365.302 717.607 364.983 717.676 364.62 717.736C364.262 717.791 363.913 717.841 363.572 717.885C363.236 717.923 362.964 717.956 362.755 717.984C362.249 718.05 361.776 718.157 361.336 718.306C360.901 718.449 360.549 718.666 360.28 718.957C360.016 719.243 359.884 719.634 359.884 720.129C359.884 720.806 360.134 721.317 360.635 721.664C361.141 722.005 361.781 722.175 362.557 722.175ZM372.423 728.38C372.093 728.38 371.799 728.353 371.54 728.298C371.282 728.248 371.103 728.199 371.004 728.149L371.499 726.433C371.972 726.554 372.39 726.598 372.753 726.565C373.116 726.532 373.438 726.37 373.719 726.078C374.005 725.792 374.266 725.327 374.502 724.684L374.865 723.694L370.179 710.954H372.291L375.79 721.053H375.922L379.42 710.954H381.532L376.153 725.476C375.911 726.13 375.611 726.672 375.253 727.101C374.896 727.536 374.48 727.858 374.007 728.067C373.54 728.276 373.012 728.38 372.423 728.38ZM385.357 706.729L389.713 713.759H389.845L394.202 706.729H396.611L391.297 715.178L396.611 723.628H394.202L389.845 716.73H389.713L385.357 723.628H382.947L388.393 715.178L382.947 706.729H385.357ZM405.809 723.628V706.729H407.855V721.812H415.71V723.628H405.809ZM422.344 723.925C421.541 723.925 420.812 723.773 420.157 723.471C419.503 723.163 418.983 722.72 418.598 722.142C418.213 721.559 418.02 720.855 418.02 720.03C418.02 719.304 418.163 718.715 418.449 718.264C418.735 717.808 419.118 717.45 419.596 717.192C420.075 716.933 420.603 716.741 421.18 716.614C421.763 716.482 422.349 716.378 422.938 716.301C423.708 716.202 424.332 716.127 424.811 716.078C425.295 716.023 425.647 715.932 425.867 715.806C426.092 715.679 426.205 715.459 426.205 715.145V715.079C426.205 714.265 425.982 713.633 425.537 713.182C425.097 712.731 424.428 712.505 423.532 712.505C422.602 712.505 421.873 712.709 421.345 713.116C420.817 713.523 420.446 713.957 420.231 714.419L418.383 713.759C418.713 712.989 419.153 712.39 419.703 711.961C420.259 711.526 420.864 711.224 421.519 711.053C422.179 710.877 422.828 710.789 423.466 710.789C423.873 710.789 424.34 710.838 424.868 710.937C425.402 711.031 425.916 711.226 426.411 711.523C426.912 711.82 427.327 712.269 427.657 712.868C427.987 713.468 428.152 714.271 428.152 715.278V723.628H426.205V721.911H426.106C425.974 722.186 425.754 722.481 425.446 722.794C425.138 723.108 424.728 723.374 424.217 723.594C423.705 723.815 423.081 723.925 422.344 723.925ZM422.641 722.175C423.411 722.175 424.06 722.024 424.588 721.722C425.121 721.419 425.523 721.028 425.793 720.55C426.068 720.071 426.205 719.568 426.205 719.04V717.258C426.123 717.357 425.941 717.448 425.661 717.53C425.386 717.607 425.066 717.676 424.703 717.736C424.346 717.791 423.997 717.841 423.656 717.885C423.32 717.923 423.048 717.956 422.839 717.984C422.333 718.05 421.86 718.157 421.42 718.306C420.985 718.449 420.633 718.666 420.363 718.957C420.099 719.243 419.967 719.634 419.967 720.129C419.967 720.806 420.218 721.317 420.718 721.664C421.224 722.005 421.865 722.175 422.641 722.175ZM431.97 723.628V706.729H433.918V712.967H434.083C434.226 712.747 434.424 712.467 434.677 712.126C434.935 711.779 435.304 711.471 435.782 711.202C436.266 710.926 436.921 710.789 437.746 710.789C438.813 710.789 439.754 711.056 440.568 711.589C441.382 712.123 442.017 712.879 442.474 713.858C442.931 714.837 443.159 715.993 443.159 717.324C443.159 718.666 442.931 719.829 442.474 720.814C442.017 721.793 441.385 722.552 440.576 723.091C439.768 723.625 438.835 723.892 437.779 723.892C436.965 723.892 436.313 723.757 435.824 723.487C435.334 723.212 434.957 722.901 434.693 722.555C434.429 722.203 434.226 721.911 434.083 721.68H433.852V723.628H431.97ZM433.885 717.291C433.885 718.248 434.025 719.092 434.305 719.824C434.586 720.55 434.996 721.119 435.535 721.532C436.074 721.939 436.734 722.142 437.515 722.142C438.329 722.142 439.009 721.928 439.553 721.499C440.103 721.064 440.516 720.481 440.791 719.75C441.071 719.012 441.212 718.193 441.212 717.291C441.212 716.4 441.074 715.597 440.799 714.881C440.529 714.161 440.12 713.592 439.57 713.174C439.025 712.75 438.34 712.538 437.515 712.538C436.723 712.538 436.057 712.739 435.518 713.141C434.979 713.537 434.572 714.092 434.297 714.807C434.022 715.517 433.885 716.345 433.885 717.291ZM455.114 713.792L453.365 714.287C453.255 713.996 453.093 713.713 452.878 713.438C452.669 713.157 452.383 712.926 452.02 712.744C451.657 712.563 451.193 712.472 450.626 712.472C449.85 712.472 449.204 712.651 448.687 713.008C448.175 713.361 447.92 713.809 447.92 714.353C447.92 714.837 448.096 715.22 448.448 715.5C448.8 715.781 449.35 716.015 450.098 716.202L451.979 716.664C453.112 716.939 453.957 717.36 454.512 717.926C455.068 718.487 455.346 719.21 455.346 720.096C455.346 720.822 455.136 721.471 454.718 722.043C454.306 722.615 453.728 723.066 452.986 723.396C452.243 723.727 451.38 723.892 450.395 723.892C449.102 723.892 448.032 723.611 447.185 723.05C446.338 722.489 445.802 721.669 445.576 720.591L447.425 720.129C447.601 720.811 447.933 721.323 448.423 721.664C448.918 722.005 449.564 722.175 450.362 722.175C451.27 722.175 451.99 721.983 452.524 721.598C453.063 721.207 453.332 720.74 453.332 720.195C453.332 719.755 453.178 719.386 452.87 719.089C452.562 718.787 452.089 718.561 451.451 718.413L449.339 717.918C448.178 717.643 447.326 717.216 446.781 716.639C446.242 716.056 445.972 715.327 445.972 714.452C445.972 713.737 446.173 713.105 446.575 712.555C446.982 712.005 447.535 711.573 448.233 711.259C448.937 710.946 449.735 710.789 450.626 710.789C451.88 710.789 452.865 711.064 453.58 711.614C454.3 712.164 454.812 712.89 455.114 713.792Z" fill="#6F737A"/>
<path d="M969.107 578.818V565.3H973.833C974.775 565.3 975.551 565.462 976.163 565.788C976.775 566.109 977.23 566.543 977.529 567.088C977.829 567.63 977.978 568.23 977.978 568.89C977.978 569.471 977.875 569.951 977.668 570.329C977.466 570.708 977.197 571.007 976.863 571.227C976.533 571.447 976.174 571.61 975.787 571.715V571.848C976.2 571.874 976.616 572.019 977.034 572.283C977.452 572.547 977.802 572.926 978.084 573.418C978.365 573.911 978.506 574.514 978.506 575.227C978.506 575.905 978.352 576.514 978.044 577.056C977.736 577.597 977.25 578.026 976.585 578.343C975.921 578.66 975.056 578.818 973.991 578.818H969.107ZM970.744 577.366H973.991C975.061 577.366 975.82 577.159 976.269 576.745C976.722 576.327 976.949 575.821 976.949 575.227C976.949 574.769 976.832 574.347 976.599 573.96C976.365 573.568 976.033 573.256 975.602 573.022C975.171 572.785 974.66 572.666 974.071 572.666H970.744V577.366ZM970.744 571.24H973.78C974.273 571.24 974.717 571.143 975.113 570.95C975.514 570.756 975.831 570.483 976.064 570.131C976.302 569.779 976.42 569.366 976.42 568.89C976.42 568.296 976.214 567.792 975.8 567.379C975.386 566.961 974.731 566.752 973.833 566.752H970.744V571.24ZM981.988 582.62C981.724 582.62 981.489 582.598 981.282 582.554C981.075 582.514 980.932 582.475 980.853 582.435L981.249 581.062C981.627 581.159 981.962 581.194 982.252 581.168C982.543 581.141 982.8 581.012 983.025 580.778C983.253 580.55 983.462 580.178 983.652 579.663L983.942 578.871L980.193 568.679H981.883L984.681 576.758H984.787L987.586 568.679H989.275L984.972 580.297C984.778 580.82 984.538 581.254 984.252 581.597C983.966 581.945 983.634 582.202 983.256 582.369C982.882 582.536 982.459 582.62 981.988 582.62ZM1002.95 574.673V568.679H1004.51V578.818H1002.95V577.102H1002.84C1002.61 577.617 1002.24 578.054 1001.73 578.415C1001.23 578.772 1000.6 578.95 999.833 578.95C999.2 578.95 998.636 578.811 998.144 578.534C997.651 578.252 997.264 577.83 996.982 577.267C996.7 576.699 996.559 575.984 996.559 575.121V568.679H998.117V575.016C998.117 575.755 998.324 576.345 998.738 576.785C999.156 577.225 999.688 577.445 1000.34 577.445C1000.72 577.445 1001.12 577.346 1001.52 577.148C1001.92 576.95 1002.26 576.646 1002.53 576.237C1002.81 575.828 1002.95 575.306 1002.95 574.673ZM1014.54 570.95L1013.14 571.346C1013.05 571.113 1012.92 570.886 1012.75 570.666C1012.59 570.442 1012.36 570.257 1012.07 570.111C1011.78 569.966 1011.4 569.894 1010.95 569.894C1010.33 569.894 1009.81 570.037 1009.4 570.323C1008.99 570.604 1008.79 570.963 1008.79 571.399C1008.79 571.786 1008.93 572.092 1009.21 572.316C1009.49 572.541 1009.93 572.728 1010.53 572.877L1012.03 573.247C1012.94 573.467 1013.62 573.804 1014.06 574.257C1014.5 574.706 1014.73 575.284 1014.73 575.993C1014.73 576.574 1014.56 577.093 1014.22 577.551C1013.89 578.008 1013.43 578.369 1012.84 578.633C1012.24 578.897 1011.55 579.029 1010.77 579.029C1009.73 579.029 1008.88 578.805 1008.2 578.356C1007.52 577.907 1007.09 577.251 1006.91 576.389L1008.39 576.019C1008.53 576.565 1008.8 576.974 1009.19 577.247C1009.58 577.52 1010.1 577.656 1010.74 577.656C1011.47 577.656 1012.04 577.502 1012.47 577.194C1012.9 576.882 1013.12 576.508 1013.12 576.072C1013.12 575.72 1012.99 575.425 1012.75 575.188C1012.5 574.945 1012.12 574.765 1011.61 574.646L1009.92 574.25C1008.99 574.03 1008.31 573.689 1007.87 573.227C1007.44 572.761 1007.23 572.178 1007.23 571.478C1007.23 570.906 1007.39 570.4 1007.71 569.96C1008.04 569.52 1008.48 569.174 1009.04 568.923C1009.6 568.673 1010.24 568.547 1010.95 568.547C1011.95 568.547 1012.74 568.767 1013.31 569.207C1013.89 569.647 1014.3 570.228 1014.54 570.95ZM1017.07 578.818V568.679H1018.63V578.818H1017.07ZM1017.86 566.989C1017.56 566.989 1017.3 566.886 1017.08 566.679C1016.86 566.472 1016.75 566.224 1016.75 565.933C1016.75 565.643 1016.86 565.394 1017.08 565.187C1017.3 564.98 1017.56 564.877 1017.86 564.877C1018.17 564.877 1018.43 564.98 1018.64 565.187C1018.86 565.394 1018.97 565.643 1018.97 565.933C1018.97 566.224 1018.86 566.472 1018.64 566.679C1018.43 566.886 1018.17 566.989 1017.86 566.989ZM1023.04 572.719V578.818H1021.48V568.679H1022.99V570.263H1023.12C1023.36 569.748 1023.72 569.335 1024.2 569.022C1024.69 568.706 1025.31 568.547 1026.08 568.547C1026.76 568.547 1027.36 568.688 1027.88 568.97C1028.39 569.247 1028.79 569.669 1029.08 570.237C1029.37 570.8 1029.51 571.513 1029.51 572.376V578.818H1027.95V572.481C1027.95 571.685 1027.74 571.064 1027.33 570.62C1026.92 570.171 1026.35 569.946 1025.63 569.946C1025.13 569.946 1024.69 570.054 1024.29 570.27C1023.91 570.486 1023.6 570.8 1023.38 571.214C1023.15 571.627 1023.04 572.129 1023.04 572.719ZM1036.45 582.831C1035.7 582.831 1035.05 582.734 1034.51 582.541C1033.97 582.352 1033.52 582.101 1033.15 581.788C1032.8 581.48 1032.51 581.15 1032.3 580.798L1033.54 579.927C1033.68 580.112 1033.86 580.323 1034.08 580.561C1034.29 580.803 1034.59 581.012 1034.96 581.188C1035.34 581.368 1035.84 581.458 1036.45 581.458C1037.27 581.458 1037.94 581.26 1038.47 580.864C1039.01 580.468 1039.27 579.848 1039.27 579.003V576.943H1039.14C1039.03 577.128 1038.86 577.357 1038.65 577.63C1038.45 577.898 1038.15 578.138 1037.75 578.349C1037.37 578.556 1036.84 578.66 1036.18 578.66C1035.37 578.66 1034.63 578.466 1033.98 578.079C1033.33 577.691 1032.82 577.128 1032.44 576.389C1032.07 575.65 1031.88 574.752 1031.88 573.696C1031.88 572.657 1032.06 571.753 1032.43 570.983C1032.79 570.208 1033.3 569.61 1033.95 569.187C1034.6 568.761 1035.36 568.547 1036.21 568.547C1036.87 568.547 1037.39 568.657 1037.78 568.877C1038.17 569.093 1038.47 569.339 1038.68 569.616C1038.89 569.889 1039.05 570.114 1039.17 570.29H1039.33V568.679H1040.83V579.108C1040.83 579.98 1040.63 580.688 1040.24 581.234C1039.85 581.784 1039.32 582.187 1038.65 582.442C1037.99 582.701 1037.26 582.831 1036.45 582.831ZM1036.4 577.26C1037.02 577.26 1037.55 577.117 1037.98 576.831C1038.41 576.545 1038.74 576.134 1038.96 575.597C1039.19 575.06 1039.3 574.417 1039.3 573.669C1039.3 572.939 1039.19 572.294 1038.97 571.735C1038.75 571.176 1038.42 570.739 1037.99 570.422C1037.56 570.105 1037.03 569.946 1036.4 569.946C1035.74 569.946 1035.19 570.114 1034.74 570.448C1034.31 570.783 1033.98 571.231 1033.76 571.795C1033.55 572.358 1033.44 572.983 1033.44 573.669C1033.44 574.373 1033.55 574.996 1033.77 575.537C1033.99 576.074 1034.32 576.497 1034.76 576.805C1035.2 577.108 1035.74 577.26 1036.4 577.26ZM1053.32 568.679V569.999H1048.07V568.679H1053.32ZM1049.6 566.25H1051.15V575.914C1051.15 576.354 1051.22 576.684 1051.35 576.904C1051.48 577.119 1051.65 577.265 1051.85 577.339C1052.05 577.41 1052.27 577.445 1052.5 577.445C1052.67 577.445 1052.81 577.436 1052.92 577.419C1053.03 577.397 1053.12 577.379 1053.19 577.366L1053.5 578.765C1053.4 578.805 1053.25 578.844 1053.06 578.884C1052.87 578.928 1052.63 578.95 1052.34 578.95C1051.9 578.95 1051.47 578.855 1051.05 578.666C1050.63 578.477 1050.28 578.189 1050.01 577.801C1049.73 577.414 1049.6 576.926 1049.6 576.336V566.25ZM1057.44 572.719V578.818H1055.88V565.3H1057.44V570.263H1057.57C1057.81 569.74 1058.16 569.324 1058.64 569.016C1059.12 568.703 1059.76 568.547 1060.55 568.547C1061.24 568.547 1061.85 568.686 1062.37 568.963C1062.89 569.236 1063.29 569.656 1063.58 570.224C1063.87 570.787 1064.01 571.504 1064.01 572.376V578.818H1062.46V572.481C1062.46 571.676 1062.25 571.053 1061.83 570.613C1061.41 570.169 1060.84 569.946 1060.11 569.946C1059.59 569.946 1059.14 570.054 1058.73 570.27C1058.33 570.486 1058.01 570.8 1057.78 571.214C1057.55 571.627 1057.44 572.129 1057.44 572.719ZM1066.86 578.818V568.679H1068.42V578.818H1066.86ZM1067.65 566.989C1067.35 566.989 1067.09 566.886 1066.87 566.679C1066.65 566.472 1066.55 566.224 1066.55 565.933C1066.55 565.643 1066.65 565.394 1066.87 565.187C1067.09 564.98 1067.35 564.877 1067.65 564.877C1067.96 564.877 1068.22 564.98 1068.43 565.187C1068.65 565.394 1068.76 565.643 1068.76 565.933C1068.76 566.224 1068.65 566.472 1068.43 566.679C1068.22 566.886 1067.96 566.989 1067.65 566.989ZM1078.46 570.95L1077.06 571.346C1076.97 571.113 1076.84 570.886 1076.67 570.666C1076.5 570.442 1076.27 570.257 1075.98 570.111C1075.69 569.966 1075.32 569.894 1074.86 569.894C1074.24 569.894 1073.73 570.037 1073.31 570.323C1072.9 570.604 1072.7 570.963 1072.7 571.399C1072.7 571.786 1072.84 572.092 1073.12 572.316C1073.4 572.541 1073.84 572.728 1074.44 572.877L1075.95 573.247C1076.85 573.467 1077.53 573.804 1077.97 574.257C1078.42 574.706 1078.64 575.284 1078.64 575.993C1078.64 576.574 1078.47 577.093 1078.14 577.551C1077.81 578.008 1077.35 578.369 1076.75 578.633C1076.16 578.897 1075.47 579.029 1074.68 579.029C1073.65 579.029 1072.79 578.805 1072.11 578.356C1071.43 577.907 1071.01 577.251 1070.82 576.389L1072.3 576.019C1072.44 576.565 1072.71 576.974 1073.1 577.247C1073.5 577.52 1074.02 577.656 1074.65 577.656C1075.38 577.656 1075.96 577.502 1076.38 577.194C1076.81 576.882 1077.03 576.508 1077.03 576.072C1077.03 575.72 1076.91 575.425 1076.66 575.188C1076.41 574.945 1076.04 574.765 1075.52 574.646L1073.83 574.25C1072.91 574.03 1072.22 573.689 1071.79 573.227C1071.36 572.761 1071.14 572.178 1071.14 571.478C1071.14 570.906 1071.3 570.4 1071.62 569.96C1071.95 569.52 1072.39 569.174 1072.95 568.923C1073.51 568.673 1074.15 568.547 1074.86 568.547C1075.87 568.547 1076.66 568.767 1077.23 569.207C1077.8 569.647 1078.21 570.228 1078.46 570.95ZM1089.2 579.056C1088.55 579.056 1087.97 578.935 1087.45 578.693C1086.92 578.446 1086.51 578.092 1086.2 577.63C1085.89 577.163 1085.74 576.6 1085.74 575.94C1085.74 575.359 1085.85 574.888 1086.08 574.527C1086.31 574.162 1086.62 573.876 1087 573.669C1087.38 573.462 1087.8 573.308 1088.27 573.207C1088.73 573.102 1089.2 573.018 1089.67 572.956C1090.29 572.877 1090.79 572.818 1091.17 572.778C1091.56 572.734 1091.84 572.662 1092.02 572.56C1092.2 572.459 1092.29 572.283 1092.29 572.032V571.98C1092.29 571.328 1092.11 570.822 1091.75 570.461C1091.4 570.1 1090.86 569.92 1090.15 569.92C1089.4 569.92 1088.82 570.083 1088.4 570.409C1087.98 570.734 1087.68 571.082 1087.51 571.451L1086.03 570.923C1086.29 570.307 1086.64 569.828 1087.08 569.484C1087.53 569.137 1088.01 568.895 1088.54 568.758C1089.06 568.618 1089.58 568.547 1090.09 568.547C1090.42 568.547 1090.79 568.587 1091.22 568.666C1091.64 568.741 1092.05 568.897 1092.45 569.135C1092.85 569.372 1093.18 569.731 1093.45 570.211C1093.71 570.69 1093.84 571.333 1093.84 572.138V578.818H1092.29V577.445H1092.21C1092.1 577.665 1091.92 577.9 1091.68 578.151C1091.43 578.402 1091.1 578.616 1090.69 578.792C1090.29 578.968 1089.79 579.056 1089.2 579.056ZM1089.43 577.656C1090.05 577.656 1090.57 577.535 1090.99 577.293C1091.42 577.051 1091.74 576.739 1091.96 576.356C1092.18 575.973 1092.29 575.57 1092.29 575.148V573.722C1092.22 573.801 1092.07 573.874 1091.85 573.94C1091.63 574.002 1091.37 574.057 1091.08 574.105C1090.8 574.149 1090.52 574.189 1090.25 574.224C1089.98 574.255 1089.76 574.281 1089.59 574.303C1089.19 574.356 1088.81 574.442 1088.46 574.56C1088.11 574.675 1087.83 574.849 1087.61 575.082C1087.4 575.311 1087.3 575.623 1087.3 576.019C1087.3 576.56 1087.5 576.97 1087.9 577.247C1088.3 577.52 1088.81 577.656 1089.43 577.656ZM1096.69 582.62V568.679H1098.19V570.29H1098.38C1098.49 570.114 1098.65 569.889 1098.85 569.616C1099.06 569.339 1099.35 569.093 1099.74 568.877C1100.12 568.657 1100.65 568.547 1101.31 568.547C1102.16 568.547 1102.91 568.761 1103.56 569.187C1104.22 569.614 1104.72 570.219 1105.09 571.003C1105.45 571.786 1105.64 572.71 1105.64 573.775C1105.64 574.849 1105.45 575.779 1105.09 576.567C1104.72 577.35 1104.22 577.958 1103.57 578.389C1102.92 578.816 1102.18 579.029 1101.33 579.029C1100.68 579.029 1100.16 578.921 1099.77 578.706C1099.38 578.486 1099.08 578.237 1098.87 577.96C1098.65 577.678 1098.49 577.445 1098.38 577.26H1098.24V582.62H1096.69ZM1098.22 573.749C1098.22 574.514 1098.33 575.19 1098.55 575.775C1098.78 576.356 1099.11 576.811 1099.54 577.141C1099.97 577.467 1100.5 577.63 1101.12 577.63C1101.77 577.63 1102.32 577.458 1102.75 577.115C1103.19 576.767 1103.52 576.301 1103.74 575.716C1103.97 575.126 1104.08 574.47 1104.08 573.749C1104.08 573.036 1103.97 572.393 1103.75 571.821C1103.53 571.245 1103.21 570.789 1102.77 570.455C1102.33 570.116 1101.78 569.946 1101.12 569.946C1100.49 569.946 1099.96 570.107 1099.53 570.428C1099.09 570.745 1098.77 571.19 1098.55 571.762C1098.33 572.329 1098.22 572.992 1098.22 573.749ZM1108.01 582.62V568.679H1109.52V570.29H1109.7C1109.82 570.114 1109.98 569.889 1110.18 569.616C1110.39 569.339 1110.68 569.093 1111.06 568.877C1111.45 568.657 1111.97 568.547 1112.63 568.547C1113.49 568.547 1114.24 568.761 1114.89 569.187C1115.54 569.614 1116.05 570.219 1116.42 571.003C1116.78 571.786 1116.96 572.71 1116.96 573.775C1116.96 574.849 1116.78 575.779 1116.42 576.567C1116.05 577.35 1115.55 577.958 1114.9 578.389C1114.25 578.816 1113.51 579.029 1112.66 579.029C1112.01 579.029 1111.49 578.921 1111.1 578.706C1110.7 578.486 1110.4 578.237 1110.19 577.96C1109.98 577.678 1109.82 577.445 1109.7 577.26H1109.57V582.62H1108.01ZM1109.55 573.749C1109.55 574.514 1109.66 575.19 1109.88 575.775C1110.11 576.356 1110.43 576.811 1110.87 577.141C1111.3 577.467 1111.82 577.63 1112.45 577.63C1113.1 577.63 1113.64 577.458 1114.08 577.115C1114.52 576.767 1114.85 576.301 1115.07 575.716C1115.29 575.126 1115.41 574.47 1115.41 573.749C1115.41 573.036 1115.3 572.393 1115.08 571.821C1114.86 571.245 1114.53 570.789 1114.09 570.455C1113.66 570.116 1113.11 569.946 1112.45 569.946C1111.82 569.946 1111.28 570.107 1110.85 570.428C1110.42 570.745 1110.1 571.19 1109.88 571.762C1109.66 572.329 1109.55 572.992 1109.55 573.749ZM1125.57 582.62C1125.31 582.62 1125.07 582.598 1124.87 582.554C1124.66 582.514 1124.52 582.475 1124.44 582.435L1124.83 581.062C1125.21 581.159 1125.55 581.194 1125.84 581.168C1126.13 581.141 1126.38 581.012 1126.61 580.778C1126.84 580.55 1127.05 580.178 1127.24 579.663L1127.53 578.871L1123.78 568.679H1125.47L1128.26 576.758H1128.37L1131.17 568.679H1132.86L1128.56 580.297C1128.36 580.82 1128.12 581.254 1127.84 581.597C1127.55 581.945 1127.22 582.202 1126.84 582.369C1126.47 582.536 1126.04 582.62 1125.57 582.62ZM1138.67 579.029C1137.76 579.029 1136.95 578.811 1136.26 578.376C1135.58 577.94 1135.04 577.331 1134.65 576.547C1134.27 575.764 1134.08 574.849 1134.08 573.801C1134.08 572.745 1134.27 571.823 1134.65 571.036C1135.04 570.248 1135.58 569.636 1136.26 569.201C1136.95 568.765 1137.76 568.547 1138.67 568.547C1139.59 568.547 1140.39 568.765 1141.07 569.201C1141.76 569.636 1142.3 570.248 1142.68 571.036C1143.07 571.823 1143.27 572.745 1143.27 573.801C1143.27 574.849 1143.07 575.764 1142.68 576.547C1142.3 577.331 1141.76 577.94 1141.07 578.376C1140.39 578.811 1139.59 579.029 1138.67 579.029ZM1138.67 577.63C1139.37 577.63 1139.94 577.452 1140.39 577.095C1140.84 576.739 1141.17 576.27 1141.38 575.689C1141.6 575.108 1141.71 574.479 1141.71 573.801C1141.71 573.124 1141.6 572.492 1141.38 571.907C1141.17 571.322 1140.84 570.849 1140.39 570.488C1139.94 570.127 1139.37 569.946 1138.67 569.946C1137.98 569.946 1137.4 570.127 1136.95 570.488C1136.51 570.849 1136.17 571.322 1135.96 571.907C1135.74 572.492 1135.63 573.124 1135.63 573.801C1135.63 574.479 1135.74 575.108 1135.96 575.689C1136.17 576.27 1136.51 576.739 1136.95 577.095C1137.4 577.452 1137.98 577.63 1138.67 577.63ZM1152.03 574.673V568.679H1153.59V578.818H1152.03V577.102H1151.93C1151.69 577.617 1151.32 578.054 1150.82 578.415C1150.32 578.772 1149.68 578.95 1148.92 578.95C1148.28 578.95 1147.72 578.811 1147.23 578.534C1146.73 578.252 1146.35 577.83 1146.07 577.267C1145.78 576.699 1145.64 575.984 1145.64 575.121V568.679H1147.2V575.016C1147.2 575.755 1147.41 576.345 1147.82 576.785C1148.24 577.225 1148.77 577.445 1149.42 577.445C1149.81 577.445 1150.2 577.346 1150.6 577.148C1151.01 576.95 1151.34 576.646 1151.62 576.237C1151.89 575.828 1152.03 575.306 1152.03 574.673ZM1164.66 579.056C1164.01 579.056 1163.43 578.935 1162.91 578.693C1162.38 578.446 1161.97 578.092 1161.66 577.63C1161.35 577.163 1161.2 576.6 1161.2 575.94C1161.2 575.359 1161.31 574.888 1161.54 574.527C1161.77 574.162 1162.07 573.876 1162.46 573.669C1162.84 573.462 1163.26 573.308 1163.72 573.207C1164.19 573.102 1164.66 573.018 1165.13 572.956C1165.75 572.877 1166.25 572.818 1166.63 572.778C1167.02 572.734 1167.3 572.662 1167.47 572.56C1167.65 572.459 1167.74 572.283 1167.74 572.032V571.98C1167.74 571.328 1167.57 570.822 1167.21 570.461C1166.86 570.1 1166.32 569.92 1165.61 569.92C1164.86 569.92 1164.28 570.083 1163.86 570.409C1163.43 570.734 1163.14 571.082 1162.97 571.451L1161.49 570.923C1161.75 570.307 1162.1 569.828 1162.54 569.484C1162.99 569.137 1163.47 568.895 1163.99 568.758C1164.52 568.618 1165.04 568.547 1165.55 568.547C1165.88 568.547 1166.25 568.587 1166.67 568.666C1167.1 568.741 1167.51 568.897 1167.91 569.135C1168.31 569.372 1168.64 569.731 1168.91 570.211C1169.17 570.69 1169.3 571.333 1169.3 572.138V578.818H1167.74V577.445H1167.66C1167.56 577.665 1167.38 577.9 1167.14 578.151C1166.89 578.402 1166.56 578.616 1166.15 578.792C1165.74 578.968 1165.24 579.056 1164.66 579.056ZM1164.89 577.656C1165.51 577.656 1166.03 577.535 1166.45 577.293C1166.88 577.051 1167.2 576.739 1167.41 576.356C1167.63 575.973 1167.74 575.57 1167.74 575.148V573.722C1167.68 573.801 1167.53 573.874 1167.31 573.94C1167.09 574.002 1166.83 574.057 1166.54 574.105C1166.26 574.149 1165.98 574.189 1165.7 574.224C1165.44 574.255 1165.22 574.281 1165.05 574.303C1164.65 574.356 1164.27 574.442 1163.92 574.56C1163.57 574.675 1163.29 574.849 1163.07 575.082C1162.86 575.311 1162.75 575.623 1162.75 576.019C1162.75 576.56 1162.95 576.97 1163.35 577.247C1163.76 577.52 1164.27 577.656 1164.89 577.656ZM1176.24 582.831C1175.49 582.831 1174.84 582.734 1174.3 582.541C1173.76 582.352 1173.3 582.101 1172.94 581.788C1172.59 581.48 1172.3 581.15 1172.09 580.798L1173.33 579.927C1173.47 580.112 1173.65 580.323 1173.87 580.561C1174.08 580.803 1174.38 581.012 1174.75 581.188C1175.13 581.368 1175.63 581.458 1176.24 581.458C1177.06 581.458 1177.73 581.26 1178.26 580.864C1178.8 580.468 1179.06 579.848 1179.06 579.003V576.943H1178.93C1178.82 577.128 1178.65 577.357 1178.44 577.63C1178.24 577.898 1177.94 578.138 1177.54 578.349C1177.16 578.556 1176.63 578.66 1175.97 578.66C1175.16 578.66 1174.42 578.466 1173.77 578.079C1173.12 577.691 1172.61 577.128 1172.23 576.389C1171.86 575.65 1171.67 574.752 1171.67 573.696C1171.67 572.657 1171.85 571.753 1172.22 570.983C1172.58 570.208 1173.09 569.61 1173.74 569.187C1174.39 568.761 1175.15 568.547 1176 568.547C1176.66 568.547 1177.18 568.657 1177.57 568.877C1177.96 569.093 1178.26 569.339 1178.47 569.616C1178.68 569.889 1178.84 570.114 1178.96 570.29H1179.12V568.679H1180.62V579.108C1180.62 579.98 1180.42 580.688 1180.03 581.234C1179.63 581.784 1179.11 582.187 1178.44 582.442C1177.78 582.701 1177.05 582.831 1176.24 582.831ZM1176.18 577.26C1176.81 577.26 1177.34 577.117 1177.77 576.831C1178.2 576.545 1178.53 576.134 1178.75 575.597C1178.98 575.06 1179.09 574.417 1179.09 573.669C1179.09 572.939 1178.98 572.294 1178.76 571.735C1178.54 571.176 1178.21 570.739 1177.78 570.422C1177.35 570.105 1176.82 569.946 1176.18 569.946C1175.52 569.946 1174.97 570.114 1174.53 570.448C1174.1 570.783 1173.77 571.231 1173.55 571.795C1173.34 572.358 1173.23 572.983 1173.23 573.669C1173.23 574.373 1173.34 574.996 1173.56 575.537C1173.78 576.074 1174.11 576.497 1174.55 576.805C1174.99 577.108 1175.53 577.26 1176.18 577.26ZM1183.47 578.818V568.679H1184.98V570.211H1185.08C1185.27 569.709 1185.6 569.302 1186.09 568.989C1186.57 568.677 1187.12 568.521 1187.72 568.521C1187.84 568.521 1187.98 568.523 1188.15 568.527C1188.32 568.532 1188.45 568.538 1188.54 568.547V570.131C1188.49 570.118 1188.37 570.098 1188.18 570.072C1187.99 570.041 1187.8 570.026 1187.59 570.026C1187.1 570.026 1186.66 570.129 1186.27 570.336C1185.89 570.538 1185.58 570.82 1185.36 571.181C1185.14 571.537 1185.03 571.944 1185.03 572.402V578.818H1183.47ZM1194.33 579.029C1193.35 579.029 1192.51 578.814 1191.8 578.382C1191.1 577.947 1190.55 577.339 1190.17 576.56C1189.79 575.777 1189.6 574.866 1189.6 573.828C1189.6 572.789 1189.79 571.874 1190.17 571.082C1190.55 570.285 1191.09 569.665 1191.77 569.22C1192.46 568.772 1193.26 568.547 1194.17 568.547C1194.7 568.547 1195.22 568.635 1195.74 568.811C1196.25 568.987 1196.72 569.273 1197.14 569.669C1197.56 570.061 1197.9 570.58 1198.15 571.227C1198.4 571.874 1198.53 572.67 1198.53 573.617V574.277H1190.71V572.93H1196.94C1196.94 572.358 1196.83 571.848 1196.6 571.399C1196.38 570.95 1196.06 570.596 1195.64 570.336C1195.22 570.076 1194.74 569.946 1194.17 569.946C1193.55 569.946 1193.01 570.1 1192.56 570.409C1192.11 570.712 1191.77 571.108 1191.53 571.597C1191.28 572.085 1191.16 572.609 1191.16 573.168V574.065C1191.16 574.831 1191.29 575.48 1191.56 576.013C1191.83 576.541 1192.2 576.943 1192.67 577.221C1193.15 577.493 1193.7 577.63 1194.33 577.63C1194.74 577.63 1195.11 577.573 1195.44 577.458C1195.77 577.339 1196.06 577.163 1196.3 576.93C1196.55 576.692 1196.73 576.398 1196.87 576.046L1198.37 576.468C1198.21 576.979 1197.95 577.427 1197.57 577.815C1197.2 578.197 1196.74 578.497 1196.19 578.712C1195.64 578.924 1195.02 579.029 1194.33 579.029ZM1205.15 579.029C1204.17 579.029 1203.33 578.814 1202.62 578.382C1201.92 577.947 1201.37 577.339 1200.99 576.56C1200.61 575.777 1200.42 574.866 1200.42 573.828C1200.42 572.789 1200.61 571.874 1200.99 571.082C1201.37 570.285 1201.91 569.665 1202.59 569.22C1203.27 568.772 1204.08 568.547 1204.99 568.547C1205.52 568.547 1206.04 568.635 1206.56 568.811C1207.07 568.987 1207.54 569.273 1207.96 569.669C1208.38 570.061 1208.72 570.58 1208.97 571.227C1209.22 571.874 1209.35 572.67 1209.35 573.617V574.277H1201.53V572.93H1207.76C1207.76 572.358 1207.65 571.848 1207.42 571.399C1207.2 570.95 1206.87 570.596 1206.46 570.336C1206.04 570.076 1205.55 569.946 1204.99 569.946C1204.37 569.946 1203.83 570.1 1203.38 570.409C1202.93 570.712 1202.59 571.108 1202.34 571.597C1202.1 572.085 1201.98 572.609 1201.98 573.168V574.065C1201.98 574.831 1202.11 575.48 1202.38 576.013C1202.65 576.541 1203.02 576.943 1203.49 577.221C1203.97 577.493 1204.52 577.63 1205.15 577.63C1205.56 577.63 1205.93 577.573 1206.26 577.458C1206.59 577.339 1206.88 577.163 1207.12 576.93C1207.36 576.692 1207.55 576.398 1207.68 576.046L1209.19 576.468C1209.03 576.979 1208.76 577.427 1208.39 577.815C1208.02 578.197 1207.55 578.497 1207 578.712C1206.45 578.924 1205.84 579.029 1205.15 579.029ZM1221.35 568.679V569.999H1216.1V568.679H1221.35ZM1217.63 566.25H1219.19V575.914C1219.19 576.354 1219.25 576.684 1219.38 576.904C1219.51 577.119 1219.68 577.265 1219.88 577.339C1220.09 577.41 1220.31 577.445 1220.54 577.445C1220.71 577.445 1220.85 577.436 1220.96 577.419C1221.07 577.397 1221.16 577.379 1221.22 577.366L1221.54 578.765C1221.43 578.805 1221.29 578.844 1221.1 578.884C1220.91 578.928 1220.67 578.95 1220.38 578.95C1219.94 578.95 1219.51 578.855 1219.08 578.666C1218.67 578.477 1218.32 578.189 1218.04 577.801C1217.77 577.414 1217.63 576.926 1217.63 576.336V566.25ZM1227.71 579.029C1226.79 579.029 1225.99 578.811 1225.3 578.376C1224.61 577.94 1224.07 577.331 1223.69 576.547C1223.3 575.764 1223.11 574.849 1223.11 573.801C1223.11 572.745 1223.3 571.823 1223.69 571.036C1224.07 570.248 1224.61 569.636 1225.3 569.201C1225.99 568.765 1226.79 568.547 1227.71 568.547C1228.62 568.547 1229.42 568.765 1230.11 569.201C1230.8 569.636 1231.34 570.248 1231.72 571.036C1232.11 571.823 1232.3 572.745 1232.3 573.801C1232.3 574.849 1232.11 575.764 1231.72 576.547C1231.34 577.331 1230.8 577.94 1230.11 578.376C1229.42 578.811 1228.62 579.029 1227.71 579.029ZM1227.71 577.63C1228.4 577.63 1228.97 577.452 1229.42 577.095C1229.87 576.739 1230.2 576.27 1230.42 575.689C1230.64 575.108 1230.74 574.479 1230.74 573.801C1230.74 573.124 1230.64 572.492 1230.42 571.907C1230.2 571.322 1229.87 570.849 1229.42 570.488C1228.97 570.127 1228.4 569.946 1227.71 569.946C1227.01 569.946 1226.44 570.127 1225.99 570.488C1225.54 570.849 1225.21 571.322 1224.99 571.907C1224.78 572.492 1224.67 573.124 1224.67 573.801C1224.67 574.479 1224.78 575.108 1224.99 575.689C1225.21 576.27 1225.54 576.739 1225.99 577.095C1226.44 577.452 1227.01 577.63 1227.71 577.63ZM1244.03 579.029C1243.11 579.029 1242.31 578.811 1241.62 578.376C1240.93 577.94 1240.39 577.331 1240.01 576.547C1239.62 575.764 1239.43 574.849 1239.43 573.801C1239.43 572.745 1239.62 571.823 1240.01 571.036C1240.39 570.248 1240.93 569.636 1241.62 569.201C1242.31 568.765 1243.11 568.547 1244.03 568.547C1244.94 568.547 1245.74 568.765 1246.43 569.201C1247.12 569.636 1247.66 570.248 1248.04 571.036C1248.43 571.823 1248.62 572.745 1248.62 573.801C1248.62 574.849 1248.43 575.764 1248.04 576.547C1247.66 577.331 1247.12 577.94 1246.43 578.376C1245.74 578.811 1244.94 579.029 1244.03 579.029ZM1244.03 577.63C1244.72 577.63 1245.29 577.452 1245.74 577.095C1246.19 576.739 1246.52 576.27 1246.74 575.689C1246.95 575.108 1247.06 574.479 1247.06 573.801C1247.06 573.124 1246.95 572.492 1246.74 571.907C1246.52 571.322 1246.19 570.849 1245.74 570.488C1245.29 570.127 1244.72 569.946 1244.03 569.946C1243.33 569.946 1242.76 570.127 1242.31 570.488C1241.86 570.849 1241.53 571.322 1241.31 571.907C1241.1 572.492 1240.99 573.124 1240.99 573.801C1240.99 574.479 1241.1 575.108 1241.31 575.689C1241.53 576.27 1241.86 576.739 1242.31 577.095C1242.76 577.452 1243.33 577.63 1244.03 577.63ZM1257.39 574.673V568.679H1258.95V578.818H1257.39V577.102H1257.28C1257.04 577.617 1256.67 578.054 1256.17 578.415C1255.67 578.772 1255.04 578.95 1254.27 578.95C1253.64 578.95 1253.08 578.811 1252.58 578.534C1252.09 578.252 1251.7 577.83 1251.42 577.267C1251.14 576.699 1251 575.984 1251 575.121V568.679H1252.56V575.016C1252.56 575.755 1252.76 576.345 1253.18 576.785C1253.59 577.225 1254.13 577.445 1254.77 577.445C1255.16 577.445 1255.55 577.346 1255.96 577.148C1256.36 576.95 1256.7 576.646 1256.97 576.237C1257.25 575.828 1257.39 575.306 1257.39 574.673ZM1261.8 578.818V568.679H1263.3V570.211H1263.41C1263.59 569.709 1263.93 569.302 1264.41 568.989C1264.9 568.677 1265.44 568.521 1266.05 568.521C1266.16 568.521 1266.31 568.523 1266.48 568.527C1266.65 568.532 1266.78 568.538 1266.87 568.547V570.131C1266.82 570.118 1266.69 570.098 1266.51 570.072C1266.32 570.041 1266.12 570.026 1265.92 570.026C1265.42 570.026 1264.98 570.129 1264.6 570.336C1264.21 570.538 1263.91 570.82 1263.69 571.181C1263.47 571.537 1263.36 571.944 1263.36 572.402V578.818H1261.8ZM1273.41 566.752V565.3H1283.55V566.752H1279.3V578.818H1277.67V566.752H1273.41ZM1288.65 579.029C1287.67 579.029 1286.83 578.814 1286.12 578.382C1285.42 577.947 1284.87 577.339 1284.49 576.56C1284.11 575.777 1283.92 574.866 1283.92 573.828C1283.92 572.789 1284.11 571.874 1284.49 571.082C1284.87 570.285 1285.41 569.665 1286.09 569.22C1286.77 568.772 1287.58 568.547 1288.49 568.547C1289.02 568.547 1289.54 568.635 1290.06 568.811C1290.57 568.987 1291.04 569.273 1291.46 569.669C1291.88 570.061 1292.22 570.58 1292.47 571.227C1292.72 571.874 1292.85 572.67 1292.85 573.617V574.277H1285.03V572.93H1291.26C1291.26 572.358 1291.15 571.848 1290.92 571.399C1290.7 570.95 1290.37 570.596 1289.96 570.336C1289.54 570.076 1289.05 569.946 1288.49 569.946C1287.87 569.946 1287.33 570.1 1286.88 570.409C1286.43 570.712 1286.09 571.108 1285.84 571.597C1285.6 572.085 1285.48 572.609 1285.48 573.168V574.065C1285.48 574.831 1285.61 575.48 1285.88 576.013C1286.15 576.541 1286.52 576.943 1286.99 577.221C1287.47 577.493 1288.02 577.63 1288.65 577.63C1289.06 577.63 1289.43 577.573 1289.76 577.458C1290.09 577.339 1290.38 577.163 1290.62 576.93C1290.86 576.692 1291.05 576.398 1291.18 576.046L1292.69 576.468C1292.53 576.979 1292.26 577.427 1291.89 577.815C1291.52 578.197 1291.05 578.497 1290.5 578.712C1289.95 578.924 1289.34 579.029 1288.65 579.029ZM1295.22 578.818V568.679H1296.72V570.211H1296.83C1297.01 569.709 1297.35 569.302 1297.83 568.989C1298.31 568.677 1298.86 568.521 1299.47 568.521C1299.58 568.521 1299.73 568.523 1299.9 568.527C1300.07 568.532 1300.2 568.538 1300.29 568.547V570.131C1300.23 570.118 1300.11 570.098 1299.92 570.072C1299.74 570.041 1299.54 570.026 1299.34 570.026C1298.84 570.026 1298.4 570.129 1298.02 570.336C1297.63 570.538 1297.33 570.82 1297.1 571.181C1296.88 571.537 1296.77 571.944 1296.77 572.402V578.818H1295.22ZM1302.13 578.818V568.679H1303.64V570.263H1303.77C1303.98 569.722 1304.32 569.302 1304.79 569.003C1305.26 568.699 1305.83 568.547 1306.49 568.547C1307.16 568.547 1307.71 568.699 1308.16 569.003C1308.61 569.302 1308.96 569.722 1309.21 570.263H1309.31C1309.57 569.74 1309.96 569.324 1310.48 569.016C1311 568.703 1311.62 568.547 1312.35 568.547C1313.26 568.547 1314 568.831 1314.58 569.399C1315.15 569.962 1315.44 570.84 1315.44 572.032V578.818H1313.88V572.032C1313.88 571.284 1313.68 570.75 1313.27 570.428C1312.86 570.107 1312.38 569.946 1311.82 569.946C1311.11 569.946 1310.56 570.162 1310.17 570.593C1309.77 571.02 1309.58 571.561 1309.58 572.217V578.818H1307.99V571.874C1307.99 571.297 1307.81 570.833 1307.43 570.481C1307.06 570.125 1306.58 569.946 1305.99 569.946C1305.58 569.946 1305.2 570.054 1304.85 570.27C1304.5 570.486 1304.22 570.785 1304.01 571.168C1303.8 571.546 1303.69 571.984 1303.69 572.481V578.818H1302.13ZM1325.47 570.95L1324.07 571.346C1323.98 571.113 1323.85 570.886 1323.68 570.666C1323.51 570.442 1323.29 570.257 1322.99 570.111C1322.7 569.966 1322.33 569.894 1321.88 569.894C1321.26 569.894 1320.74 570.037 1320.33 570.323C1319.92 570.604 1319.71 570.963 1319.71 571.399C1319.71 571.786 1319.85 572.092 1320.14 572.316C1320.42 572.541 1320.86 572.728 1321.46 572.877L1322.96 573.247C1323.87 573.467 1324.54 573.804 1324.99 574.257C1325.43 574.706 1325.65 575.284 1325.65 575.993C1325.65 576.574 1325.49 577.093 1325.15 577.551C1324.82 578.008 1324.36 578.369 1323.77 578.633C1323.17 578.897 1322.48 579.029 1321.69 579.029C1320.66 579.029 1319.8 578.805 1319.13 578.356C1318.45 577.907 1318.02 577.251 1317.84 576.389L1319.32 576.019C1319.46 576.565 1319.73 576.974 1320.12 577.247C1320.51 577.52 1321.03 577.656 1321.67 577.656C1322.39 577.656 1322.97 577.502 1323.4 577.194C1323.83 576.882 1324.04 576.508 1324.04 576.072C1324.04 575.72 1323.92 575.425 1323.67 575.188C1323.43 574.945 1323.05 574.765 1322.54 574.646L1320.85 574.25C1319.92 574.03 1319.24 573.689 1318.8 573.227C1318.37 572.761 1318.16 572.178 1318.16 571.478C1318.16 570.906 1318.32 570.4 1318.64 569.96C1318.96 569.52 1319.41 569.174 1319.96 568.923C1320.53 568.673 1321.17 568.547 1321.88 568.547C1322.88 568.547 1323.67 568.767 1324.24 569.207C1324.82 569.647 1325.23 570.228 1325.47 570.95ZM1337.35 579.029C1336.43 579.029 1335.63 578.811 1334.94 578.376C1334.25 577.94 1333.71 577.331 1333.33 576.547C1332.94 575.764 1332.75 574.849 1332.75 573.801C1332.75 572.745 1332.94 571.823 1333.33 571.036C1333.71 570.248 1334.25 569.636 1334.94 569.201C1335.63 568.765 1336.43 568.547 1337.35 568.547C1338.26 568.547 1339.06 568.765 1339.75 569.201C1340.44 569.636 1340.98 570.248 1341.36 571.036C1341.75 571.823 1341.94 572.745 1341.94 573.801C1341.94 574.849 1341.75 575.764 1341.36 576.547C1340.98 577.331 1340.44 577.94 1339.75 578.376C1339.06 578.811 1338.26 579.029 1337.35 579.029ZM1337.35 577.63C1338.04 577.63 1338.61 577.452 1339.06 577.095C1339.51 576.739 1339.84 576.27 1340.06 575.689C1340.27 575.108 1340.38 574.479 1340.38 573.801C1340.38 573.124 1340.27 572.492 1340.06 571.907C1339.84 571.322 1339.51 570.849 1339.06 570.488C1338.61 570.127 1338.04 569.946 1337.35 569.946C1336.65 569.946 1336.08 570.127 1335.63 570.488C1335.18 570.849 1334.85 571.322 1334.63 571.907C1334.42 572.492 1334.31 573.124 1334.31 573.801C1334.31 574.479 1334.42 575.108 1334.63 575.689C1334.85 576.27 1335.18 576.739 1335.63 577.095C1336.08 577.452 1336.65 577.63 1337.35 577.63ZM1348.83 568.679V569.999H1343.37V568.679H1348.83ZM1345 578.818V567.28C1345 566.699 1345.14 566.215 1345.41 565.828C1345.69 565.44 1346.04 565.15 1346.48 564.956C1346.91 564.763 1347.37 564.666 1347.86 564.666C1348.24 564.666 1348.55 564.697 1348.79 564.758C1349.04 564.82 1349.22 564.877 1349.34 564.93L1348.89 566.276C1348.81 566.25 1348.7 566.217 1348.56 566.177C1348.42 566.138 1348.24 566.118 1348.01 566.118C1347.5 566.118 1347.13 566.248 1346.9 566.507C1346.67 566.767 1346.56 567.148 1346.56 567.649V578.818H1345ZM1363.85 568.679C1363.77 568.01 1363.45 567.491 1362.88 567.121C1362.32 566.752 1361.63 566.567 1360.81 566.567C1360.21 566.567 1359.69 566.664 1359.24 566.857C1358.8 567.051 1358.45 567.317 1358.2 567.656C1357.95 567.995 1357.83 568.38 1357.83 568.811C1357.83 569.172 1357.91 569.482 1358.09 569.742C1358.26 569.997 1358.49 570.211 1358.76 570.382C1359.03 570.549 1359.32 570.688 1359.62 570.798C1359.92 570.904 1360.19 570.989 1360.44 571.055L1361.82 571.425C1362.17 571.517 1362.56 571.645 1362.99 571.808C1363.43 571.971 1363.84 572.193 1364.24 572.475C1364.64 572.752 1364.97 573.108 1365.23 573.544C1365.49 573.98 1365.62 574.514 1365.62 575.148C1365.62 575.878 1365.43 576.538 1365.04 577.128C1364.66 577.718 1364.11 578.186 1363.38 578.534C1362.65 578.882 1361.77 579.056 1360.73 579.056C1359.76 579.056 1358.93 578.899 1358.22 578.587C1357.51 578.274 1356.96 577.839 1356.55 577.28C1356.15 576.721 1355.93 576.072 1355.87 575.333H1357.56C1357.61 575.843 1357.78 576.266 1358.08 576.6C1358.38 576.93 1358.77 577.177 1359.23 577.339C1359.69 577.498 1360.2 577.577 1360.73 577.577C1361.36 577.577 1361.92 577.476 1362.42 577.273C1362.91 577.067 1363.31 576.78 1363.6 576.415C1363.89 576.046 1364.03 575.614 1364.03 575.121C1364.03 574.673 1363.91 574.307 1363.66 574.026C1363.41 573.744 1363.08 573.515 1362.67 573.339C1362.26 573.163 1361.82 573.009 1361.34 572.877L1359.68 572.402C1358.62 572.098 1357.78 571.665 1357.17 571.102C1356.55 570.538 1356.24 569.801 1356.24 568.89C1356.24 568.133 1356.45 567.473 1356.86 566.91C1357.27 566.342 1357.83 565.902 1358.52 565.59C1359.22 565.273 1360 565.115 1360.87 565.115C1361.74 565.115 1362.51 565.271 1363.19 565.583C1363.87 565.891 1364.4 566.314 1364.8 566.851C1365.2 567.388 1365.41 567.997 1365.43 568.679H1363.85ZM1372.35 579.029C1371.37 579.029 1370.53 578.814 1369.82 578.382C1369.12 577.947 1368.57 577.339 1368.19 576.56C1367.81 575.777 1367.62 574.866 1367.62 573.828C1367.62 572.789 1367.81 571.874 1368.19 571.082C1368.57 570.285 1369.11 569.665 1369.79 569.22C1370.47 568.772 1371.28 568.547 1372.19 568.547C1372.72 568.547 1373.24 568.635 1373.75 568.811C1374.27 568.987 1374.74 569.273 1375.16 569.669C1375.58 570.061 1375.92 570.58 1376.17 571.227C1376.42 571.874 1376.55 572.67 1376.55 573.617V574.277H1368.73V572.93H1374.96C1374.96 572.358 1374.85 571.848 1374.62 571.399C1374.39 570.95 1374.07 570.596 1373.66 570.336C1373.24 570.076 1372.75 569.946 1372.19 569.946C1371.57 569.946 1371.03 570.1 1370.58 570.409C1370.13 570.712 1369.79 571.108 1369.54 571.597C1369.3 572.085 1369.18 572.609 1369.18 573.168V574.065C1369.18 574.831 1369.31 575.48 1369.58 576.013C1369.84 576.541 1370.22 576.943 1370.69 577.221C1371.17 577.493 1371.72 577.63 1372.35 577.63C1372.76 577.63 1373.13 577.573 1373.46 577.458C1373.79 577.339 1374.08 577.163 1374.32 576.93C1374.56 576.692 1374.75 576.398 1374.88 576.046L1376.39 576.468C1376.23 576.979 1375.96 577.427 1375.59 577.815C1375.22 578.197 1374.75 578.497 1374.2 578.712C1373.65 578.924 1373.04 579.029 1372.35 579.029ZM1378.92 578.818V568.679H1380.42V570.211H1380.53C1380.71 569.709 1381.05 569.302 1381.53 568.989C1382.01 568.677 1382.56 568.521 1383.17 568.521C1383.28 568.521 1383.42 568.523 1383.6 568.527C1383.77 568.532 1383.9 568.538 1383.99 568.547V570.131C1383.93 570.118 1383.81 570.098 1383.62 570.072C1383.44 570.041 1383.24 570.026 1383.04 570.026C1382.54 570.026 1382.1 570.129 1381.72 570.336C1381.33 570.538 1381.03 570.82 1380.8 571.181C1380.58 571.537 1380.47 571.944 1380.47 572.402V578.818H1378.92ZM1394.43 568.679L1390.68 578.818H1389.1L1385.35 568.679H1387.04L1389.84 576.758H1389.94L1392.74 568.679H1394.43ZM1396.49 578.818V568.679H1398.05V578.818H1396.49ZM1397.28 566.989C1396.98 566.989 1396.71 566.886 1396.49 566.679C1396.28 566.472 1396.17 566.224 1396.17 565.933C1396.17 565.643 1396.28 565.394 1396.49 565.187C1396.71 564.98 1396.98 564.877 1397.28 564.877C1397.58 564.877 1397.84 564.98 1398.06 565.187C1398.28 565.394 1398.39 565.643 1398.39 565.933C1398.39 566.224 1398.28 566.472 1398.06 566.679C1397.84 566.886 1397.58 566.989 1397.28 566.989ZM1405.02 579.029C1404.07 579.029 1403.25 578.805 1402.56 578.356C1401.88 577.907 1401.35 577.289 1400.98 576.501C1400.61 575.713 1400.42 574.813 1400.42 573.801C1400.42 572.772 1400.61 571.863 1400.99 571.075C1401.37 570.283 1401.91 569.665 1402.59 569.22C1403.28 568.772 1404.08 568.547 1404.99 568.547C1405.7 568.547 1406.35 568.679 1406.92 568.943C1407.49 569.207 1407.96 569.577 1408.32 570.052C1408.69 570.527 1408.92 571.082 1409 571.715H1407.45C1407.33 571.253 1407.06 570.844 1406.65 570.488C1406.25 570.127 1405.7 569.946 1405.02 569.946C1404.41 569.946 1403.88 570.105 1403.42 570.422C1402.97 570.734 1402.61 571.176 1402.36 571.748C1402.11 572.316 1401.98 572.983 1401.98 573.749C1401.98 574.532 1402.1 575.214 1402.35 575.795C1402.6 576.376 1402.95 576.827 1403.41 577.148C1403.86 577.469 1404.4 577.63 1405.02 577.63C1405.42 577.63 1405.79 577.559 1406.12 577.419C1406.45 577.278 1406.73 577.075 1406.96 576.811C1407.19 576.547 1407.35 576.23 1407.45 575.861H1409C1408.92 576.459 1408.7 576.998 1408.35 577.478C1408.01 577.953 1407.55 578.332 1406.98 578.613C1406.42 578.891 1405.77 579.029 1405.02 579.029ZM1415.53 579.029C1414.56 579.029 1413.71 578.814 1413 578.382C1412.3 577.947 1411.76 577.339 1411.37 576.56C1411 575.777 1410.81 574.866 1410.81 573.828C1410.81 572.789 1411 571.874 1411.37 571.082C1411.76 570.285 1412.29 569.665 1412.97 569.22C1413.66 568.772 1414.46 568.547 1415.37 568.547C1415.9 568.547 1416.42 568.635 1416.94 568.811C1417.45 568.987 1417.92 569.273 1418.34 569.669C1418.77 570.061 1419.1 570.58 1419.35 571.227C1419.61 571.874 1419.73 572.67 1419.73 573.617V574.277H1411.92V572.93H1418.15C1418.15 572.358 1418.03 571.848 1417.8 571.399C1417.58 570.95 1417.26 570.596 1416.84 570.336C1416.43 570.076 1415.94 569.946 1415.37 569.946C1414.75 569.946 1414.22 570.1 1413.76 570.409C1413.31 570.712 1412.97 571.108 1412.73 571.597C1412.49 572.085 1412.36 572.609 1412.36 573.168V574.065C1412.36 574.831 1412.5 575.48 1412.76 576.013C1413.03 576.541 1413.4 576.943 1413.88 577.221C1414.35 577.493 1414.9 577.63 1415.53 577.63C1415.94 577.63 1416.31 577.573 1416.64 577.458C1416.98 577.339 1417.26 577.163 1417.51 576.93C1417.75 576.692 1417.94 576.398 1418.07 576.046L1419.57 576.468C1419.41 576.979 1419.15 577.427 1418.77 577.815C1418.4 578.197 1417.94 578.497 1417.39 578.712C1416.84 578.924 1416.22 579.029 1415.53 579.029Z" fill="#6F737A"/>
<path d="M1100.76 491.511C1100.76 494.275 1100.23 496.626 1099.18 498.565C1098.15 500.504 1096.73 501.985 1094.93 503.008C1093.14 504.023 1091.12 504.531 1088.89 504.531C1086.64 504.531 1084.61 504.019 1082.82 502.996C1081.03 501.973 1079.62 500.492 1078.58 498.553C1077.54 496.614 1077.02 494.266 1077.02 491.511C1077.02 488.747 1077.54 486.395 1078.58 484.456C1079.62 482.517 1081.03 481.04 1082.82 480.025C1084.61 479.002 1086.64 478.491 1088.89 478.491C1091.12 478.491 1093.14 479.002 1094.93 480.025C1096.73 481.04 1098.15 482.517 1099.18 484.456C1100.23 486.395 1100.76 488.747 1100.76 491.511ZM1095.32 491.511C1095.32 489.72 1095.06 488.21 1094.52 486.981C1093.99 485.751 1093.24 484.819 1092.28 484.184C1091.31 483.548 1090.18 483.231 1088.89 483.231C1087.59 483.231 1086.46 483.548 1085.5 484.184C1084.53 484.819 1083.78 485.751 1083.24 486.981C1082.72 488.21 1082.45 489.72 1082.45 491.511C1082.45 493.301 1082.72 494.811 1083.24 496.04C1083.78 497.27 1084.53 498.202 1085.5 498.838C1086.46 499.473 1087.59 499.79 1088.89 499.79C1090.18 499.79 1091.31 499.473 1092.28 498.838C1093.24 498.202 1093.99 497.27 1094.52 496.04C1095.06 494.811 1095.32 493.301 1095.32 491.511ZM1104.63 511.313V485.174H1109.83V488.367H1110.06C1110.29 487.855 1110.63 487.336 1111.06 486.808C1111.51 486.271 1112.09 485.826 1112.8 485.471C1113.51 485.108 1114.4 484.926 1115.47 484.926C1116.86 484.926 1118.13 485.289 1119.31 486.015C1120.48 486.733 1121.41 487.818 1122.12 489.27C1122.82 490.714 1123.17 492.526 1123.17 494.704C1123.17 496.824 1122.82 498.615 1122.14 500.075C1121.46 501.527 1120.54 502.629 1119.37 503.38C1118.2 504.122 1116.9 504.494 1115.46 504.494C1114.43 504.494 1113.56 504.324 1112.85 503.986C1112.14 503.648 1111.55 503.223 1111.1 502.711C1110.65 502.192 1110.3 501.668 1110.06 501.14H1109.9V511.313H1104.63ZM1109.79 494.679C1109.79 495.809 1109.95 496.795 1110.26 497.637C1110.57 498.479 1111.03 499.135 1111.62 499.605C1112.21 500.067 1112.94 500.298 1113.79 500.298C1114.64 500.298 1115.37 500.063 1115.96 499.592C1116.56 499.114 1117.01 498.454 1117.31 497.612C1117.63 496.762 1117.78 495.785 1117.78 494.679C1117.78 493.582 1117.63 492.616 1117.33 491.783C1117.02 490.95 1116.57 490.298 1115.98 489.827C1115.38 489.357 1114.65 489.122 1113.79 489.122C1112.93 489.122 1112.2 489.349 1111.61 489.803C1111.02 490.256 1110.57 490.9 1110.26 491.733C1109.95 492.567 1109.79 493.549 1109.79 494.679ZM1135.35 504.555C1133.39 504.555 1131.71 504.159 1130.3 503.367C1128.89 502.567 1127.81 501.437 1127.05 499.976C1126.29 498.507 1125.91 496.771 1125.91 494.766C1125.91 492.81 1126.29 491.094 1127.05 489.617C1127.81 488.14 1128.88 486.989 1130.26 486.164C1131.65 485.339 1133.27 484.926 1135.14 484.926C1136.39 484.926 1137.56 485.129 1138.64 485.533C1139.73 485.929 1140.68 486.527 1141.48 487.327C1142.3 488.128 1142.94 489.134 1143.39 490.347C1143.84 491.552 1144.07 492.963 1144.07 494.58V496.028H1128.02V492.761H1139.11C1139.11 492.002 1138.94 491.329 1138.61 490.743C1138.28 490.157 1137.83 489.7 1137.24 489.37C1136.66 489.031 1135.99 488.862 1135.22 488.862C1134.42 488.862 1133.71 489.048 1133.09 489.419C1132.48 489.782 1132 490.273 1131.66 490.892C1131.31 491.502 1131.13 492.183 1131.13 492.934V496.04C1131.13 496.981 1131.3 497.794 1131.65 498.479C1132 499.163 1132.5 499.691 1133.14 500.063C1133.79 500.434 1134.55 500.62 1135.43 500.62C1136.02 500.62 1136.55 500.537 1137.04 500.372C1137.53 500.207 1137.94 499.96 1138.29 499.63C1138.64 499.3 1138.9 498.895 1139.08 498.417L1143.96 498.738C1143.71 499.91 1143.2 500.933 1142.44 501.808C1141.68 502.674 1140.7 503.351 1139.49 503.838C1138.3 504.316 1136.91 504.555 1135.35 504.555ZM1152.78 493.194V504.184H1147.51V485.174H1152.54V488.528H1152.76C1153.18 487.422 1153.89 486.548 1154.88 485.904C1155.87 485.252 1157.07 484.926 1158.48 484.926C1159.8 484.926 1160.95 485.215 1161.93 485.793C1162.91 486.37 1163.68 487.195 1164.22 488.268C1164.76 489.332 1165.04 490.603 1165.04 492.08V504.184H1159.76V493.021C1159.77 491.857 1159.48 490.95 1158.87 490.298C1158.27 489.638 1157.44 489.308 1156.39 489.308C1155.68 489.308 1155.05 489.46 1154.5 489.766C1153.97 490.071 1153.55 490.516 1153.24 491.102C1152.95 491.68 1152.79 492.377 1152.78 493.194ZM1181.73 504.184H1175.98L1184.73 478.837H1191.64L1200.38 504.184H1194.64L1188.29 484.629H1188.09L1181.73 504.184ZM1181.37 494.221H1194.93V498.404H1181.37V494.221ZM1203.33 511.313V485.174H1208.53V488.367H1208.76C1208.99 487.855 1209.33 487.336 1209.77 486.808C1210.21 486.271 1210.79 485.826 1211.5 485.471C1212.22 485.108 1213.11 484.926 1214.17 484.926C1215.56 484.926 1216.84 485.289 1218.01 486.015C1219.18 486.733 1220.12 487.818 1220.82 489.27C1221.52 490.714 1221.87 492.526 1221.87 494.704C1221.87 496.824 1221.53 498.615 1220.84 500.075C1220.17 501.527 1219.24 502.629 1218.07 503.38C1216.91 504.122 1215.6 504.494 1214.16 504.494C1213.14 504.494 1212.27 504.324 1211.55 503.986C1210.84 503.648 1210.26 503.223 1209.8 502.711C1209.35 502.192 1209 501.668 1208.76 501.14H1208.6V511.313H1203.33ZM1208.49 494.679C1208.49 495.809 1208.65 496.795 1208.96 497.637C1209.27 498.479 1209.73 499.135 1210.32 499.605C1210.92 500.067 1211.64 500.298 1212.49 500.298C1213.35 500.298 1214.07 500.063 1214.67 499.592C1215.26 499.114 1215.71 498.454 1216.02 497.612C1216.33 496.762 1216.49 495.785 1216.49 494.679C1216.49 493.582 1216.33 492.616 1216.03 491.783C1215.72 490.95 1215.27 490.298 1214.68 489.827C1214.08 489.357 1213.35 489.122 1212.49 489.122C1211.63 489.122 1210.9 489.349 1210.31 489.803C1209.72 490.256 1209.27 490.9 1208.96 491.733C1208.65 492.567 1208.49 493.549 1208.49 494.679ZM1225.38 511.313V485.174H1230.58V488.367H1230.82C1231.05 487.855 1231.38 487.336 1231.82 486.808C1232.27 486.271 1232.84 485.826 1233.55 485.471C1234.27 485.108 1235.16 484.926 1236.23 484.926C1237.61 484.926 1238.89 485.289 1240.06 486.015C1241.23 486.733 1242.17 487.818 1242.87 489.27C1243.57 490.714 1243.92 492.526 1243.92 494.704C1243.92 496.824 1243.58 498.615 1242.9 500.075C1242.22 501.527 1241.3 502.629 1240.13 503.38C1238.96 504.122 1237.66 504.494 1236.21 504.494C1235.19 504.494 1234.32 504.324 1233.6 503.986C1232.89 503.648 1232.31 503.223 1231.86 502.711C1231.4 502.192 1231.06 501.668 1230.82 501.14H1230.66V511.313H1225.38ZM1230.55 494.679C1230.55 495.809 1230.7 496.795 1231.02 497.637C1231.33 498.479 1231.78 499.135 1232.38 499.605C1232.97 500.067 1233.69 500.298 1234.54 500.298C1235.4 500.298 1236.13 500.063 1236.72 499.592C1237.32 499.114 1237.77 498.454 1238.07 497.612C1238.38 496.762 1238.54 495.785 1238.54 494.679C1238.54 493.582 1238.39 492.616 1238.08 491.783C1237.78 490.95 1237.33 490.298 1236.73 489.827C1236.14 489.357 1235.41 489.122 1234.54 489.122C1233.69 489.122 1232.96 489.349 1232.36 489.803C1231.78 490.256 1231.33 490.9 1231.02 491.733C1230.7 492.567 1230.55 493.549 1230.55 494.679Z" fill="#010101"/>
<path d="M1270.75 505.57L1267.88 502.724L1275.42 495.186H1257.76V491.003H1275.42L1267.88 483.478L1270.75 480.619L1283.23 493.095L1270.75 505.57Z" fill="#4263EB"/>
</svg>
