<svg width="114" height="108" viewBox="0 0 114 108" fill="none" xmlns="http://www.w3.org/2000/svg">
<path d="M36 30V24H60V30H36Z" fill="#DBB180"/>
<path d="M72 96V90H54V96H60V108H66V96H72Z" fill="black"/>
<path d="M108 72H72V78H108V72Z" fill="#595959"/>
<path d="M90 18H84V30H66V36H72V42H84V66H72V72H108V78H72V90H78V84H114V66H90V18Z" fill="black"/>
<path d="M42 78V108H36V78H42Z" fill="black"/>
<path d="M36 78H30V54H24V30H30V24H36V30H60V42H54V48H42V42H36V36H30V48H36V78Z" fill="black"/>
<path d="M36 36H30V48H36V78H42V108H60V96H54V90H72V78H54V72H72V66H84V42H72V36H66V30H60V42H54V48H42V42H36V36Z" fill="#DBB180"/>
<path d="M24 18H0V24H6V42H12V36H18V30H24V24H60V30H78V24H84V18H90V6H84V0H36V6H30V12H24V18Z" fill="#1637A4"/>
<rect x="54" y="71.9999" width="5.99996" height="5.99996" fill="#C42110"/>
<rect x="48.0001" y="71.9999" width="5.99996" height="5.99996" fill="#DBB180"/>
<rect x="42.0001" y="71.9999" width="5.99996" height="5.99996" fill="#DBB180"/>
<rect x="36.0001" y="71.9999" width="5.99996" height="5.99996" fill="#DBB180"/>
<rect x="30.0001" y="71.9999" width="5.99996" height="5.99996" fill="black"/>
<rect x="60" y="71.9999" width="5.99996" height="5.99996" fill="#C42110"/>
<rect x="65.9999" y="71.9999" width="5.99996" height="5.99996" fill="black"/>
<rect x="71.9999" y="71.9999" width="5.99996" height="5.99996" fill="#595959"/>
<rect x="78.0002" y="71.9999" width="5.99996" height="5.99996" fill="#595959"/>
<rect x="84.0001" y="71.9999" width="5.99996" height="5.99996" fill="#595959"/>
<rect x="90.0001" y="71.9999" width="5.99996" height="5.99996" fill="#595959"/>
<rect x="96.0001" y="71.9999" width="5.99996" height="5.99996" fill="#595959"/>
<rect x="102" y="71.9999" width="5.99996" height="5.99996" fill="#0040FF"/>
<rect x="108" y="71.9999" width="5.99996" height="5.99996" fill="black"/>
<rect x="54" y="65.9999" width="5.99996" height="5.99996" fill="#DBB180"/>
<rect x="48.0001" y="65.9999" width="5.99996" height="5.99996" fill="#DBB180"/>
<rect x="42.0001" y="65.9999" width="5.99996" height="5.99996" fill="#DBB180"/>
<rect x="36.0001" y="65.9999" width="5.99996" height="5.99996" fill="#DBB180"/>
<rect x="30.0001" y="65.9999" width="5.99996" height="5.99996" fill="black"/>
<rect x="60" y="65.9999" width="5.99996" height="5.99996" fill="#DBB180"/>
<rect x="65.9999" y="65.9999" width="5.99996" height="5.99996" fill="#DBB180"/>
<rect x="71.9999" y="65.9999" width="5.99996" height="5.99996" fill="black"/>
<rect x="78.0002" y="65.9999" width="5.99996" height="5.99996" fill="black"/>
<rect x="84.0001" y="65.9999" width="5.99996" height="5.99996" fill="black"/>
<rect x="54" y="60" width="5.99996" height="5.99996" fill="#DBB180"/>
<rect x="48.0001" y="60" width="5.99996" height="5.99996" fill="#DBB180"/>
<rect x="42.0001" y="60" width="5.99996" height="5.99996" fill="#DBB180"/>
<rect x="36.0001" y="60" width="5.99996" height="5.99996" fill="#DBB180"/>
<rect x="30.0001" y="60" width="5.99996" height="5.99996" fill="black"/>
<rect x="60" y="60" width="5.99996" height="5.99996" fill="black"/>
<rect x="65.9999" y="60" width="5.99996" height="5.99996" fill="#DBB180"/>
<rect x="71.9999" y="60" width="5.99996" height="5.99996" fill="#DBB180"/>
<rect x="78.0002" y="60" width="5.99996" height="5.99996" fill="#DBB180"/>
<rect x="84.0001" y="60" width="5.99996" height="5.99996" fill="black"/>
<rect x="54" y="54" width="5.99996" height="5.99996" fill="#DBB180"/>
<rect x="48.0001" y="54" width="5.99996" height="5.99996" fill="#DBB180"/>
<rect x="42.0001" y="54" width="5.99996" height="5.99996" fill="#DBB180"/>
<rect x="36.0001" y="54" width="5.99996" height="5.99996" fill="#DBB180"/>
<rect x="30.0001" y="54" width="5.99996" height="5.99996" fill="black"/>
<rect x="60" y="54" width="5.99996" height="5.99996" fill="#DBB180"/>
<rect x="65.9999" y="54" width="5.99996" height="5.99996" fill="#DBB180"/>
<rect x="71.9999" y="54" width="5.99996" height="5.99996" fill="#DBB180"/>
<rect x="78.0002" y="54" width="5.99996" height="5.99996" fill="#DBB180"/>
<rect x="84.0001" y="54" width="5.99996" height="5.99996" fill="black"/>
<rect x="54" y="48" width="5.99996" height="5.99996" fill="#DBB180"/>
<rect x="48.0001" y="48" width="5.99996" height="5.99996" fill="#DBB180"/>
<rect x="42.0001" y="48" width="5.99996" height="5.99996" fill="#DBB180"/>
<rect x="36.0001" y="48" width="5.99996" height="5.99996" fill="#DBB180"/>
<rect x="30.0001" y="48" width="5.99996" height="5.99996" fill="black"/>
<rect x="24.0002" y="48" width="5.99996" height="5.99996" fill="black"/>
<rect x="60" y="48" width="5.99996" height="5.99996" fill="#DBB180"/>
<rect x="65.9999" y="48" width="5.99996" height="5.99996" fill="#DBB180"/>
<rect x="71.9999" y="48" width="5.99996" height="5.99996" fill="#DBB180"/>
<rect x="78.0002" y="48" width="5.99996" height="5.99996" fill="#DBB180"/>
<rect x="84.0001" y="48" width="5.99996" height="5.99996" fill="black"/>
<rect x="54" y="42.0001" width="5.99996" height="5.99996" fill="#DBB180"/>
<rect x="48.0001" y="42.0001" width="5.99996" height="5.99996" fill="black"/>
<rect x="42.0001" y="42.0001" width="5.99996" height="5.99996" fill="black"/>
<rect x="36.0001" y="42.0001" width="5.99996" height="5.99996" fill="#DBB180"/>
<rect x="30.0001" y="42.0001" width="5.99996" height="5.99996" fill="#DBB180"/>
<rect x="24.0002" y="42.0001" width="5.99996" height="5.99996" fill="black"/>
<rect x="60" y="42.0001" width="5.99996" height="5.99996" fill="#DBB180"/>
<rect x="65.9999" y="42.0001" width="5.99996" height="5.99996" fill="#DBB180"/>
<rect x="71.9999" y="42.0001" width="5.99996" height="5.99996" fill="#DBB180"/>
<rect x="78.0002" y="42.0001" width="5.99996" height="5.99996" fill="#DBB180"/>
<rect x="84.0001" y="42.0001" width="5.99996" height="5.99996" fill="black"/>
<rect x="54" y="36.0001" width="5.99996" height="5.99996" fill="black"/>
<rect x="48.0001" y="36.0001" width="5.99996" height="5.99996" fill="black"/>
<rect x="42.0001" y="36.0001" width="5.99996" height="5.99996" fill="black"/>
<rect x="36.0001" y="36.0001" width="5.99996" height="5.99996" fill="black"/>
<rect x="30.0001" y="36.0001" width="5.99996" height="5.99996" fill="#DBB180"/>
<rect x="24.0002" y="36.0001" width="5.99996" height="5.99996" fill="black"/>
<rect x="60" y="36.0001" width="5.99996" height="5.99996" fill="#DBB180"/>
<rect x="65.9999" y="36.0001" width="5.99996" height="5.99996" fill="#DBB180"/>
<rect x="71.9999" y="36.0001" width="5.99996" height="5.99996" fill="black"/>
<rect x="78.0002" y="36.0001" width="5.99996" height="5.99996" fill="black"/>
<rect x="84.0001" y="36.0001" width="5.99996" height="5.99996" fill="black"/>
<rect x="54" y="29.9998" width="5.99996" height="5.99996" fill="black"/>
<rect x="48.0001" y="29.9998" width="5.99996" height="5.99996" fill="black"/>
<rect x="42.0001" y="29.9998" width="5.99996" height="5.99996" fill="black"/>
<rect x="36.0001" y="29.9998" width="5.99996" height="5.99996" fill="black"/>
<rect x="30.0001" y="29.9998" width="5.99996" height="5.99996" fill="black"/>
<rect x="24.0002" y="29.9998" width="5.99996" height="5.99996" fill="black"/>
<rect x="60" y="29.9998" width="5.99996" height="5.99996" fill="#DBB180"/>
<rect x="65.9999" y="29.9998" width="5.99996" height="5.99996" fill="black"/>
<rect x="71.9999" y="29.9998" width="5.99996" height="5.99996" fill="black"/>
<rect x="78.0002" y="29.9998" width="5.99996" height="5.99996" fill="black"/>
<rect x="84.0001" y="29.9998" width="5.99996" height="5.99996" fill="black"/>
<rect x="54" y="23.9998" width="5.99996" height="5.99996" fill="#DBB180"/>
<rect x="48.0001" y="23.9998" width="5.99996" height="5.99996" fill="#DBB180"/>
<rect x="42.0001" y="23.9998" width="5.99996" height="5.99996" fill="#DBB180"/>
<rect x="36.0001" y="23.9998" width="5.99996" height="5.99996" fill="#DBB180"/>
<rect x="30.0001" y="23.9998" width="5.99996" height="5.99996" fill="black"/>
<rect x="60" y="23.9998" width="5.99996" height="5.99996" fill="#1637A4"/>
<rect x="65.9999" y="23.9998" width="5.99996" height="5.99996" fill="#1637A4"/>
<rect x="71.9999" y="23.9998" width="5.99996" height="5.99996" fill="#1637A4"/>
<rect x="78.0002" y="23.9998" width="5.99996" height="5.99996" fill="#DBB180"/>
<rect x="84.0001" y="23.9998" width="5.99996" height="5.99996" fill="black"/>
<rect x="90.0001" y="65.9999" width="5.99996" height="5.99996" fill="black"/>
<rect x="96.0001" y="65.9999" width="5.99996" height="5.99996" fill="black"/>
<rect x="102" y="65.9999" width="5.99996" height="5.99996" fill="black"/>
<rect x="108" y="65.9999" width="5.99996" height="5.99996" fill="black"/>
<rect x="29.9998" y="17.9999" width="5.99996" height="5.99996" fill="#1A43C8"/>
<rect x="23.9999" y="17.9999" width="5.99996" height="5.99996" fill="#142C7C"/>
<rect x="17.9999" y="17.9999" width="5.99996" height="5.99996" fill="#1637A4"/>
<rect x="11.9999" y="17.9999" width="5.99996" height="5.99996" fill="#1A43C8"/>
<rect x="6" y="17.9999" width="5.99996" height="5.99996" fill="#1637A4"/>
<rect y="17.9999" width="5.99996" height="5.99996" fill="#1637A4"/>
<rect x="6" y="23.9998" width="5.99996" height="5.99996" fill="#1A43C8"/>
<rect x="11.9999" y="23.9998" width="5.99996" height="5.99996" fill="#1637A4"/>
<rect x="17.9999" y="23.9998" width="5.99996" height="5.99996" fill="#142C7C"/>
<rect x="11.9999" y="30.0002" width="5.99996" height="5.99996" fill="#142C7C"/>
<rect x="6" y="29.9998" width="5.99996" height="5.99996" fill="#1A43C8"/>
<rect x="6" y="35.9997" width="5.99996" height="5.99996" fill="#1A43C8"/>
<rect x="35.9997" y="17.9999" width="5.99996" height="5.99996" fill="#1637A4"/>
<rect x="41.9997" y="17.9999" width="5.99996" height="5.99996" fill="#1637A4"/>
<rect x="47.9997" y="17.9999" width="5.99996" height="5.99996" fill="#1637A4"/>
<rect x="54" y="17.9999" width="5.99996" height="5.99996" fill="#1637A4"/>
<rect x="60" y="17.9999" width="5.99996" height="5.99996" fill="#1A43C8"/>
<rect x="65.9999" y="17.9999" width="5.99996" height="5.99996" fill="#1A43C8"/>
<rect x="71.9999" y="17.9999" width="5.99996" height="5.99996" fill="#1A43C8"/>
<rect x="77.9999" y="17.9999" width="5.99996" height="5.99996" fill="#1637A4"/>
<rect x="84.0001" y="17.9999" width="5.99996" height="5.99996" fill="black"/>
<rect x="29.9998" y="11.9999" width="5.99996" height="5.99996" fill="#1A43C8"/>
<rect x="23.9999" y="11.9999" width="5.99996" height="5.99996" fill="#1637A4"/>
<rect x="35.9997" y="11.9999" width="5.99996" height="5.99996" fill="#1A43C8"/>
<rect x="41.9997" y="11.9999" width="5.99996" height="5.99996" fill="#1A43C8"/>
<rect x="47.9997" y="11.9999" width="5.99996" height="5.99996" fill="#1A43C8"/>
<rect x="54" y="11.9999" width="5.99996" height="5.99996" fill="#1A43C8"/>
<rect x="60" y="11.9999" width="5.99996" height="5.99996" fill="#1A43C8"/>
<rect x="65.9999" y="11.9999" width="5.99996" height="5.99996" fill="#1A43C8"/>
<rect x="71.9999" y="11.9999" width="5.99996" height="5.99996" fill="#1A43C8"/>
<rect x="77.9999" y="11.9999" width="5.99996" height="5.99996" fill="#1A43C8"/>
<rect x="84.0001" y="11.9999" width="5.99996" height="5.99996" fill="#1637A4"/>
<rect x="29.9998" y="5.99995" width="5.99996" height="5.99996" fill="#1637A4"/>
<rect x="35.9997" y="5.99995" width="5.99996" height="5.99996" fill="#1A43C8"/>
<rect x="41.9997" y="5.99995" width="5.99996" height="5.99996" fill="#1A43C8"/>
<rect x="47.9997" y="5.99995" width="5.99996" height="5.99996" fill="#1A43C8"/>
<rect x="54" y="5.99995" width="5.99996" height="5.99996" fill="#1A43C8"/>
<rect x="60" y="5.99995" width="5.99996" height="5.99996" fill="#1A43C8"/>
<rect x="65.9999" y="5.99995" width="5.99996" height="5.99996" fill="#1A43C8"/>
<rect x="71.9999" y="5.99995" width="5.99996" height="5.99996" fill="#1A43C8"/>
<rect x="77.9999" y="5.99995" width="5.99996" height="5.99996" fill="#1A43C8"/>
<rect x="35.9997" width="5.99996" height="5.99996" fill="#1637A4"/>
<rect x="41.9997" width="5.99996" height="5.99996" fill="#1637A4"/>
<rect x="47.9997" width="5.99996" height="5.99996" fill="#1637A4"/>
<rect x="54" width="5.99996" height="5.99996" fill="#1637A4"/>
<rect x="60" width="5.99996" height="5.99996" fill="#1637A4"/>
<rect x="65.9999" width="5.99996" height="5.99996" fill="#1637A4"/>
<rect x="71.9999" width="5.99996" height="5.99996" fill="#1637A4"/>
<rect x="77.9999" width="5.99996" height="5.99996" fill="#1637A4"/>
<rect x="83.9899" y="6.01559" width="5.98737" height="5.98737" fill="#1637A4"/>
<rect x="54" y="77.9998" width="5.99996" height="5.99996" fill="#DBB180"/>
<rect x="48.0001" y="77.9998" width="5.99996" height="5.99996" fill="#DBB180"/>
<rect x="42.0001" y="77.9998" width="5.99996" height="5.99996" fill="#DBB180"/>
<rect x="36.0001" y="77.9998" width="5.99996" height="5.99996" fill="black"/>
<rect x="60" y="77.9998" width="5.99996" height="5.99996" fill="#DBB180"/>
<rect x="65.9999" y="77.9998" width="5.99996" height="5.99996" fill="#DBB180"/>
<rect x="71.9999" y="77.9998" width="5.99996" height="5.99996" fill="black"/>
<rect x="54" y="83.9998" width="5.99996" height="5.99996" fill="#DBB180"/>
<rect x="48.0001" y="83.9998" width="5.99996" height="5.99996" fill="black"/>
<rect x="42.0001" y="83.9998" width="5.99996" height="5.99996" fill="#DBB180"/>
<rect x="36.0001" y="83.9998" width="5.99996" height="5.99996" fill="black"/>
<rect x="60" y="83.9998" width="5.99996" height="5.99996" fill="#DBB180"/>
<rect x="65.9999" y="83.9998" width="5.99996" height="5.99996" fill="#DBB180"/>
<rect x="54" y="90.0001" width="5.99996" height="5.99996" fill="black"/>
<rect x="48.0001" y="90.0001" width="5.99996" height="5.99996" fill="#DBB180"/>
<rect x="42.0001" y="90.0001" width="5.99996" height="5.99996" fill="#DBB180"/>
<rect x="36.0001" y="90.0001" width="5.99996" height="5.99996" fill="black"/>
<rect x="60" y="90.0001" width="5.99996" height="5.99996" fill="black"/>
<rect x="54" y="96.0001" width="5.99996" height="5.99996" fill="#DBB180"/>
<rect x="48.0001" y="96.0001" width="5.99996" height="5.99996" fill="#DBB180"/>
<rect x="42.0001" y="96.0001" width="5.99996" height="5.99996" fill="#DBB180"/>
<rect x="36.0001" y="96.0001" width="5.99996" height="5.99996" fill="black"/>
<rect x="60" y="96.0001" width="5.99996" height="5.99996" fill="black"/>
<rect x="54" y="102" width="5.99996" height="5.99996" fill="#DBB180"/>
<rect x="48.0001" y="102" width="5.99996" height="5.99996" fill="#DBB180"/>
<rect x="42.0001" y="102" width="5.99996" height="5.99996" fill="#DBB180"/>
<rect x="36.0001" y="102" width="5.99996" height="5.99996" fill="black"/>
<rect x="60" y="102" width="5.99996" height="5.99996" fill="black"/>
<rect x="65.9999" y="90.0001" width="5.99996" height="5.99996" fill="black"/>
<rect x="71.9999" y="83.9998" width="5.99996" height="5.99996" fill="black"/>
<rect x="78.0002" y="77.9998" width="5.99996" height="5.99996" fill="black"/>
<rect x="84.0001" y="77.9998" width="5.99996" height="5.99996" fill="black"/>
<rect x="90.0001" y="77.9998" width="5.99996" height="5.99996" fill="black"/>
<rect x="96.0001" y="77.9998" width="5.99996" height="5.99996" fill="black"/>
<rect x="102" y="77.9998" width="5.99996" height="5.99996" fill="black"/>
<rect x="108" y="77.9998" width="5.99996" height="5.99996" fill="black"/>
<path d="M66 72H54V78H66V72Z" fill="#C42110"/>
<path d="M30 12V24H36V18H60V24H78V18H84V6H36V12H30Z" fill="#1A43C8"/>
<path d="M60 24H36V18H60V24Z" fill="#1637A4"/>
</svg>
