<svg width="1540" height="1411" viewBox="0 0 1540 1411" fill="none" xmlns="http://www.w3.org/2000/svg">
<rect x="0.875" y="0.130859" width="1539" height="1410.66" fill="#4F0FB6"/>
<path d="M421.934 1255.08V1252.07L435.208 1231.06H437.391V1235.73H435.916L425.887 1251.59V1251.83H443.762V1255.08H421.934ZM436.152 1261.27V1254.16V1252.76V1231.06H439.633V1261.27H436.152ZM449.82 1261.27V1231.06H460.38C462.484 1231.06 464.22 1231.43 465.586 1232.16C466.953 1232.87 467.971 1233.84 468.639 1235.06C469.308 1236.27 469.642 1237.61 469.642 1239.09C469.642 1240.39 469.411 1241.46 468.949 1242.3C468.497 1243.15 467.897 1243.82 467.15 1244.31C466.412 1244.8 465.611 1245.16 464.746 1245.4V1245.7C465.67 1245.75 466.599 1246.08 467.533 1246.67C468.467 1247.26 469.249 1248.1 469.878 1249.21C470.507 1250.31 470.822 1251.65 470.822 1253.25C470.822 1254.76 470.478 1256.12 469.79 1257.33C469.101 1258.54 468.015 1259.5 466.53 1260.21C465.046 1260.92 463.113 1261.27 460.734 1261.27H449.82ZM453.478 1258.02H460.734C463.123 1258.02 464.819 1257.56 465.822 1256.64C466.835 1255.7 467.341 1254.57 467.341 1253.25C467.341 1252.22 467.081 1251.28 466.56 1250.41C466.039 1249.54 465.296 1248.84 464.333 1248.32C463.369 1247.79 462.229 1247.52 460.911 1247.52H453.478V1258.02ZM453.478 1244.34H460.262C461.363 1244.34 462.356 1244.12 463.241 1243.69C464.136 1243.26 464.844 1242.65 465.365 1241.86C465.896 1241.07 466.162 1240.15 466.162 1239.09C466.162 1237.76 465.699 1236.63 464.775 1235.71C463.851 1234.78 462.386 1234.31 460.38 1234.31H453.478V1244.34ZM485.917 1230.65C487.156 1230.66 488.395 1230.9 489.634 1231.36C490.873 1231.82 492.003 1232.59 493.026 1233.66C494.049 1234.72 494.87 1236.17 495.489 1238.01C496.108 1239.85 496.418 1242.16 496.418 1244.93C496.418 1247.61 496.162 1250 495.651 1252.08C495.15 1254.16 494.422 1255.91 493.468 1257.33C492.525 1258.76 491.374 1259.84 490.017 1260.58C488.67 1261.31 487.146 1261.68 485.445 1261.68C483.754 1261.68 482.245 1261.35 480.917 1260.68C479.6 1260 478.518 1259.06 477.673 1257.86C476.837 1256.65 476.301 1255.25 476.065 1253.66H479.664C479.988 1255.05 480.632 1256.19 481.596 1257.1C482.569 1257.99 483.852 1258.44 485.445 1258.44C487.775 1258.44 489.614 1257.42 490.961 1255.38C492.318 1253.35 492.996 1250.47 492.996 1246.76H492.76C492.21 1247.58 491.556 1248.3 490.799 1248.9C490.042 1249.5 489.201 1249.96 488.277 1250.28C487.353 1250.61 486.369 1250.77 485.327 1250.77C483.597 1250.77 482.009 1250.34 480.563 1249.49C479.128 1248.62 477.978 1247.44 477.112 1245.93C476.257 1244.42 475.829 1242.69 475.829 1240.74C475.829 1238.89 476.242 1237.2 477.068 1235.67C477.904 1234.12 479.074 1232.89 480.578 1231.98C482.092 1231.06 483.872 1230.62 485.917 1230.65ZM485.917 1233.9C484.678 1233.9 483.562 1234.21 482.569 1234.83C481.586 1235.44 480.804 1236.26 480.224 1237.3C479.654 1238.34 479.369 1239.48 479.369 1240.74C479.369 1242 479.644 1243.14 480.195 1244.18C480.755 1245.2 481.517 1246.01 482.481 1246.62C483.454 1247.22 484.56 1247.52 485.799 1247.52C486.733 1247.52 487.603 1247.34 488.41 1246.98C489.216 1246.6 489.919 1246.1 490.519 1245.46C491.128 1244.81 491.605 1244.08 491.949 1243.26C492.293 1242.44 492.466 1241.58 492.466 1240.68C492.466 1239.5 492.18 1238.39 491.61 1237.36C491.05 1236.33 490.273 1235.49 489.28 1234.85C488.297 1234.22 487.176 1233.9 485.917 1233.9ZM501.51 1255.08V1252.07L514.784 1231.06H516.967V1235.73H515.492L505.463 1251.59V1251.83H523.338V1255.08H501.51ZM515.728 1261.27V1254.16V1252.76V1231.06H519.208V1261.27H515.728ZM539.071 1261.68C537.124 1261.68 535.389 1261.35 533.865 1260.68C532.35 1260.01 531.146 1259.08 530.251 1257.89C529.366 1256.69 528.885 1255.3 528.806 1253.72H532.523C532.601 1254.69 532.935 1255.53 533.525 1256.24C534.115 1256.94 534.887 1257.48 535.841 1257.86C536.795 1258.25 537.852 1258.44 539.012 1258.44C540.31 1258.44 541.46 1258.21 542.463 1257.76C543.466 1257.31 544.253 1256.68 544.823 1255.87C545.393 1255.07 545.678 1254.13 545.678 1253.07C545.678 1251.96 545.403 1250.98 544.852 1250.13C544.302 1249.28 543.495 1248.61 542.434 1248.13C541.372 1247.65 540.074 1247.41 538.54 1247.41H536.121V1244.16H538.54C539.739 1244.16 540.792 1243.94 541.696 1243.51C542.611 1243.08 543.323 1242.47 543.835 1241.68C544.356 1240.9 544.616 1239.97 544.616 1238.91C544.616 1237.89 544.39 1237 543.938 1236.24C543.486 1235.48 542.846 1234.89 542.021 1234.47C541.204 1234.05 540.241 1233.84 539.13 1233.84C538.088 1233.84 537.104 1234.03 536.18 1234.41C535.266 1234.79 534.518 1235.33 533.938 1236.05C533.358 1236.76 533.044 1237.61 532.994 1238.62H529.455C529.514 1237.03 529.991 1235.65 530.885 1234.46C531.78 1233.26 532.95 1232.32 534.396 1231.65C535.851 1230.99 537.449 1230.65 539.189 1230.65C541.057 1230.65 542.66 1231.03 543.997 1231.79C545.334 1232.53 546.362 1233.52 547.079 1234.75C547.797 1235.98 548.156 1237.31 548.156 1238.73C548.156 1240.43 547.709 1241.89 546.814 1243.08C545.929 1244.28 544.724 1245.11 543.2 1245.58V1245.81C545.108 1246.13 546.598 1246.94 547.669 1248.25C548.741 1249.54 549.277 1251.15 549.277 1253.07C549.277 1254.71 548.829 1256.19 547.935 1257.49C547.05 1258.79 545.84 1259.81 544.307 1260.56C542.773 1261.31 541.027 1261.68 539.071 1261.68ZM564.748 1261.68C563.018 1261.68 561.459 1261.34 560.073 1260.65C558.686 1259.96 557.575 1259.02 556.74 1257.82C555.904 1256.62 555.447 1255.25 555.368 1253.72H558.908C559.045 1255.08 559.665 1256.22 560.766 1257.11C561.877 1258 563.204 1258.44 564.748 1258.44C565.987 1258.44 567.088 1258.15 568.052 1257.57C569.025 1256.99 569.787 1256.19 570.338 1255.18C570.898 1254.16 571.178 1253 571.178 1251.71C571.178 1250.39 570.888 1249.22 570.308 1248.19C569.738 1247.15 568.951 1246.32 567.948 1245.72C566.946 1245.12 565.8 1244.82 564.512 1244.81C563.588 1244.8 562.639 1244.94 561.666 1245.24C560.692 1245.52 559.891 1245.89 559.262 1246.34L555.84 1245.93L557.669 1231.06H573.361V1234.31H560.736L559.675 1243.22H559.852C560.471 1242.73 561.248 1242.32 562.182 1241.99C563.116 1241.67 564.089 1241.51 565.102 1241.51C566.95 1241.51 568.597 1241.95 570.043 1242.83C571.498 1243.71 572.639 1244.91 573.464 1246.43C574.3 1247.96 574.718 1249.7 574.718 1251.65C574.718 1253.58 574.285 1255.3 573.42 1256.82C572.565 1258.32 571.385 1259.51 569.881 1260.38C568.376 1261.25 566.665 1261.68 564.748 1261.68ZM582.347 1261.27H578.512L589.603 1231.06H593.379L604.469 1261.27H600.635L591.609 1235.84H591.373L582.347 1261.27ZM583.763 1249.47H599.219V1252.72H583.763V1249.47ZM632.06 1240.5H628.403C628.186 1239.45 627.808 1238.53 627.267 1237.73C626.736 1236.93 626.087 1236.27 625.32 1235.73C624.563 1235.17 623.722 1234.76 622.798 1234.49C621.874 1234.21 620.91 1234.07 619.908 1234.07C618.079 1234.07 616.422 1234.54 614.937 1235.46C613.462 1236.38 612.287 1237.75 611.412 1239.54C610.547 1241.34 610.114 1243.55 610.114 1246.17C610.114 1248.78 610.547 1250.99 611.412 1252.79C612.287 1254.59 613.462 1255.95 614.937 1256.87C616.422 1257.8 618.079 1258.26 619.908 1258.26C620.91 1258.26 621.874 1258.12 622.798 1257.85C623.722 1257.57 624.563 1257.16 625.32 1256.62C626.087 1256.07 626.736 1255.4 627.267 1254.6C627.808 1253.8 628.186 1252.87 628.403 1251.83H632.06C631.785 1253.37 631.284 1254.76 630.556 1255.97C629.828 1257.19 628.924 1258.23 627.842 1259.09C626.761 1259.93 625.546 1260.58 624.199 1261.02C622.862 1261.46 621.432 1261.68 619.908 1261.68C617.331 1261.68 615.04 1261.05 613.035 1259.79C611.029 1258.54 609.451 1256.75 608.3 1254.43C607.15 1252.11 606.575 1249.35 606.575 1246.17C606.575 1242.98 607.15 1240.23 608.3 1237.91C609.451 1235.59 611.029 1233.8 613.035 1232.54C615.04 1231.28 617.331 1230.65 619.908 1230.65C621.432 1230.65 622.862 1230.87 624.199 1231.32C625.546 1231.76 626.761 1232.41 627.842 1233.26C628.924 1234.11 629.828 1235.14 630.556 1236.36C631.284 1237.57 631.785 1238.95 632.06 1240.5ZM647.115 1261.68C645.089 1261.68 643.3 1261.32 641.746 1260.61C640.203 1259.88 638.998 1258.88 638.133 1257.61C637.268 1256.33 636.84 1254.88 636.85 1253.25C636.84 1251.97 637.091 1250.79 637.602 1249.71C638.113 1248.62 638.811 1247.71 639.696 1246.98C640.591 1246.24 641.589 1245.77 642.69 1245.58V1245.4C641.245 1245.03 640.095 1244.22 639.239 1242.97C638.384 1241.71 637.961 1240.28 637.971 1238.67C637.961 1237.14 638.349 1235.77 639.136 1234.56C639.922 1233.35 641.004 1232.4 642.381 1231.7C643.767 1231 645.345 1230.65 647.115 1230.65C648.865 1230.65 650.428 1231 651.805 1231.7C653.181 1232.4 654.263 1233.35 655.05 1234.56C655.846 1235.77 656.249 1237.14 656.259 1238.67C656.249 1240.28 655.812 1241.71 654.946 1242.97C654.091 1244.22 652.955 1245.03 651.539 1245.4V1245.58C652.631 1245.77 653.614 1246.24 654.489 1246.98C655.364 1247.71 656.062 1248.62 656.583 1249.71C657.105 1250.79 657.37 1251.97 657.38 1253.25C657.37 1254.88 656.928 1256.33 656.052 1257.61C655.187 1258.88 653.983 1259.88 652.439 1260.61C650.905 1261.32 649.13 1261.68 647.115 1261.68ZM647.115 1258.44C648.482 1258.44 649.661 1258.22 650.655 1257.77C651.648 1257.33 652.414 1256.71 652.955 1255.9C653.496 1255.09 653.771 1254.15 653.781 1253.07C653.771 1251.93 653.476 1250.92 652.896 1250.05C652.316 1249.17 651.525 1248.48 650.522 1247.98C649.529 1247.48 648.393 1247.23 647.115 1247.23C645.827 1247.23 644.676 1247.48 643.664 1247.98C642.661 1248.48 641.869 1249.17 641.289 1250.05C640.719 1250.92 640.439 1251.93 640.449 1253.07C640.439 1254.15 640.699 1255.09 641.23 1255.9C641.771 1256.71 642.543 1257.33 643.546 1257.77C644.549 1258.22 645.738 1258.44 647.115 1258.44ZM647.115 1244.1C648.196 1244.1 649.155 1243.89 649.991 1243.45C650.836 1243.02 651.5 1242.42 651.982 1241.64C652.464 1240.86 652.709 1239.95 652.719 1238.91C652.709 1237.89 652.469 1237 651.997 1236.24C651.525 1235.47 650.871 1234.88 650.035 1234.47C649.199 1234.05 648.226 1233.84 647.115 1233.84C645.984 1233.84 644.996 1234.05 644.15 1234.47C643.305 1234.88 642.651 1235.47 642.189 1236.24C641.727 1237 641.501 1237.89 641.51 1238.91C641.501 1239.95 641.732 1240.86 642.204 1241.64C642.685 1242.42 643.349 1243.02 644.195 1243.45C645.04 1243.89 646.014 1244.1 647.115 1244.1ZM672.648 1230.65C673.887 1230.66 675.126 1230.9 676.365 1231.36C677.604 1231.82 678.734 1232.59 679.757 1233.66C680.78 1234.72 681.601 1236.17 682.22 1238.01C682.839 1239.85 683.149 1242.16 683.149 1244.93C683.149 1247.61 682.894 1250 682.382 1252.08C681.881 1254.16 681.153 1255.91 680.199 1257.33C679.256 1258.76 678.105 1259.84 676.748 1260.58C675.401 1261.31 673.877 1261.68 672.176 1261.68C670.485 1261.68 668.976 1261.35 667.648 1260.68C666.331 1260 665.249 1259.06 664.404 1257.86C663.568 1256.65 663.032 1255.25 662.796 1253.66H666.395C666.719 1255.05 667.363 1256.19 668.327 1257.1C669.3 1257.99 670.583 1258.44 672.176 1258.44C674.507 1258.44 676.345 1257.42 677.692 1255.38C679.049 1253.35 679.728 1250.47 679.728 1246.76H679.492C678.941 1247.58 678.287 1248.3 677.53 1248.9C676.773 1249.5 675.932 1249.96 675.008 1250.28C674.084 1250.61 673.101 1250.77 672.058 1250.77C670.328 1250.77 668.74 1250.34 667.295 1249.49C665.859 1248.62 664.709 1247.44 663.843 1245.93C662.988 1244.42 662.56 1242.69 662.56 1240.74C662.56 1238.89 662.973 1237.2 663.799 1235.67C664.635 1234.12 665.805 1232.89 667.309 1231.98C668.823 1231.06 670.603 1230.62 672.648 1230.65ZM672.648 1233.9C671.409 1233.9 670.293 1234.21 669.3 1234.83C668.317 1235.44 667.535 1236.26 666.955 1237.3C666.385 1238.34 666.1 1239.48 666.1 1240.74C666.1 1242 666.375 1243.14 666.926 1244.18C667.486 1245.2 668.248 1246.01 669.212 1246.62C670.185 1247.22 671.291 1247.52 672.53 1247.52C673.464 1247.52 674.334 1247.34 675.141 1246.98C675.947 1246.6 676.65 1246.1 677.25 1245.46C677.859 1244.81 678.336 1244.08 678.68 1243.26C679.025 1242.44 679.197 1241.58 679.197 1240.68C679.197 1239.5 678.911 1238.39 678.341 1237.36C677.781 1236.33 677.004 1235.49 676.011 1234.85C675.028 1234.22 673.907 1233.9 672.648 1233.9ZM698.624 1261.68C696.599 1261.68 694.809 1261.32 693.256 1260.61C691.712 1259.88 690.507 1258.88 689.642 1257.61C688.777 1256.33 688.349 1254.88 688.359 1253.25C688.349 1251.97 688.6 1250.79 689.111 1249.71C689.623 1248.62 690.321 1247.71 691.206 1246.98C692.1 1246.24 693.098 1245.77 694.2 1245.58V1245.4C692.754 1245.03 691.604 1244.22 690.748 1242.97C689.893 1241.71 689.47 1240.28 689.48 1238.67C689.47 1237.14 689.859 1235.77 690.645 1234.56C691.432 1233.35 692.513 1232.4 693.89 1231.7C695.276 1231 696.854 1230.65 698.624 1230.65C700.374 1230.65 701.938 1231 703.314 1231.7C704.691 1232.4 705.772 1233.35 706.559 1234.56C707.355 1235.77 707.758 1237.14 707.768 1238.67C707.758 1240.28 707.321 1241.71 706.456 1242.97C705.6 1244.22 704.464 1245.03 703.049 1245.4V1245.58C704.14 1245.77 705.123 1246.24 705.998 1246.98C706.873 1247.71 707.572 1248.62 708.093 1249.71C708.614 1250.79 708.879 1251.97 708.889 1253.25C708.879 1254.88 708.437 1256.33 707.562 1257.61C706.696 1258.88 705.492 1259.88 703.948 1260.61C702.414 1261.32 700.64 1261.68 698.624 1261.68ZM698.624 1258.44C699.991 1258.44 701.171 1258.22 702.164 1257.77C703.157 1257.33 703.924 1256.71 704.464 1255.9C705.005 1255.09 705.281 1254.15 705.29 1253.07C705.281 1251.93 704.986 1250.92 704.405 1250.05C703.825 1249.17 703.034 1248.48 702.031 1247.98C701.038 1247.48 699.902 1247.23 698.624 1247.23C697.336 1247.23 696.186 1247.48 695.173 1247.98C694.17 1248.48 693.379 1249.17 692.798 1250.05C692.228 1250.92 691.948 1251.93 691.958 1253.07C691.948 1254.15 692.208 1255.09 692.739 1255.9C693.28 1256.71 694.052 1257.33 695.055 1257.77C696.058 1258.22 697.248 1258.44 698.624 1258.44ZM698.624 1244.1C699.706 1244.1 700.664 1243.89 701.5 1243.45C702.346 1243.02 703.009 1242.42 703.491 1241.64C703.973 1240.86 704.219 1239.95 704.229 1238.91C704.219 1237.89 703.978 1237 703.506 1236.24C703.034 1235.47 702.38 1234.88 701.544 1234.47C700.709 1234.05 699.735 1233.84 698.624 1233.84C697.493 1233.84 696.505 1234.05 695.66 1234.47C694.814 1234.88 694.16 1235.47 693.698 1236.24C693.236 1237 693.01 1237.89 693.02 1238.91C693.01 1239.95 693.241 1240.86 693.713 1241.64C694.195 1242.42 694.858 1243.02 695.704 1243.45C696.549 1243.89 697.523 1244.1 698.624 1244.1ZM716.311 1261.27H712.477L723.568 1231.06H727.343L738.434 1261.27H734.599L725.573 1235.84H725.337L716.311 1261.27ZM717.727 1249.47H733.184V1252.72H717.727V1249.47ZM744.378 1261.27H740.543L751.634 1231.06H755.41L766.5 1261.27H762.666L753.64 1235.84H753.404L744.378 1261.27ZM745.794 1249.47H761.25V1252.72H745.794V1249.47ZM771.205 1261.27V1231.06H789.434V1234.31H774.863V1244.52H788.491V1247.76H774.863V1258.02H789.67V1261.27H771.205ZM795.496 1261.27V1258.61L805.466 1247.7C806.636 1246.42 807.6 1245.31 808.357 1244.37C809.114 1243.41 809.674 1242.52 810.038 1241.68C810.412 1240.84 810.599 1239.95 810.599 1239.03C810.599 1237.97 810.343 1237.05 809.832 1236.27C809.33 1235.49 808.642 1234.89 807.767 1234.47C806.892 1234.05 805.909 1233.84 804.817 1233.84C803.657 1233.84 802.644 1234.08 801.779 1234.56C800.924 1235.03 800.26 1235.7 799.788 1236.55C799.326 1237.41 799.095 1238.41 799.095 1239.56H795.614C795.614 1237.79 796.022 1236.24 796.838 1234.9C797.654 1233.56 798.765 1232.52 800.171 1231.77C801.587 1231.03 803.175 1230.65 804.935 1230.65C806.705 1230.65 808.273 1231.03 809.64 1231.77C811.007 1232.52 812.078 1233.53 812.855 1234.8C813.632 1236.06 814.02 1237.48 814.02 1239.03C814.02 1240.14 813.819 1241.23 813.416 1242.29C813.022 1243.34 812.334 1244.52 811.351 1245.81C810.377 1247.1 809.025 1248.67 807.295 1250.53L800.511 1257.79V1258.02H814.551V1261.27H795.496ZM830.258 1230.65C831.497 1230.66 832.736 1230.9 833.975 1231.36C835.214 1231.82 836.345 1232.59 837.367 1233.66C838.39 1234.72 839.211 1236.17 839.83 1238.01C840.45 1239.85 840.759 1242.16 840.759 1244.93C840.759 1247.61 840.504 1250 839.992 1252.08C839.491 1254.16 838.763 1255.91 837.81 1257.33C836.866 1258.76 835.715 1259.84 834.358 1260.58C833.011 1261.31 831.487 1261.68 829.786 1261.68C828.095 1261.68 826.586 1261.35 825.259 1260.68C823.941 1260 822.86 1259.06 822.014 1257.86C821.178 1256.65 820.642 1255.25 820.406 1253.66H824.005C824.329 1255.05 824.973 1256.19 825.937 1257.1C826.91 1257.99 828.194 1258.44 829.786 1258.44C832.117 1258.44 833.955 1257.42 835.302 1255.38C836.659 1253.35 837.338 1250.47 837.338 1246.76H837.102C836.551 1247.58 835.897 1248.3 835.14 1248.9C834.383 1249.5 833.542 1249.96 832.618 1250.28C831.694 1250.61 830.711 1250.77 829.668 1250.77C827.938 1250.77 826.35 1250.34 824.905 1249.49C823.469 1248.62 822.319 1247.44 821.453 1245.93C820.598 1244.42 820.17 1242.69 820.17 1240.74C820.17 1238.89 820.583 1237.2 821.409 1235.67C822.245 1234.12 823.415 1232.89 824.919 1231.98C826.434 1231.06 828.213 1230.62 830.258 1230.65ZM830.258 1233.9C829.019 1233.9 827.904 1234.21 826.91 1234.83C825.927 1235.44 825.146 1236.26 824.565 1237.3C823.995 1238.34 823.71 1239.48 823.71 1240.74C823.71 1242 823.985 1243.14 824.536 1244.18C825.096 1245.2 825.858 1246.01 826.822 1246.62C827.795 1247.22 828.901 1247.52 830.14 1247.52C831.074 1247.52 831.945 1247.34 832.751 1246.98C833.557 1246.6 834.26 1246.1 834.86 1245.46C835.469 1244.81 835.946 1244.08 836.29 1243.26C836.635 1242.44 836.807 1241.58 836.807 1240.68C836.807 1239.5 836.522 1238.39 835.951 1237.36C835.391 1236.33 834.614 1235.49 833.621 1234.85C832.638 1234.22 831.517 1233.9 830.258 1233.9ZM871.396 1240.5H867.738C867.522 1239.45 867.143 1238.53 866.602 1237.73C866.071 1236.93 865.423 1236.27 864.656 1235.73C863.899 1235.17 863.058 1234.76 862.134 1234.49C861.209 1234.21 860.246 1234.07 859.243 1234.07C857.414 1234.07 855.757 1234.54 854.273 1235.46C852.798 1236.38 851.623 1237.75 850.748 1239.54C849.882 1241.34 849.45 1243.55 849.45 1246.17C849.45 1248.78 849.882 1250.99 850.748 1252.79C851.623 1254.59 852.798 1255.95 854.273 1256.87C855.757 1257.8 857.414 1258.26 859.243 1258.26C860.246 1258.26 861.209 1258.12 862.134 1257.85C863.058 1257.57 863.899 1257.16 864.656 1256.62C865.423 1256.07 866.071 1255.4 866.602 1254.6C867.143 1253.8 867.522 1252.87 867.738 1251.83H871.396C871.12 1253.37 870.619 1254.76 869.891 1255.97C869.164 1257.19 868.259 1258.23 867.178 1259.09C866.096 1259.93 864.882 1260.58 863.535 1261.02C862.198 1261.46 860.767 1261.68 859.243 1261.68C856.667 1261.68 854.376 1261.05 852.37 1259.79C850.364 1258.54 848.786 1256.75 847.636 1254.43C846.485 1252.11 845.91 1249.35 845.91 1246.17C845.91 1242.98 846.485 1240.23 847.636 1237.91C848.786 1235.59 850.364 1233.8 852.37 1232.54C854.376 1231.28 856.667 1230.65 859.243 1230.65C860.767 1230.65 862.198 1230.87 863.535 1231.32C864.882 1231.76 866.096 1232.41 867.178 1233.26C868.259 1234.11 869.164 1235.14 869.891 1236.36C870.619 1237.57 871.12 1238.95 871.396 1240.5ZM878.545 1261.27H874.71L885.801 1231.06H889.577L900.668 1261.27H896.833L887.807 1235.84H887.571L878.545 1261.27ZM879.961 1249.47H895.417V1252.72H879.961V1249.47ZM905.373 1261.27V1231.06H915.933C918.037 1231.06 919.772 1231.43 921.139 1232.16C922.505 1232.87 923.523 1233.84 924.192 1235.06C924.86 1236.27 925.195 1237.61 925.195 1239.09C925.195 1240.39 924.964 1241.46 924.501 1242.3C924.049 1243.15 923.449 1243.82 922.702 1244.31C921.965 1244.8 921.163 1245.16 920.298 1245.4V1245.7C921.222 1245.75 922.151 1246.08 923.086 1246.67C924.02 1247.26 924.801 1248.1 925.431 1249.21C926.06 1250.31 926.374 1251.65 926.374 1253.25C926.374 1254.76 926.03 1256.12 925.342 1257.33C924.654 1258.54 923.567 1259.5 922.083 1260.21C920.598 1260.92 918.666 1261.27 916.286 1261.27H905.373ZM909.03 1258.02H916.286C918.676 1258.02 920.372 1257.56 921.375 1256.64C922.387 1255.7 922.894 1254.57 922.894 1253.25C922.894 1252.22 922.633 1251.28 922.112 1250.41C921.591 1249.54 920.849 1248.84 919.885 1248.32C918.922 1247.79 917.781 1247.52 916.463 1247.52H909.03V1258.02ZM909.03 1244.34H915.815C916.916 1244.34 917.909 1244.12 918.794 1243.69C919.688 1243.26 920.396 1242.65 920.918 1241.86C921.448 1241.07 921.714 1240.15 921.714 1239.09C921.714 1237.76 921.252 1236.63 920.328 1235.71C919.403 1234.78 917.938 1234.31 915.933 1234.31H909.03V1244.34ZM956.69 1240.5H953.032C952.816 1239.45 952.438 1238.53 951.897 1237.73C951.366 1236.93 950.717 1236.27 949.95 1235.73C949.193 1235.17 948.352 1234.76 947.428 1234.49C946.504 1234.21 945.54 1234.07 944.537 1234.07C942.708 1234.07 941.052 1234.54 939.567 1235.46C938.092 1236.38 936.917 1237.75 936.042 1239.54C935.177 1241.34 934.744 1243.55 934.744 1246.17C934.744 1248.78 935.177 1250.99 936.042 1252.79C936.917 1254.59 938.092 1255.95 939.567 1256.87C941.052 1257.8 942.708 1258.26 944.537 1258.26C945.54 1258.26 946.504 1258.12 947.428 1257.85C948.352 1257.57 949.193 1257.16 949.95 1256.62C950.717 1256.07 951.366 1255.4 951.897 1254.6C952.438 1253.8 952.816 1252.87 953.032 1251.83H956.69C956.415 1253.37 955.913 1254.76 955.186 1255.97C954.458 1257.19 953.554 1258.23 952.472 1259.09C951.39 1259.93 950.176 1260.58 948.829 1261.02C947.492 1261.46 946.061 1261.68 944.537 1261.68C941.961 1261.68 939.67 1261.05 937.664 1259.79C935.659 1258.54 934.081 1256.75 932.93 1254.43C931.78 1252.11 931.205 1249.35 931.205 1246.17C931.205 1242.98 931.78 1240.23 932.93 1237.91C934.081 1235.59 935.659 1233.8 937.664 1232.54C939.67 1231.28 941.961 1230.65 944.537 1230.65C946.061 1230.65 947.492 1230.87 948.829 1231.32C950.176 1231.76 951.39 1232.41 952.472 1233.26C953.554 1234.11 954.458 1235.14 955.186 1236.36C955.913 1237.57 956.415 1238.95 956.69 1240.5ZM972.099 1261.68C970.86 1261.66 969.621 1261.43 968.382 1260.97C967.143 1260.52 966.012 1259.76 964.99 1258.69C963.967 1257.61 963.146 1256.15 962.527 1254.31C961.907 1252.46 961.598 1250.14 961.598 1247.35C961.598 1244.67 961.848 1242.3 962.35 1240.24C962.851 1238.16 963.579 1236.42 964.533 1235C965.486 1233.58 966.637 1232.5 967.984 1231.76C969.341 1231.02 970.87 1230.65 972.571 1230.65C974.262 1230.65 975.766 1230.99 977.084 1231.67C978.411 1232.34 979.493 1233.27 980.328 1234.47C981.164 1235.67 981.705 1237.05 981.951 1238.62H978.352C978.018 1237.26 977.369 1236.13 976.405 1235.24C975.442 1234.34 974.163 1233.9 972.571 1233.9C970.23 1233.9 968.387 1234.91 967.04 1236.95C965.703 1238.98 965.029 1241.84 965.019 1245.52H965.255C965.806 1244.68 966.46 1243.97 967.217 1243.38C967.984 1242.78 968.829 1242.32 969.754 1241.99C970.678 1241.67 971.656 1241.51 972.689 1241.51C974.419 1241.51 976.002 1241.94 977.438 1242.8C978.873 1243.66 980.023 1244.84 980.889 1246.36C981.754 1247.86 982.187 1249.59 982.187 1251.54C982.187 1253.4 981.769 1255.11 980.933 1256.67C980.097 1258.21 978.922 1259.44 977.408 1260.36C975.904 1261.26 974.134 1261.7 972.099 1261.68ZM972.099 1258.44C973.337 1258.44 974.449 1258.13 975.432 1257.51C976.425 1256.89 977.207 1256.06 977.777 1255.02C978.357 1253.97 978.647 1252.81 978.647 1251.54C978.647 1250.29 978.367 1249.15 977.806 1248.13C977.256 1247.1 976.494 1246.28 975.52 1245.67C974.557 1245.06 973.455 1244.75 972.217 1244.75C971.283 1244.75 970.412 1244.94 969.606 1245.31C968.8 1245.68 968.092 1246.18 967.482 1246.82C966.883 1247.46 966.411 1248.19 966.066 1249.01C965.722 1249.83 965.55 1250.69 965.55 1251.59C965.55 1252.79 965.83 1253.91 966.391 1254.96C966.961 1256 967.738 1256.84 968.721 1257.48C969.714 1258.12 970.84 1258.44 972.099 1258.44ZM988.93 1261.27L1002.44 1234.55V1234.31H986.866V1231.06H1006.22V1234.49L992.765 1261.27H988.93ZM1009.12 1261.51C1008.39 1261.51 1007.77 1261.24 1007.24 1260.72C1006.72 1260.2 1006.46 1259.58 1006.46 1258.85C1006.46 1258.12 1006.72 1257.5 1007.24 1256.98C1007.77 1256.46 1008.39 1256.2 1009.12 1256.2C1009.84 1256.2 1010.47 1256.46 1010.99 1256.98C1011.51 1257.5 1011.77 1258.12 1011.77 1258.85C1011.77 1259.33 1011.65 1259.78 1011.4 1260.18C1011.17 1260.58 1010.85 1260.91 1010.44 1261.15C1010.05 1261.39 1009.61 1261.51 1009.12 1261.51ZM1020.55 1261.51C1019.83 1261.51 1019.2 1261.24 1018.68 1260.72C1018.16 1260.2 1017.9 1259.58 1017.9 1258.85C1017.9 1258.12 1018.16 1257.5 1018.68 1256.98C1019.2 1256.46 1019.83 1256.2 1020.55 1256.2C1021.28 1256.2 1021.91 1256.46 1022.43 1256.98C1022.95 1257.5 1023.21 1258.12 1023.21 1258.85C1023.21 1259.33 1023.09 1259.78 1022.84 1260.18C1022.6 1260.58 1022.29 1260.91 1021.88 1261.15C1021.49 1261.39 1021.05 1261.51 1020.55 1261.51ZM1031.99 1261.51C1031.26 1261.51 1030.64 1261.24 1030.12 1260.72C1029.6 1260.2 1029.34 1259.58 1029.34 1258.85C1029.34 1258.12 1029.6 1257.5 1030.12 1256.98C1030.64 1256.46 1031.26 1256.2 1031.99 1256.2C1032.72 1256.2 1033.34 1256.46 1033.87 1256.98C1034.39 1257.5 1034.65 1258.12 1034.65 1258.85C1034.65 1259.33 1034.52 1259.78 1034.28 1260.18C1034.04 1260.58 1033.72 1260.91 1033.32 1261.15C1032.93 1261.39 1032.48 1261.51 1031.99 1261.51ZM1041.37 1261.27V1231.06H1051.92C1054.03 1231.06 1055.76 1231.43 1057.13 1232.16C1058.5 1232.87 1059.52 1233.84 1060.18 1235.06C1060.85 1236.27 1061.19 1237.61 1061.19 1239.09C1061.19 1240.39 1060.96 1241.46 1060.49 1242.3C1060.04 1243.15 1059.44 1243.82 1058.69 1244.31C1057.96 1244.8 1057.16 1245.16 1056.29 1245.4V1245.7C1057.21 1245.75 1058.14 1246.08 1059.08 1246.67C1060.01 1247.26 1060.79 1248.1 1061.42 1249.21C1062.05 1250.31 1062.37 1251.65 1062.37 1253.25C1062.37 1254.76 1062.02 1256.12 1061.33 1257.33C1060.65 1258.54 1059.56 1259.5 1058.08 1260.21C1056.59 1260.92 1054.66 1261.27 1052.28 1261.27H1041.37ZM1045.02 1258.02H1052.28C1054.67 1258.02 1056.36 1257.56 1057.37 1256.64C1058.38 1255.7 1058.89 1254.57 1058.89 1253.25C1058.89 1252.22 1058.63 1251.28 1058.1 1250.41C1057.58 1249.54 1056.84 1248.84 1055.88 1248.32C1054.91 1247.79 1053.77 1247.52 1052.46 1247.52H1045.02V1258.02ZM1045.02 1244.34H1051.81C1052.91 1244.34 1053.9 1244.12 1054.79 1243.69C1055.68 1243.26 1056.39 1242.65 1056.91 1241.86C1057.44 1241.07 1057.71 1240.15 1057.71 1239.09C1057.71 1237.76 1057.24 1236.63 1056.32 1235.71C1055.4 1234.78 1053.93 1234.31 1051.92 1234.31H1045.02V1244.34ZM1068.38 1261.27V1231.06H1086.49V1234.31H1072.03V1244.52H1085.13V1247.76H1072.03V1261.27H1068.38ZM1090.22 1261.27H1086.38L1097.48 1231.06H1101.25L1112.34 1261.27H1108.51L1099.48 1235.84H1099.25L1090.22 1261.27ZM1091.64 1249.47H1107.09V1252.72H1091.64V1249.47Z" fill="white" fill-opacity="0.75"/>
<path d="M697.269 935.186C696.901 933.83 696.096 932.859 694.852 932.274C693.607 931.679 692.129 931.513 690.419 931.776C689.194 931.964 688.165 932.321 687.33 932.847C686.494 933.363 685.88 933.994 685.487 934.741C685.103 935.476 684.975 936.267 685.105 937.112C685.214 937.822 685.473 938.409 685.883 938.873C686.302 939.336 686.811 939.701 687.409 939.967C688.015 940.222 688.652 940.418 689.319 940.554C689.985 940.681 690.621 940.772 691.226 940.828L694.258 941.139C695.246 941.226 696.272 941.392 697.334 941.637C698.396 941.882 699.405 942.264 700.36 942.784C701.315 943.304 702.129 944.004 702.801 944.886C703.483 945.766 703.927 946.877 704.133 948.218C704.393 949.909 704.186 951.478 703.513 952.924C702.849 954.369 701.749 955.597 700.214 956.608C698.688 957.619 696.758 958.303 694.426 958.661C692.191 959.004 690.202 958.946 688.461 958.487C686.719 958.028 685.287 957.218 684.163 956.058C683.039 954.888 682.29 953.411 681.917 951.628L686.436 950.934C686.689 952 687.177 952.845 687.899 953.47C688.63 954.084 689.504 954.492 690.519 954.694C691.544 954.885 692.634 954.892 693.79 954.715C695.063 954.519 696.165 954.146 697.095 953.595C698.034 953.034 698.734 952.349 699.197 951.542C699.659 950.725 699.815 949.831 699.666 948.859C699.53 947.974 699.166 947.289 698.574 946.803C697.992 946.316 697.245 945.953 696.333 945.715C695.431 945.475 694.424 945.296 693.312 945.179L689.636 944.758C687.145 944.474 685.103 943.807 683.51 942.759C681.926 941.709 680.975 940.144 680.656 938.064C680.392 936.344 680.628 934.771 681.364 933.345C682.1 931.919 683.21 930.729 684.695 929.774C686.179 928.811 687.921 928.175 689.923 927.868C691.945 927.558 693.783 927.639 695.437 928.111C697.101 928.582 698.475 929.37 699.56 930.477C700.644 931.574 701.328 932.922 701.613 934.519L697.269 935.186ZM723.192 944.233L721.18 931.128L725.554 930.457L728.99 952.848L724.704 953.506L724.109 949.628L723.876 949.664C723.544 950.939 722.871 952.061 721.856 953.033C720.85 953.993 719.506 954.602 717.825 954.86C716.386 955.081 715.065 954.961 713.86 954.499C712.663 954.026 711.653 953.211 710.829 952.055C710.014 950.896 709.465 949.394 709.182 947.547L706.996 933.305L711.355 932.636L713.46 946.354C713.694 947.879 714.304 949.029 715.288 949.803C716.272 950.578 717.44 950.861 718.791 950.654C719.607 950.528 720.387 950.2 721.131 949.668C721.885 949.134 722.465 948.413 722.873 947.505C723.291 946.596 723.397 945.505 723.192 944.233ZM744.348 950.954C742.181 951.286 740.24 951.082 738.524 950.34C736.817 949.588 735.412 948.406 734.309 946.794C733.207 945.183 732.483 943.255 732.138 941.01C731.789 938.736 731.909 936.663 732.497 934.792C733.084 932.912 734.079 931.361 735.484 930.141C736.888 928.921 738.645 928.149 740.754 927.825C742.454 927.564 744.019 927.647 745.447 928.075C746.874 928.492 748.082 929.202 749.072 930.204C750.071 931.205 750.764 932.446 751.15 933.929L746.908 934.58C746.514 933.566 745.841 932.744 744.889 932.115C743.946 931.483 742.78 931.274 741.39 931.488C740.175 931.674 739.161 932.158 738.345 932.94C737.539 933.71 736.973 934.722 736.648 935.976C736.321 937.22 736.281 938.638 736.525 940.232C736.776 941.865 737.24 943.236 737.918 944.346C738.595 945.455 739.436 946.266 740.44 946.779C741.453 947.29 742.577 947.45 743.811 947.261C744.637 947.134 745.363 946.869 745.987 946.464C746.619 946.049 747.12 945.52 747.489 944.876C747.867 944.231 748.087 943.491 748.148 942.656L752.39 942.005C752.457 943.477 752.184 944.842 751.571 946.1C750.958 947.358 750.041 948.414 748.819 949.268C747.607 950.12 746.117 950.682 744.348 950.954ZM767.64 947.379C765.473 947.711 763.531 947.507 761.816 946.765C760.109 946.013 758.704 944.831 757.601 943.22C756.498 941.608 755.775 939.68 755.43 937.435C755.081 935.161 755.201 933.088 755.789 931.217C756.376 929.337 757.371 927.786 758.775 926.566C760.18 925.346 761.936 924.574 764.045 924.25C765.746 923.989 767.311 924.072 768.739 924.5C770.166 924.917 771.374 925.627 772.363 926.629C773.363 927.63 774.055 928.871 774.442 930.354L770.2 931.005C769.806 929.991 769.132 929.169 768.18 928.54C767.238 927.908 766.072 927.699 764.682 927.913C763.467 928.099 762.452 928.583 761.637 929.365C760.83 930.135 760.264 931.147 759.939 932.401C759.613 933.645 759.572 935.063 759.817 936.657C760.067 938.29 760.532 939.661 761.209 940.771C761.887 941.88 762.728 942.691 763.731 943.204C764.745 943.715 765.869 943.875 767.103 943.686C767.929 943.559 768.654 943.294 769.279 942.889C769.911 942.474 770.412 941.945 770.781 941.301C771.159 940.656 771.379 939.916 771.44 939.081L775.682 938.43C775.748 939.902 775.475 941.267 774.863 942.525C774.25 943.783 773.333 944.839 772.111 945.693C770.899 946.545 769.409 947.107 767.64 947.379ZM791.15 943.77C788.944 944.109 786.972 943.929 785.233 943.231C783.503 942.522 782.073 941.373 780.944 939.786C779.824 938.187 779.085 936.227 778.728 933.904C778.376 931.61 778.494 929.523 779.081 927.643C779.677 925.76 780.673 924.21 782.067 922.991C783.471 921.771 785.213 921.001 787.293 920.682C788.557 920.488 789.813 920.509 791.063 920.745C792.313 920.981 793.478 921.474 794.558 922.223C795.638 922.973 796.559 924.02 797.323 925.365C798.085 926.7 798.622 928.384 798.933 930.415L799.171 931.96L781.371 934.692L780.87 931.426L794.398 929.35C794.222 928.203 793.833 927.224 793.231 926.411C792.627 925.588 791.863 924.984 790.938 924.599C790.023 924.212 789.002 924.105 787.875 924.278C786.65 924.466 785.628 924.932 784.807 925.674C783.994 926.406 783.413 927.291 783.065 928.329C782.726 929.356 782.642 930.428 782.813 931.546L783.205 934.097C783.434 935.594 783.892 936.827 784.578 937.796C785.274 938.763 786.14 939.451 787.178 939.859C788.214 940.257 789.368 940.358 790.641 940.163C791.467 940.036 792.203 939.804 792.847 939.466C793.49 939.119 794.023 938.669 794.446 938.117C794.868 937.564 795.157 936.918 795.312 936.178L799.551 936.288C799.407 937.554 798.978 938.709 798.263 939.754C797.556 940.787 796.6 941.655 795.395 942.358C794.198 943.049 792.783 943.52 791.15 943.77ZM819.705 921.601L815.862 922.907C815.619 922.427 815.283 921.987 814.853 921.585C814.433 921.182 813.9 920.881 813.252 920.682C812.605 920.483 811.83 920.453 810.926 920.591C809.691 920.781 808.704 921.216 807.963 921.897C807.22 922.568 806.915 923.336 807.048 924.2C807.163 924.949 807.532 925.509 808.156 925.881C808.78 926.252 809.732 926.489 811.011 926.591L814.693 926.862C816.827 927.022 818.475 927.52 819.638 928.356C820.801 929.192 821.504 930.402 821.747 931.986C821.953 933.328 821.747 934.583 821.131 935.752C820.523 936.909 819.574 937.89 818.285 938.695C817.006 939.498 815.462 940.039 813.655 940.316C811.147 940.701 809.02 940.48 807.271 939.654C805.522 938.819 804.315 937.437 803.651 935.51L807.766 934.222C808.196 935.28 808.863 936.028 809.766 936.466C810.668 936.895 811.774 937.009 813.086 936.807C814.515 936.588 815.611 936.116 816.376 935.392C817.138 934.658 817.453 933.859 817.321 932.994C817.213 932.294 816.861 931.747 816.263 931.351C815.675 930.954 814.827 930.716 813.721 930.637L809.803 930.388C807.641 930.232 805.979 929.711 804.818 928.825C803.667 927.937 802.97 926.697 802.725 925.103C802.522 923.781 802.714 922.568 803.3 921.463C803.887 920.359 804.789 919.429 806.006 918.675C807.222 917.912 808.67 917.401 810.352 917.143C812.772 916.772 814.757 917.004 816.308 917.84C817.857 918.667 818.99 919.921 819.705 921.601ZM841.714 918.223L837.871 919.529C837.628 919.049 837.292 918.609 836.862 918.207C836.442 917.804 835.909 917.503 835.261 917.304C834.614 917.105 833.838 917.074 832.935 917.213C831.7 917.403 830.713 917.838 829.972 918.518C829.229 919.19 828.924 919.958 829.057 920.822C829.172 921.571 829.541 922.131 830.165 922.503C830.789 922.874 831.741 923.111 833.02 923.213L836.702 923.484C838.836 923.644 840.484 924.142 841.647 924.978C842.809 925.814 843.513 927.024 843.756 928.608C843.961 929.95 843.756 931.205 843.14 932.374C842.532 933.531 841.583 934.512 840.294 935.317C839.015 936.12 837.471 936.661 835.664 936.938C833.156 937.323 831.028 937.102 829.28 936.276C827.53 935.441 826.324 934.059 825.66 932.132L829.774 930.844C830.205 931.902 830.872 932.65 831.775 933.088C832.676 933.517 833.783 933.631 835.095 933.429C836.524 933.21 837.62 932.738 838.384 932.014C839.147 931.28 839.462 930.481 839.329 929.616C839.222 928.916 838.869 928.369 838.272 927.973C837.683 927.576 836.836 927.338 835.73 927.259L831.812 927.01C829.649 926.854 827.988 926.333 826.827 925.447C825.676 924.559 824.979 923.319 824.734 921.725C824.531 920.403 824.723 919.19 825.309 918.085C825.896 916.98 826.798 916.051 828.015 915.297C829.231 914.534 830.679 914.023 832.361 913.765C834.78 913.394 836.766 913.626 838.317 914.462C839.866 915.289 840.998 916.543 841.714 918.223ZM849.726 903.758L852.728 925.262L849.346 925.781L845.761 904.367L849.726 903.758ZM852.362 934.151C851.643 934.262 850.986 934.099 850.392 933.663C849.798 933.227 849.445 932.649 849.335 931.93C849.225 931.211 849.387 930.554 849.823 929.96C850.259 929.366 850.837 929.014 851.556 928.903C852.275 928.793 852.932 928.956 853.526 929.392C854.12 929.828 854.473 930.405 854.583 931.125C854.656 931.601 854.602 932.057 854.42 932.492C854.248 932.927 853.981 933.296 853.62 933.6C853.267 933.893 852.848 934.077 852.362 934.151Z" fill="white" fill-opacity="0.75"/>
<path d="M225.816 1233.79V1229.86H249.192V1233.79H239.768V1260.07H235.226V1233.79H225.816ZM255.376 1237.41L260.376 1246.23L265.419 1237.41H270.242L263.178 1248.74L270.301 1260.07H265.478L260.376 1251.6L255.287 1260.07H250.45L257.5 1248.74L250.538 1237.41H255.376ZM286.115 1260.07V1229.86H290.673V1242.99H305.731V1229.86H310.303V1260.07H305.731V1246.9H290.673V1260.07H286.115ZM323.178 1260.57C321.743 1260.57 320.445 1260.3 319.285 1259.77C318.125 1259.23 317.205 1258.45 316.527 1257.43C315.858 1256.41 315.524 1255.15 315.524 1253.67C315.524 1252.39 315.77 1251.34 316.261 1250.51C316.753 1249.69 317.417 1249.03 318.252 1248.55C319.088 1248.07 320.022 1247.7 321.055 1247.46C322.087 1247.21 323.139 1247.03 324.211 1246.9C325.568 1246.74 326.669 1246.61 327.514 1246.51C328.36 1246.41 328.975 1246.23 329.358 1246C329.742 1245.76 329.933 1245.38 329.933 1244.85V1244.74C329.933 1243.46 329.569 1242.46 328.842 1241.75C328.124 1241.04 327.052 1240.69 325.627 1240.69C324.142 1240.69 322.972 1241.02 322.117 1241.68C321.271 1242.33 320.686 1243.05 320.361 1243.84L316.217 1242.9C316.709 1241.52 317.426 1240.41 318.37 1239.57C319.324 1238.71 320.42 1238.09 321.659 1237.71C322.898 1237.32 324.201 1237.12 325.568 1237.12C326.472 1237.12 327.431 1237.23 328.444 1237.44C329.466 1237.65 330.42 1238.03 331.305 1238.59C332.2 1239.15 332.932 1239.96 333.502 1241C334.073 1242.03 334.358 1243.37 334.358 1245.02V1260.07H330.051V1256.97H329.874C329.589 1257.54 329.161 1258.1 328.591 1258.65C328.021 1259.2 327.288 1259.66 326.394 1260.02C325.499 1260.39 324.427 1260.57 323.178 1260.57ZM324.137 1257.03C325.356 1257.03 326.399 1256.79 327.264 1256.31C328.139 1255.83 328.803 1255.2 329.255 1254.42C329.717 1253.63 329.948 1252.79 329.948 1251.9V1248.98C329.791 1249.13 329.486 1249.28 329.034 1249.42C328.591 1249.55 328.085 1249.66 327.514 1249.76C326.944 1249.85 326.389 1249.93 325.848 1250.01C325.307 1250.08 324.855 1250.14 324.491 1250.19C323.636 1250.3 322.854 1250.48 322.146 1250.73C321.448 1250.99 320.887 1251.36 320.465 1251.84C320.052 1252.31 319.845 1252.94 319.845 1253.73C319.845 1254.82 320.248 1255.64 321.055 1256.2C321.861 1256.75 322.888 1257.03 324.137 1257.03ZM357.207 1242.95L353.21 1243.65C353.043 1243.14 352.777 1242.66 352.414 1242.19C352.06 1241.73 351.578 1241.35 350.968 1241.06C350.359 1240.76 349.597 1240.62 348.682 1240.62C347.434 1240.62 346.391 1240.9 345.556 1241.46C344.72 1242.01 344.302 1242.72 344.302 1243.59C344.302 1244.35 344.582 1244.96 345.143 1245.42C345.703 1245.89 346.608 1246.26 347.856 1246.56L351.455 1247.38C353.539 1247.87 355.093 1248.61 356.116 1249.61C357.138 1250.61 357.649 1251.92 357.649 1253.52C357.649 1254.88 357.256 1256.09 356.47 1257.15C355.693 1258.2 354.606 1259.03 353.21 1259.63C351.824 1260.23 350.216 1260.53 348.387 1260.53C345.851 1260.53 343.781 1259.98 342.178 1258.9C340.576 1257.81 339.592 1256.26 339.228 1254.26L343.491 1253.61C343.756 1254.72 344.302 1255.56 345.128 1256.13C345.954 1256.69 347.03 1256.97 348.358 1256.97C349.803 1256.97 350.958 1256.67 351.824 1256.07C352.689 1255.46 353.122 1254.72 353.122 1253.84C353.122 1253.14 352.856 1252.54 352.325 1252.06C351.804 1251.58 351.003 1251.21 349.921 1250.97L346.087 1250.13C343.973 1249.65 342.409 1248.88 341.397 1247.83C340.394 1246.78 339.892 1245.44 339.892 1243.83C339.892 1242.49 340.266 1241.32 341.013 1240.32C341.76 1239.32 342.793 1238.54 344.11 1237.98C345.428 1237.4 346.937 1237.12 348.638 1237.12C351.086 1237.12 353.013 1237.65 354.419 1238.71C355.825 1239.76 356.755 1241.18 357.207 1242.95ZM366.908 1246.62V1260.07H362.498V1229.86H366.849V1241.1H367.129C367.66 1239.88 368.471 1238.91 369.563 1238.2C370.654 1237.48 372.08 1237.12 373.84 1237.12C375.393 1237.12 376.75 1237.44 377.91 1238.08C379.08 1238.72 379.985 1239.67 380.624 1240.94C381.273 1242.2 381.597 1243.77 381.597 1245.66V1260.07H377.187V1246.19C377.187 1244.53 376.76 1243.24 375.904 1242.33C375.049 1241.4 373.859 1240.94 372.335 1240.94C371.293 1240.94 370.359 1241.16 369.533 1241.6C368.717 1242.05 368.073 1242.69 367.601 1243.55C367.139 1244.4 366.908 1245.42 366.908 1246.62ZM390.387 1260.35C389.581 1260.35 388.888 1260.06 388.308 1259.49C387.728 1258.91 387.438 1258.21 387.438 1257.4C387.438 1256.59 387.728 1255.9 388.308 1255.33C388.888 1254.75 389.581 1254.46 390.387 1254.46C391.194 1254.46 391.887 1254.75 392.467 1255.33C393.047 1255.9 393.337 1256.59 393.337 1257.4C393.337 1257.94 393.199 1258.44 392.924 1258.89C392.659 1259.33 392.305 1259.68 391.862 1259.95C391.42 1260.22 390.928 1260.35 390.387 1260.35ZM390.387 1243.86C389.581 1243.86 388.888 1243.57 388.308 1242.99C387.728 1242.41 387.438 1241.72 387.438 1240.91C387.438 1240.1 387.728 1239.42 388.308 1238.85C388.888 1238.27 389.581 1237.98 390.387 1237.98C391.194 1237.98 391.887 1238.27 392.467 1238.85C393.047 1239.42 393.337 1240.1 393.337 1240.91C393.337 1241.45 393.199 1241.95 392.924 1242.4C392.659 1242.84 392.305 1243.2 391.862 1243.46C391.42 1243.73 390.928 1243.86 390.387 1243.86Z" fill="white" fill-opacity="0.89"/>
<path d="M612.653 904.592C608.987 905.128 605.6 905.043 602.491 904.337C599.374 903.58 596.618 902.216 594.22 900.246C591.816 898.225 589.796 895.593 588.162 892.352C586.521 889.058 585.364 885.114 584.693 880.519C584.029 875.976 584.008 871.866 584.631 868.189C585.246 864.461 586.413 861.258 588.131 858.581C589.841 855.853 592.078 853.654 594.839 851.985C597.601 850.315 600.815 849.213 604.481 848.677C609.489 847.945 613.77 848.374 617.324 849.964C620.871 851.502 623.947 854.322 626.55 858.424L617.174 865.173C616.12 863.007 614.72 861.366 612.974 860.25C611.273 859.075 608.952 858.702 606.009 859.132C602.549 859.638 599.927 861.181 598.143 863.762C596.402 866.284 595.845 869.688 596.471 873.973L597.739 882.647C598.365 886.932 599.877 890.06 602.274 892.029C604.715 893.94 607.665 894.643 611.125 894.137C614.016 893.715 616.2 892.604 617.678 890.806C619.199 888.949 620.211 886.85 620.712 884.51L631.13 888.682C629.72 893.107 627.529 896.696 624.557 899.451C621.629 902.146 617.661 903.86 612.653 904.592ZM632.127 842.264L643.589 840.589L647.03 864.132L647.494 864.064C647.908 861.841 648.905 859.824 650.485 858.011C652.066 856.198 654.457 855.057 657.658 854.589C661.84 853.978 665.193 854.912 667.717 857.39C670.293 859.861 671.959 863.679 672.713 868.841L676.437 894.321L664.975 895.996L661.387 871.446C661.002 868.813 660.306 866.937 659.299 865.819C658.284 864.649 656.719 864.218 654.602 864.528C653.673 864.664 652.788 864.925 651.948 865.311C651.1 865.646 650.353 866.124 649.706 866.746C649.11 867.361 648.662 868.085 648.362 868.92C648.055 869.703 647.973 870.585 648.116 871.566L651.965 897.897L640.503 899.573L632.127 842.264ZM703.733 891.281C700.635 891.733 697.801 891.647 695.231 891.02C692.654 890.342 690.381 889.224 688.413 887.666C686.489 886.049 684.896 883.988 683.634 881.483C682.423 878.971 681.58 876.088 681.104 872.836C680.636 869.635 680.627 866.683 681.076 863.981C681.517 861.227 682.402 858.804 683.731 856.711C685.111 854.611 686.917 852.897 689.149 851.569C691.373 850.189 694.008 849.277 697.054 848.831C700.41 848.341 703.359 848.49 705.9 849.279C708.492 850.06 710.677 851.296 712.453 852.988C714.281 854.672 715.716 856.73 716.757 859.161C717.842 861.534 718.584 864.088 718.984 866.825L719.482 870.232L693.383 874.047L693.474 874.666C693.866 877.351 694.902 879.388 696.582 880.777C698.254 882.115 700.639 882.557 703.736 882.105C706.111 881.757 707.98 881.01 709.341 879.862C710.695 878.662 711.919 877.296 713.014 875.765L719.786 882.053C718.288 884.434 716.155 886.433 713.385 888.051C710.668 889.661 707.45 890.737 703.733 891.281ZM698.52 857.239C696.197 857.579 694.477 858.621 693.361 860.366C692.289 862.052 691.938 864.16 692.308 866.69L692.399 867.309L706.648 865.226L706.546 864.529C706.184 862.051 705.326 860.146 703.971 858.815C702.661 857.425 700.844 856.899 698.52 857.239ZM747.22 884.925C744.122 885.378 741.288 885.291 738.718 884.665C736.141 883.987 733.868 882.869 731.9 881.311C729.976 879.693 728.383 877.632 727.121 875.128C725.91 872.615 725.066 869.733 724.591 866.48C724.123 863.279 724.114 860.327 724.562 857.625C725.004 854.871 725.889 852.448 727.218 850.355C728.598 848.255 730.404 846.541 732.636 845.213C734.86 843.833 737.495 842.921 740.541 842.476C743.897 841.985 746.845 842.134 749.386 842.923C751.979 843.704 754.164 844.941 755.94 846.632C757.768 848.316 759.203 850.374 760.244 852.806C761.329 855.178 762.071 857.733 762.471 860.469L762.969 863.877L736.87 867.691L736.961 868.311C737.353 870.995 738.389 873.032 740.069 874.422C741.741 875.759 744.126 876.202 747.223 875.749C749.598 875.402 751.466 874.654 752.828 873.506C754.182 872.306 755.406 870.941 756.501 869.41L763.273 875.697C761.775 878.078 759.642 880.077 756.872 881.695C754.155 883.305 750.937 884.382 747.22 884.925ZM742.007 850.883C739.684 851.223 737.964 852.265 736.848 854.01C735.776 855.696 735.425 857.804 735.795 860.334L735.885 860.953L750.135 858.871L750.033 858.174C749.671 855.696 748.813 853.791 747.458 852.46C746.147 851.069 744.33 850.544 742.007 850.883ZM773.61 880.119L767.668 839.46L779.13 837.785L780.42 846.614L780.807 846.557C780.848 845.391 781.051 844.254 781.416 843.146C781.774 841.986 782.306 840.933 783.011 839.986C783.768 839.032 784.706 838.236 785.826 837.597C786.938 836.908 788.294 836.446 789.895 836.212L791.908 835.918L793.47 846.605L790.605 847.024C787.249 847.514 784.809 848.319 783.285 849.438C781.813 850.55 781.25 852.293 781.597 854.668L785.072 878.443L773.61 880.119ZM818.842 874.457C814.918 875.031 811.523 874.894 808.657 874.047C805.784 873.149 803.119 871.693 800.663 869.679L806.404 861.879C808.084 863.268 809.869 864.299 811.761 864.972C813.652 865.645 815.707 865.819 817.927 865.494C820.199 865.162 821.725 864.597 822.504 863.797C823.277 862.946 823.576 861.927 823.402 860.739C823.123 858.829 821.589 857.893 818.8 857.932L814.306 858.035C805.002 858.234 799.821 854.72 798.765 847.492C798.478 845.53 798.579 843.696 799.068 841.99C799.601 840.225 800.456 838.676 801.632 837.344C802.852 835.953 804.373 834.808 806.192 833.909C808.056 832.951 810.201 832.295 812.628 831.94C814.745 831.631 816.626 831.514 818.272 831.59C819.962 831.607 821.468 831.808 822.79 832.195C824.156 832.523 825.416 833.024 826.569 833.699C827.767 834.315 828.953 835.038 830.129 835.868L824.531 843.568C823.052 842.466 821.433 841.674 819.675 841.193C817.962 840.652 816.253 840.507 814.549 840.756C812.587 841.042 811.239 841.556 810.503 842.296C809.767 843.037 809.475 843.923 809.626 844.956C809.785 846.04 810.193 846.85 810.851 847.387C811.554 847.864 812.75 848.111 814.44 848.128L819.1 848.08C828.205 847.962 833.267 851.388 834.286 858.358C834.573 860.32 834.424 862.187 833.839 863.96C833.255 865.733 832.279 867.352 830.911 868.817C829.587 870.224 827.89 871.421 825.82 872.409C823.801 873.39 821.475 874.072 818.842 874.457ZM864.482 849.436L857.628 827.974L855.432 812.949L867.513 811.184L869.709 826.208L869.361 848.723L864.482 849.436ZM869.431 867.063C866.953 867.426 865.089 867.118 863.839 866.141C862.64 865.156 861.92 863.837 861.679 862.185L861.407 860.326C861.165 858.674 861.478 857.205 862.345 855.918C863.263 854.624 864.961 853.795 867.439 853.433C869.917 853.071 871.756 853.382 872.954 854.367C874.205 855.345 874.951 856.659 875.192 858.312L875.464 860.17C875.705 861.822 875.367 863.296 874.448 864.59C873.582 865.877 871.909 866.701 869.431 867.063ZM889.288 845.81L882.434 824.348L880.238 809.324L892.32 807.558L894.515 822.582L894.167 845.097L889.288 845.81ZM894.238 863.438C891.759 863.8 889.895 863.492 888.645 862.515C887.446 861.53 886.726 860.212 886.485 858.559L886.213 856.701C885.972 855.049 886.284 853.579 887.151 852.292C888.069 850.998 889.767 850.17 892.246 849.808C894.724 849.445 896.562 849.757 897.761 850.742C899.011 851.719 899.757 853.034 899.998 854.686L900.27 856.545C900.512 858.197 900.173 859.67 899.255 860.964C898.388 862.251 896.716 863.076 894.238 863.438ZM914.095 842.185L907.241 820.723L905.045 805.698L917.126 803.933L919.322 818.957L918.974 841.472L914.095 842.185ZM919.044 859.812C916.566 860.175 914.702 859.867 913.451 858.89C912.253 857.905 911.533 856.586 911.291 854.934L911.02 853.075C910.778 851.423 911.091 849.954 911.957 848.667C912.876 847.373 914.574 846.544 917.052 846.182C919.53 845.82 921.369 846.131 922.567 847.116C923.818 848.094 924.563 849.408 924.805 851.061L925.076 852.919C925.318 854.571 924.98 856.045 924.061 857.339C923.195 858.626 921.522 859.45 919.044 859.812Z" fill="white"/>
<path d="M398.279 1095.97V1092.73H420.933V1095.97H411.435V1122.93H407.777V1095.97H398.279ZM429.587 1109.31V1122.93H426.106V1092.73H429.587V1103.82H429.882C430.413 1102.65 431.209 1101.72 432.271 1101.03C433.343 1100.33 434.768 1099.98 436.548 1099.98C438.092 1099.98 439.444 1100.29 440.604 1100.91C441.764 1101.52 442.664 1102.46 443.303 1103.73C443.952 1104.99 444.276 1106.59 444.276 1108.54V1122.93H440.796V1108.78C440.796 1106.98 440.329 1105.58 439.394 1104.6C438.47 1103.61 437.187 1103.11 435.545 1103.11C434.405 1103.11 433.382 1103.35 432.477 1103.83C431.583 1104.32 430.875 1105.02 430.354 1105.94C429.842 1106.87 429.587 1107.99 429.587 1109.31ZM457.31 1123.46C455.875 1123.46 454.572 1123.19 453.402 1122.65C452.232 1122.1 451.303 1121.31 450.614 1120.28C449.926 1119.24 449.582 1117.98 449.582 1116.5C449.582 1115.21 449.838 1114.15 450.349 1113.35C450.86 1112.53 451.544 1111.89 452.399 1111.43C453.254 1110.97 454.198 1110.62 455.231 1110.4C456.273 1110.16 457.32 1109.97 458.372 1109.84C459.749 1109.66 460.865 1109.53 461.72 1109.44C462.585 1109.34 463.215 1109.18 463.608 1108.95C464.011 1108.73 464.213 1108.33 464.213 1107.77V1107.65C464.213 1106.2 463.814 1105.07 463.018 1104.26C462.231 1103.46 461.037 1103.05 459.434 1103.05C457.772 1103.05 456.47 1103.42 455.526 1104.14C454.582 1104.87 453.918 1105.65 453.535 1106.47L450.231 1105.29C450.821 1103.92 451.607 1102.85 452.591 1102.08C453.584 1101.3 454.665 1100.76 455.835 1100.46C457.015 1100.14 458.175 1099.98 459.316 1099.98C460.044 1099.98 460.879 1100.07 461.823 1100.25C462.777 1100.42 463.696 1100.77 464.581 1101.3C465.476 1101.83 466.218 1102.63 466.808 1103.7C467.398 1104.77 467.693 1106.21 467.693 1108.01V1122.93H464.213V1119.87H464.036C463.8 1120.36 463.406 1120.88 462.856 1121.44C462.305 1122 461.573 1122.48 460.658 1122.87C459.744 1123.27 458.628 1123.46 457.31 1123.46ZM457.841 1120.34C459.218 1120.34 460.378 1120.07 461.322 1119.53C462.276 1118.99 462.993 1118.29 463.475 1117.43C463.967 1116.58 464.213 1115.68 464.213 1114.73V1111.55C464.065 1111.72 463.741 1111.89 463.239 1112.03C462.747 1112.17 462.177 1112.29 461.528 1112.4C460.889 1112.5 460.265 1112.59 459.655 1112.67C459.055 1112.74 458.569 1112.8 458.195 1112.85C457.291 1112.96 456.445 1113.16 455.658 1113.42C454.882 1113.68 454.252 1114.06 453.771 1114.59C453.299 1115.1 453.063 1115.8 453.063 1116.68C453.063 1117.89 453.51 1118.8 454.405 1119.42C455.309 1120.03 456.455 1120.34 457.841 1120.34ZM477.527 1109.31V1122.93H474.046V1100.28H477.409V1103.82H477.704C478.235 1102.67 479.041 1101.74 480.122 1101.05C481.204 1100.34 482.6 1099.98 484.311 1099.98C485.845 1099.98 487.187 1100.3 488.337 1100.93C489.488 1101.55 490.383 1102.49 491.022 1103.76C491.661 1105.02 491.98 1106.61 491.98 1108.54V1122.93H488.5V1108.78C488.5 1107 488.038 1105.61 487.113 1104.62C486.189 1103.61 484.921 1103.11 483.308 1103.11C482.197 1103.11 481.204 1103.35 480.329 1103.83C479.464 1104.32 478.78 1105.02 478.279 1105.94C477.777 1106.87 477.527 1107.99 477.527 1109.31ZM501.585 1114.67L501.526 1110.37H502.234L512.145 1100.28H516.452L505.892 1110.96H505.597L501.585 1114.67ZM498.341 1122.93V1092.73H501.821V1122.93H498.341ZM512.735 1122.93L503.886 1111.72L506.364 1109.31L517.16 1122.93H512.735ZM534.854 1131.43C534.264 1131.43 533.738 1131.38 533.276 1131.28C532.814 1131.19 532.494 1131.1 532.318 1131.02L533.202 1127.95C534.048 1128.16 534.795 1128.24 535.444 1128.18C536.093 1128.13 536.668 1127.84 537.17 1127.31C537.681 1126.8 538.148 1125.97 538.571 1124.82L539.22 1123.05L530.843 1100.28H534.618L540.872 1118.33H541.108L547.361 1100.28H551.137L541.521 1126.24C541.088 1127.41 540.552 1128.38 539.913 1129.14C539.274 1129.92 538.532 1130.49 537.686 1130.87C536.85 1131.24 535.906 1131.43 534.854 1131.43ZM564.123 1123.41C562.078 1123.41 560.283 1122.92 558.739 1121.95C557.206 1120.97 556.006 1119.61 555.141 1117.86C554.285 1116.11 553.858 1114.06 553.858 1111.72C553.858 1109.36 554.285 1107.31 555.141 1105.55C556.006 1103.79 557.206 1102.42 558.739 1101.44C560.283 1100.47 562.078 1099.98 564.123 1099.98C566.168 1099.98 567.957 1100.47 569.491 1101.44C571.035 1102.42 572.234 1103.79 573.09 1105.55C573.955 1107.31 574.388 1109.36 574.388 1111.72C574.388 1114.06 573.955 1116.11 573.09 1117.86C572.234 1119.61 571.035 1120.97 569.491 1121.95C567.957 1122.92 566.168 1123.41 564.123 1123.41ZM564.123 1120.28C565.676 1120.28 566.954 1119.88 567.957 1119.08C568.96 1118.29 569.703 1117.24 570.184 1115.94C570.666 1114.64 570.907 1113.24 570.907 1111.72C570.907 1110.21 570.666 1108.8 570.184 1107.49C569.703 1106.18 568.96 1105.13 567.957 1104.32C566.954 1103.51 565.676 1103.11 564.123 1103.11C562.569 1103.11 561.291 1103.51 560.288 1104.32C559.285 1105.13 558.543 1106.18 558.061 1107.49C557.579 1108.8 557.338 1110.21 557.338 1111.72C557.338 1113.24 557.579 1114.64 558.061 1115.94C558.543 1117.24 559.285 1118.29 560.288 1119.08C561.291 1119.88 562.569 1120.28 564.123 1120.28ZM593.977 1113.67V1100.28H597.458V1122.93H593.977V1119.1H593.741C593.21 1120.25 592.385 1121.23 591.264 1122.03C590.143 1122.83 588.727 1123.23 587.016 1123.23C585.6 1123.23 584.342 1122.92 583.24 1122.3C582.139 1121.67 581.274 1120.73 580.645 1119.47C580.015 1118.2 579.701 1116.6 579.701 1114.67V1100.28H583.181V1114.44C583.181 1116.09 583.644 1117.41 584.568 1118.39C585.502 1119.37 586.692 1119.87 588.137 1119.87C589.002 1119.87 589.882 1119.64 590.777 1119.2C591.682 1118.76 592.439 1118.08 593.048 1117.17C593.668 1116.25 593.977 1115.09 593.977 1113.67ZM625.602 1100.28V1103.23H613.39V1100.28H625.602ZM617.048 1122.93V1097.15C617.048 1095.86 617.353 1094.77 617.962 1093.91C618.572 1093.04 619.363 1092.39 620.337 1091.96C621.31 1091.53 622.338 1091.31 623.419 1091.31C624.275 1091.31 624.973 1091.38 625.513 1091.52C626.054 1091.66 626.457 1091.78 626.723 1091.9L625.72 1094.91C625.543 1094.85 625.297 1094.78 624.982 1094.69C624.678 1094.6 624.275 1094.56 623.773 1094.56C622.623 1094.56 621.792 1094.85 621.281 1095.43C620.779 1096.01 620.528 1096.86 620.528 1097.98V1122.93H617.048ZM638.75 1123.41C636.705 1123.41 634.911 1122.92 633.367 1121.95C631.833 1120.97 630.634 1119.61 629.768 1117.86C628.913 1116.11 628.485 1114.06 628.485 1111.72C628.485 1109.36 628.913 1107.31 629.768 1105.55C630.634 1103.79 631.833 1102.42 633.367 1101.44C634.911 1100.47 636.705 1099.98 638.75 1099.98C640.795 1099.98 642.585 1100.47 644.119 1101.44C645.662 1102.42 646.862 1103.79 647.717 1105.55C648.583 1107.31 649.015 1109.36 649.015 1111.72C649.015 1114.06 648.583 1116.11 647.717 1117.86C646.862 1119.61 645.662 1120.97 644.119 1121.95C642.585 1122.92 640.795 1123.41 638.75 1123.41ZM638.75 1120.28C640.304 1120.28 641.582 1119.88 642.585 1119.08C643.588 1118.29 644.33 1117.24 644.812 1115.94C645.294 1114.64 645.535 1113.24 645.535 1111.72C645.535 1110.21 645.294 1108.8 644.812 1107.49C644.33 1106.18 643.588 1105.13 642.585 1104.32C641.582 1103.51 640.304 1103.11 638.75 1103.11C637.197 1103.11 635.919 1103.51 634.916 1104.32C633.913 1105.13 633.17 1106.18 632.689 1107.49C632.207 1108.8 631.966 1110.21 631.966 1111.72C631.966 1113.24 632.207 1114.64 632.689 1115.94C633.17 1117.24 633.913 1118.29 634.916 1119.08C635.919 1119.88 637.197 1120.28 638.75 1120.28ZM654.328 1122.93V1100.28H657.691V1103.7H657.927C658.34 1102.58 659.087 1101.67 660.169 1100.97C661.25 1100.27 662.47 1099.93 663.826 1099.93C664.082 1099.93 664.402 1099.93 664.785 1099.94C665.169 1099.95 665.459 1099.97 665.655 1099.98V1103.52C665.537 1103.5 665.267 1103.45 664.844 1103.39C664.431 1103.32 663.994 1103.29 663.531 1103.29C662.43 1103.29 661.447 1103.52 660.582 1103.98C659.726 1104.43 659.048 1105.06 658.546 1105.87C658.055 1106.67 657.809 1107.58 657.809 1108.6V1122.93H654.328ZM697.508 1105.35L694.382 1106.24C694.185 1105.72 693.895 1105.21 693.512 1104.72C693.138 1104.22 692.627 1103.8 691.978 1103.48C691.329 1103.16 690.498 1102.99 689.485 1102.99C688.099 1102.99 686.943 1103.31 686.019 1103.95C685.105 1104.58 684.648 1105.38 684.648 1106.36C684.648 1107.22 684.962 1107.9 685.592 1108.41C686.221 1108.91 687.204 1109.33 688.541 1109.66L691.904 1110.49C693.929 1110.98 695.439 1111.73 696.432 1112.74C697.425 1113.75 697.921 1115.04 697.921 1116.62C697.921 1117.92 697.548 1119.08 696.8 1120.1C696.063 1121.12 695.031 1121.93 693.703 1122.52C692.376 1123.11 690.832 1123.41 689.072 1123.41C686.762 1123.41 684.849 1122.9 683.335 1121.9C681.821 1120.9 680.862 1119.43 680.459 1117.51L683.763 1116.68C684.077 1117.9 684.672 1118.81 685.547 1119.42C686.432 1120.03 687.588 1120.34 689.013 1120.34C690.636 1120.34 691.924 1119.99 692.877 1119.31C693.841 1118.61 694.323 1117.77 694.323 1116.8C694.323 1116.01 694.047 1115.35 693.497 1114.82C692.946 1114.28 692.101 1113.88 690.96 1113.61L687.184 1112.73C685.11 1112.24 683.586 1111.47 682.612 1110.44C681.649 1109.4 681.167 1108.1 681.167 1106.53C681.167 1105.26 681.526 1104.12 682.244 1103.14C682.971 1102.16 683.959 1101.39 685.208 1100.83C686.467 1100.27 687.892 1099.98 689.485 1099.98C691.727 1099.98 693.487 1100.48 694.765 1101.46C696.053 1102.44 696.968 1103.74 697.508 1105.35ZM712.659 1123.41C710.476 1123.41 708.593 1122.92 707.01 1121.96C705.437 1120.99 704.223 1119.63 703.367 1117.89C702.522 1116.14 702.099 1114.1 702.099 1111.78C702.099 1109.46 702.522 1107.42 703.367 1105.65C704.223 1103.87 705.412 1102.48 706.936 1101.49C708.47 1100.49 710.26 1099.98 712.305 1099.98C713.485 1099.98 714.65 1100.18 715.8 1100.57C716.951 1100.97 717.998 1101.61 718.942 1102.49C719.886 1103.37 720.638 1104.53 721.198 1105.97C721.759 1107.42 722.039 1109.2 722.039 1111.31V1112.79H704.577V1109.78H718.499C718.499 1108.5 718.244 1107.36 717.732 1106.36C717.231 1105.35 716.513 1104.56 715.579 1103.98C714.655 1103.4 713.563 1103.11 712.305 1103.11C710.918 1103.11 709.719 1103.46 708.706 1104.14C707.703 1104.82 706.931 1105.71 706.391 1106.8C705.85 1107.89 705.58 1109.06 705.58 1110.31V1112.31C705.58 1114.03 705.874 1115.48 706.464 1116.67C707.064 1117.85 707.895 1118.75 708.957 1119.36C710.019 1119.97 711.253 1120.28 712.659 1120.28C713.573 1120.28 714.399 1120.15 715.137 1119.9C715.884 1119.63 716.528 1119.24 717.069 1118.72C717.609 1118.18 718.027 1117.53 718.322 1116.74L721.685 1117.68C721.331 1118.82 720.736 1119.83 719.9 1120.69C719.065 1121.55 718.032 1122.22 716.803 1122.7C715.574 1123.17 714.193 1123.41 712.659 1123.41ZM736.537 1123.41C734.413 1123.41 732.584 1122.9 731.05 1121.9C729.516 1120.9 728.336 1119.52 727.511 1117.76C726.685 1116 726.272 1113.99 726.272 1111.72C726.272 1109.42 726.694 1107.39 727.54 1105.63C728.395 1103.86 729.585 1102.48 731.109 1101.49C732.643 1100.49 734.433 1099.98 736.478 1099.98C738.07 1099.98 739.506 1100.28 740.784 1100.87C742.062 1101.46 743.11 1102.29 743.926 1103.35C744.742 1104.41 745.248 1105.65 745.445 1107.06H741.964C741.699 1106.03 741.109 1105.12 740.194 1104.32C739.29 1103.51 738.07 1103.11 736.537 1103.11C735.18 1103.11 733.99 1103.47 732.968 1104.17C731.955 1104.87 731.163 1105.86 730.593 1107.14C730.033 1108.41 729.752 1109.9 729.752 1111.61C729.752 1113.36 730.028 1114.88 730.578 1116.18C731.139 1117.48 731.925 1118.48 732.938 1119.2C733.961 1119.92 735.16 1120.28 736.537 1120.28C737.441 1120.28 738.262 1120.12 739 1119.81C739.737 1119.49 740.361 1119.04 740.873 1118.45C741.384 1117.86 741.748 1117.15 741.964 1116.33H745.445C745.248 1117.66 744.761 1118.87 743.985 1119.94C743.218 1121 742.2 1121.85 740.932 1122.48C739.673 1123.1 738.208 1123.41 736.537 1123.41ZM764.81 1113.67V1100.28H768.29V1122.93H764.81V1119.1H764.574C764.043 1120.25 763.217 1121.23 762.096 1122.03C760.975 1122.83 759.559 1123.23 757.848 1123.23C756.432 1123.23 755.174 1122.92 754.073 1122.3C752.971 1121.67 752.106 1120.73 751.477 1119.47C750.848 1118.2 750.533 1116.6 750.533 1114.67V1100.28H754.014V1114.44C754.014 1116.09 754.476 1117.41 755.4 1118.39C756.334 1119.37 757.524 1119.87 758.969 1119.87C759.834 1119.87 760.714 1119.64 761.609 1119.2C762.514 1118.76 763.271 1118.08 763.88 1117.17C764.5 1116.25 764.81 1115.09 764.81 1113.67ZM774.665 1122.93V1100.28H778.028V1103.7H778.264C778.677 1102.58 779.424 1101.67 780.506 1100.97C781.587 1100.27 782.806 1099.93 784.163 1099.93C784.419 1099.93 784.739 1099.93 785.122 1099.94C785.505 1099.95 785.795 1099.97 785.992 1099.98V1103.52C785.874 1103.5 785.604 1103.45 785.181 1103.39C784.768 1103.32 784.33 1103.29 783.868 1103.29C782.767 1103.29 781.784 1103.52 780.919 1103.98C780.063 1104.43 779.385 1105.06 778.883 1105.87C778.392 1106.67 778.146 1107.58 778.146 1108.6V1122.93H774.665ZM790.118 1122.93V1100.28H793.599V1122.93H790.118ZM791.888 1096.5C791.209 1096.5 790.624 1096.27 790.133 1095.81C789.651 1095.35 789.41 1094.79 789.41 1094.14C789.41 1093.5 789.651 1092.94 790.133 1092.48C790.624 1092.02 791.209 1091.78 791.888 1091.78C792.566 1091.78 793.146 1092.02 793.628 1092.48C794.12 1092.94 794.366 1093.5 794.366 1094.14C794.366 1094.79 794.12 1095.35 793.628 1095.81C793.146 1096.27 792.566 1096.5 791.888 1096.5ZM803.454 1109.31V1122.93H799.974V1100.28H803.336V1103.82H803.631C804.162 1102.67 804.969 1101.74 806.05 1101.05C807.132 1100.34 808.528 1099.98 810.239 1099.98C811.773 1099.98 813.115 1100.3 814.265 1100.93C815.415 1101.55 816.31 1102.49 816.949 1103.76C817.588 1105.02 817.908 1106.61 817.908 1108.54V1122.93H814.427V1108.78C814.427 1107 813.965 1105.61 813.041 1104.62C812.117 1103.61 810.848 1103.11 809.236 1103.11C808.125 1103.11 807.132 1103.35 806.257 1103.83C805.391 1104.32 804.708 1105.02 804.207 1105.94C803.705 1106.87 803.454 1107.99 803.454 1109.31ZM833.412 1131.9C831.731 1131.9 830.286 1131.68 829.076 1131.25C827.867 1130.83 826.859 1130.27 826.053 1129.57C825.256 1128.88 824.622 1128.14 824.15 1127.36L826.923 1125.41C827.238 1125.82 827.636 1126.3 828.118 1126.83C828.599 1127.37 829.258 1127.84 830.094 1128.23C830.94 1128.63 832.046 1128.83 833.412 1128.83C835.241 1128.83 836.75 1128.39 837.94 1127.51C839.13 1126.62 839.725 1125.23 839.725 1123.35V1118.75H839.43C839.174 1119.16 838.81 1119.67 838.338 1120.28C837.876 1120.88 837.208 1121.41 836.333 1121.89C835.467 1122.35 834.297 1122.58 832.822 1122.58C830.994 1122.58 829.352 1122.15 827.896 1121.28C826.451 1120.42 825.306 1119.16 824.46 1117.51C823.624 1115.85 823.206 1113.85 823.206 1111.49C823.206 1109.17 823.614 1107.15 824.43 1105.43C825.247 1103.7 826.382 1102.36 827.837 1101.42C829.293 1100.46 830.974 1099.98 832.881 1099.98C834.356 1099.98 835.526 1100.23 836.392 1100.72C837.267 1101.2 837.935 1101.75 838.397 1102.37C838.869 1102.98 839.233 1103.49 839.489 1103.88H839.843V1100.28H843.205V1123.58C843.205 1125.53 842.763 1127.11 841.878 1128.33C841.003 1129.56 839.823 1130.46 838.338 1131.03C836.864 1131.61 835.221 1131.9 833.412 1131.9ZM833.294 1119.45C834.691 1119.45 835.87 1119.13 836.834 1118.49C837.798 1117.86 838.53 1116.94 839.032 1115.74C839.533 1114.54 839.784 1113.1 839.784 1111.43C839.784 1109.8 839.538 1108.36 839.046 1107.11C838.555 1105.86 837.827 1104.88 836.864 1104.17C835.9 1103.47 834.71 1103.11 833.294 1103.11C831.82 1103.11 830.59 1103.49 829.607 1104.23C828.634 1104.98 827.901 1105.98 827.41 1107.24C826.928 1108.5 826.687 1109.9 826.687 1111.43C826.687 1113 826.933 1114.39 827.424 1115.6C827.926 1116.8 828.663 1117.75 829.637 1118.44C830.62 1119.11 831.839 1119.45 833.294 1119.45ZM871.11 1100.28V1103.23H859.37V1100.28H871.11ZM862.791 1094.85H866.272V1116.44C866.272 1117.43 866.415 1118.16 866.7 1118.66C866.995 1119.14 867.368 1119.46 867.821 1119.63C868.283 1119.79 868.769 1119.87 869.281 1119.87C869.664 1119.87 869.979 1119.85 870.225 1119.81C870.47 1119.76 870.667 1119.72 870.815 1119.69L871.523 1122.82C871.287 1122.9 870.957 1122.99 870.534 1123.08C870.112 1123.18 869.576 1123.23 868.927 1123.23C867.944 1123.23 866.98 1123.02 866.036 1122.59C865.102 1122.17 864.325 1121.53 863.706 1120.66C863.096 1119.8 862.791 1118.71 862.791 1117.39V1094.85ZM880.313 1109.31V1122.93H876.832V1092.73H880.313V1103.82H880.608C881.139 1102.65 881.935 1101.72 882.997 1101.03C884.069 1100.33 885.494 1099.98 887.274 1099.98C888.818 1099.98 890.17 1100.29 891.33 1100.91C892.49 1101.52 893.39 1102.46 894.029 1103.73C894.678 1104.99 895.002 1106.59 895.002 1108.54V1122.93H891.522V1108.78C891.522 1106.98 891.054 1105.58 890.12 1104.6C889.196 1103.61 887.913 1103.11 886.271 1103.11C885.13 1103.11 884.108 1103.35 883.203 1103.83C882.309 1104.32 881.601 1105.02 881.08 1105.94C880.568 1106.87 880.313 1107.99 880.313 1109.31ZM910.868 1123.41C908.685 1123.41 906.802 1122.92 905.219 1121.96C903.646 1120.99 902.432 1119.63 901.576 1117.89C900.731 1116.14 900.308 1114.1 900.308 1111.78C900.308 1109.46 900.731 1107.42 901.576 1105.65C902.432 1103.87 903.621 1102.48 905.145 1101.49C906.679 1100.49 908.469 1099.98 910.514 1099.98C911.694 1099.98 912.859 1100.18 914.009 1100.57C915.16 1100.97 916.207 1101.61 917.151 1102.49C918.095 1103.37 918.847 1104.53 919.407 1105.97C919.968 1107.42 920.248 1109.2 920.248 1111.31V1112.79H902.786V1109.78H916.708C916.708 1108.5 916.453 1107.36 915.941 1106.36C915.44 1105.35 914.722 1104.56 913.788 1103.98C912.864 1103.4 911.772 1103.11 910.514 1103.11C909.128 1103.11 907.928 1103.46 906.915 1104.14C905.912 1104.82 905.141 1105.71 904.6 1106.8C904.059 1107.89 903.789 1109.06 903.789 1110.31V1112.31C903.789 1114.03 904.084 1115.48 904.674 1116.67C905.273 1117.85 906.104 1118.75 907.166 1119.36C908.228 1119.97 909.462 1120.28 910.868 1120.28C911.782 1120.28 912.608 1120.15 913.346 1119.9C914.093 1119.63 914.737 1119.24 915.278 1118.72C915.818 1118.18 916.236 1117.53 916.531 1116.74L919.894 1117.68C919.54 1118.82 918.945 1119.83 918.109 1120.69C917.274 1121.55 916.241 1122.22 915.012 1122.7C913.783 1123.17 912.402 1123.41 910.868 1123.41ZM940.704 1109.31V1122.93H937.224V1100.28H940.586V1103.82H940.881C941.412 1102.67 942.218 1101.74 943.3 1101.05C944.381 1100.34 945.778 1099.98 947.488 1099.98C949.022 1099.98 950.364 1100.3 951.515 1100.93C952.665 1101.55 953.56 1102.49 954.199 1103.76C954.838 1105.02 955.158 1106.61 955.158 1108.54V1122.93H951.677V1108.78C951.677 1107 951.215 1105.61 950.291 1104.62C949.366 1103.61 948.098 1103.11 946.486 1103.11C945.375 1103.11 944.381 1103.35 943.506 1103.83C942.641 1104.32 941.958 1105.02 941.456 1105.94C940.955 1106.87 940.704 1107.99 940.704 1109.31ZM971.016 1123.41C968.833 1123.41 966.95 1122.92 965.367 1121.96C963.794 1120.99 962.58 1119.63 961.724 1117.89C960.879 1116.14 960.456 1114.1 960.456 1111.78C960.456 1109.46 960.879 1107.42 961.724 1105.65C962.58 1103.87 963.77 1102.48 965.294 1101.49C966.827 1100.49 968.617 1099.98 970.662 1099.98C971.842 1099.98 973.007 1100.18 974.158 1100.57C975.308 1100.97 976.355 1101.61 977.299 1102.49C978.243 1103.37 978.995 1104.53 979.555 1105.97C980.116 1107.42 980.396 1109.2 980.396 1111.31V1112.79H962.934V1109.78H976.856C976.856 1108.5 976.601 1107.36 976.09 1106.36C975.588 1105.35 974.87 1104.56 973.936 1103.98C973.012 1103.4 971.921 1103.11 970.662 1103.11C969.276 1103.11 968.076 1103.46 967.063 1104.14C966.061 1104.82 965.289 1105.71 964.748 1106.8C964.207 1107.89 963.937 1109.06 963.937 1110.31V1112.31C963.937 1114.03 964.232 1115.48 964.822 1116.67C965.421 1117.85 966.252 1118.75 967.314 1119.36C968.376 1119.97 969.61 1120.28 971.016 1120.28C971.93 1120.28 972.756 1120.15 973.494 1119.9C974.241 1119.63 974.885 1119.24 975.426 1118.72C975.967 1118.18 976.385 1117.53 976.68 1116.74L980.042 1117.68C979.688 1118.82 979.093 1119.83 978.258 1120.69C977.422 1121.55 976.389 1122.22 975.16 1122.7C973.931 1123.17 972.55 1123.41 971.016 1123.41ZM995.543 1100.28V1103.23H983.803V1100.28H995.543ZM987.225 1094.85H990.705V1116.44C990.705 1117.43 990.848 1118.16 991.133 1118.66C991.428 1119.14 991.802 1119.46 992.254 1119.63C992.716 1119.79 993.203 1119.87 993.714 1119.87C994.098 1119.87 994.412 1119.85 994.658 1119.81C994.904 1119.76 995.1 1119.72 995.248 1119.69L995.956 1122.82C995.72 1122.9 995.39 1122.99 994.968 1123.08C994.545 1123.18 994.009 1123.23 993.36 1123.23C992.377 1123.23 991.413 1123.02 990.469 1122.59C989.535 1122.17 988.759 1121.53 988.139 1120.66C987.53 1119.8 987.225 1118.71 987.225 1117.39V1094.85ZM1005.91 1122.93L999.009 1100.28H1002.67L1007.56 1117.62H1007.8L1012.64 1100.28H1016.35L1021.13 1117.57H1021.37L1026.26 1100.28H1029.92L1023.02 1122.93H1019.6L1014.64 1105.53H1014.29L1009.33 1122.93H1005.91ZM1042.96 1123.41C1040.91 1123.41 1039.12 1122.92 1037.57 1121.95C1036.04 1120.97 1034.84 1119.61 1033.97 1117.86C1033.12 1116.11 1032.69 1114.06 1032.69 1111.72C1032.69 1109.36 1033.12 1107.31 1033.97 1105.55C1034.84 1103.79 1036.04 1102.42 1037.57 1101.44C1039.12 1100.47 1040.91 1099.98 1042.96 1099.98C1045 1099.98 1046.79 1100.47 1048.32 1101.44C1049.87 1102.42 1051.07 1103.79 1051.92 1105.55C1052.79 1107.31 1053.22 1109.36 1053.22 1111.72C1053.22 1114.06 1052.79 1116.11 1051.92 1117.86C1051.07 1119.61 1049.87 1120.97 1048.32 1121.95C1046.79 1122.92 1045 1123.41 1042.96 1123.41ZM1042.96 1120.28C1044.51 1120.28 1045.79 1119.88 1046.79 1119.08C1047.79 1118.29 1048.54 1117.24 1049.02 1115.94C1049.5 1114.64 1049.74 1113.24 1049.74 1111.72C1049.74 1110.21 1049.5 1108.8 1049.02 1107.49C1048.54 1106.18 1047.79 1105.13 1046.79 1104.32C1045.79 1103.51 1044.51 1103.11 1042.96 1103.11C1041.4 1103.11 1040.12 1103.51 1039.12 1104.32C1038.12 1105.13 1037.38 1106.18 1036.89 1107.49C1036.41 1108.8 1036.17 1110.21 1036.17 1111.72C1036.17 1113.24 1036.41 1114.64 1036.89 1115.94C1037.38 1117.24 1038.12 1118.29 1039.12 1119.08C1040.12 1119.88 1041.4 1120.28 1042.96 1120.28ZM1058.53 1122.93V1100.28H1061.9V1103.7H1062.13C1062.55 1102.58 1063.29 1101.67 1064.37 1100.97C1065.46 1100.27 1066.68 1099.93 1068.03 1099.93C1068.29 1099.93 1068.61 1099.93 1068.99 1099.94C1069.37 1099.95 1069.66 1099.97 1069.86 1099.98V1103.52C1069.74 1103.5 1069.47 1103.45 1069.05 1103.39C1068.64 1103.32 1068.2 1103.29 1067.74 1103.29C1066.64 1103.29 1065.65 1103.52 1064.79 1103.98C1063.93 1104.43 1063.25 1105.06 1062.75 1105.87C1062.26 1106.67 1062.01 1107.58 1062.01 1108.6V1122.93H1058.53ZM1077.23 1114.67L1077.17 1110.37H1077.88L1087.79 1100.28H1092.1L1081.54 1110.96H1081.24L1077.23 1114.67ZM1073.99 1122.93V1092.73H1077.47V1122.93H1073.99ZM1088.38 1122.93L1079.53 1111.72L1082.01 1109.31L1092.81 1122.93H1088.38ZM1099.11 1123.17C1098.39 1123.17 1097.76 1122.91 1097.24 1122.39C1096.72 1121.87 1096.46 1121.24 1096.46 1120.51C1096.46 1119.79 1096.72 1119.16 1097.24 1118.64C1097.76 1118.12 1098.39 1117.86 1099.11 1117.86C1099.84 1117.86 1100.47 1118.12 1100.99 1118.64C1101.51 1119.16 1101.77 1119.79 1101.77 1120.51C1101.77 1121 1101.65 1121.44 1101.4 1121.84C1101.16 1122.25 1100.84 1122.57 1100.44 1122.82C1100.05 1123.05 1099.61 1123.17 1099.11 1123.17Z" fill="white" fill-opacity="0.67"/>
<rect x="1243.8" y="1211.41" width="66.451" height="62.2978" rx="8.30637" fill="#34087B"/>
<path d="M1283.95 1228.01H1293.64V1237.71" stroke="white" stroke-width="3.32255" stroke-linecap="round" stroke-linejoin="round"/>
<path d="M1288.78 1244.17V1253.86C1288.78 1254.72 1288.44 1255.54 1287.84 1256.14C1287.23 1256.75 1286.41 1257.09 1285.55 1257.09H1267.78C1266.93 1257.09 1266.11 1256.75 1265.5 1256.14C1264.9 1255.54 1264.55 1254.72 1264.55 1253.86V1236.09C1264.55 1235.24 1264.9 1234.41 1265.5 1233.81C1266.11 1233.2 1266.93 1232.86 1267.78 1232.86H1277.48" stroke="white" stroke-width="3.32255" stroke-linecap="round" stroke-linejoin="round"/>
<path d="M1275.87 1245.78L1293.63 1228.01" stroke="white" stroke-width="3.32255" stroke-linecap="round" stroke-linejoin="round"/>
<rect x="1154.5" y="1211.41" width="62.2978" height="62.2978" rx="8.30637" fill="#34087B"/>
<path d="M1176.09 1249.62C1174.55 1249.62 1173.77 1249.62 1173.16 1249.36C1172.35 1249.03 1171.7 1248.38 1171.36 1247.57C1171.11 1246.96 1171.11 1246.18 1171.11 1244.63V1233.34C1171.11 1231.48 1171.11 1230.55 1171.47 1229.83C1171.79 1229.21 1172.3 1228.7 1172.92 1228.38C1173.63 1228.02 1174.56 1228.02 1176.43 1228.02H1187.72C1189.27 1228.02 1190.04 1228.02 1190.65 1228.27C1191.47 1228.61 1192.12 1229.26 1192.45 1230.07C1192.71 1230.68 1192.71 1231.46 1192.71 1233M1188.05 1261.25H1199.02C1200.88 1261.25 1201.81 1261.25 1202.52 1260.88C1203.15 1260.57 1203.65 1260.06 1203.97 1259.43C1204.33 1258.72 1204.33 1257.79 1204.33 1255.93V1244.97C1204.33 1243.1 1204.33 1242.17 1203.97 1241.46C1203.65 1240.84 1203.15 1240.33 1202.52 1240.01C1201.81 1239.65 1200.88 1239.65 1199.02 1239.65H1188.05C1186.19 1239.65 1185.26 1239.65 1184.55 1240.01C1183.93 1240.33 1183.42 1240.84 1183.1 1241.46C1182.74 1242.17 1182.74 1243.1 1182.74 1244.97V1255.93C1182.74 1257.79 1182.74 1258.72 1183.1 1259.43C1183.42 1260.06 1183.93 1260.57 1184.55 1260.88C1185.26 1261.25 1186.19 1261.25 1188.05 1261.25Z" stroke="white" stroke-width="3.32255" stroke-linecap="round" stroke-linejoin="round"/>
<path d="M602.591 372.126L608.758 388.792L625.424 394.959L608.758 401.126L602.591 417.793L596.424 401.126L579.758 394.959L596.424 388.792L602.591 372.126Z" fill="white"/>
<path d="M767.404 211.155L773.571 227.821L790.237 233.988L773.571 240.155L767.404 256.821L761.237 240.155L744.57 233.988L761.237 227.821L767.404 211.155Z" fill="white"/>
<path d="M726.1 318.599L730.729 331.109L743.24 335.738L730.729 340.367L726.1 352.877L721.471 340.367L708.961 335.738L721.471 331.109L726.1 318.599Z" fill="#FEB03C"/>
<path d="M924.607 394.958L930.774 411.625L947.44 417.792L930.774 423.959L924.607 440.625L918.44 423.959L901.773 417.792L918.44 411.625L924.607 394.958Z" fill="#FEB03C"/>
<path d="M845.595 336.875L848.651 345.133L856.91 348.189L848.651 351.245L845.595 359.503L842.54 351.245L834.281 348.189L842.54 345.133L845.595 336.875Z" fill="white"/>
<path d="M630.731 261.868L633.64 269.729L641.501 272.638L633.64 275.547L630.731 283.408L627.822 275.547L619.961 272.638L627.822 269.729L630.731 261.868Z" fill="white"/>
<path d="M901.669 260.377L904.577 268.239L912.439 271.148L904.577 274.056L901.669 281.918L898.76 274.056L890.898 271.148L898.76 268.239L901.669 260.377Z" fill="#FEB03C"/>
<path d="M624.326 575.146C624.326 575.146 666.35 596.766 697.078 594.409C727.805 592.052 733.854 603.607 733.854 603.607L715.038 678.839C713.354 685.576 706.526 689.671 699.79 687.986L614.406 666.632C607.67 664.947 603.574 658.12 605.259 651.384L624.326 575.146Z" fill="#0098EE"/>
<path d="M735.472 597.143L756.819 511.789C756.819 511.789 750.484 494.157 720.213 502.634C689.942 511.112 646.642 485.923 646.642 485.923L625.484 570.525C625.484 570.525 667.616 591.956 698.554 588.799C729.492 585.643 735.472 597.143 735.472 597.143Z" fill="#3EF7E0"/>
<path d="M758.344 505.689L771.647 452.496C774.718 440.215 763.056 432.221 734.324 446.982C705.593 461.743 660.968 428.636 660.968 428.636L647.991 480.525C647.991 480.525 690.814 505.789 720.981 497.488C751.148 489.187 758.344 505.689 758.344 505.689Z" fill="#FEB03C"/>
<path opacity="0.1" d="M783.662 404.422L673.883 376.966L662.235 423.54C662.235 423.54 703.773 458.166 734.957 442.628C766.141 427.091 775.058 438.826 773.61 444.614L778.636 424.518L783.662 404.422Z" fill="white"/>
<path opacity="0.5" d="M802.22 348.55L802.22 348.55C798.194 346.211 793.034 347.579 790.695 351.606L621.304 643.231C618.965 647.258 620.333 652.418 624.36 654.757C628.386 657.095 633.546 655.727 635.885 651.701L805.276 360.075C807.615 356.049 806.247 350.889 802.22 348.55Z" fill="white"/>
<circle cx="707.098" cy="640.059" r="1.57393" transform="rotate(14.0415 707.098 640.059)" fill="white" fill-opacity="0.5"/>
<circle cx="695.098" cy="668.106" r="1.57393" transform="rotate(14.0415 695.098 668.106)" fill="white" fill-opacity="0.5"/>
<circle cx="632.126" cy="595.841" r="1.34404" transform="rotate(14.0415 632.126 595.841)" fill="white" fill-opacity="0.5"/>
<circle cx="646.933" cy="556.838" r="1.9809" transform="rotate(14.0415 646.933 556.838)" fill="white" fill-opacity="0.6"/>
<circle cx="724.793" cy="571.416" r="1.57393" transform="rotate(14.0415 724.793 571.416)" fill="white" fill-opacity="0.6"/>
<circle cx="668.658" cy="534.423" r="1.19406" transform="rotate(14.0415 668.658 534.423)" fill="white" fill-opacity="0.6"/>
<circle cx="656.887" cy="505.769" r="1.57393" transform="rotate(14.0415 656.887 505.769)" fill="white" fill-opacity="0.6"/>
<circle cx="665.406" cy="473.334" r="1.18048" transform="rotate(14.0415 665.406 473.334)" fill="#FFF0CE"/>
<circle cx="677.956" cy="454.674" r="1.35641" transform="rotate(14.0415 677.956 454.674)" fill="white" fill-opacity="0.6"/>
<circle cx="696.061" cy="486.913" r="2.09155" transform="rotate(14.0415 696.061 486.913)" fill="white" fill-opacity="0.6"/>
<circle cx="759.356" cy="459.179" r="1.57393" transform="rotate(14.0415 759.356 459.179)" fill="white" fill-opacity="0.6"/>
<circle cx="710.403" cy="464.187" r="1.15477" transform="rotate(14.0415 710.403 464.187)" fill="white" fill-opacity="0.6"/>
<circle cx="749.726" cy="483.12" r="1.18048" transform="rotate(14.0415 749.726 483.12)" fill="white" fill-opacity="0.6"/>
<circle cx="737.96" cy="521.99" r="2.36097" transform="rotate(14.0415 737.96 521.99)" fill="white" fill-opacity="0.6"/>
<circle cx="715.575" cy="544.999" r="1.2625" transform="rotate(14.0415 715.575 544.999)" fill="white" fill-opacity="0.6"/>
<circle cx="680.49" cy="644.303" r="0.984983" transform="rotate(14.0415 680.49 644.303)" fill="white" fill-opacity="0.5"/>
<circle cx="651.021" cy="657.082" r="2.43502" transform="rotate(14.0415 651.021 657.082)" fill="white" fill-opacity="0.5"/>
<circle cx="668.947" cy="621.766" r="1.17319" transform="rotate(14.0415 668.947 621.766)" fill="white" fill-opacity="0.5"/>
<circle cx="702.051" cy="614.711" r="1.57393" transform="rotate(14.0415 702.051 614.711)" fill="white" fill-opacity="0.5"/>
<path d="M894.548 590.291C894.548 590.291 857.491 606.36 831.419 602.618C805.348 598.876 799.538 608.389 799.538 608.389L811.344 673.608C812.401 679.448 817.992 683.325 823.832 682.268L897.851 668.869C903.691 667.812 907.568 662.222 906.511 656.381L894.548 590.291Z" fill="#0098EE"/>
<path d="M798.521 602.785L785.128 528.792C785.128 528.792 791.524 514.112 816.862 523.048C842.199 531.983 880.545 512.943 880.545 512.943L893.82 586.284C893.82 586.284 856.682 602.186 830.476 597.75C804.27 593.314 798.521 602.785 798.521 602.785Z" fill="#3EF7E0"/>
<path d="M784.172 523.503L775.825 477.39C773.898 466.743 784.294 460.584 807.964 474.792C831.635 488.999 871.557 463.281 871.557 463.281L879.699 508.263C879.699 508.263 841.756 527.395 816.497 518.615C791.238 509.836 784.172 523.503 784.172 523.503Z" fill="#FEB03C"/>
<path opacity="0.1" d="M768.278 435.714L863.445 418.487L870.754 458.862C870.754 458.862 833.378 486.05 807.66 471.042C781.942 456.034 773.676 465.538 774.584 470.556L771.431 453.135L768.278 435.714Z" fill="white"/>
<path opacity="0.5" d="M755.606 387.021L755.606 387.021C759.172 385.254 763.495 386.711 765.263 390.277L893.282 648.524C895.05 652.089 893.592 656.413 890.027 658.18C886.461 659.948 882.138 658.49 880.37 654.925L752.351 396.678C750.583 393.112 752.041 388.789 755.606 387.021Z" fill="white"/>
<circle cx="1.34571" cy="1.34571" r="1.34571" transform="matrix(-0.984009 0.178116 0.178116 0.984009 821.375 639.422)" fill="white" fill-opacity="0.5"/>
<circle cx="1.34571" cy="1.34571" r="1.34571" transform="matrix(-0.984009 0.178116 0.178116 0.984009 830.039 664.015)" fill="white" fill-opacity="0.5"/>
<circle cx="1.14915" cy="1.14915" r="1.14915" transform="matrix(-0.984009 0.178116 0.178116 0.984009 887.648 606.163)" fill="white" fill-opacity="0.5"/>
<circle cx="1.69367" cy="1.69367" r="1.69367" transform="matrix(-0.984009 0.178116 0.178116 0.984009 877.656 571.435)" fill="white" fill-opacity="0.6"/>
<circle cx="1.34571" cy="1.34571" r="1.34571" transform="matrix(-0.984009 0.178116 0.178116 0.984009 810.164 579.883)" fill="white" fill-opacity="0.6"/>
<circle cx="1.02092" cy="1.02092" r="1.02092" transform="matrix(-0.984009 0.178116 0.178116 0.984009 859.859 551.875)" fill="white" fill-opacity="0.6"/>
<circle cx="1.34571" cy="1.34571" r="1.34571" transform="matrix(-0.984009 0.178116 0.178116 0.984009 871.773 527.727)" fill="white" fill-opacity="0.6"/>
<circle cx="1.00931" cy="1.00931" r="1.00931" transform="matrix(-0.984009 0.178116 0.178116 0.984009 866.07 499.976)" fill="#FFF0CE"/>
<circle cx="1.15973" cy="1.15973" r="1.15973" transform="matrix(-0.984009 0.178116 0.178116 0.984009 856.539 483.182)" fill="white" fill-opacity="0.6"/>
<circle cx="1.78827" cy="1.78827" r="1.78827" transform="matrix(-0.984009 0.178116 0.178116 0.984009 839.789 508.924)" fill="white" fill-opacity="0.6"/>
<circle cx="1.34571" cy="1.34571" r="1.34571" transform="matrix(-0.984009 0.178116 0.178116 0.984009 787.008 482.22)" fill="white" fill-opacity="0.6"/>
<circle cx="0.987329" cy="0.987329" r="0.987329" transform="matrix(-0.984009 0.178116 0.178116 0.984009 828.188 489.664)" fill="white" fill-opacity="0.6"/>
<circle cx="1.00931" cy="1.00931" r="1.00931" transform="matrix(-0.984009 0.178116 0.178116 0.984009 793.609 503.57)" fill="white" fill-opacity="0.6"/>
<circle cx="2.01862" cy="2.01862" r="2.01862" transform="matrix(-0.984009 0.178116 0.178116 0.984009 802.25 536.207)" fill="white" fill-opacity="0.6"/>
<circle cx="1.07943" cy="1.07943" r="1.07943" transform="matrix(-0.984009 0.178116 0.178116 0.984009 819.297 558.182)" fill="white" fill-opacity="0.6"/>
<circle cx="0.842158" cy="0.842158" r="0.842158" transform="matrix(-0.984009 0.178116 0.178116 0.984009 843.43 645.124)" fill="white" fill-opacity="0.5"/>
<circle cx="2.08194" cy="2.08194" r="2.08194" transform="matrix(-0.984009 0.178116 0.178116 0.984009 868.852 656.241)" fill="white" fill-opacity="0.5"/>
<circle cx="1.00308" cy="1.00308" r="1.00308" transform="matrix(-0.984009 0.178116 0.178116 0.984009 854.68 626.367)" fill="white" fill-opacity="0.5"/>
<circle cx="1.34571" cy="1.34571" r="1.34571" transform="matrix(-0.984009 0.178116 0.178116 0.984009 827.117 618.087)" fill="white" fill-opacity="0.5"/>
<path d="M769.974 411.981L776.347 429.206L793.572 435.58L776.347 441.954L769.974 459.179L763.6 441.954L746.375 435.58L763.6 429.206L769.974 411.981Z" fill="white"/>
</svg>
