<svg width="1540" height="1077" viewBox="0 0 1540 1077" fill="none" xmlns="http://www.w3.org/2000/svg">
<rect x="0.125" y="0.841797" width="1539" height="1076" fill="white"/>
<path d="M303.512 243.044C303.512 243.044 314.956 252.388 314.821 255.646C314.58 261.468 304.98 268.124 304.98 268.124C304.98 268.124 314.465 277.455 314.239 280.209C313.906 284.348 303.575 289.278 303.575 289.278C303.575 289.278 312.136 297.611 311.991 300.812C311.843 304.032 300.341 311.593 300.341 311.593C300.341 311.593 311.214 318.991 311.483 322.104C311.669 324.288 300.859 331.899 300.859 331.899C300.859 331.899 311.315 339.758 311.452 341.921C311.749 346.698 300.33 351.844 300.33 351.844C300.33 351.844 312.243 358.211 312.469 360.486C312.793 363.769 305.27 374.016 305.27 374.016C305.27 374.016 316.872 373.821 318.303 375.63C320.629 378.572 316.193 394.125 316.193 394.125C316.193 394.125 326.194 384.498 329.848 385.188C332.714 385.725 336.906 399.328 336.906 399.328C336.906 399.328 341.237 384.715 344.122 383.45C345.9 382.672 357.281 391.891 357.281 391.891C357.281 391.891 357.949 377.774 360.011 376.374C361.986 375.037 375.032 377.864 375.032 377.864C375.032 377.864 374.429 367.744 376.025 366.444C378.003 364.834 387.073 367.065 387.073 367.065C387.073 367.065 386.544 355.49 388.811 353.908C390.775 352.534 399.361 356.514 399.361 356.514L376.273 388.416L333.821 407.408L303.781 399.836L291.492 380.968L294.098 263.168L299.56 252.244L303.512 243.044Z" fill="#34A13C"/>
<path d="M276.472 495.05C362.229 495.05 431.749 480.704 431.749 463.007C431.749 445.311 362.229 430.965 276.472 430.965C190.715 430.965 121.195 445.311 121.195 463.007C121.195 480.704 190.715 495.05 276.472 495.05Z" fill="#EAEAEA"/>
<path d="M260.623 429.415C261.18 439.809 262.887 459.084 262.291 460.597C261.373 462.219 251.525 468.521 246.143 472.483C244.78 473.29 243.464 472.668 243.85 470.191L244.518 466.782L235.292 469.754C231.421 470.57 230.543 466.534 232.323 465.051L238.031 460.349L233.106 460.252C228.258 460.155 230.021 456.694 232.271 455.825L243.894 451.868L243.143 423.649L260.073 423.76L260.623 429.415Z" fill="#71B41F"/>
<path d="M230.666 307.15C230.666 307.15 187.869 298.945 186.805 298.44C185.266 297.834 181.844 294.175 180.89 292.18C179.169 288.582 180.623 282.747 178.659 281.522C175.234 279.405 172.787 281.031 172.228 285.976C171.732 290.004 172.552 290.735 171.852 294.601L166.304 293.45C157.896 291.086 156.677 298.465 160.849 301C156.997 301.043 155.405 305.653 160.012 307.711C156.351 307.974 155.677 313.195 159.846 314.441C165.407 316.777 175.935 317.177 182.391 318.38L196.476 324.174L203.12 327.193L247.191 324.615L230.666 307.15Z" fill="#71B41F"/>
<path d="M200.603 256.75L204.308 257.866L200.934 273.523L198.49 284.905L198.22 286.184C197.202 293.196 196.588 295.577 194.741 308.349C194.482 310.169 194.741 309.073 194.398 311.507C194.249 313.416 194.156 316.256 194.1 318.566C193.98 322.885 193.804 327.045 193.831 331.765C193.831 335.023 193.511 337.443 193.641 340.875C193.738 343.488 193.634 345.902 193.859 348.585C194.054 351.421 193.956 354.026 194.276 356.92C194.887 362.273 195.719 367.687 196.897 373.041C197.554 376.016 197.952 379.035 198.823 381.945C201 389.227 203.794 396.282 207.598 402.672C209.581 406.004 211.666 409.272 214.174 412.214C215.718 414.026 217.311 415.796 219.071 417.429C222.226 418.676 225.532 419.552 228.862 419.805C232.318 420.065 235.782 419.709 239.089 418.612C240.742 418.055 242.354 417.317 243.905 416.364C245.457 415.412 246.951 414.246 248.357 412.857C250.906 410.339 253.154 407.042 255.024 402.898C256.528 399.562 257.849 395.835 258.767 391.31C258.952 390.401 259.184 389.593 259.342 388.635L259.573 387.169C259.75 385.154 259.833 383.437 259.963 381.562C260.269 377.138 260.579 372.739 260.897 368.335C261.11 365.297 261.352 362.155 261.537 359.206C261.806 354.822 262.287 349.894 262.49 345.638C262.713 340.961 262.763 336.36 262.865 331.769C262.962 327.239 263.236 322.615 263.236 318.082C263.236 314.12 263.14 310.053 263.042 306.025C262.828 299.255 262.574 292.463 262.027 285.288C261.683 280.779 261.192 275.991 260.694 271.218C260.388 268.306 260.258 264.486 259.767 260.095C254.801 260.726 250.018 261.208 245.289 261.484C240.56 261.762 235.877 261.828 231.103 261.623C226.33 261.42 221.47 260.955 216.372 260.148C211.39 259.359 206.16 258.234 200.603 256.75Z" fill="#D3D95D"/>
<path d="M248.352 412.857C250.901 410.339 253.149 407.042 255.019 402.898L207.594 402.675C209.576 406.007 211.661 409.275 214.169 412.217L248.352 412.857Z" fill="#EFECC3"/>
<path d="M258.754 391.311C258.94 390.402 259.176 389.595 259.334 388.637L259.566 387.171C259.743 385.156 259.825 383.439 259.956 381.564L196.883 373.043C197.541 376.017 197.945 379.037 198.815 381.947L258.754 391.311Z" fill="#EFECC3"/>
<path d="M260.901 368.337C261.114 365.299 261.36 362.157 261.546 359.208L193.867 348.588C194.062 351.424 193.964 354.029 194.284 356.922L260.901 368.337Z" fill="#EFECC3"/>
<path d="M262.49 345.64C262.712 340.962 262.767 336.362 262.87 331.771L193.826 331.767C193.826 335.025 193.511 337.445 193.641 340.877L262.49 345.64Z" fill="#EFECC3"/>
<path d="M263.221 318.082C263.221 314.121 263.129 310.053 263.031 306.025L194.726 308.349C194.466 310.169 194.726 309.128 194.373 311.566C194.253 313.543 194.142 316.256 194.086 318.566L263.221 318.082Z" fill="#EFECC3"/>
<path d="M262.01 285.291C261.666 280.782 261.175 275.994 260.677 271.221L200.926 273.526L198.477 284.908L262.01 285.291Z" fill="#EFECC3"/>
<path d="M244.979 178.893C237.347 177.661 228.913 184.745 227.573 190.654C224.859 201.684 225.942 201.468 225.216 210.897C217.919 210.897 211.6 211.388 202.308 211.249C194.832 206.102 184.317 186.923 174.043 203.438C166.243 188.256 158.833 200.328 158.242 205.368C156.639 216.249 154.65 226.886 167.156 230.711C167.156 230.709 167.253 230.709 167.253 230.711C167.253 230.713 167.35 230.716 167.35 230.72C172.292 231.304 177.446 232.258 182.715 233.423C187.984 234.589 193.367 235.965 198.764 237.377C209.56 240.201 220.415 243.174 230.528 244.954C235.586 245.844 240.453 246.433 245.026 246.564C249.597 246.694 253.871 246.369 257.749 245.428C259.687 244.956 261.532 244.336 263.265 243.545C264.998 242.757 266.62 241.789 268.129 240.631C269.638 239.473 271.03 238.12 272.299 236.548C273.567 234.976 274.711 233.184 275.72 231.151C275.718 231.119 275.718 231.087 275.72 231.054C275.72 231.022 275.817 230.99 275.817 230.958C275.817 230.925 275.914 230.893 275.914 230.861C275.914 230.828 276.011 230.796 276.011 230.764C276.011 230.731 276.108 230.699 276.108 230.667C276.108 230.635 276.205 230.602 276.205 230.57C276.205 230.538 276.302 230.505 276.302 230.473C276.302 230.471 276.398 230.471 276.398 230.473C276.398 230.471 276.495 230.471 276.495 230.473C276.495 230.471 276.592 230.471 276.592 230.473C276.592 230.471 276.694 230.471 276.694 230.473C276.694 230.471 276.791 230.471 276.791 230.473C276.791 230.471 276.888 230.471 276.888 230.473C276.888 230.471 276.985 230.471 276.985 230.473C276.985 230.471 277.082 230.471 277.082 230.473C277.082 230.471 277.179 230.471 277.179 230.473C277.179 230.471 277.276 230.471 277.276 230.473C277.276 230.505 277.373 230.527 277.373 230.57C277.373 230.602 277.469 230.624 277.469 230.667C277.469 230.699 277.566 230.721 277.566 230.764C277.566 230.796 277.663 230.818 277.663 230.861C277.663 230.893 277.76 230.915 277.76 230.958C277.762 230.99 277.762 231.022 277.76 231.054C277.762 231.087 277.762 231.119 277.76 231.151C277.762 231.184 277.762 231.216 277.76 231.248C277.762 231.281 277.762 231.313 277.76 231.345C277.762 231.378 277.762 231.41 277.76 231.442C277.76 231.474 277.758 231.507 277.755 231.539C277.753 231.571 277.75 231.604 277.746 231.636C277.748 231.668 277.748 231.701 277.746 231.733C277.748 231.765 277.748 231.798 277.746 231.83C277.748 231.862 277.748 231.894 277.746 231.927C276.68 234.072 275.464 235.972 274.104 237.649C272.744 239.325 271.243 240.779 269.623 242.024C268.002 243.27 266.258 244.311 264.408 245.163C262.56 246.016 260.61 246.68 258.567 247.176C254.482 248.169 250.045 248.51 245.35 248.379C240.654 248.248 235.702 247.637 230.584 246.74C220.347 244.939 209.433 241.957 198.652 239.139C193.263 237.73 187.903 236.359 182.679 235.2C177.531 234.058 172.52 233.133 167.727 232.559C167.932 240.655 170.551 246.315 175.86 249.299L200.598 256.78C206.155 258.263 211.384 259.395 216.365 260.182C221.463 260.989 226.324 261.457 231.097 261.659C235.87 261.862 240.553 261.789 245.282 261.51C250.012 261.232 254.79 260.75 259.756 260.12C260.247 264.512 260.377 268.332 260.685 271.244C261.186 276.016 261.675 280.805 262.018 285.314C262.565 292.489 262.824 299.281 263.039 306.05C263.169 310.079 263.215 314.145 263.233 318.108C263.233 322.64 262.959 327.265 262.858 331.795C262.761 336.386 262.701 340.986 262.478 345.664C262.273 349.92 261.806 354.847 261.534 359.231C261.349 362.181 261.108 365.322 260.895 368.361C260.579 372.764 260.268 377.164 259.96 381.588C259.83 383.462 259.747 385.18 259.57 387.195L259.339 388.661C259.182 389.618 258.949 390.429 258.764 391.335C257.845 395.861 256.525 399.587 255.021 402.923C253.152 407.064 250.898 410.366 248.349 412.882C246.942 414.272 245.449 415.438 243.898 416.39C242.346 417.342 240.734 418.084 239.081 418.638C235.775 419.744 232.315 420.093 228.859 419.831C225.529 419.581 222.218 418.702 219.063 417.454C225.457 423.382 233.27 428.096 242.901 430.944C257.88 435.602 272.795 440.039 288.193 440.007C341.544 439.896 359.76 428.11 376.809 416.227C405.082 395.384 421.758 348.569 415.129 345.841C400.594 339.882 320.309 461.28 301.373 356.375C294.16 305.816 321.423 217.026 290.973 187.238C285.657 183.089 275.925 180.56 270.846 192.768C268.203 202.685 267.027 200.201 259.852 199.971C258.439 199.841 258.242 196.683 257.043 191.154C255.177 185.533 250.53 179.801 245.412 178.846L244.979 178.893Z" fill="#A2CB41"/>
<path d="M282.198 217.833C276.284 217.833 271.489 211.31 271.489 203.263C271.489 195.216 276.284 188.692 282.198 188.692C288.112 188.692 292.906 195.216 292.906 203.263C292.906 211.31 288.112 217.833 282.198 217.833Z" fill="white"/>
<path d="M281.803 210.245C278.853 210.554 276.121 207.55 275.702 203.536C275.282 199.522 277.333 196.017 280.283 195.709C283.233 195.4 285.965 198.404 286.385 202.419C286.805 206.433 284.753 209.937 281.803 210.245Z" fill="black"/>
<path d="M242.284 213.517C236.37 213.517 231.575 206.993 231.575 198.946C231.575 190.899 236.37 184.376 242.284 184.376C248.198 184.376 252.992 190.899 252.992 198.946C252.992 206.993 248.198 213.517 242.284 213.517Z" fill="white"/>
<path d="M243.391 206.875C240.432 207.067 237.82 203.958 237.559 199.93C237.298 195.903 239.485 192.482 242.445 192.29C245.405 192.098 248.017 195.207 248.278 199.235C248.539 203.262 246.351 206.683 243.391 206.875Z" fill="black"/>
<path d="M182.55 207.765C183.816 207.765 184.842 206.286 184.842 204.462C184.842 202.637 183.816 201.158 182.55 201.158C181.284 201.158 180.258 202.637 180.258 204.462C180.258 206.286 181.284 207.765 182.55 207.765Z" fill="black"/>
<path d="M274.271 236.111C274.828 236.863 275.426 237.534 275.753 238.002C281.127 245.697 273.305 244.999 270.931 241.902C270.587 241.447 269.977 240.564 269.806 240.131L269.054 240.335C272.842 259.406 262.507 254.015 260.815 248.879C260.462 247.826 259.398 243.832 259.264 243.019L255.2 245.371C256.53 259.588 249.23 256.263 247.755 249.249C247.57 248.396 247.542 246.925 247.57 246L238.09 245.602C238.187 247.476 238.442 250.322 238.187 251.622C237.018 257.445 231.917 256.012 231.506 251.307C231.395 250.103 230.968 246.537 231.107 245.107L221.605 242.926C221.346 244.823 220.817 247.292 220.455 248.578C219.234 252.88 214.835 252.5 214.385 248.021C214.228 246.419 214.71 243.625 215.118 241.624L205.648 239.313L205.351 242.753C204.72 249.711 197.457 248.898 198.197 242.85L198.541 237.294L190.186 235.541L188.529 240.181C187.439 243.313 182.232 245.904 182.594 238.306L183.011 233.318L179.82 232.659L178.543 237.212C176.952 242.726 171.323 243.765 171.125 235.533L171.579 230.272L173.355 225.128L268.108 223.096L274.271 236.111Z" fill="white"/>
<path d="M167.672 230.268C216.229 242.951 263.436 259.135 276.266 232.901L272.084 217.255L174.798 222.521L167.672 230.268Z" fill="#A2CB41"/>
<path d="M167.307 232.602C172.099 233.177 177.11 234.1 182.259 235.243C187.483 236.401 192.842 237.773 198.232 239.181C209.013 242 219.926 244.981 230.164 246.782C235.282 247.681 240.234 248.29 244.929 248.421C249.625 248.551 254.061 248.208 258.146 247.218C260.189 246.726 262.14 246.058 263.988 245.206C265.837 244.353 267.582 243.313 269.203 242.066C270.823 240.821 272.323 239.368 273.684 237.691C275.043 236.014 276.26 234.114 277.326 231.969C277.327 231.937 277.327 231.904 277.326 231.872C277.327 231.84 277.327 231.808 277.326 231.775C277.327 231.743 277.327 231.711 277.326 231.678C277.327 231.646 277.327 231.614 277.326 231.582C277.329 231.549 277.331 231.517 277.33 231.485C277.332 231.452 277.332 231.42 277.33 231.388C277.332 231.355 277.332 231.323 277.33 231.291C277.332 231.258 277.332 231.226 277.33 231.194C277.332 231.162 277.332 231.129 277.33 231.097C277.332 231.065 277.332 231.032 277.33 231C277.301 230.965 277.268 230.933 277.234 230.903C277.204 230.868 277.171 230.836 277.137 230.806C277.107 230.771 277.074 230.739 277.04 230.709C277.01 230.675 276.977 230.642 276.943 230.612C276.913 230.578 276.88 230.545 276.846 230.515C276.813 230.514 276.781 230.514 276.749 230.515C276.717 230.514 276.684 230.514 276.652 230.515C276.62 230.514 276.587 230.514 276.555 230.515C276.523 230.514 276.49 230.514 276.458 230.515C276.426 230.511 276.394 230.508 276.361 230.506C276.329 230.504 276.297 230.504 276.264 230.506C276.232 230.508 276.2 230.511 276.167 230.515C276.135 230.514 276.098 230.514 276.066 230.515C276.033 230.514 276.001 230.514 275.969 230.515C275.937 230.514 275.904 230.514 275.872 230.515C275.837 230.545 275.805 230.578 275.775 230.612C275.74 230.642 275.708 230.675 275.678 230.709C275.643 230.739 275.611 230.771 275.581 230.806C275.546 230.836 275.514 230.868 275.484 230.903C275.449 230.933 275.417 230.965 275.387 231C275.353 231.03 275.32 231.062 275.29 231.097C275.289 231.129 275.289 231.162 275.29 231.194C274.281 233.227 273.137 235.018 271.869 236.59C270.6 238.162 269.208 239.515 267.7 240.674C266.191 241.832 264.568 242.796 262.836 243.587C261.102 244.376 259.258 245 257.32 245.471C253.441 246.413 249.168 246.738 244.596 246.606C240.023 246.476 235.156 245.882 230.098 244.996C219.985 243.216 209.13 240.243 198.334 237.419C192.937 236.008 187.555 234.632 182.285 233.466C177.016 232.3 171.862 231.345 166.92 230.763C166.888 230.758 166.856 230.755 166.823 230.753C166.791 230.752 166.759 230.752 166.727 230.753C166.727 231.431 166.823 231.976 166.837 232.622L167.307 232.602Z" fill="black"/>
<path d="M305.802 433.447C306.154 444.55 307.292 464.544 305.802 466.754C303.446 469.638 293.932 474.464 287.427 478.642C283.029 481.151 282.602 478.011 283.48 476.178L284.583 473.945L276.037 474.987C273.223 475.563 269.392 473.755 273.003 470.486L278.623 465.955H271.936C268.894 465.955 268.187 462.472 271.677 461.32L285.515 458.217L285.933 410.044L303.215 421.978L305.802 433.447Z" fill="#A2CB41"/>
<path d="M165.318 206.284C166.434 206.284 167.339 204.98 167.339 203.372C167.339 201.763 166.434 200.459 165.318 200.459C164.202 200.459 163.297 201.763 163.297 203.372C163.297 204.98 164.202 206.284 165.318 206.284Z" fill="black"/>
<path d="M284.403 301.126C284.403 301.126 245.496 324.353 243.937 324.225C243.103 324.725 232.26 323.059 228.582 322.781C224.166 322.272 221.484 327.407 227.201 329.568L235.593 332.647L226.854 333.98C219.209 335.48 220.228 342.579 226.964 341.673L235.223 340.099L228.356 346.294C225.863 348.597 226.376 354.291 231.929 351.963L241.304 348.297L236.567 353.775C233.089 357.891 238.526 361.225 242.272 357.999L262.777 340.037L292.134 328.424L284.403 301.126Z" fill="#A2CB41"/>
<path d="M970.554 237.051C970.554 237.051 979.367 242.295 979.71 246.721C980.153 252.385 970.04 260.755 970.04 260.755C970.04 260.755 979.051 264.706 979.368 268.799C979.793 274.287 968.672 281.379 968.672 281.379C968.672 281.379 977.018 289.503 976.877 292.624C976.732 295.764 965.518 303.135 965.518 303.135C965.518 303.135 976.119 310.348 976.381 313.383C976.562 315.512 966.023 322.933 966.023 322.933C966.023 322.933 976.218 330.594 976.351 332.704C976.64 337.361 965.507 342.378 965.507 342.378C965.507 342.378 977.122 348.585 977.342 350.803C977.659 354.004 970.323 363.994 970.323 363.994C970.323 363.994 981.635 363.803 983.03 365.568C985.298 368.436 980.973 383.6 980.973 383.6C980.973 383.6 990.724 374.214 994.286 374.886C997.08 375.413 1001.17 388.672 1001.17 388.672C1001.17 388.672 1005.39 374.425 1008.2 373.192C1009.94 372.433 1021.03 381.422 1021.03 381.422C1021.03 381.422 1021.68 367.658 1023.69 366.294C1025.62 364.99 1038.34 367.746 1038.34 367.746C1038.34 367.746 1037.75 357.88 1039.31 356.612C1041.23 355.043 1050.08 357.217 1050.08 357.217C1050.08 357.217 1049.56 345.932 1051.77 344.389C1053.69 343.05 1062.06 346.93 1062.06 346.93L1039.55 378.033L998.159 396.549L968.871 389.167L956.891 370.771L959.431 255.923L964.757 245.273L970.554 237.051Z" fill="#34A13C"/>
<path d="M912.348 286.447C912.348 286.447 856.959 299.537 855.778 299.143C855.036 299.373 844.986 295.922 842.737 295.201C839.777 293.76 835.656 296.172 839.479 299.444L847.62 304.698L836.759 303.631C829.768 303.137 831.924 309.765 837.021 309.67L845.519 310.212L838.166 314.282C836.082 315.39 835.635 319.495 839.611 319.009L848.669 317.696L843.312 320.955C839.847 323.479 844.081 327.162 847.587 325.377L870.728 315.858L900.395 307.335L912.348 286.447Z" fill="#71B41F"/>
<path d="M936.757 489.086C1029.61 489.086 1104.89 474.742 1104.89 457.047C1104.89 439.353 1029.61 425.009 936.757 425.009C843.9 425.009 768.625 439.353 768.625 457.047C768.625 474.742 843.9 489.086 936.757 489.086Z" fill="#EAEAEA"/>
<path d="M911.752 414.863L900.352 443.091L881.182 446.922C879.634 446.815 878.854 445.985 880.103 443.951L882.101 441.216L872.726 440.031C868.505 438.999 868.887 435.102 872.045 434.652L879.028 432.856L874.717 430.737C870.078 428.488 873.588 426.008 875.808 426.482L887.707 427.787L898.695 402.554L913.6 409.645L911.752 414.863Z" fill="#71B41F"/>
<path d="M867.857 249.736L871.469 250.825L868.179 266.09L865.792 277.186L865.53 278.434C864.537 285.27 863.939 287.592 862.138 300.043C861.885 301.817 861.987 300.75 861.662 303.122C861.454 304.956 861.57 307.752 861.516 310.005C861.399 314.215 861.228 318.271 861.255 322.872C861.255 326.048 860.951 328.408 861.078 331.754C861.178 334.301 861.076 336.655 861.293 339.272C861.482 342.037 861.384 344.576 861.7 347.397C862.297 352.616 863.098 357.894 864.246 363.115C864.888 366.014 865.28 368.958 866.129 371.796C868.251 378.895 870.97 385.774 874.679 392.004C876.612 395.252 878.645 398.438 881.09 401.306C882.595 403.073 884.149 404.798 885.865 406.39C888.941 407.606 892.164 408.461 895.41 408.707C898.779 408.963 902.158 408.626 905.381 407.544C906.993 407.004 908.564 406.281 910.077 405.352C911.589 404.424 913.046 403.287 914.417 401.932C916.903 399.477 919.094 396.263 920.917 392.223C922.383 388.97 923.67 385.338 924.566 380.926C924.747 380.041 924.973 379.252 925.126 378.318L925.351 376.889C925.524 374.924 925.608 373.25 925.735 371.422C926.033 367.109 926.332 362.82 926.641 358.527C926.849 355.564 927.087 352.501 927.268 349.626C927.53 345.352 928 340.548 928.197 336.398C928.415 331.838 928.467 327.353 928.566 322.877C928.664 318.46 928.926 313.952 928.926 309.533C928.926 305.669 928.835 301.704 928.734 297.777C928.527 291.178 928.272 284.556 927.739 277.56C927.405 273.164 926.926 268.495 926.44 263.842C926.142 261.003 926.017 257.279 925.539 252.998C920.697 253.611 916.035 254.083 911.424 254.353C906.814 254.623 902.248 254.688 897.594 254.494C892.94 254.297 888.202 253.84 883.231 253.055C878.374 252.287 873.275 251.183 867.857 249.736Z" fill="#D3D95D"/>
<path d="M914.402 401.934C916.887 399.479 919.079 396.265 920.901 392.225L874.664 392.005C876.598 395.253 878.63 398.439 881.075 401.307L914.402 401.934Z" fill="#EFECC3"/>
<path d="M924.55 380.926C924.729 380.042 924.956 379.252 925.11 378.319L925.34 376.889C925.513 374.925 925.592 373.251 925.719 371.423L864.227 363.115C864.865 366.015 865.261 368.959 866.11 371.796L924.55 380.926Z" fill="#EFECC3"/>
<path d="M926.635 358.528C926.843 355.566 927.075 352.503 927.256 349.627L861.273 339.273C861.465 342.038 861.364 344.577 861.685 347.399L926.635 358.528Z" fill="#EFECC3"/>
<path d="M928.187 336.398C928.405 331.838 928.457 327.353 928.556 322.877L861.242 322.872C861.269 326.048 860.933 328.408 861.06 331.754L928.187 336.398Z" fill="#EFECC3"/>
<path d="M928.913 309.533C928.886 305.67 928.849 301.705 928.721 297.777L862.127 300.043C861.87 301.817 861.974 300.75 861.646 303.122C861.435 304.956 861.564 307.753 861.5 310.005L928.913 309.533Z" fill="#EFECC3"/>
<path d="M927.722 277.562C927.388 273.166 926.912 268.497 926.423 263.844L868.169 266.091L865.781 277.188L927.722 277.562Z" fill="#EFECC3"/>
<path d="M912.079 172.425C904.638 171.225 896.15 177.808 894.843 183.569C892.197 194.322 892.986 195.771 892.278 204.963C885.164 204.936 879.003 205.441 869.944 205.304C862.655 200.286 852.404 181.587 842.387 197.688C834.782 182.888 827.558 194.227 826.982 199.141C825.416 209.765 823.46 220.587 835.715 224.302C835.497 233.251 838.167 239.303 843.756 242.444L867.874 249.738C873.291 251.184 878.39 252.287 883.246 253.055C888.217 253.841 892.956 254.298 897.609 254.494C902.262 254.69 906.829 254.623 911.439 254.353C916.049 254.083 920.708 253.611 925.549 252.998C926.029 257.28 926.152 261.004 926.452 263.842C926.94 268.496 927.416 273.165 927.75 277.561C928.284 284.556 928.539 291.178 928.746 297.778C928.872 301.705 928.92 305.67 928.937 309.533C928.937 313.952 928.677 318.461 928.577 322.877C928.477 327.353 928.425 331.838 928.209 336.399C928.01 340.548 927.539 345.352 927.279 349.626C927.097 352.502 926.866 355.565 926.658 358.527C926.35 362.82 926.051 367.109 925.751 371.423C925.625 373.251 925.545 374.924 925.373 376.889L925.143 378.319C924.99 379.252 924.763 380.042 924.582 380.926C923.687 385.338 922.4 388.971 920.933 392.224C919.111 396.261 916.923 399.479 914.439 401.933C913.067 403.288 911.611 404.424 910.098 405.353C908.585 406.282 907.014 407.005 905.402 407.544C902.179 408.623 898.801 408.964 895.432 408.708C892.187 408.461 888.962 407.607 885.886 406.39C892.119 412.17 899.737 416.766 909.126 419.543C923.73 424.083 938.272 428.41 953.284 428.378C1005.3 428.268 1023.06 416.779 1039.68 405.194C1067.24 384.873 1083.5 339.231 1077.04 336.572C1062.86 330.761 984.59 449.118 966.129 346.842C959.096 297.549 987.545 210.294 956.377 181.675C951.195 177.63 941.318 175.431 936.366 187.333C933.79 197.002 931.148 194.58 924.152 194.356C923.577 190.7 923.756 190.239 922.587 184.848C920.649 176.666 916.563 173.145 912.098 172.424L912.079 172.425Z" fill="#A2CB41"/>
<path d="M948.13 212.92C942.364 212.92 937.69 206.56 937.69 198.714C937.69 190.869 942.364 184.509 948.13 184.509C953.896 184.509 958.57 190.869 958.57 198.714C958.57 206.56 953.896 212.92 948.13 212.92Z" fill="white"/>
<path d="M945.209 207.813C942.317 207.813 939.973 204.623 939.973 200.688C939.973 196.753 942.317 193.563 945.209 193.563C948.101 193.563 950.445 196.753 950.445 200.688C950.445 204.623 948.101 207.813 945.209 207.813Z" fill="black"/>
<path d="M908.904 206.018C903.138 206.018 898.464 199.658 898.464 191.813C898.464 183.967 903.138 177.607 908.904 177.607C914.67 177.607 919.344 183.967 919.344 191.813C919.344 199.658 914.67 206.018 908.904 206.018Z" fill="white"/>
<path d="M906.623 201.727C903.731 201.727 901.387 198.537 901.387 194.602C901.387 190.667 903.731 187.478 906.623 187.478C909.515 187.478 911.859 190.667 911.859 194.602C911.859 198.537 909.515 201.727 906.623 201.727Z" fill="black"/>
<path d="M940.681 229.385C947.321 244.479 937.215 237.235 935.73 233.461L934.997 233.663C938.69 252.257 928.614 246.999 926.964 241.993C926.621 240.966 925.583 237.072 925.452 236.28L921.49 236.629C922.787 250.49 915.669 247.247 914.232 240.41C914.051 239.573 914.024 238.143 914.051 237.242L904.809 237.826C904.908 239.653 905.152 242.428 904.899 243.695C903.759 249.373 898.786 247.974 898.385 243.39C898.276 242.216 897.861 238.741 897.996 237.347L888.732 236.192C888.479 238.041 887.964 240.448 887.611 241.701C886.42 245.896 882.132 245.526 881.693 241.159C881.54 239.597 882.01 236.873 882.408 234.922L873.175 232.669L872.814 236.771C872.199 243.554 864.969 242.313 865.69 236.379L866.251 230.663L858.105 228.954L857.282 234.713C856.396 238.13 849.875 240.168 850.44 231.809L851.109 226.787L847.998 226.142L847.329 232.174C846.47 238.824 837.681 239.213 839.09 229.371L839.958 223.815L841.689 218.8L934.068 216.818L940.681 229.385Z" fill="white"/>
<path d="M836.148 223.844C883.083 235.543 928.437 250.227 942.022 226.411L937.945 211.157L843.096 216.292L836.148 223.844Z" fill="#A2CB41"/>
<path d="M925.599 237.87C927.23 234.893 927.88 232.718 928.186 230.17C928.927 217.807 918.797 222.844 916.738 229.53C914.886 236.217 913.083 239.964 913.29 239.337C917.86 238.671 921.883 240.362 925.599 237.87Z" fill="#ED1B24"/>
<path d="M835.672 224.299C873.878 228.796 926.046 256.807 942.23 224.218" stroke="black" stroke-width="0.566929" stroke-linecap="round"/>
<path d="M970.834 421.939V454.411L951.809 466.636C948.606 468.184 947.674 465.518 949.071 463.598L950.146 461.422L941.815 462.438C938.807 462.705 934.702 462.954 938.275 458.604L944.335 453.632L937.817 453.65C934.851 453.668 934.161 450.254 937.563 449.131L951.055 446.105L951.462 399.14L968.312 410.774L970.834 421.939Z" fill="#A2CB41"/>
<path d="M925.118 378.319L925.344 376.889C925.344 377.079 925.344 377.228 925.254 377.421C925.163 377.749 925.118 377.997 925.055 378.318L925.118 378.319Z" fill="#D2D75F"/>
<path d="M937.886 222.662C947.521 227.056 959.903 220.597 965.542 208.234C971.18 195.871 967.941 182.286 958.305 177.892C948.67 173.497 936.288 179.957 930.65 192.32C925.011 204.683 928.251 218.267 937.886 222.662Z" fill="#B3F3FF" fill-opacity="0.586735" stroke="black" stroke-width="2" stroke-linecap="round" stroke-linejoin="round"/>
<path d="M945.662 193.693C948.397 194.941 951.889 193.156 953.462 189.708C955.035 186.259 954.093 182.452 951.358 181.205C948.623 179.958 945.131 181.742 943.558 185.191C941.985 188.639 942.927 192.446 945.662 193.693Z" fill="white"/>
<path d="M933.699 222.889L890.799 287.547C886.379 295.332 901.265 302.704 904.747 294.026C907.886 285.598 938.629 224.433 938.629 224.433" fill="black"/>
<path d="M933.699 222.889L890.799 287.547C886.379 295.332 901.265 302.704 904.747 294.026C907.886 285.598 938.629 224.433 938.629 224.433" stroke="black"/>
<path d="M956.299 293.272C956.299 293.272 920.193 275.828 919.568 274.481C918.762 274.028 915.885 262.529 914.668 259.986C914.294 256.166 907.486 254.62 907.778 260.618L907.651 270.819L901.139 263.767C895.841 257.295 891.856 264.593 896.115 268.943L900.399 274.903L892.234 273.137C889.448 271.881 884.789 274.77 889.315 278.262L897.873 285.048L889.294 282.805C884.266 281.866 885.9 288.819 890.32 290.399L917.533 302.686L949.228 321.454L956.299 293.272Z" fill="#A2CB41"/>
<path d="M900.716 179.138L895.261 193.483C894.968 191.336 917.286 186.423 920.431 196.06C922.017 192.284 919.142 182.385 919.142 182.385L914.385 178.458L909.023 175.211L900.716 179.138Z" fill="#A2CB41"/>
<path d="M897.855 207.049L895.485 195.259C895.421 194.202 918.59 187.444 919.668 198.759C920.3 202.805 916.521 208.326 916.521 208.326L910.959 210.995L904.974 212.858L897.855 207.049Z" fill="#A2CB41"/>
<path d="M638.38 614.173C638.38 614.173 649.824 623.517 649.688 626.775C649.447 632.597 639.847 639.253 639.847 639.253C639.847 639.253 649.332 648.585 649.107 651.338C648.773 655.477 638.443 660.407 638.443 660.407C638.443 660.407 647.003 668.74 646.859 671.942C646.71 675.162 635.208 682.723 635.208 682.723C635.208 682.723 646.082 690.12 646.351 693.234C646.536 695.418 635.726 703.029 635.726 703.029C635.726 703.029 646.183 710.887 646.319 713.051C646.616 717.828 635.197 722.974 635.197 722.974C635.197 722.974 647.11 729.34 647.336 731.616C647.661 734.899 640.137 745.146 640.137 745.146C640.137 745.146 651.74 744.951 653.171 746.76C655.497 749.702 651.061 765.255 651.061 765.255C651.061 765.255 661.062 755.628 664.716 756.318C667.581 756.856 671.773 770.458 671.773 770.458C671.773 770.458 676.104 755.845 678.99 754.58C680.768 753.802 692.149 763.021 692.149 763.021C692.149 763.021 692.816 748.904 694.879 747.504C696.853 746.167 709.9 748.995 709.9 748.995C709.9 748.995 709.297 738.874 710.893 737.574C712.871 735.964 721.941 738.195 721.941 738.195C721.941 738.195 721.412 726.619 723.679 725.037C725.643 723.664 734.23 727.644 734.23 727.644L711.141 759.546L668.688 778.539L638.648 770.966L626.359 752.099L628.965 634.297L634.428 623.373L638.38 614.173Z" fill="#34A13C"/>
<path d="M611.317 866.177C697.075 866.177 766.595 851.831 766.595 834.134C766.595 816.437 697.075 802.091 611.317 802.091C525.559 802.091 456.039 816.437 456.039 834.134C456.039 851.831 525.559 866.177 611.317 866.177Z" fill="#EAEAEA"/>
<path d="M595.467 800.544C596.024 810.938 597.731 830.214 597.135 831.726C596.217 833.348 586.369 839.651 580.987 843.612C579.624 844.419 578.308 843.798 578.694 841.321L579.362 837.912L570.136 840.883C566.264 841.699 565.387 837.663 567.167 836.18L572.875 831.478L567.949 831.381C563.102 831.285 564.865 827.823 567.115 826.954L578.738 822.997L577.987 794.778L594.917 794.889L595.467 800.544Z" fill="#71B41F"/>
<path d="M549.418 657.972C549.418 657.972 522.66 694.541 521.175 695.032C520.603 695.818 509.969 698.516 506.473 699.695C502.21 700.95 501.744 706.724 507.851 706.482L516.779 706.042L509.254 710.68C502.8 715.044 506.509 721.183 512.357 717.72L519.347 713.047L515.442 721.431C514.046 724.525 516.74 729.567 520.945 725.256L528.145 718.222L525.922 725.115C524.326 730.262 530.633 731.209 532.823 726.777L544.693 702.237L567.19 680.088L549.418 657.972Z" fill="#71B41F"/>
<path d="M535.447 627.88L539.152 628.996L535.778 644.654L533.333 656.035L533.064 657.314C532.046 664.326 531.432 666.708 529.585 679.48C529.325 681.299 529.585 680.203 529.241 682.637C529.093 684.547 529 687.387 528.944 689.697C528.823 694.015 528.648 698.176 528.675 702.895C528.675 706.153 528.354 708.574 528.485 712.006C528.582 714.618 528.478 717.032 528.703 719.716C528.898 722.552 528.8 725.157 529.119 728.051C529.731 733.404 530.563 738.818 531.74 744.172C532.398 747.147 532.796 750.166 533.667 753.076C535.844 760.358 538.638 767.414 542.442 773.803C544.425 777.135 546.51 780.404 549.017 783.345C550.562 785.157 552.155 786.927 553.915 788.56C557.07 789.807 560.376 790.684 563.706 790.937C567.162 791.196 570.627 790.84 573.933 789.743C575.586 789.186 577.198 788.449 578.75 787.495C580.301 786.543 581.795 785.377 583.201 783.988C585.75 781.47 587.998 778.173 589.868 774.029C591.372 770.693 592.693 766.967 593.611 762.441C593.796 761.532 594.029 760.724 594.186 759.766L594.417 758.3C594.594 756.285 594.677 754.568 594.807 752.693C595.113 748.269 595.424 743.87 595.741 739.466C595.955 736.428 596.196 733.286 596.381 730.337C596.65 725.953 597.132 721.025 597.334 716.769C597.557 712.091 597.607 707.49 597.709 702.9C597.806 698.37 598.081 693.746 598.081 689.213C598.081 685.251 597.984 681.183 597.886 677.156C597.673 670.386 597.418 663.594 596.871 656.418C596.528 651.909 596.037 647.121 595.538 642.348C595.233 639.436 595.102 635.616 594.611 631.225C589.645 631.856 584.862 632.338 580.133 632.614C575.404 632.892 570.721 632.958 565.947 632.753C561.174 632.549 556.314 632.085 551.216 631.278C546.234 630.489 541.004 629.364 535.447 627.88Z" fill="#D3D95D"/>
<path d="M583.204 783.987C585.753 781.469 588.001 778.172 589.871 774.028L542.445 773.805C544.428 777.137 546.513 780.405 549.02 783.347L583.204 783.987Z" fill="#EFECC3"/>
<path d="M593.599 762.438C593.784 761.53 594.02 760.722 594.179 759.764L594.41 758.298C594.587 756.283 594.67 754.566 594.8 752.691L531.727 744.17C532.385 747.144 532.788 750.164 533.658 753.074L593.599 762.438Z" fill="#EFECC3"/>
<path d="M595.745 739.465C595.959 736.426 596.205 733.284 596.39 730.335L528.711 719.715C528.906 722.551 528.808 725.156 529.128 728.049L595.745 739.465Z" fill="#EFECC3"/>
<path d="M597.334 716.767C597.557 712.089 597.612 707.489 597.714 702.898L528.67 702.894C528.67 706.152 528.354 708.572 528.485 712.004L597.334 716.767Z" fill="#EFECC3"/>
<path d="M598.065 689.209C598.065 685.248 597.973 681.18 597.875 677.152L529.569 679.476C529.31 681.296 529.569 680.255 529.217 682.693C529.097 684.67 528.986 687.383 528.93 689.694L598.065 689.209Z" fill="#EFECC3"/>
<path d="M596.862 656.418C596.518 651.909 596.027 647.121 595.529 642.348L535.777 644.653L533.328 656.035L596.862 656.418Z" fill="#EFECC3"/>
<path d="M579.824 550.02C572.191 548.788 563.758 555.872 562.418 561.781C559.703 572.811 560.786 572.595 560.06 582.024C552.763 582.024 546.444 582.515 537.153 582.376C529.676 577.229 519.161 558.05 508.887 574.565C501.086 559.383 493.677 571.455 493.086 576.496C491.482 587.377 489.494 598.014 502 601.838H502.097L502.194 601.848C504.391 605.896 506.046 603.137 502.571 603.687C503.651 622.878 519.531 623.096 535.442 627.907C540.999 629.391 546.228 630.522 551.209 631.31C556.307 632.116 561.168 632.585 565.941 632.786C570.714 632.99 575.398 632.917 580.126 632.638C584.856 632.36 589.634 631.877 594.6 631.247C595.091 635.64 595.221 639.46 595.529 642.372C596.03 647.144 596.519 651.933 596.862 656.442C597.409 663.617 597.669 670.409 597.883 677.178C598.013 681.207 598.06 685.273 598.078 689.236C598.078 693.768 597.804 698.393 597.703 702.923C597.606 707.514 597.545 712.115 597.323 716.793C597.118 721.048 596.65 725.975 596.379 730.359C596.194 733.309 595.952 736.45 595.739 739.489C595.424 743.893 595.113 748.292 594.805 752.717C594.674 754.591 594.592 756.308 594.415 758.324L594.183 759.79C594.026 760.747 593.794 761.557 593.608 762.464C592.69 766.99 591.37 770.715 589.865 774.052C587.996 778.193 585.742 781.495 583.194 784.011C581.787 785.401 580.294 786.567 578.742 787.519C577.191 788.471 575.579 789.213 573.925 789.767C570.619 790.874 567.159 791.222 563.704 790.96C560.373 790.71 557.063 789.831 553.908 788.583C560.301 794.512 568.114 799.226 577.745 802.073C592.724 806.731 607.639 811.168 623.038 811.136C676.389 811.025 694.605 799.239 711.655 787.356C739.928 766.513 756.604 719.697 749.975 716.97C735.44 711.01 655.154 832.409 636.218 727.504C629.005 676.944 656.268 588.153 625.817 558.365C620.501 554.216 610.769 551.687 605.69 563.895C603.048 573.813 601.871 571.328 594.696 571.098C593.284 570.968 593.087 567.811 591.888 562.281C590.021 556.66 585.375 550.928 580.256 549.973L579.824 550.02Z" fill="#A2CB41"/>
<path d="M617.041 588.959C611.127 588.959 606.333 582.436 606.333 574.389C606.333 566.342 611.127 559.818 617.041 559.818C622.956 559.818 627.75 566.342 627.75 574.389C627.75 582.436 622.956 588.959 617.041 588.959Z" fill="white"/>
<path d="M616.655 581.371C613.705 581.68 610.973 578.676 610.553 574.662C610.133 570.648 612.185 567.143 615.135 566.835C618.085 566.526 620.817 569.53 621.237 573.545C621.656 577.559 619.605 581.063 616.655 581.371Z" fill="black"/>
<path d="M577.127 584.643C571.213 584.643 566.419 578.12 566.419 570.073C566.419 562.025 571.213 555.502 577.127 555.502C583.042 555.502 587.836 562.025 587.836 570.073C587.836 578.12 583.042 584.643 577.127 584.643Z" fill="white"/>
<path d="M578.235 578.002C575.275 578.194 572.664 575.085 572.403 571.057C572.141 567.03 574.329 563.609 577.289 563.417C580.249 563.225 582.86 566.334 583.122 570.362C583.383 574.389 581.195 577.81 578.235 578.002Z" fill="black"/>
<path d="M517.402 578.892C518.667 578.892 519.694 577.413 519.694 575.589C519.694 573.764 518.667 572.285 517.402 572.285C516.136 572.285 515.109 573.764 515.109 575.589C515.109 577.413 516.136 578.892 517.402 578.892Z" fill="black"/>
<path d="M640.646 804.577C640.998 815.68 642.136 835.675 640.646 837.885C638.29 840.769 628.776 845.594 622.271 849.773C617.873 852.281 617.446 849.142 618.324 847.309L619.427 845.076L610.881 846.118C608.066 846.693 604.236 844.886 607.847 841.616L613.466 837.085H606.78C603.738 837.085 603.031 833.603 606.52 832.45L620.359 829.347L620.777 781.174L638.06 793.108L640.646 804.577Z" fill="#93BD31"/>
<path d="M500.162 577.414C501.278 577.414 502.183 576.11 502.183 574.502C502.183 572.893 501.278 571.589 500.162 571.589C499.046 571.589 498.141 572.893 498.141 574.502C498.141 576.11 499.046 577.414 500.162 577.414Z" fill="black"/>
<path d="M608.959 660.699C608.959 660.699 580.323 695.817 578.814 696.229C578.2 696.983 567.441 699.121 563.888 700.115C559.565 701.146 558.797 706.887 564.908 706.966L573.847 706.998L566.089 711.235C559.416 715.255 562.798 721.58 568.82 718.428L576.045 714.128L571.706 722.296C570.15 725.312 572.576 730.488 577.001 726.404L584.559 719.757L581.979 726.523C580.115 731.58 586.364 732.856 588.783 728.545L601.922 704.661L625.548 683.72L608.959 660.699Z" fill="#A2CB41"/>
<path d="M504.508 603.31L504.92 607.641C505.613 612.674 509.815 612.114 510.763 607.751L511.658 603.738L519.071 604.47L519.006 608.273C518.827 613.427 523.08 613.143 524.206 609.221L525.481 605.241L531.257 605.841L531.604 609.644C532.015 613.949 536.106 614.223 537.18 610.502L538.134 606.787L545.844 607.671L545.812 611.788C545.926 616.989 551.106 614.852 551.753 612.15L552.76 608.008L565.376 609.844L565.904 614.966C566.283 618.871 570.123 618.625 570.965 615.28L572.096 610.958L579.95 612.56L579.506 617.596C579.315 621.727 583.42 620.869 584.88 618.162L586.728 614.443L589.241 615.353L589.176 618.975C589.301 622.339 592.448 622.521 594.63 619.408L595.675 617.684L596.388 618.034L596.345 621.291C596.377 624.998 598.667 625.129 600.065 622.813L601.813 620.435C599.401 618.603 595.614 616.936 593.201 615.677C592.919 615.565 592.639 615.456 592.36 615.351C585.207 612.637 578.97 611.802 572.155 610.301L559.687 608.128C541.137 606.735 520.473 601.782 504.852 602.986L504.508 603.31Z" fill="white"/>
<path d="M502.595 603.734C502.595 603.734 525.46 604.995 549.418 607.974C561.396 609.463 573.621 611.378 583.28 613.8C588.11 615.01 592.303 616.354 595.479 617.796C598.655 619.238 600.777 620.819 601.558 622.234C601.952 623.265 603.9 622.191 603.24 621.309C602.079 619.205 599.627 617.55 596.278 616.03C592.93 614.51 588.641 613.156 583.743 611.928C573.946 609.472 561.692 607.534 549.67 606.039C525.627 603.049 502.234 601.844 502.234 601.844C502.234 601.844 502.623 603.089 502.595 603.734Z" fill="black"/>
<path d="M564.266 564.8C564.266 564.8 575.993 556.146 583.515 558.491C591.037 560.837 583.758 555.013 583.758 555.013L572.758 554.609L564.266 564.8Z" fill="#A2CB41"/>
<path d="M630.61 568.343C630.61 568.343 618.882 559.688 611.36 562.034C603.838 564.38 611.118 558.556 611.118 558.556L622.118 558.152L630.61 568.343Z" fill="#A2CB41"/>
<path d="M1352.92 596.063C1352.92 596.063 1364.17 605.245 1364.03 608.446C1363.8 614.167 1354.36 620.707 1354.36 620.707C1354.36 620.707 1363.68 629.876 1363.46 632.581C1363.13 636.648 1352.98 641.492 1352.98 641.492C1352.98 641.492 1361.39 649.68 1361.25 652.826C1361.11 655.99 1349.8 663.419 1349.8 663.419C1349.8 663.419 1360.49 670.688 1360.75 673.747C1360.94 675.893 1350.31 683.371 1350.31 683.371C1350.31 683.371 1360.59 691.093 1360.72 693.219C1361.01 697.913 1349.79 702.969 1349.79 702.969C1349.79 702.969 1361.5 709.225 1361.72 711.461C1362.04 714.687 1354.65 724.755 1354.65 724.755C1354.65 724.755 1366.05 724.563 1367.45 726.34C1369.74 729.232 1365.38 744.514 1365.38 744.514C1365.38 744.514 1375.21 735.054 1378.8 735.732C1381.61 736.261 1385.73 749.626 1385.73 749.626C1385.73 749.626 1389.99 735.268 1392.82 734.025C1394.57 733.259 1405.75 742.319 1405.75 742.319C1405.75 742.319 1406.41 728.447 1408.44 727.072C1410.38 725.758 1423.19 728.536 1423.19 728.536C1423.19 728.536 1422.6 718.592 1424.17 717.315C1426.11 715.733 1435.03 717.925 1435.03 717.925C1435.03 717.925 1434.51 706.551 1436.73 704.997C1438.66 703.647 1447.1 707.558 1447.1 707.558L1424.41 738.904L1382.7 757.566L1353.18 750.125L1341.11 731.586L1343.67 615.837L1349.04 605.104L1352.92 596.063Z" fill="#34A13C"/>
<path d="M1295.4 621.76C1295.4 621.76 1238.5 634.199 1237.31 633.802C1236.57 634.029 1227.84 629.136 1225.57 628.409C1223.01 626.424 1218.11 629.71 1221.97 633.008L1230.17 640.153L1227.22 639.315C1220.18 638.813 1222.86 642.725 1228 642.631L1228.09 645.71L1220.68 649.811C1218.58 650.928 1218.13 655.065 1222.14 654.575L1231.27 653.252L1225.76 655.365C1222.27 657.908 1227.28 661.301 1230.81 659.501L1253.5 651.399L1283.4 642.81L1295.4 621.76Z" fill="#77B52A"/>
<path d="M1326.34 843.682C1410.6 843.682 1478.91 829.586 1478.91 812.198C1478.91 794.809 1410.6 780.713 1326.34 780.713C1242.07 780.713 1173.77 794.809 1173.77 812.198C1173.77 829.586 1242.07 843.682 1326.34 843.682Z" fill="#F0F0F1"/>
<path d="M1310.79 779.19C1311.33 789.402 1313.01 808.342 1312.42 809.828C1311.52 811.422 1301.85 817.615 1296.56 821.507C1295.22 822.3 1293.93 821.69 1294.3 819.256L1294.96 815.906L1285.9 818.826C1282.09 819.627 1281.23 815.662 1282.98 814.205L1288.59 809.585L1283.75 809.494C1278.98 809.403 1280.72 805.997 1282.93 805.143L1294.35 801.255L1293.61 773.528L1310.24 773.638L1310.79 779.19Z" fill="#77B52A"/>
<path d="M1269.52 767.48C1272.62 768.706 1275.86 769.567 1279.14 769.816C1282.53 770.071 1285.94 769.725 1289.18 768.643C1290.81 768.096 1292.39 767.371 1293.92 766.434C1295.44 765.499 1296.91 764.353 1298.29 762.988L1264.7 762.359C1266.22 764.14 1267.79 765.876 1269.52 767.48Z" fill="#D3D95D"/>
<path d="M1251.39 609.599L1255.03 610.696L1251.71 626.081L1249.31 637.264L1249.05 638.521C1248.04 645.411 1247.44 647.751 1245.63 660.3C1245.37 662.088 1245.63 661.011 1245.29 663.403C1245.14 665.279 1245.05 668.069 1245 670.339C1244.88 674.583 1244.71 678.671 1244.73 683.308C1244.73 686.509 1244.42 688.887 1244.55 692.26C1244.65 694.827 1244.54 697.199 1244.76 699.836C1244.95 702.622 1244.85 705.182 1245.17 708.025C1245.77 713.285 1246.59 718.604 1247.75 723.866C1248.39 726.788 1248.78 729.755 1249.64 732.615C1251.78 739.77 1254.52 746.702 1258.26 752.981C1260.21 756.255 1262.26 759.466 1264.72 762.356C1266.24 764.137 1267.8 765.875 1269.53 767.48C1272.63 768.706 1275.88 769.567 1279.15 769.816C1282.55 770.071 1285.95 769.724 1289.2 768.643C1290.83 768.096 1292.41 767.371 1293.94 766.434C1295.46 765.498 1296.93 764.353 1298.31 762.988C1300.81 760.514 1303.02 757.274 1304.86 753.202C1306.34 749.924 1307.64 746.263 1308.54 741.816C1308.72 740.923 1308.95 740.129 1309.1 739.188L1309.33 737.748C1309.5 735.767 1309.59 734.081 1309.71 732.238C1310.01 727.891 1310.32 723.569 1310.63 719.241C1310.84 716.256 1311.08 713.169 1311.26 710.271C1311.52 705.964 1312 701.122 1312.2 696.94C1312.42 692.344 1312.47 687.823 1312.57 683.312C1312.67 678.861 1312.93 674.318 1312.93 669.864C1312.93 665.971 1312.84 661.974 1312.74 658.017C1312.53 651.365 1312.28 644.691 1311.74 637.641C1311.4 633.21 1310.92 628.506 1310.43 623.815C1310.13 620.954 1310 617.201 1309.52 612.886C1304.64 613.506 1299.94 613.98 1295.29 614.251C1290.65 614.524 1286.05 614.588 1281.36 614.388C1276.67 614.187 1271.89 613.732 1266.88 612.938C1261.99 612.163 1256.85 611.057 1251.39 609.599Z" fill="#D3D95D"/>
<path d="M1298.28 762.991C1300.79 760.517 1303 757.277 1304.83 753.205L1258.23 752.986C1260.18 756.26 1262.23 759.472 1264.7 762.362L1298.28 762.991Z" fill="#EFECC3"/>
<path d="M1258.25 752.984L1304.85 753.203C1306.33 749.925 1307.63 746.264 1308.53 741.817L1249.63 732.615C1251.77 739.77 1254.51 746.706 1258.25 752.984Z" fill="#D3D95D"/>
<path d="M1308.53 741.818C1308.71 740.925 1308.94 740.131 1309.1 739.19L1309.33 737.749C1309.5 735.769 1309.58 734.082 1309.71 732.24L1247.73 723.867C1248.38 726.79 1248.78 729.756 1249.63 732.616L1308.53 741.818Z" fill="#EFECC3"/>
<path d="M1309.7 732.242C1310.01 727.894 1310.31 723.572 1310.62 719.245L1245.16 708.028C1245.77 713.288 1246.57 718.608 1247.73 723.869L1309.7 732.242Z" fill="#D3D95D"/>
<path d="M1310.62 719.242C1310.83 716.257 1311.07 713.17 1311.25 710.272L1244.75 699.837C1244.94 702.623 1244.84 705.183 1245.16 708.026L1310.62 719.242Z" fill="#EFECC3"/>
<path d="M1311.25 710.273C1311.52 705.966 1311.99 701.123 1312.19 696.942L1244.53 692.262C1244.63 694.829 1244.53 697.201 1244.75 699.838L1311.25 710.273Z" fill="#D3D95D"/>
<path d="M1312.2 696.943C1312.41 692.346 1312.47 687.826 1312.57 683.315L1244.73 683.311C1244.73 686.512 1244.42 688.89 1244.55 692.262L1312.2 696.943Z" fill="#EFECC3"/>
<path d="M1312.54 683.315C1312.64 678.864 1312.91 674.32 1312.91 669.866L1244.97 670.34C1244.85 674.584 1244.68 678.671 1244.71 683.309L1312.54 683.315Z" fill="#D3D95D"/>
<path d="M1312.92 669.866C1312.92 665.974 1312.83 661.977 1312.73 658.02L1245.61 660.303C1245.36 662.091 1245.61 661.069 1245.27 663.463C1245.15 665.406 1245.04 668.072 1244.98 670.342L1312.92 669.866Z" fill="#EFECC3"/>
<path d="M1312.72 658.019C1312.51 651.367 1312.26 644.693 1311.72 637.643L1249.29 637.27L1249.03 638.527C1248.03 645.417 1247.42 647.757 1245.61 660.305L1312.72 658.019Z" fill="#D3D95D"/>
<path d="M1311.73 637.644C1311.39 633.213 1310.91 628.508 1310.42 623.818L1251.71 626.084L1249.3 637.267L1311.73 637.644Z" fill="#EFECC3"/>
<path d="M1310.41 623.815C1310.11 620.954 1309.99 617.201 1309.5 612.886C1304.62 613.506 1299.93 613.98 1295.28 614.251C1290.63 614.524 1286.03 614.588 1281.34 614.388C1276.65 614.187 1271.88 613.732 1266.87 612.938C1261.97 612.163 1256.84 611.053 1251.38 609.595L1255.01 610.692L1251.7 626.076L1310.41 623.815Z" fill="#D3D95D"/>
<path d="M1295.39 533.028C1287.89 531.818 1279.61 538.779 1278.29 544.584C1275.62 555.423 1276.69 555.21 1275.97 564.475C1268.8 564.475 1262.6 564.958 1253.47 564.821C1246.12 559.764 1235.79 540.918 1225.69 557.146C1218.03 542.229 1210.75 554.09 1210.17 559.043C1208.59 569.734 1206.64 580.186 1218.93 583.944C1218.93 583.943 1219.02 583.943 1219.02 583.944C1219.02 583.946 1219.11 583.949 1219.11 583.953C1223.96 584.527 1229.03 585.464 1234.21 586.609C1239.38 587.755 1244.67 589.107 1249.97 590.494C1260.58 593.269 1271.25 596.19 1281.19 597.939C1286.16 598.814 1290.94 599.392 1295.43 599.521C1299.92 599.648 1304.12 599.329 1307.93 598.405C1309.84 597.941 1311.65 597.332 1313.35 596.555C1315.06 595.78 1316.65 594.83 1318.13 593.691C1319.61 592.553 1320.98 591.224 1322.23 589.679C1323.47 588.135 1324.6 586.374 1325.59 584.377C1325.59 584.35 1325.59 584.313 1325.59 584.286C1325.59 584.249 1325.68 584.222 1325.68 584.195C1325.68 584.158 1325.77 584.131 1325.77 584.104C1325.77 584.067 1325.86 584.04 1325.86 584.012C1325.86 583.976 1325.96 583.949 1325.96 583.921C1325.96 583.885 1326.05 583.857 1326.05 583.83C1326.05 583.794 1326.14 583.766 1326.14 583.739C1326.14 583.737 1326.23 583.737 1326.23 583.739C1326.23 583.737 1326.32 583.737 1326.32 583.739C1326.32 583.737 1326.41 583.737 1326.41 583.739C1326.41 583.737 1326.51 583.737 1326.51 583.739C1326.51 583.737 1326.6 583.737 1326.6 583.739C1326.6 583.737 1326.69 583.737 1326.69 583.739C1326.69 583.737 1326.78 583.737 1326.78 583.739C1326.78 583.737 1326.87 583.737 1326.87 583.739C1326.87 583.737 1326.96 583.737 1326.96 583.739C1326.96 583.737 1327.05 583.737 1327.05 583.739C1327.05 583.766 1327.14 583.794 1327.14 583.83C1327.14 583.857 1327.24 583.885 1327.24 583.921C1327.24 583.949 1327.33 583.976 1327.33 584.012C1327.33 584.04 1327.42 584.067 1327.42 584.104C1327.42 584.131 1327.51 584.158 1327.51 584.195C1327.51 584.222 1327.51 584.258 1327.51 584.286C1327.51 584.313 1327.51 584.35 1327.51 584.377C1327.51 584.404 1327.51 584.441 1327.51 584.468C1327.51 584.495 1327.51 584.532 1327.51 584.559C1327.51 584.586 1327.51 584.623 1327.51 584.65C1327.51 584.678 1327.51 584.714 1327.5 584.741C1327.5 584.769 1327.5 584.805 1327.5 584.833C1327.5 584.86 1327.5 584.896 1327.5 584.924C1327.5 584.951 1327.5 584.987 1327.5 585.015C1327.5 585.042 1327.5 585.079 1327.5 585.106C1326.45 587.214 1325.25 589.081 1323.92 590.728C1322.58 592.376 1321.11 593.804 1319.51 595.027C1317.92 596.252 1316.21 597.274 1314.39 598.112C1312.57 598.95 1310.66 599.602 1308.65 600.089C1304.64 601.065 1300.28 601.401 1295.66 601.271C1291.05 601.144 1286.18 600.542 1281.15 599.661C1271.1 597.891 1260.37 594.962 1249.78 592.193C1244.48 590.808 1239.22 589.461 1234.08 588.323C1229.02 587.2 1224.1 586.291 1219.39 585.727C1219.59 593.682 1222.17 599.244 1227.38 602.176L1251.69 609.526C1257.15 610.984 1262.29 612.096 1267.18 612.869C1272.19 613.662 1276.97 614.122 1281.66 614.32C1286.35 614.52 1290.95 614.448 1295.6 614.174C1300.24 613.901 1304.94 613.427 1309.82 612.808C1310.3 617.124 1310.43 620.877 1310.73 623.738C1311.22 628.428 1311.7 633.133 1312.04 637.564C1312.58 644.614 1312.83 651.288 1313.04 657.939C1313.17 661.897 1313.22 665.893 1313.24 669.787C1313.24 674.24 1312.97 678.784 1312.87 683.235C1312.77 687.746 1312.71 692.267 1312.49 696.863C1312.29 701.045 1311.83 705.886 1311.57 710.193C1311.38 713.092 1311.15 716.178 1310.94 719.164C1310.63 723.491 1310.32 727.814 1310.02 732.161C1309.89 734.003 1309.81 735.69 1309.64 737.671L1309.41 739.111C1309.25 740.052 1309.03 740.848 1308.84 741.738C1307.94 746.186 1306.64 749.846 1305.17 753.125C1303.33 757.194 1301.11 760.438 1298.61 762.91C1297.23 764.276 1295.76 765.421 1294.24 766.357C1292.71 767.293 1291.13 768.022 1289.5 768.566C1286.25 769.653 1282.85 769.996 1279.46 769.738C1276.19 769.492 1272.93 768.629 1269.83 767.402C1276.12 773.228 1283.79 777.86 1293.26 780.658C1307.97 785.234 1322.63 789.595 1337.76 789.563C1390.18 789.453 1408.08 777.873 1424.83 766.197C1452.61 745.717 1469 699.717 1462.49 697.037C1448.2 691.182 1369.32 810.465 1350.71 707.388C1343.62 657.708 1370.41 570.465 1340.49 541.196C1335.27 537.119 1325.7 534.634 1320.71 546.629C1318.12 556.374 1317.87 547.152 1310.82 546.926C1309.43 546.799 1308.33 550.477 1307.15 545.043C1305.32 539.52 1300.75 533.889 1295.72 532.95L1295.39 533.028Z" fill="#A2CB41"/>
<path d="M1331.97 572.035C1326.16 572.035 1321.45 565.625 1321.45 557.718C1321.45 549.811 1326.16 543.401 1331.97 543.401C1337.78 543.401 1342.49 549.811 1342.49 557.718C1342.49 565.625 1337.78 572.035 1331.97 572.035Z" fill="white"/>
<path d="M1330.45 565.875C1327.55 566.178 1324.87 563.226 1324.45 559.282C1324.04 555.338 1326.06 551.895 1328.95 551.592C1331.85 551.289 1334.54 554.24 1334.95 558.185C1335.36 562.129 1333.35 565.572 1330.45 565.875Z" fill="black"/>
<path d="M1292.75 567.797C1286.94 567.797 1282.23 561.388 1282.23 553.481C1282.23 545.574 1286.94 539.164 1292.75 539.164C1298.56 539.164 1303.27 545.574 1303.27 553.481C1303.27 561.388 1298.56 567.797 1292.75 567.797Z" fill="white"/>
<path d="M1291.24 562.228C1288.33 562.417 1285.77 559.362 1285.51 555.404C1285.25 551.447 1287.4 548.086 1290.31 547.897C1293.22 547.709 1295.79 550.764 1296.04 554.721C1296.3 558.678 1294.15 562.04 1291.24 562.228Z" fill="black"/>
<path d="M1232.7 617.735C1224.32 621.627 1219.8 626.08 1216.77 631.984C1213.67 638.016 1213.41 643.869 1215.97 649.544C1218.43 654.968 1222.03 658.465 1226.77 660.04C1231.55 661.494 1237.88 661.038 1245.76 658.674L1255.72 655.674C1258.74 654.809 1261.01 654.585 1262.51 655.009C1264.01 655.438 1265.2 656.608 1266.06 658.527C1266.86 660.279 1266.66 662.179 1265.47 664.225C1264.33 666.149 1262.13 667.849 1258.88 669.325C1254.54 671.29 1250.89 671.439 1247.92 669.762C1246.71 669.097 1245.68 668.056 1244.84 666.631C1243.13 663.736 1225.4 672.585 1227.06 675.229C1228.98 678.651 1231.27 681.093 1235.14 683.852C1243.28 688.713 1253.27 688.457 1265.12 683.086C1274.05 679.04 1280.11 673.983 1283.29 667.914C1286.48 661.844 1286.78 655.972 1284.21 650.297C1278.99 638.782 1268.88 635.323 1253.86 639.915L1243.9 642.914C1238.55 644.432 1235.3 643.9 1234.12 641.313C1233.37 639.644 1233.56 637.947 1234.69 636.227C1235.78 634.425 1237.87 632.824 1240.96 631.425C1244.55 629.798 1247.73 629.508 1250.52 630.559C1251.61 630.969 1252.61 631.627 1253.52 632.523C1254.12 633.478 1264.46 626.589 1264.04 624.903L1261.6 622.953L1255.7 626.104L1253.63 620.252L1249.24 625.351L1245.23 619.903L1239.25 626.104L1232.7 617.735Z" fill="#002236"/>
<path d="M1348.91 630.009C1348.91 630.009 1282.37 655.84 1280.85 655.585C1279.99 656.004 1268.49 651.729 1265.61 651.279C1262.13 649.361 1256.82 654.267 1262.11 657.529L1273.4 664.628L1256.46 665.467C1247.83 666.196 1251.73 673.875 1257.94 672.787L1271.89 671.754L1263.7 678.124C1260.99 679.766 1260.73 685.434 1266.36 683.617L1277.16 680.286L1270.23 686.295C1266.48 690.036 1273.37 692.713 1277.31 689.866L1303.73 673.834L1338.31 657.774L1348.91 630.009Z" fill="#A2CB41"/>
<path d="M1234.06 561.399C1235.31 561.399 1236.32 559.946 1236.32 558.153C1236.32 556.36 1235.31 554.907 1234.06 554.907C1232.82 554.907 1231.81 556.36 1231.81 558.153C1231.81 559.946 1232.82 561.399 1234.06 561.399Z" fill="black"/>
<path d="M1324.19 589.25C1324.74 589.988 1325.32 590.648 1325.65 591.108C1330.93 598.669 1323.24 597.983 1320.91 594.94C1320.57 594.493 1319.97 593.626 1319.8 593.2L1319.06 593.401C1322.79 612.14 1312.63 606.842 1310.97 601.796C1310.62 600.761 1309.58 596.837 1309.44 596.038L1305.45 598.349C1306.76 612.319 1299.58 609.051 1298.14 602.159C1297.95 601.321 1297.93 599.876 1297.95 598.967L1288.64 598.575C1288.74 600.417 1288.98 603.214 1288.73 604.491C1287.58 610.213 1282.57 608.804 1282.16 604.181C1282.06 602.999 1281.64 599.495 1281.77 598.09L1272.44 595.947C1272.18 597.81 1271.66 600.237 1271.31 601.5C1270.11 605.727 1265.78 605.353 1265.34 600.953C1265.19 599.379 1265.66 596.634 1266.06 594.667L1256.76 592.396L1256.47 595.777C1255.85 602.613 1248.71 601.815 1249.44 595.868L1249.77 590.408L1241.56 588.686L1239.94 593.245C1238.87 596.323 1233.75 598.869 1234.11 591.403L1234.52 586.502L1231.38 585.855L1230.12 590.329C1228.56 595.746 1223.03 596.768 1222.84 588.679L1223.28 583.509L1225.03 578.455L1318.13 576.458L1324.19 589.25Z" fill="white"/>
<path d="M1219.43 583.508C1267.14 595.97 1313.53 611.873 1326.13 586.095L1322.02 570.722L1226.43 575.897L1219.43 583.508Z" fill="#A2CB41"/>
<path d="M1309.78 598.763C1310.89 595.153 1311.38 592.3 1311.68 589.731C1312.85 578.375 1302.79 581.245 1301.36 588.554C1299.5 595.293 1297.39 600.874 1297.6 600.242C1302.21 599.568 1306.03 601.275 1309.78 598.763Z" fill="#ED1B24"/>
<path d="M1219.08 585.801C1223.79 586.366 1228.71 587.274 1233.77 588.396C1238.9 589.535 1244.17 590.882 1249.46 592.266C1260.06 595.036 1270.78 597.965 1280.84 599.735C1285.87 600.619 1290.73 601.217 1295.35 601.345C1299.96 601.473 1304.32 601.135 1308.34 600.163C1310.34 599.68 1312.26 599.023 1314.07 598.186C1315.89 597.348 1317.61 596.326 1319.2 595.101C1320.79 593.878 1322.27 592.45 1323.6 590.802C1324.94 589.155 1326.13 587.288 1327.18 585.18C1327.18 585.149 1327.18 585.119 1327.18 585.089C1327.18 585.058 1327.18 585.028 1327.18 584.998C1327.18 584.967 1327.18 584.937 1327.18 584.906C1327.18 584.876 1327.18 584.846 1327.18 584.815C1327.18 584.785 1327.18 584.755 1327.19 584.724C1327.19 584.694 1327.19 584.663 1327.19 584.633C1327.19 584.603 1327.19 584.572 1327.19 584.542C1327.19 584.512 1327.19 584.481 1327.19 584.451C1327.19 584.42 1327.19 584.39 1327.19 584.36C1327.19 584.329 1327.19 584.299 1327.19 584.269C1327.16 584.236 1327.13 584.206 1327.09 584.177C1327.07 584.145 1327.04 584.115 1327 584.086C1326.97 584.054 1326.94 584.023 1326.91 583.995C1326.88 583.963 1326.85 583.932 1326.82 583.904C1326.79 583.872 1326.76 583.841 1326.73 583.813C1326.7 583.811 1326.67 583.811 1326.64 583.813C1326.61 583.811 1326.58 583.811 1326.55 583.813C1326.52 583.811 1326.49 583.811 1326.46 583.813C1326.43 583.811 1326.4 583.811 1326.36 583.813C1326.33 583.808 1326.3 583.805 1326.27 583.804C1326.24 583.802 1326.21 583.802 1326.18 583.804C1326.15 583.805 1326.12 583.808 1326.09 583.813C1326.06 583.811 1326.03 583.811 1326 583.813C1325.97 583.811 1325.93 583.811 1325.9 583.813C1325.87 583.811 1325.84 583.811 1325.81 583.813C1325.78 583.841 1325.75 583.872 1325.72 583.904C1325.69 583.932 1325.66 583.963 1325.63 583.995C1325.6 584.023 1325.57 584.054 1325.54 584.086C1325.51 584.115 1325.48 584.145 1325.45 584.177C1325.42 584.206 1325.39 584.236 1325.36 584.269C1325.33 584.297 1325.29 584.327 1325.27 584.36C1325.27 584.39 1325.27 584.42 1325.27 584.451C1324.28 586.448 1323.15 588.209 1321.91 589.753C1320.66 591.298 1319.29 592.627 1317.81 593.765C1316.33 594.904 1314.73 595.851 1313.03 596.629C1311.33 597.403 1309.51 598.016 1307.61 598.479C1303.8 599.405 1299.6 599.724 1295.11 599.595C1290.61 599.467 1285.83 598.884 1280.86 598.013C1270.92 596.264 1260.26 593.343 1249.65 590.568C1244.35 589.181 1239.06 587.829 1233.88 586.683C1228.7 585.538 1223.64 584.599 1218.78 584.027C1218.75 584.023 1218.72 584.02 1218.69 584.018C1218.66 584.017 1218.63 584.017 1218.6 584.018C1218.6 584.683 1218.7 585.22 1218.71 585.854L1219.08 585.801Z" fill="black"/>
<path d="M1355.16 783.153C1355.51 794.062 1356.62 813.708 1355.16 815.88C1352.84 818.714 1343.5 823.455 1337.1 827.561C1332.78 830.026 1332.36 826.941 1333.23 825.14L1334.31 822.946L1325.91 823.97C1323.15 824.535 1319.38 822.759 1322.93 819.547L1328.45 815.094H1321.88C1318.89 815.094 1318.2 811.673 1321.63 810.54L1335.23 807.491L1335.64 760.157L1352.62 771.884L1355.16 783.153Z" fill="#A2CB41"/>
<path d="M1309.08 739.192L1309.31 737.751C1309.31 737.942 1309.31 738.088 1309.22 738.289C1309.13 738.617 1309.08 738.872 1309.02 739.191L1309.08 739.192Z" fill="#D2D75F"/>
<path d="M1239.7 795.077L1232.59 800.126C1237.33 799.953 1243.24 798.373 1246.54 800.499L1253.54 796.012C1250.17 794.409 1245.71 793.949 1239.7 795.077Z" fill="#002236"/>
<path d="M1252.91 802.042L1263.03 803.12L1260.73 800.178L1262.81 795.946C1259.47 797.938 1255.75 799.576 1252.91 802.042Z" fill="#002236"/>
<path d="M1248.53 809.069L1251.79 814.569C1252.77 813.543 1254.12 811.672 1255.07 810.629C1256.01 809.595 1256.38 809.021 1256.78 807.593C1255.1 807.328 1253.32 807.681 1248.53 809.069Z" fill="#002236"/>
<path d="M1232.83 807.495L1235.95 809.021L1240.25 810.519L1246.25 806.497C1248.43 802.471 1237.35 804.837 1232.83 807.495Z" fill="#002236"/>
<path d="M1279.37 551.989C1286.88 550.56 1298.08 551.342 1305.66 554.82L1302.19 540.796L1294.22 534.445L1284 537.997L1279.37 551.989Z" fill="#A2CB41"/>
<path d="M1323.3 548.742L1320.76 555.522C1329.52 554.429 1337.39 555.149 1345.82 559.634L1340.95 547.235L1334.27 542.499L1326.74 543.146L1323.3 548.742Z" fill="#A2CB41"/>
<path d="M1214.51 638.374C1218.56 638.666 1219.25 642.039 1217.41 643.86C1216.5 644.333 1215.46 644.47 1214.39 644.479C1211.72 644.388 1212.36 638.429 1214.51 638.374Z" fill="#77B52A"/>
<path d="M1214.66 646.878C1216.87 643.822 1221.12 645.96 1220.24 648.975C1219.59 650.475 1218.96 650.697 1216.74 651.174C1214.78 651.402 1213.79 648.016 1214.66 646.878Z" fill="#77B52A"/>
<path d="M1217.51 652.656C1219.57 650.724 1222.76 651.332 1222.66 654.439C1222.57 655.352 1221.97 655.983 1221.15 656.716C1220.01 657.72 1215.95 654.396 1217.51 652.656Z" fill="#77B52A"/>
<path d="M1217.13 559.947C1218.22 559.947 1219.11 558.665 1219.11 557.085C1219.11 555.504 1218.22 554.223 1217.13 554.223C1216.03 554.223 1215.14 555.504 1215.14 557.085C1215.14 558.665 1216.03 559.947 1217.13 559.947Z" fill="black"/>
<path d="M1358.15 536.411C1359.55 530.898 1356.9 523.708 1354.95 517.527C1353.88 514.84 1353.56 513.641 1356.58 515.309L1370.45 525.104C1373.52 525.578 1374 523.219 1374.62 521.01C1365.52 491.393 1330.41 471.364 1303.41 492.711C1294.94 499.793 1285.99 508.409 1283.63 519.995C1305.21 529.583 1332.01 537.584 1358.15 536.411Z" fill="#E11A1C"/>
<path d="M1286.7 523.27C1289.95 512.544 1296.76 498.706 1313.22 493.457C1314.88 492.309 1302.84 493.305 1291.28 507.914C1286.23 514.294 1282.89 523.431 1282.89 523.431L1286.7 523.27Z" fill="#9F191A"/>
<path d="M1355.96 532.206C1356.63 522.863 1353.83 516.962 1348.8 512.049C1348.05 511.318 1348.59 510.877 1350.16 511.956C1359.6 519.963 1357.4 527.641 1359.33 536.707L1356.14 534.411L1355.96 532.206Z" fill="#9F191A"/>
<path d="M1278.19 518.8C1280.37 519.191 1280.21 513.803 1283.51 515.155C1286.01 516.165 1289.14 517.69 1290.87 517.314C1292.59 516.938 1294.05 516.993 1295.14 518.274C1296.23 519.556 1294.93 520.59 1297.54 520.135C1300.14 519.679 1301.99 520.062 1302.78 521.615C1303.58 523.164 1307.11 521.843 1307.11 521.843C1307.11 521.843 1308.2 521.676 1308.93 523.179C1309.66 524.683 1313.98 525.246 1315.7 524.48C1317.42 523.715 1316.22 526.017 1316.54 526.691C1316.87 527.366 1319.43 526.229 1320.99 526.347C1322.54 526.464 1323.45 526.481 1323.89 526.808C1324.34 527.133 1328.19 526.543 1329.12 527.739C1330.05 528.936 1334.71 530.309 1336.42 529.652C1338.14 528.995 1340.44 527.815 1341.16 528.176C1341.89 528.538 1342.52 530.883 1345.12 530.328C1347.71 529.772 1350.52 528.592 1351.88 529.448C1353.23 530.304 1355.31 531.009 1356.8 532.002C1358.29 532.994 1359.37 533.578 1361.09 535.086C1364.66 539.943 1360.82 543.844 1361.07 546.514C1361.38 548.279 1361.14 549.537 1360.31 550.768C1359.47 551.999 1361.08 553.496 1359.86 554.275C1354.41 553.547 1351.57 557.829 1350.01 553.923C1351.07 557.335 1353.24 552.469 1349.14 553.581C1347.06 553.622 1346.25 553.708 1343.62 553.994C1340.57 553.901 1340.36 550.149 1338.14 551.117C1335.88 552.093 1333.97 551.858 1330.6 550.444C1327.23 549.031 1327.84 549.981 1324.34 550.557C1320.84 551.131 1316.55 550.845 1314.33 549.016C1312.12 547.189 1303.29 549.235 1301 547.079C1298.72 544.921 1294.61 546.465 1292.04 546.024C1289.46 545.583 1285.16 544.592 1282.26 540.525C1280.6 538.216 1280.39 541.489 1278.11 542.171C1276.37 542.69 1272.34 540.599 1271.92 539.893C1270.94 538.26 1272.91 534.04 1273.05 532.014C1273.18 529.987 1271.27 527.05 1273.04 526.276C1274.82 525.502 1273.77 522.981 1274.04 522.55C1276.43 520.885 1275.89 517.602 1278.19 518.8Z" fill="#F9F9F9" stroke="#E7EAEB" stroke-width="2.00002"/>
<path d="M1378.62 520.301C1380.66 523.298 1379.61 522.119 1382.59 522.529C1385.57 522.939 1386.86 523.41 1386.18 525.168C1385.51 526.927 1386.77 527.167 1387.05 529.014C1387.33 530.862 1385.73 530.201 1385.26 531.219C1384.79 532.238 1386.98 532.413 1386.71 534.267C1386.4 535.575 1385.61 535.815 1383.85 536.637C1382.08 537.459 1384.52 537.952 1381.78 539.632C1380.16 540.629 1379.56 539.54 1378.13 538.894C1376.69 538.248 1376.05 541.576 1373.45 540.005C1370.85 538.435 1371.82 538.639 1370.44 537.354C1368.03 535.518 1366.97 538.872 1365.76 536.615C1364.55 534.358 1364.24 534.444 1364.7 532.247C1365.15 530.051 1362.99 528.845 1365.27 527.235C1367.54 525.625 1367.08 526.246 1367.45 524.536C1367.82 522.824 1370.55 521.893 1371.01 521.822C1375.21 520.583 1376.65 516.936 1378.62 520.301Z" fill="#F9F9F9" stroke="#E7EAEB" stroke-width="2.00002"/>
<path d="M1354.6 517.14C1354.6 517.14 1353.86 516.691 1353.25 515.163C1352.3 512.786 1351.37 508.924 1351.73 508.745C1352.12 508.555 1352.36 509.212 1352.49 509.411C1353.4 512.257 1355.3 514.181 1356.51 515.249C1356.18 515.069 1354.66 514.281 1354.29 514.74C1353.81 515.267 1355.73 518.869 1354.6 517.14Z" fill="#9F191A"/>
<path d="M1273.83 533.394C1274.46 541.749 1282.45 532.156 1285.81 534.377C1289.07 537.638 1287.14 539.45 1293.54 539.933C1295.56 540.085 1298.87 538.976 1300.53 539.06C1304.14 539.243 1305.95 540.499 1311.9 540.416C1320.59 540.295 1316.13 542.59 1327.24 544.281C1332.29 545.049 1333.96 542.679 1336.1 542.983C1338.66 543.347 1341.37 546.235 1344.27 545.247C1349.58 543.435 1350.06 539.571 1355.38 541.865C1360.69 544.16 1360.33 545.368 1360.33 545.368L1360.45 551.768L1359.84 555.633C1357.53 558.716 1355.02 558.738 1351.57 559.085C1348.98 557.88 1349.21 554.833 1348.52 554.723C1348.52 554.723 1344.63 554.908 1344.02 554.546C1343.42 554.184 1339.19 551.285 1339.19 551.285L1335.57 552.252L1326.87 550.078L1318.3 550.802L1312.02 548.628L1304.65 548.508L1299.22 546.938L1295.47 545.247H1286.78L1281.1 539.691L1280.46 539.336C1278.86 547.816 1274.58 538.757 1271.68 539.208L1271.08 535.827L1273.83 533.394Z" fill="#E7EAEB"/>
<path d="M1364.92 533.186C1365.51 533.932 1367.64 535.69 1370.78 534.571C1373.93 533.452 1374.03 534.092 1375.04 534.731C1376.06 535.37 1376.32 536.809 1378.35 535.797C1380.37 534.784 1378.45 533.079 1381.81 532.973C1385.17 532.866 1386.07 533.133 1386.29 531.748C1386.5 530.362 1385.81 535.264 1385.81 535.264L1384.21 536.702C1384.21 536.702 1382.29 540.005 1381.65 539.792C1381.01 539.579 1377.6 538.62 1377.6 538.62L1374.35 540.272L1371.58 538.087L1368.01 537.182C1368.01 537.182 1365.35 536.755 1365.29 536.169C1365.24 535.583 1364.92 533.186 1364.92 533.186Z" fill="#E7EAEB"/>
</svg>
